<svg width="10" height="13" viewBox="0 0 10 13" fill="none" xmlns="http://www.w3.org/2000/svg">
<path id="Combined Shape" fill-rule="evenodd" clip-rule="evenodd" d="M4.3001 10.4101V0.900012C4.3001 0.513413 4.6135 0.200012 5.0001 0.200012C5.3867 0.200012 5.7001 0.513413 5.7001 0.900012V10.4101L8.70512 7.40504C8.97849 7.13167 9.42171 7.13167 9.69507 7.40504C9.96844 7.6784 9.96844 8.12162 9.69507 8.39499L5.49507 12.595C5.42796 12.6621 5.35061 12.7127 5.26805 12.7469C5.18739 12.7803 5.09912 12.7991 5.00656 12.8C5.00441 12.8 5.00225 12.8 5.0001 12.8C4.99794 12.8 4.99579 12.8 4.99364 12.8C4.81665 12.7984 4.64016 12.73 4.50512 12.595L0.305123 8.39499C0.0317559 8.12162 0.0317559 7.6784 0.305123 7.40504C0.57849 7.13167 1.02171 7.13167 1.29507 7.40504L4.3001 10.4101Z" fill="#2A5F84"/>
</svg>
