<svg width="16" height="223" viewBox="0 0 16 223" fill="none" xmlns="http://www.w3.org/2000/svg">
<path d="M8 0.127441V178.557V221.425" stroke="#CD9D52"/>
<path fill-rule="evenodd" clip-rule="evenodd" d="M8 76C11.866 76 15 72.866 15 69C15 65.134 11.866 62 8 62C4.13401 62 1 65.134 1 69C1 72.866 4.13401 76 8 76Z" stroke="#CD9D52"/>
<path fill-rule="evenodd" clip-rule="evenodd" d="M8 109C11.866 109 15 105.866 15 102C15 98.134 11.866 95 8 95C4.13401 95 1 98.134 1 102C1 105.866 4.13401 109 8 109Z" stroke="#CD9D52"/>
<path fill-rule="evenodd" clip-rule="evenodd" d="M8 142C11.866 142 15 138.866 15 135C15 131.134 11.866 128 8 128C4.13401 128 1 131.134 1 135C1 138.866 4.13401 142 8 142Z" stroke="#CD9D52"/>
<path fill-rule="evenodd" clip-rule="evenodd" d="M8 179C11.866 179 15 175.866 15 172C15 168.134 11.866 165 8 165C4.13401 165 1 168.134 1 172C1 175.866 4.13401 179 8 179Z" stroke="#CD9D52"/>
</svg>
