<svg width="16" height="328" viewBox="0 0 16 328" fill="none" xmlns="http://www.w3.org/2000/svg">
<path d="M8 0.127441V178.557V221.425V326.472" stroke="#CD9D52"/>
<path fill-rule="evenodd" clip-rule="evenodd" d="M8 74C11.866 74 15 70.866 15 67C15 63.134 11.866 60 8 60C4.13401 60 1 63.134 1 67C1 70.866 4.13401 74 8 74Z" stroke="#CD9D52"/>
<path fill-rule="evenodd" clip-rule="evenodd" d="M8 108C11.866 108 15 104.866 15 101C15 97.134 11.866 94 8 94C4.13401 94 1 97.134 1 101C1 104.866 4.13401 108 8 108Z" stroke="#CD9D52"/>
<path fill-rule="evenodd" clip-rule="evenodd" d="M8 143C11.866 143 15 139.866 15 136C15 132.134 11.866 129 8 129C4.13401 129 1 132.134 1 136C1 139.866 4.13401 143 8 143Z" stroke="#CD9D52"/>
<path fill-rule="evenodd" clip-rule="evenodd" d="M8 177C11.866 177 15 173.866 15 170C15 166.134 11.866 163 8 163C4.13401 163 1 166.134 1 170C1 173.866 4.13401 177 8 177Z" stroke="#CD9D52"/>
<path fill-rule="evenodd" clip-rule="evenodd" d="M8 209C11.866 209 15 205.866 15 202C15 198.134 11.866 195 8 195C4.13401 195 1 198.134 1 202C1 205.866 4.13401 209 8 209Z" stroke="#CD9D52"/>
<path fill-rule="evenodd" clip-rule="evenodd" d="M8 243C11.866 243 15 239.866 15 236C15 232.134 11.866 229 8 229C4.13401 229 1 232.134 1 236C1 239.866 4.13401 243 8 243Z" stroke="#CD9D52"/>
<path fill-rule="evenodd" clip-rule="evenodd" d="M8 278C11.866 278 15 274.866 15 271C15 267.134 11.866 264 8 264C4.13401 264 1 267.134 1 271C1 274.866 4.13401 278 8 278Z" stroke="#CD9D52"/>
</svg>
