<svg width="68" height="68" viewBox="0 0 68 68" fill="none" xmlns="http://www.w3.org/2000/svg">
<path fill-rule="evenodd" clip-rule="evenodd" d="M27.2929 35.2929C27.6834 34.9024 28.3166 34.9024 28.7071 35.2929L33 39.5858V26C33 25.4477 33.4477 25 34 25C34.5523 25 35 25.4477 35 26V39.5858L39.2929 35.2929C39.6834 34.9024 40.3166 34.9024 40.7071 35.2929C41.0976 35.6834 41.0976 36.3166 40.7071 36.7071L34.7071 42.7071C34.524 42.8902 34.2877 42.9874 34.048 42.9989C34.032 42.9996 34.016 43 34 43M33.6172 42.9241C33.4993 42.8753 33.3888 42.803 33.2929 42.7071L27.2929 36.7071C26.9024 36.3166 26.9024 35.6834 27.2929 35.2929M33.6172 42.9241C33.7324 42.9719 33.8585 42.9988 33.9908 43L33.6172 42.9241Z" fill="#E9E9E9"/>
<path fill-rule="evenodd" clip-rule="evenodd" d="M1 34C1 52.2254 15.7746 67 34 67C52.2254 67 67 52.2254 67 34C67 15.7746 52.2254 1 34 1C15.7746 1 1 15.7746 1 34Z" stroke="#E9E9E9" stroke-width="2"/>
</svg>
