<svg width="1283" height="563" viewBox="0 0 1283 563" fill="none" xmlns="http://www.w3.org/2000/svg">
<path d="M0 481.1H1283" stroke="#3F3F3F" stroke-width="2"/>
<path opacity="0.519392" d="M23 391.1H1283" stroke="#979797"/>
<path opacity="0.519392" d="M23 301.1H1283" stroke="#979797"/>
<path opacity="0.519392" d="M23 211.1H1283" stroke="#979797"/>
<path opacity="0.519392" d="M23 121.1H1283" stroke="#979797"/>
<path opacity="0.519392" d="M23 31.1001H1283" stroke="#979797"/>
<path opacity="0.519392" d="M23 0.518066L23 521.1" stroke="#3F3F3F" stroke-width="2"/>
<path d="M43.158 515.314V517.1H34.646L39.035 511.78C39.6937 510.982 40.2003 510.323 40.555 509.804C40.9983 509.145 41.22 508.537 41.22 507.98C41.22 507.41 41.0363 506.929 40.669 506.536C40.3017 506.131 39.7823 505.928 39.111 505.928C38.4397 505.928 37.9077 506.15 37.515 506.593C37.1223 507.036 36.907 507.581 36.869 508.227H35.007C35.0577 507.112 35.4123 506.188 36.071 505.453C36.8057 504.63 37.7937 504.218 39.035 504.218C40.3143 504.218 41.315 504.592 42.037 505.339C42.759 506.086 43.12 506.986 43.12 508.037C43.12 508.911 42.816 509.798 42.208 510.697C41.8787 511.191 41.277 511.951 40.403 512.977L38.427 515.314H43.158ZM52.9738 515.941C52.1758 516.853 51.2195 517.309 50.1048 517.309C48.9902 517.309 48.0338 516.853 47.2358 515.941C46.1592 514.712 45.6208 512.99 45.6208 510.773C45.6208 508.544 46.1592 506.815 47.2358 505.586C48.0338 504.674 48.9902 504.218 50.1048 504.218C51.2195 504.218 52.1758 504.674 52.9738 505.586C54.0505 506.815 54.5888 508.544 54.5888 510.773C54.5888 512.99 54.0505 514.712 52.9738 515.941ZM51.8148 506.973C51.3588 506.276 50.7888 505.928 50.1048 505.928C49.4208 505.928 48.8508 506.276 48.3948 506.973C47.8122 507.834 47.5208 509.095 47.5208 510.754C47.5208 512.401 47.8122 513.667 48.3948 514.554C48.8508 515.251 49.4208 515.599 50.1048 515.599C50.7888 515.599 51.3588 515.251 51.8148 514.554C52.3975 513.667 52.6888 512.401 52.6888 510.754C52.6888 509.095 52.3975 507.834 51.8148 506.973ZM63.6827 515.941C62.8847 516.853 61.9283 517.309 60.8137 517.309C59.699 517.309 58.7427 516.853 57.9447 515.941C56.868 514.712 56.3297 512.99 56.3297 510.773C56.3297 508.544 56.868 506.815 57.9447 505.586C58.7427 504.674 59.699 504.218 60.8137 504.218C61.9283 504.218 62.8847 504.674 63.6827 505.586C64.7593 506.815 65.2977 508.544 65.2977 510.773C65.2977 512.99 64.7593 514.712 63.6827 515.941ZM62.5237 506.973C62.0677 506.276 61.4977 505.928 60.8137 505.928C60.1297 505.928 59.5597 506.276 59.1037 506.973C58.521 507.834 58.2297 509.095 58.2297 510.754C58.2297 512.401 58.521 513.667 59.1037 514.554C59.5597 515.251 60.1297 515.599 60.8137 515.599C61.4977 515.599 62.0677 515.251 62.5237 514.554C63.1063 513.667 63.3977 512.401 63.3977 510.754C63.3977 509.095 63.1063 507.834 62.5237 506.973ZM70.3065 517.537L68.9005 516.492L71.8835 512.673C71.6682 512.724 71.4402 512.749 71.1995 512.749C70.0088 512.749 69.0208 512.356 68.2355 511.571C67.4628 510.798 67.0765 509.836 67.0765 508.683C67.0765 507.429 67.4945 506.371 68.3305 505.51C69.1665 504.649 70.2558 504.218 71.5985 504.218C72.9665 504.218 74.0558 504.636 74.8665 505.472C75.6012 506.232 75.9685 507.188 75.9685 508.341C75.9685 509.164 75.7658 509.969 75.3605 510.754C75.2718 510.931 75.1768 511.102 75.0755 511.267C74.9868 511.419 74.8792 511.584 74.7525 511.761C74.6385 511.938 74.5498 512.071 74.4865 512.16C74.4232 512.236 74.3028 512.388 74.1255 512.616C73.9608 512.831 73.8595 512.964 73.8215 513.015L70.3065 517.537ZM71.5035 511.096C72.2255 511.096 72.8335 510.843 73.3275 510.336C73.8215 509.817 74.0685 509.19 74.0685 508.455C74.0685 507.72 73.8215 507.119 73.3275 506.65C72.8208 506.169 72.2192 505.928 71.5225 505.928C70.8258 505.928 70.2242 506.169 69.7175 506.65C69.2235 507.144 68.9765 507.765 68.9765 508.512C68.9765 509.272 69.2235 509.899 69.7175 510.393C70.2115 510.862 70.8068 511.096 71.5035 511.096ZM151.162 515.314V517.1H142.65L147.039 511.78C147.698 510.982 148.204 510.323 148.559 509.804C149.002 509.145 149.224 508.537 149.224 507.98C149.224 507.41 149.04 506.929 148.673 506.536C148.306 506.131 147.786 505.928 147.115 505.928C146.444 505.928 145.912 506.15 145.519 506.593C145.126 507.036 144.911 507.581 144.873 508.227H143.011C143.062 507.112 143.416 506.188 144.075 505.453C144.81 504.63 145.798 504.218 147.039 504.218C148.318 504.218 149.319 504.592 150.041 505.339C150.763 506.086 151.124 506.986 151.124 508.037C151.124 508.911 150.82 509.798 150.212 510.697C149.883 511.191 149.281 511.951 148.407 512.977L146.431 515.314H151.162ZM160.978 515.941C160.18 516.853 159.223 517.309 158.109 517.309C156.994 517.309 156.038 516.853 155.24 515.941C154.163 514.712 153.625 512.99 153.625 510.773C153.625 508.544 154.163 506.815 155.24 505.586C156.038 504.674 156.994 504.218 158.109 504.218C159.223 504.218 160.18 504.674 160.978 505.586C162.054 506.815 162.593 508.544 162.593 510.773C162.593 512.99 162.054 514.712 160.978 515.941ZM159.819 506.973C159.363 506.276 158.793 505.928 158.109 505.928C157.425 505.928 156.855 506.276 156.399 506.973C155.816 507.834 155.525 509.095 155.525 510.754C155.525 512.401 155.816 513.667 156.399 514.554C156.855 515.251 157.425 515.599 158.109 515.599C158.793 515.599 159.363 515.251 159.819 514.554C160.401 513.667 160.693 512.401 160.693 510.754C160.693 509.095 160.401 507.834 159.819 506.973ZM166.52 517.1V506.213H164.316L165.38 504.427H168.458V517.1H166.52ZM179.315 515.941C178.517 516.853 177.561 517.309 176.446 517.309C175.332 517.309 174.375 516.853 173.577 515.941C172.501 514.712 171.962 512.99 171.962 510.773C171.962 508.544 172.501 506.815 173.577 505.586C174.375 504.674 175.332 504.218 176.446 504.218C177.561 504.218 178.517 504.674 179.315 505.586C180.392 506.815 180.93 508.544 180.93 510.773C180.93 512.99 180.392 514.712 179.315 515.941ZM178.156 506.973C177.7 506.276 177.13 505.928 176.446 505.928C175.762 505.928 175.192 506.276 174.736 506.973C174.154 507.834 173.862 509.095 173.862 510.754C173.862 512.401 174.154 513.667 174.736 514.554C175.192 515.251 175.762 515.599 176.446 515.599C177.13 515.599 177.7 515.251 178.156 514.554C178.739 513.667 179.03 512.401 179.03 510.754C179.03 509.095 178.739 507.834 178.156 506.973ZM256.086 515.314V517.1H247.574L251.963 511.78C252.621 510.982 253.128 510.323 253.483 509.804C253.926 509.145 254.148 508.537 254.148 507.98C254.148 507.41 253.964 506.929 253.597 506.536C253.229 506.131 252.71 505.928 252.039 505.928C251.367 505.928 250.835 506.15 250.443 506.593C250.05 507.036 249.835 507.581 249.797 508.227H247.935C247.985 507.112 248.34 506.188 248.999 505.453C249.733 504.63 250.721 504.218 251.963 504.218C253.242 504.218 254.243 504.592 254.965 505.339C255.687 506.086 256.048 506.986 256.048 508.037C256.048 508.911 255.744 509.798 255.136 510.697C254.806 511.191 254.205 511.951 253.331 512.977L251.355 515.314H256.086ZM265.901 515.941C265.103 516.853 264.147 517.309 263.032 517.309C261.918 517.309 260.961 516.853 260.163 515.941C259.087 514.712 258.548 512.99 258.548 510.773C258.548 508.544 259.087 506.815 260.163 505.586C260.961 504.674 261.918 504.218 263.032 504.218C264.147 504.218 265.103 504.674 265.901 505.586C266.978 506.815 267.516 508.544 267.516 510.773C267.516 512.99 266.978 514.712 265.901 515.941ZM264.742 506.973C264.286 506.276 263.716 505.928 263.032 505.928C262.348 505.928 261.778 506.276 261.322 506.973C260.74 507.834 260.448 509.095 260.448 510.754C260.448 512.401 260.74 513.667 261.322 514.554C261.778 515.251 262.348 515.599 263.032 515.599C263.716 515.599 264.286 515.251 264.742 514.554C265.325 513.667 265.616 512.401 265.616 510.754C265.616 509.095 265.325 507.834 264.742 506.973ZM271.444 517.1V506.213H269.24L270.304 504.427H273.382V517.1H271.444ZM278.126 517.1V506.213H275.922L276.986 504.427H280.064V517.1H278.126ZM358.412 515.314V517.1H349.9L354.289 511.78C354.947 510.982 355.454 510.323 355.809 509.804C356.252 509.145 356.474 508.537 356.474 507.98C356.474 507.41 356.29 506.929 355.923 506.536C355.555 506.131 355.036 505.928 354.365 505.928C353.693 505.928 353.161 506.15 352.769 506.593C352.376 507.036 352.161 507.581 352.123 508.227H350.261C350.311 507.112 350.666 506.188 351.325 505.453C352.059 504.63 353.047 504.218 354.289 504.218C355.568 504.218 356.569 504.592 357.291 505.339C358.013 506.086 358.374 506.986 358.374 508.037C358.374 508.911 358.07 509.798 357.462 510.697C357.132 511.191 356.531 511.951 355.657 512.977L353.681 515.314H358.412ZM368.228 515.941C367.43 516.853 366.473 517.309 365.359 517.309C364.244 517.309 363.288 516.853 362.49 515.941C361.413 514.712 360.875 512.99 360.875 510.773C360.875 508.544 361.413 506.815 362.49 505.586C363.288 504.674 364.244 504.218 365.359 504.218C366.473 504.218 367.43 504.674 368.228 505.586C369.304 506.815 369.843 508.544 369.843 510.773C369.843 512.99 369.304 514.712 368.228 515.941ZM367.069 506.973C366.613 506.276 366.043 505.928 365.359 505.928C364.675 505.928 364.105 506.276 363.649 506.973C363.066 507.834 362.775 509.095 362.775 510.754C362.775 512.401 363.066 513.667 363.649 514.554C364.105 515.251 364.675 515.599 365.359 515.599C366.043 515.599 366.613 515.251 367.069 514.554C367.651 513.667 367.943 512.401 367.943 510.754C367.943 509.095 367.651 507.834 367.069 506.973ZM373.77 517.1V506.213H371.566L372.63 504.427H375.708V517.1H373.77ZM386.512 515.314V517.1H378L382.389 511.78C383.048 510.982 383.554 510.323 383.909 509.804C384.352 509.145 384.574 508.537 384.574 507.98C384.574 507.41 384.39 506.929 384.023 506.536C383.656 506.131 383.136 505.928 382.465 505.928C381.794 505.928 381.262 506.15 380.869 506.593C380.476 507.036 380.261 507.581 380.223 508.227H378.361C378.412 507.112 378.766 506.188 379.425 505.453C380.16 504.63 381.148 504.218 382.389 504.218C383.668 504.218 384.669 504.592 385.391 505.339C386.113 506.086 386.474 506.986 386.474 508.037C386.474 508.911 386.17 509.798 385.562 510.697C385.233 511.191 384.631 511.951 383.757 512.977L381.781 515.314H386.512ZM462.389 515.314V517.1H453.877L458.266 511.78C458.925 510.982 459.432 510.323 459.786 509.804C460.23 509.145 460.451 508.537 460.451 507.98C460.451 507.41 460.268 506.929 459.9 506.536C459.533 506.131 459.014 505.928 458.342 505.928C457.671 505.928 457.139 506.15 456.746 506.593C456.354 507.036 456.138 507.581 456.1 508.227H454.238C454.289 507.112 454.644 506.188 455.302 505.453C456.037 504.63 457.025 504.218 458.266 504.218C459.546 504.218 460.546 504.592 461.268 505.339C461.99 506.086 462.351 506.986 462.351 508.037C462.351 508.911 462.047 509.798 461.439 510.697C461.11 511.191 460.508 511.951 459.634 512.977L457.658 515.314H462.389ZM472.205 515.941C471.407 516.853 470.451 517.309 469.336 517.309C468.221 517.309 467.265 516.853 466.467 515.941C465.39 514.712 464.852 512.99 464.852 510.773C464.852 508.544 465.39 506.815 466.467 505.586C467.265 504.674 468.221 504.218 469.336 504.218C470.451 504.218 471.407 504.674 472.205 505.586C473.282 506.815 473.82 508.544 473.82 510.773C473.82 512.99 473.282 514.712 472.205 515.941ZM471.046 506.973C470.59 506.276 470.02 505.928 469.336 505.928C468.652 505.928 468.082 506.276 467.626 506.973C467.043 507.834 466.752 509.095 466.752 510.754C466.752 512.401 467.043 513.667 467.626 514.554C468.082 515.251 468.652 515.599 469.336 515.599C470.02 515.599 470.59 515.251 471.046 514.554C471.629 513.667 471.92 512.401 471.92 510.754C471.92 509.095 471.629 507.834 471.046 506.973ZM477.748 517.1V506.213H475.544L476.608 504.427H479.686V517.1H477.748ZM484.968 507.657H483.106C483.157 506.656 483.518 505.833 484.189 505.187C484.86 504.541 485.785 504.218 486.963 504.218C488.116 504.218 489.028 504.566 489.699 505.263C490.307 505.884 490.611 506.688 490.611 507.676C490.611 508.309 490.465 508.867 490.174 509.348C489.883 509.804 489.503 510.159 489.034 510.412C489.566 510.615 489.984 510.95 490.288 511.419C490.643 511.938 490.82 512.591 490.82 513.376C490.82 514.541 490.459 515.485 489.737 516.207C489.002 516.942 487.97 517.309 486.64 517.309C485.411 517.309 484.468 516.954 483.809 516.245C483.188 515.586 482.827 514.725 482.726 513.661H484.588C484.689 514.231 484.917 514.687 485.272 515.029C485.677 515.409 486.19 515.599 486.811 515.599C487.406 515.599 487.9 515.422 488.293 515.067C488.736 514.649 488.958 514.054 488.958 513.281C488.958 512.648 488.768 512.147 488.388 511.78C487.995 511.4 487.451 511.21 486.754 511.21H486.374V509.576H486.64C487.349 509.576 487.888 509.392 488.255 509.025C488.584 508.696 488.749 508.246 488.749 507.676C488.749 507.157 488.584 506.732 488.255 506.403C487.926 506.086 487.476 505.928 486.906 505.928C486.298 505.928 485.829 506.099 485.5 506.441C485.373 506.58 485.266 506.751 485.177 506.954C485.088 507.144 485.031 507.296 485.006 507.41C484.981 507.524 484.968 507.606 484.968 507.657ZM566.849 515.314V517.1H558.337L562.726 511.78C563.385 510.982 563.892 510.323 564.246 509.804C564.69 509.145 564.911 508.537 564.911 507.98C564.911 507.41 564.728 506.929 564.36 506.536C563.993 506.131 563.474 505.928 562.802 505.928C562.131 505.928 561.599 506.15 561.206 506.593C560.814 507.036 560.598 507.581 560.56 508.227H558.698C558.749 507.112 559.104 506.188 559.762 505.453C560.497 504.63 561.485 504.218 562.726 504.218C564.006 504.218 565.006 504.592 565.728 505.339C566.45 506.086 566.811 506.986 566.811 508.037C566.811 508.911 566.507 509.798 565.899 510.697C565.57 511.191 564.968 511.951 564.094 512.977L562.118 515.314H566.849ZM576.665 515.941C575.867 516.853 574.911 517.309 573.796 517.309C572.681 517.309 571.725 516.853 570.927 515.941C569.85 514.712 569.312 512.99 569.312 510.773C569.312 508.544 569.85 506.815 570.927 505.586C571.725 504.674 572.681 504.218 573.796 504.218C574.911 504.218 575.867 504.674 576.665 505.586C577.742 506.815 578.28 508.544 578.28 510.773C578.28 512.99 577.742 514.712 576.665 515.941ZM575.506 506.973C575.05 506.276 574.48 505.928 573.796 505.928C573.112 505.928 572.542 506.276 572.086 506.973C571.503 507.834 571.212 509.095 571.212 510.754C571.212 512.401 571.503 513.667 572.086 514.554C572.542 515.251 573.112 515.599 573.796 515.599C574.48 515.599 575.05 515.251 575.506 514.554C576.089 513.667 576.38 512.401 576.38 510.754C576.38 509.095 576.089 507.834 575.506 506.973ZM582.208 517.1V506.213H580.004L581.068 504.427H584.146V517.1H582.208ZM593.821 503.496V512.92H595.189V514.706H593.821V517.1H591.959V514.706H585.689L593.821 503.496ZM589.071 512.958H591.959V508.873L589.071 512.958ZM670.344 515.314V517.1H661.832L666.221 511.78C666.88 510.982 667.387 510.323 667.741 509.804C668.185 509.145 668.406 508.537 668.406 507.98C668.406 507.41 668.223 506.929 667.855 506.536C667.488 506.131 666.969 505.928 666.297 505.928C665.626 505.928 665.094 506.15 664.701 506.593C664.309 507.036 664.093 507.581 664.055 508.227H662.193C662.244 507.112 662.599 506.188 663.257 505.453C663.992 504.63 664.98 504.218 666.221 504.218C667.501 504.218 668.501 504.592 669.223 505.339C669.945 506.086 670.306 506.986 670.306 508.037C670.306 508.911 670.002 509.798 669.394 510.697C669.065 511.191 668.463 511.951 667.589 512.977L665.613 515.314H670.344ZM680.16 515.941C679.362 516.853 678.406 517.309 677.291 517.309C676.176 517.309 675.22 516.853 674.422 515.941C673.345 514.712 672.807 512.99 672.807 510.773C672.807 508.544 673.345 506.815 674.422 505.586C675.22 504.674 676.176 504.218 677.291 504.218C678.406 504.218 679.362 504.674 680.16 505.586C681.237 506.815 681.775 508.544 681.775 510.773C681.775 512.99 681.237 514.712 680.16 515.941ZM679.001 506.973C678.545 506.276 677.975 505.928 677.291 505.928C676.607 505.928 676.037 506.276 675.581 506.973C674.998 507.834 674.707 509.095 674.707 510.754C674.707 512.401 674.998 513.667 675.581 514.554C676.037 515.251 676.607 515.599 677.291 515.599C677.975 515.599 678.545 515.251 679.001 514.554C679.584 513.667 679.875 512.401 679.875 510.754C679.875 509.095 679.584 507.834 679.001 506.973ZM685.703 517.1V506.213H683.499L684.563 504.427H687.641V517.1H685.703ZM698.572 504.427V506.213H694.658L694.031 508.322C694.284 508.297 694.481 508.284 694.62 508.284C695.811 508.284 696.786 508.658 697.546 509.405C698.369 510.203 698.781 511.286 698.781 512.654C698.781 514.035 698.35 515.156 697.489 516.017C696.615 516.878 695.443 517.309 693.974 517.309C693.011 517.309 692.201 517.119 691.542 516.739C690.934 516.372 690.434 515.884 690.041 515.276L691.504 514.06C691.681 514.491 692.004 514.858 692.473 515.162C692.904 515.453 693.455 515.599 694.126 515.599C694.924 515.599 695.57 515.365 696.064 514.896C696.609 514.351 696.881 513.636 696.881 512.749C696.881 511.862 696.628 511.178 696.121 510.697C695.627 510.228 694.937 509.994 694.05 509.994C693.543 509.994 693.049 510.083 692.568 510.26C692.137 510.425 691.764 510.615 691.447 510.83L693.328 504.427H698.572ZM774.544 515.314V517.1H766.032L770.421 511.78C771.08 510.982 771.587 510.323 771.941 509.804C772.385 509.145 772.606 508.537 772.606 507.98C772.606 507.41 772.423 506.929 772.055 506.536C771.688 506.131 771.169 505.928 770.497 505.928C769.826 505.928 769.294 506.15 768.901 506.593C768.509 507.036 768.293 507.581 768.255 508.227H766.393C766.444 507.112 766.799 506.188 767.457 505.453C768.192 504.63 769.18 504.218 770.421 504.218C771.701 504.218 772.701 504.592 773.423 505.339C774.145 506.086 774.506 506.986 774.506 508.037C774.506 508.911 774.202 509.798 773.594 510.697C773.265 511.191 772.663 511.951 771.789 512.977L769.813 515.314H774.544ZM784.36 515.941C783.562 516.853 782.606 517.309 781.491 517.309C780.377 517.309 779.42 516.853 778.622 515.941C777.546 514.712 777.007 512.99 777.007 510.773C777.007 508.544 777.546 506.815 778.622 505.586C779.42 504.674 780.377 504.218 781.491 504.218C782.606 504.218 783.562 504.674 784.36 505.586C785.437 506.815 785.975 508.544 785.975 510.773C785.975 512.99 785.437 514.712 784.36 515.941ZM783.201 506.973C782.745 506.276 782.175 505.928 781.491 505.928C780.807 505.928 780.237 506.276 779.781 506.973C779.199 507.834 778.907 509.095 778.907 510.754C778.907 512.401 779.199 513.667 779.781 514.554C780.237 515.251 780.807 515.599 781.491 515.599C782.175 515.599 782.745 515.251 783.201 514.554C783.784 513.667 784.075 512.401 784.075 510.754C784.075 509.095 783.784 507.834 783.201 506.973ZM789.903 517.1V506.213H787.699L788.763 504.427H791.841V517.1H789.903ZM800.34 503.99L801.746 505.035L798.725 508.854C798.978 508.803 799.244 508.778 799.523 508.778C800.713 508.778 801.689 509.171 802.449 509.956C803.196 510.741 803.57 511.729 803.57 512.92C803.57 514.225 803.152 515.289 802.316 516.112C801.505 516.91 800.416 517.309 799.048 517.309C797.667 517.309 796.578 516.897 795.78 516.074C795.045 515.301 794.678 514.345 794.678 513.205C794.678 512.369 794.88 511.558 795.286 510.773C795.374 510.596 795.463 510.431 795.552 510.279C795.653 510.114 795.761 509.943 795.875 509.766C796.001 509.589 796.096 509.462 796.16 509.386C796.223 509.297 796.337 509.145 796.502 508.93C796.679 508.702 796.787 508.563 796.825 508.512L800.34 503.99ZM800.929 511.134C800.46 510.665 799.865 510.431 799.143 510.431C798.421 510.431 797.813 510.665 797.319 511.134C796.825 511.603 796.578 512.23 796.578 513.015C796.578 513.8 796.825 514.427 797.319 514.896C797.813 515.365 798.421 515.599 799.143 515.599C799.865 515.599 800.46 515.365 800.929 514.896C801.423 514.402 801.67 513.775 801.67 513.015C801.67 512.255 801.423 511.628 800.929 511.134ZM878.763 515.314V517.1H870.251L874.64 511.78C875.299 510.982 875.805 510.323 876.16 509.804C876.603 509.145 876.825 508.537 876.825 507.98C876.825 507.41 876.641 506.929 876.274 506.536C875.907 506.131 875.387 505.928 874.716 505.928C874.045 505.928 873.513 506.15 873.12 506.593C872.727 507.036 872.512 507.581 872.474 508.227H870.612C870.663 507.112 871.017 506.188 871.676 505.453C872.411 504.63 873.399 504.218 874.64 504.218C875.919 504.218 876.92 504.592 877.642 505.339C878.364 506.086 878.725 506.986 878.725 508.037C878.725 508.911 878.421 509.798 877.813 510.697C877.484 511.191 876.882 511.951 876.008 512.977L874.032 515.314H878.763ZM888.579 515.941C887.781 516.853 886.825 517.309 885.71 517.309C884.595 517.309 883.639 516.853 882.841 515.941C881.764 514.712 881.226 512.99 881.226 510.773C881.226 508.544 881.764 506.815 882.841 505.586C883.639 504.674 884.595 504.218 885.71 504.218C886.825 504.218 887.781 504.674 888.579 505.586C889.656 506.815 890.194 508.544 890.194 510.773C890.194 512.99 889.656 514.712 888.579 515.941ZM887.42 506.973C886.964 506.276 886.394 505.928 885.71 505.928C885.026 505.928 884.456 506.276 884 506.973C883.417 507.834 883.126 509.095 883.126 510.754C883.126 512.401 883.417 513.667 884 514.554C884.456 515.251 885.026 515.599 885.71 515.599C886.394 515.599 886.964 515.251 887.42 514.554C888.003 513.667 888.294 512.401 888.294 510.754C888.294 509.095 888.003 507.834 887.42 506.973ZM894.121 517.1V506.213H891.917L892.981 504.427H896.059V517.1H894.121ZM898.414 516.587L904.722 506.213H898.49V504.427H907.914L899.934 517.537L898.414 516.587ZM982.499 515.314V517.1H973.987L978.376 511.78C979.035 510.982 979.542 510.323 979.896 509.804C980.34 509.145 980.561 508.537 980.561 507.98C980.561 507.41 980.378 506.929 980.01 506.536C979.643 506.131 979.124 505.928 978.452 505.928C977.781 505.928 977.249 506.15 976.856 506.593C976.464 507.036 976.248 507.581 976.21 508.227H974.348C974.399 507.112 974.754 506.188 975.412 505.453C976.147 504.63 977.135 504.218 978.376 504.218C979.656 504.218 980.656 504.592 981.378 505.339C982.1 506.086 982.461 506.986 982.461 508.037C982.461 508.911 982.157 509.798 981.549 510.697C981.22 511.191 980.618 511.951 979.744 512.977L977.768 515.314H982.499ZM992.315 515.941C991.517 516.853 990.561 517.309 989.446 517.309C988.332 517.309 987.375 516.853 986.577 515.941C985.501 514.712 984.962 512.99 984.962 510.773C984.962 508.544 985.501 506.815 986.577 505.586C987.375 504.674 988.332 504.218 989.446 504.218C990.561 504.218 991.517 504.674 992.315 505.586C993.392 506.815 993.93 508.544 993.93 510.773C993.93 512.99 993.392 514.712 992.315 515.941ZM991.156 506.973C990.7 506.276 990.13 505.928 989.446 505.928C988.762 505.928 988.192 506.276 987.736 506.973C987.154 507.834 986.862 509.095 986.862 510.754C986.862 512.401 987.154 513.667 987.736 514.554C988.192 515.251 988.762 515.599 989.446 515.599C990.13 515.599 990.7 515.251 991.156 514.554C991.739 513.667 992.03 512.401 992.03 510.754C992.03 509.095 991.739 507.834 991.156 506.973ZM997.858 517.1V506.213H995.654L996.718 504.427H999.796V517.1H997.858ZM1008.58 511.932C1008.19 511.539 1007.69 511.343 1007.08 511.343C1006.47 511.343 1005.97 511.539 1005.58 511.932C1005.19 512.325 1004.99 512.838 1004.99 513.471C1004.99 514.041 1005.18 514.535 1005.56 514.953C1005.94 515.384 1006.45 515.599 1007.08 515.599C1007.71 515.599 1008.22 515.384 1008.6 514.953C1008.98 514.535 1009.17 514.041 1009.17 513.471C1009.17 512.838 1008.97 512.325 1008.58 511.932ZM1008.47 506.441C1008.1 506.099 1007.64 505.928 1007.08 505.928C1006.52 505.928 1006.06 506.099 1005.69 506.441C1005.34 506.796 1005.16 507.264 1005.16 507.847C1005.16 508.392 1005.33 508.835 1005.67 509.177C1006.03 509.557 1006.5 509.747 1007.08 509.747C1007.66 509.747 1008.13 509.557 1008.48 509.177C1008.83 508.835 1009 508.392 1009 507.847C1009 507.264 1008.82 506.796 1008.47 506.441ZM1009.17 510.507C1009.74 510.748 1010.18 511.09 1010.5 511.533C1010.88 512.04 1011.07 512.673 1011.07 513.433C1011.07 514.535 1010.73 515.434 1010.06 516.131C1009.33 516.916 1008.33 517.309 1007.08 517.309C1005.82 517.309 1004.83 516.916 1004.1 516.131C1003.42 515.434 1003.09 514.535 1003.09 513.433C1003.09 512.673 1003.28 512.04 1003.66 511.533C1003.98 511.09 1004.42 510.748 1004.99 510.507C1004.53 510.317 1004.16 510 1003.87 509.557C1003.56 509.076 1003.41 508.499 1003.41 507.828C1003.41 506.751 1003.77 505.871 1004.48 505.187C1005.16 504.541 1006.03 504.218 1007.08 504.218C1008.13 504.218 1009 504.541 1009.68 505.187C1010.39 505.871 1010.75 506.751 1010.75 507.828C1010.75 508.499 1010.59 509.076 1010.29 509.557C1010 510 1009.62 510.317 1009.17 510.507ZM1086.72 515.314V517.1H1078.21L1082.6 511.78C1083.25 510.982 1083.76 510.323 1084.12 509.804C1084.56 509.145 1084.78 508.537 1084.78 507.98C1084.78 507.41 1084.6 506.929 1084.23 506.536C1083.86 506.131 1083.34 505.928 1082.67 505.928C1082 505.928 1081.47 506.15 1081.08 506.593C1080.68 507.036 1080.47 507.581 1080.43 508.227H1078.57C1078.62 507.112 1078.97 506.188 1079.63 505.453C1080.37 504.63 1081.35 504.218 1082.6 504.218C1083.87 504.218 1084.88 504.592 1085.6 505.339C1086.32 506.086 1086.68 506.986 1086.68 508.037C1086.68 508.911 1086.38 509.798 1085.77 510.697C1085.44 511.191 1084.84 511.951 1083.96 512.977L1081.99 515.314H1086.72ZM1096.53 515.941C1095.74 516.853 1094.78 517.309 1093.67 517.309C1092.55 517.309 1091.59 516.853 1090.8 515.941C1089.72 514.712 1089.18 512.99 1089.18 510.773C1089.18 508.544 1089.72 506.815 1090.8 505.586C1091.59 504.674 1092.55 504.218 1093.67 504.218C1094.78 504.218 1095.74 504.674 1096.53 505.586C1097.61 506.815 1098.15 508.544 1098.15 510.773C1098.15 512.99 1097.61 514.712 1096.53 515.941ZM1095.38 506.973C1094.92 506.276 1094.35 505.928 1093.67 505.928C1092.98 505.928 1092.41 506.276 1091.96 506.973C1091.37 507.834 1091.08 509.095 1091.08 510.754C1091.08 512.401 1091.37 513.667 1091.96 514.554C1092.41 515.251 1092.98 515.599 1093.67 515.599C1094.35 515.599 1094.92 515.251 1095.38 514.554C1095.96 513.667 1096.25 512.401 1096.25 510.754C1096.25 509.095 1095.96 507.834 1095.38 506.973ZM1102.08 517.1V506.213H1099.87L1100.94 504.427H1104.01V517.1H1102.08ZM1112.22 517.537L1110.81 516.492L1113.79 512.673C1113.58 512.724 1113.35 512.749 1113.11 512.749C1111.92 512.749 1110.93 512.356 1110.14 511.571C1109.37 510.798 1108.99 509.836 1108.99 508.683C1108.99 507.429 1109.4 506.371 1110.24 505.51C1111.08 504.649 1112.16 504.218 1113.51 504.218C1114.88 504.218 1115.96 504.636 1116.78 505.472C1117.51 506.232 1117.88 507.188 1117.88 508.341C1117.88 509.164 1117.67 509.969 1117.27 510.754C1117.18 510.931 1117.09 511.102 1116.98 511.267C1116.9 511.419 1116.79 511.584 1116.66 511.761C1116.55 511.938 1116.46 512.071 1116.4 512.16C1116.33 512.236 1116.21 512.388 1116.03 512.616C1115.87 512.831 1115.77 512.964 1115.73 513.015L1112.22 517.537ZM1113.41 511.096C1114.13 511.096 1114.74 510.843 1115.24 510.336C1115.73 509.817 1115.98 509.19 1115.98 508.455C1115.98 507.72 1115.73 507.119 1115.24 506.65C1114.73 506.169 1114.13 505.928 1113.43 505.928C1112.73 505.928 1112.13 506.169 1111.63 506.65C1111.13 507.144 1110.89 507.765 1110.89 508.512C1110.89 509.272 1111.13 509.899 1111.63 510.393C1112.12 510.862 1112.72 511.096 1113.41 511.096Z" fill="black"/>
<path d="M53.1032 481.095V485.826" stroke="#3F3F3F" stroke-width="2"/>
<path d="M175.103 481.095V485.826" stroke="#3F3F3F" stroke-width="2"/>
<path d="M291.103 481.095V485.826" stroke="#3F3F3F" stroke-width="2"/>
<path d="M412.103 481.095V485.826" stroke="#3F3F3F" stroke-width="2"/>
<path d="M532.103 481.095V485.826" stroke="#3F3F3F" stroke-width="2"/>
<path d="M652.103 481.095V485.826" stroke="#3F3F3F" stroke-width="2"/>
<path d="M772.103 481.095V485.826" stroke="#3F3F3F" stroke-width="2"/>
<path d="M891.103 481.095V485.826" stroke="#3F3F3F" stroke-width="2"/>
<path d="M1011.1 481.095V485.826" stroke="#3F3F3F" stroke-width="2"/>
<path d="M1129.1 481.095V485.826" stroke="#3F3F3F" stroke-width="2"/>
<path d="M1251.1 481.095V485.826" stroke="#3F3F3F" stroke-width="2"/>
<path d="M23 481.095L175.103 391.1L252.419 425.726L354.29 301.1L474.504 391.098L620 301.1L760.578 121.1L817.759 211.1L857.875 172.082L970.043 301.1L1185.56 31.1001L1208.04 8.61182" stroke="#2B6186" stroke-width="5"/>
<path opacity="0.0497814" d="M1185.56 111.1L1033.45 201.095L956.136 166.469L854.266 291.095L734.052 201.098L588.556 291.095L447.978 471.095L390.797 381.095L350.681 420.113L238.513 291.095L23 561.095" stroke="#CD9D52" stroke-width="3"/>
<path fill-rule="evenodd" clip-rule="evenodd" d="M354.5 310.1C359.194 310.1 363 306.295 363 301.6C363 296.906 359.194 293.1 354.5 293.1C349.806 293.1 346 296.906 346 301.6C346 306.295 349.806 310.1 354.5 310.1Z" fill="white" stroke="#2B6186" stroke-width="5"/>
<path fill-rule="evenodd" clip-rule="evenodd" d="M473.5 396.1C478.194 396.1 482 392.295 482 387.6C482 382.906 478.194 379.1 473.5 379.1C468.806 379.1 465 382.906 465 387.6C465 392.295 468.806 396.1 473.5 396.1Z" fill="white" stroke="#2B6186" stroke-width="5"/>
<path fill-rule="evenodd" clip-rule="evenodd" d="M759.603 130.1C764.298 130.1 768.103 126.295 768.103 121.6C768.103 116.906 764.298 113.1 759.603 113.1C754.909 113.1 751.103 116.906 751.103 121.6C751.103 126.295 754.909 130.1 759.603 130.1Z" fill="white" stroke="#2B6186" stroke-width="5"/>
<path fill-rule="evenodd" clip-rule="evenodd" d="M621.603 310.1C626.298 310.1 630.103 306.295 630.103 301.6C630.103 296.906 626.298 293.1 621.603 293.1C616.909 293.1 613.103 296.906 613.103 301.6C613.103 306.295 616.909 310.1 621.603 310.1Z" fill="white" stroke="#2B6186" stroke-width="5"/>
<path fill-rule="evenodd" clip-rule="evenodd" d="M253.5 435.1C258.194 435.1 262 431.295 262 426.6C262 421.906 258.194 418.1 253.5 418.1C248.806 418.1 245 421.906 245 426.6C245 431.295 248.806 435.1 253.5 435.1Z" fill="white" stroke="#2B6186" stroke-width="5"/>
<path fill-rule="evenodd" clip-rule="evenodd" d="M175.5 402.1C180.194 402.1 184 398.295 184 393.6C184 388.906 180.194 385.1 175.5 385.1C170.806 385.1 167 388.906 167 393.6C167 398.295 170.806 402.1 175.5 402.1Z" fill="white" stroke="#2B6186" stroke-width="5"/>
<path fill-rule="evenodd" clip-rule="evenodd" d="M818.603 218.1C823.298 218.1 827.103 214.295 827.103 209.6C827.103 204.906 823.298 201.1 818.603 201.1C813.909 201.1 810.103 204.906 810.103 209.6C810.103 214.295 813.909 218.1 818.603 218.1Z" fill="white" stroke="#2B6186" stroke-width="5"/>
<path fill-rule="evenodd" clip-rule="evenodd" d="M858.603 181.1C863.298 181.1 867.103 177.295 867.103 172.6C867.103 167.906 863.298 164.1 858.603 164.1C853.909 164.1 850.103 167.906 850.103 172.6C850.103 177.295 853.909 181.1 858.603 181.1Z" fill="white" stroke="#2B6186" stroke-width="5"/>
<path fill-rule="evenodd" clip-rule="evenodd" d="M969.603 307.1C974.298 307.1 978.103 303.295 978.103 298.6C978.103 293.906 974.298 290.1 969.603 290.1C964.909 290.1 961.103 293.906 961.103 298.6C961.103 303.295 964.909 307.1 969.603 307.1Z" fill="white" stroke="#2B6186" stroke-width="5"/>
<path fill-rule="evenodd" clip-rule="evenodd" d="M1184.56 39.1001C1189.25 39.1001 1193.06 35.2945 1193.06 30.6001C1193.06 25.9057 1189.25 22.1001 1184.56 22.1001C1179.86 22.1001 1176.06 25.9057 1176.06 30.6001C1176.06 35.2945 1179.86 39.1001 1184.56 39.1001Z" fill="white" stroke="#2B6186" stroke-width="5"/>
<g filter="url(#filter0_d)">
<path fill-rule="evenodd" clip-rule="evenodd" d="M352 222.354H446V267.354H362.047L352 273.354V222.354Z" fill="white"/>
</g>
<path d="M383.22 252.914V255.854H372.52L375.9 252.314C377.113 251.047 378.027 249.92 378.64 248.934C379.12 248.187 379.36 247.494 379.36 246.854C379.36 246.294 379.227 245.867 378.96 245.574C378.72 245.307 378.393 245.174 377.98 245.174C377.487 245.174 377.1 245.354 376.82 245.714C376.527 246.087 376.367 246.634 376.34 247.354H372.76C372.773 245.86 373.267 244.627 374.24 243.654C375.2 242.694 376.46 242.214 378.02 242.214C379.607 242.214 380.86 242.674 381.78 243.594C382.647 244.46 383.08 245.554 383.08 246.874C383.08 248.287 382.42 249.607 381.1 250.834L378.86 252.914H383.22ZM392.94 255.854V245.454H391.04V242.514H396.4V255.854H392.94ZM408.772 252.914V255.854H398.072L401.452 252.314C402.666 251.047 403.579 249.92 404.192 248.934C404.672 248.187 404.912 247.494 404.912 246.854C404.912 246.294 404.779 245.867 404.512 245.574C404.272 245.307 403.946 245.174 403.532 245.174C403.039 245.174 402.652 245.354 402.372 245.714C402.079 246.087 401.919 246.634 401.892 247.354H398.312C398.326 245.86 398.819 244.627 399.792 243.654C400.752 242.694 402.012 242.214 403.572 242.214C405.159 242.214 406.412 242.674 407.332 243.594C408.199 244.46 408.632 245.554 408.632 246.874C408.632 248.287 407.972 249.607 406.652 250.834L404.412 252.914H408.772ZM409.905 251.294H413.445C413.471 251.854 413.651 252.3 413.985 252.634C414.305 252.98 414.758 253.154 415.345 253.154C415.891 253.154 416.345 252.96 416.705 252.574C416.971 252.267 417.105 251.9 417.105 251.474C417.105 250.98 416.931 250.587 416.585 250.294C416.278 250.04 415.851 249.914 415.305 249.914C415.078 249.914 414.885 249.94 414.725 249.994V247.654C415.311 247.734 415.785 247.62 416.145 247.314C416.438 247.06 416.585 246.747 416.585 246.374C416.585 245.974 416.465 245.654 416.225 245.414C415.985 245.174 415.658 245.054 415.245 245.054C414.831 245.054 414.511 245.167 414.285 245.394C413.978 245.674 413.825 246.067 413.825 246.574H410.605C410.671 245.334 411.105 244.314 411.905 243.514C412.731 242.647 413.905 242.214 415.425 242.214C416.838 242.214 417.945 242.607 418.745 243.394C419.465 244.114 419.825 244.974 419.825 245.974C419.825 246.587 419.691 247.134 419.425 247.614C419.171 248.08 418.831 248.42 418.405 248.634C419.058 248.874 419.585 249.28 419.985 249.854C420.358 250.4 420.545 251.054 420.545 251.814C420.545 252.974 420.151 253.947 419.365 254.734C418.418 255.68 417.091 256.154 415.385 256.154C413.825 256.154 412.551 255.694 411.565 254.774C410.591 253.88 410.038 252.72 409.905 251.294Z" fill="#2B6186"/>
<defs>
<filter id="filter0_d" x="338" y="210.354" width="122" height="79" filterUnits="userSpaceOnUse" color-interpolation-filters="sRGB">
<feFlood flood-opacity="0" result="BackgroundImageFix"/>
<feColorMatrix in="SourceAlpha" type="matrix" values="0 0 0 0 0 0 0 0 0 0 0 0 0 0 0 0 0 0 127 0"/>
<feOffset dy="2"/>
<feGaussianBlur stdDeviation="7"/>
<feColorMatrix type="matrix" values="0 0 0 0 0 0 0 0 0 0 0 0 0 0 0 0 0 0 0.140516 0"/>
<feBlend mode="normal" in2="BackgroundImageFix" result="effect1_dropShadow"/>
<feBlend mode="normal" in="SourceGraphic" in2="effect1_dropShadow" result="shape"/>
</filter>
</defs>
</svg>
