<svg width="16" height="180" viewBox="0 0 16 180" fill="none" xmlns="http://www.w3.org/2000/svg">
<path d="M8 0.127441V178.557" stroke="#CD9D52"/>
<path fill-rule="evenodd" clip-rule="evenodd" d="M8 76C11.866 76 15 72.866 15 69C15 65.134 11.866 62 8 62C4.13401 62 1 65.134 1 69C1 72.866 4.13401 76 8 76Z" stroke="#CD9D52"/>
<path fill-rule="evenodd" clip-rule="evenodd" d="M8 111C11.866 111 15 107.866 15 104C15 100.134 11.866 97 8 97C4.13401 97 1 100.134 1 104C1 107.866 4.13401 111 8 111Z" stroke="#CD9D52"/>
<path fill-rule="evenodd" clip-rule="evenodd" d="M8 145C11.866 145 15 141.866 15 138C15 134.134 11.866 131 8 131C4.13401 131 1 134.134 1 138C1 141.866 4.13401 145 8 145Z" stroke="#CD9D52"/>
</svg>
