<svg width="1440" height="1269" viewBox="0 0 1440 1269" fill="none" xmlns="http://www.w3.org/2000/svg">
<path d="M720 845.289V8.5V1268.21" stroke="#2A5F83" stroke-dasharray="20"/>
<path d="M-57.7307 659.645L913.558 659.645L1497.73 659.645" stroke="#2A5F83" stroke-dasharray="20"/>
<path fill-rule="evenodd" clip-rule="evenodd" d="M954.12 623.544V653.255C954.12 688.271 931.837 723.287 886.21 748.754C794.955 801.809 646.401 800.748 555.147 747.693C531.803 734.959 514.825 719.043 503.153 703.126C491.481 687.21 486.175 669.171 485.114 652.194V623.544C485.114 657.499 508.458 692.515 554.086 719.043C646.401 772.098 793.894 772.098 885.149 720.104C931.837 692.515 954.12 658.56 954.12 623.544Z" fill="url(#paint0_linear)"/>
<path fill-rule="evenodd" clip-rule="evenodd" d="M954.12 623.544C954.12 658.56 931.837 693.577 886.21 719.043C794.955 772.098 646.401 771.037 555.147 717.982C509.519 691.454 486.175 657.499 486.175 622.483C486.175 587.467 508.458 553.511 554.086 526.984C645.34 473.929 793.894 474.99 885.149 528.045C930.776 554.573 954.12 588.528 954.12 623.544Z" fill="url(#paint1_linear)"/>
<path d="M619.237 271.386V284.855L736.496 352.992L824.44 302.682V288.42L619.237 271.386Z" fill="#D3DAED"/>
<path d="M707.181 220.68L824.44 288.42L736.496 339.127L619.237 271.386L707.181 220.68Z" fill="#EDF0F8"/>
<path d="M657.663 269.405V277.724L730.95 320.508L786.014 289.212V280.101L657.663 269.405Z" fill="#D3DAED"/>
<path d="M712.727 237.714L786.014 280.101L730.95 311.793L657.663 269.405L712.727 237.714Z" fill="white"/>
<path d="M619.237 284.855L618.841 592.659L736.496 660.399V352.992L619.237 284.855Z" fill="url(#paint2_linear)"/>
<path d="M736.496 660.4L824.44 610.486V302.682L736.496 352.992V660.4Z" fill="url(#paint3_linear)"/>
<path d="M752.342 358.934V369.63L742.834 375.176V364.084L752.342 358.934Z" fill="#D3DAED"/>
<path d="M765.811 351.407V362.499L756.303 367.649V356.953L765.811 351.407Z" fill="#D3DAED"/>
<path d="M779.279 343.484V354.576L769.772 360.122V349.03L779.279 343.484Z" fill="#D3DAED"/>
<path d="M792.749 335.958V347.05L783.241 352.596V341.504L792.749 335.958Z" fill="#D3DAED"/>
<path d="M806.217 328.035V338.731L796.71 344.277V333.581L806.217 328.035Z" fill="#D3DAED"/>
<path d="M819.686 320.112V331.204L810.179 336.354V325.658L819.686 320.112Z" fill="#D3DAED"/>
<path d="M752.342 378.741V389.833L742.834 394.983V384.287L752.342 378.741Z" fill="#D3DAED"/>
<path d="M765.811 371.611V382.307L756.303 387.853V376.761L765.811 371.611Z" fill="#D3DAED"/>
<path d="M779.279 363.688V374.383L769.772 379.929V369.234L779.279 363.688Z" fill="#D3DAED"/>
<path d="M792.749 356.161V366.857L783.241 372.403V361.707L792.749 356.161Z" fill="#D3DAED"/>
<path d="M806.217 347.842V358.934L796.71 364.084V353.388L806.217 347.842Z" fill="#D3DAED"/>
<path d="M819.686 340.315V351.011L810.179 356.557V345.861L819.686 340.315Z" fill="#D3DAED"/>
<path d="M752.342 398.944V409.64L742.834 415.186V404.094L752.342 398.944Z" fill="#D3DAED"/>
<path d="M765.811 391.418V402.51L756.303 407.66V396.964L765.811 391.418Z" fill="#D3DAED"/>
<path d="M779.279 383.495V394.587L769.772 399.737V389.041L779.279 383.495Z" fill="#D3DAED"/>
<path d="M792.749 375.968V387.06L783.241 392.21V381.514L792.749 375.968Z" fill="#D3DAED"/>
<path d="M806.217 368.045V378.741L796.71 384.287V373.195L806.217 368.045Z" fill="#D3DAED"/>
<path d="M819.686 360.123V371.215L810.179 376.364V365.669L819.686 360.123Z" fill="#D3DAED"/>
<path d="M752.342 418.751V429.447L742.834 434.993V424.297L752.342 418.751Z" fill="#D3DAED"/>
<path d="M765.811 411.621V422.317L756.303 427.863V416.771L765.811 411.621Z" fill="#D3DAED"/>
<path d="M779.279 403.698V414.394L769.772 419.94V409.244L779.279 403.698Z" fill="#D3DAED"/>
<path d="M792.749 396.171V406.867L783.241 412.413V401.321L792.749 396.171Z" fill="#D3DAED"/>
<path d="M806.217 387.853V398.945L796.71 404.094V393.399L806.217 387.853Z" fill="#D3DAED"/>
<path d="M819.686 380.326V391.022L810.179 396.568V385.476L819.686 380.326Z" fill="#D3DAED"/>
<path d="M752.342 438.955V449.651L742.834 455.197V444.105L752.342 438.955Z" fill="#D3DAED"/>
<path d="M765.811 431.428V442.52L756.303 447.67V436.974L765.811 431.428Z" fill="#D3DAED"/>
<path d="M779.279 423.505V434.597L769.772 439.747V429.051L779.279 423.505Z" fill="#D3DAED"/>
<path d="M792.749 415.979V427.071L783.241 432.22V421.525L792.749 415.979Z" fill="#D3DAED"/>
<path d="M806.217 408.056V418.752L796.71 424.298V413.206L806.217 408.056Z" fill="#D3DAED"/>
<path d="M819.686 400.133V411.225L810.179 416.375V405.679L819.686 400.133Z" fill="#D3DAED"/>
<path d="M752.342 458.762V469.458L742.834 475.004V464.308L752.342 458.762Z" fill="#D3DAED"/>
<path d="M765.811 451.631V462.327L756.303 467.873V456.781L765.811 451.631Z" fill="#D3DAED"/>
<path d="M779.279 443.708V454.404L769.772 459.95V448.858L779.279 443.708Z" fill="#D3DAED"/>
<path d="M792.749 436.182V446.878L783.241 452.424V441.332L792.749 436.182Z" fill="#D3DAED"/>
<path d="M806.217 427.863V438.955L796.71 444.105V433.409L806.217 427.863Z" fill="#D3DAED"/>
<path d="M819.686 420.336V431.032L810.179 436.578V425.486L819.686 420.336Z" fill="#D3DAED"/>
<path d="M752.342 478.57V489.662L742.834 495.208V484.116L752.342 478.57Z" fill="#D3DAED"/>
<path d="M765.811 471.439V482.135L756.303 487.681V476.985L765.811 471.439Z" fill="#D3DAED"/>
<path d="M779.279 463.516V474.608L769.772 479.758V469.062L779.279 463.516Z" fill="#D3DAED"/>
<path d="M792.749 455.989V467.081L783.241 472.231V461.535L792.749 455.989Z" fill="#D3DAED"/>
<path d="M806.217 448.066V458.762L796.71 464.308V453.216L806.217 448.066Z" fill="#D3DAED"/>
<path d="M819.686 440.144V450.839L810.179 456.385V445.69L819.686 440.144Z" fill="#D3DAED"/>
<path d="M752.342 498.773V509.469L742.834 515.015V504.319L752.342 498.773Z" fill="#D3DAED"/>
<path d="M765.811 491.642V502.338L756.303 507.884V496.792L765.811 491.642Z" fill="#D3DAED"/>
<path d="M779.279 483.719V494.415L769.772 499.961V488.869L779.279 483.719Z" fill="#D3DAED"/>
<path d="M792.749 476.193V486.889L783.241 492.435V481.343L792.749 476.193Z" fill="#D3DAED"/>
<path d="M806.217 467.874V478.569L796.71 484.115V473.42L806.217 467.874Z" fill="#D3DAED"/>
<path d="M819.686 460.347V471.043L810.179 476.589V465.497L819.686 460.347Z" fill="#D3DAED"/>
<path d="M752.342 518.58V529.672L742.834 534.822V524.126L752.342 518.58Z" fill="#D3DAED"/>
<path d="M765.811 511.449V522.145L756.303 527.691V516.995L765.811 511.449Z" fill="#D3DAED"/>
<path d="M779.279 503.526V514.618L769.772 519.768V509.072L779.279 503.526Z" fill="#D3DAED"/>
<path d="M792.749 496V506.696L783.241 512.242V501.546L792.749 496Z" fill="#D3DAED"/>
<path d="M806.217 487.681V498.773L796.71 504.319V493.227L806.217 487.681Z" fill="#D3DAED"/>
<path d="M819.686 480.154V490.85L810.179 496.396V485.7L819.686 480.154Z" fill="#D3DAED"/>
<path d="M752.342 538.783V549.479L742.834 555.025V544.329L752.342 538.783Z" fill="#D3DAED"/>
<path d="M765.811 531.256V542.348L756.303 547.894V536.802L765.811 531.256Z" fill="#D3DAED"/>
<path d="M779.279 523.73V534.426L769.772 539.972V528.88L779.279 523.73Z" fill="#D3DAED"/>
<path d="M792.749 515.807V526.899L783.241 532.445V521.353L792.749 515.807Z" fill="#D3DAED"/>
<path d="M806.217 507.884V518.58L796.71 524.126V513.43L806.217 507.884Z" fill="#D3DAED"/>
<path d="M819.686 499.961V511.053L810.179 516.599V505.507L819.686 499.961Z" fill="#D3DAED"/>
<path d="M752.342 558.59V569.682L742.834 574.832V564.136L752.342 558.59Z" fill="#D3DAED"/>
<path d="M765.811 551.46V562.156L756.303 567.702V557.006L765.811 551.46Z" fill="#D3DAED"/>
<path d="M779.279 543.537V554.233L769.772 559.779V549.083L779.279 543.537Z" fill="#D3DAED"/>
<path d="M792.749 536.01V546.706L783.241 552.252V541.556L792.749 536.01Z" fill="#D3DAED"/>
<path d="M806.217 527.691V538.783L796.71 544.329V533.237L806.217 527.691Z" fill="#D3DAED"/>
<path d="M819.686 520.165V530.86L810.179 536.406V525.711L819.686 520.165Z" fill="#D3DAED"/>
<path d="M752.342 578.794V589.49L742.834 595.036V583.944L752.342 578.794Z" fill="#D3DAED"/>
<path d="M765.811 571.267V582.359L756.303 587.509V576.813L765.811 571.267Z" fill="#D3DAED"/>
<path d="M779.279 563.344V574.436L769.772 579.982V568.89L779.279 563.344Z" fill="#D3DAED"/>
<path d="M792.749 555.817V566.909L783.241 572.455V561.363L792.749 555.817Z" fill="#D3DAED"/>
<path d="M806.217 547.895V558.59L796.71 564.136V553.441L806.217 547.895Z" fill="#D3DAED"/>
<path d="M819.686 539.972V551.064L810.179 556.214V545.518L819.686 539.972Z" fill="#D3DAED"/>
<path d="M752.342 598.601V609.693L742.834 614.842V604.147L752.342 598.601Z" fill="#D3DAED"/>
<path d="M765.811 591.47V602.166L756.303 607.712V597.016L765.811 591.47Z" fill="#D3DAED"/>
<path d="M779.279 583.547V594.243L769.772 599.789V589.093L779.279 583.547Z" fill="#D3DAED"/>
<path d="M792.749 576.021V586.716L783.241 592.262V581.567L792.749 576.021Z" fill="#D3DAED"/>
<path d="M806.217 567.702V578.794L796.71 583.944V573.248L806.217 567.702Z" fill="#D3DAED"/>
<path d="M819.686 560.175V570.871L810.179 576.417V565.721L819.686 560.175Z" fill="#D3DAED"/>
<path d="M752.342 618.805V629.501L742.834 635.047V623.955L752.342 618.805Z" fill="#D3DAED"/>
<path d="M765.811 611.278V622.37L756.303 627.52V616.824L765.811 611.278Z" fill="#D3DAED"/>
<path d="M779.279 603.355V614.447L769.772 619.993V608.901L779.279 603.355Z" fill="#D3DAED"/>
<path d="M792.749 595.828V606.92L783.241 612.07V601.374L792.749 595.828Z" fill="#D3DAED"/>
<path d="M806.217 587.905V598.601L796.71 604.147V593.055L806.217 587.905Z" fill="#D3DAED"/>
<path d="M819.686 579.982V591.074L810.179 596.224V585.528L819.686 579.982Z" fill="#D3DAED"/>
<path d="M705.993 358.934V369.63L715.104 375.176V364.084L705.993 358.934Z" fill="#D3DAED"/>
<path d="M692.524 351.407V362.499L701.635 367.649V356.953L692.524 351.407Z" fill="#D3DAED"/>
<path d="M678.659 343.484V354.576L688.166 360.122V349.03L678.659 343.484Z" fill="#D3DAED"/>
<path d="M665.19 335.958V347.05L674.697 352.596V341.504L665.19 335.958Z" fill="#D3DAED"/>
<path d="M651.721 328.035V338.731L661.229 344.277V333.581L651.721 328.035Z" fill="#D3DAED"/>
<path d="M638.252 320.112V331.204L647.759 336.354V325.658L638.252 320.112Z" fill="#D3DAED"/>
<path d="M705.993 378.741V389.833L715.104 394.983V384.287L705.993 378.741Z" fill="#D3DAED"/>
<path d="M692.524 371.611V382.307L701.635 387.853V376.761L692.524 371.611Z" fill="#D3DAED"/>
<path d="M678.659 363.688V374.383L688.166 379.929V369.234L678.659 363.688Z" fill="#D3DAED"/>
<path d="M665.19 356.161V366.857L674.697 372.403V361.707L665.19 356.161Z" fill="#D3DAED"/>
<path d="M651.721 347.842V358.934L661.229 364.084V353.388L651.721 347.842Z" fill="#D3DAED"/>
<path d="M638.252 340.315V351.011L647.759 356.557V345.861L638.252 340.315Z" fill="#D3DAED"/>
<path d="M705.993 398.944V409.64L715.104 415.186V404.094L705.993 398.944Z" fill="#D3DAED"/>
<path d="M692.524 391.418V402.51L701.635 407.66V396.964L692.524 391.418Z" fill="#D3DAED"/>
<path d="M678.659 383.495V394.587L688.166 399.737V389.041L678.659 383.495Z" fill="#D3DAED"/>
<path d="M665.19 375.968V387.06L674.697 392.21V381.514L665.19 375.968Z" fill="#D3DAED"/>
<path d="M651.721 368.045V378.741L661.229 384.287V373.195L651.721 368.045Z" fill="#D3DAED"/>
<path d="M638.252 360.123V371.215L647.759 376.364V365.669L638.252 360.123Z" fill="#D3DAED"/>
<path d="M705.993 418.751V429.447L715.104 434.993V424.297L705.993 418.751Z" fill="#D3DAED"/>
<path d="M692.524 411.621V422.317L701.635 427.863V416.771L692.524 411.621Z" fill="#D3DAED"/>
<path d="M678.659 403.698V414.394L688.166 419.94V409.244L678.659 403.698Z" fill="#D3DAED"/>
<path d="M665.19 396.171V406.867L674.697 412.413V401.321L665.19 396.171Z" fill="#D3DAED"/>
<path d="M651.721 387.853V398.945L661.229 404.094V393.399L651.721 387.853Z" fill="#D3DAED"/>
<path d="M638.252 380.326V391.022L647.759 396.568V385.476L638.252 380.326Z" fill="#D3DAED"/>
<path d="M705.993 438.955V449.651L715.104 455.197V444.105L705.993 438.955Z" fill="#D3DAED"/>
<path d="M692.524 431.428V442.52L701.635 447.67V436.974L692.524 431.428Z" fill="#D3DAED"/>
<path d="M678.659 423.505V434.597L688.166 439.747V429.051L678.659 423.505Z" fill="#D3DAED"/>
<path d="M665.19 415.979V427.071L674.697 432.22V421.525L665.19 415.979Z" fill="#D3DAED"/>
<path d="M651.721 408.056V418.752L661.229 424.298V413.206L651.721 408.056Z" fill="#D3DAED"/>
<path d="M638.252 400.133V411.225L647.759 416.375V405.679L638.252 400.133Z" fill="#D3DAED"/>
<path d="M705.993 458.762V469.458L715.104 475.004V464.308L705.993 458.762Z" fill="#D3DAED"/>
<path d="M692.524 451.631V462.327L701.635 467.873V456.781L692.524 451.631Z" fill="#D3DAED"/>
<path d="M678.659 443.708V454.404L688.166 459.95V448.858L678.659 443.708Z" fill="#D3DAED"/>
<path d="M665.19 436.182V446.878L674.697 452.424V441.332L665.19 436.182Z" fill="#D3DAED"/>
<path d="M651.721 427.863V438.955L661.229 444.105V433.409L651.721 427.863Z" fill="#D3DAED"/>
<path d="M638.252 420.336V431.032L647.759 436.578V425.486L638.252 420.336Z" fill="#D3DAED"/>
<path d="M705.993 478.57V489.662L715.104 495.208V484.116L705.993 478.57Z" fill="#D3DAED"/>
<path d="M692.524 471.439V482.135L701.635 487.681V476.985L692.524 471.439Z" fill="#D3DAED"/>
<path d="M678.659 463.516V474.608L688.166 479.758V469.062L678.659 463.516Z" fill="#D3DAED"/>
<path d="M665.19 455.989V467.081L674.697 472.231V461.535L665.19 455.989Z" fill="#D3DAED"/>
<path d="M651.721 448.066V458.762L661.229 464.308V453.216L651.721 448.066Z" fill="#D3DAED"/>
<path d="M638.252 440.144V450.839L647.759 456.385V445.69L638.252 440.144Z" fill="#D3DAED"/>
<path d="M705.993 498.773V509.469L715.104 515.015V504.319L705.993 498.773Z" fill="#D3DAED"/>
<path d="M692.524 491.642V502.338L701.635 507.884V496.792L692.524 491.642Z" fill="#D3DAED"/>
<path d="M678.659 483.719V494.415L688.166 499.961V488.869L678.659 483.719Z" fill="#D3DAED"/>
<path d="M665.19 476.193V486.889L674.697 492.435V481.343L665.19 476.193Z" fill="#D3DAED"/>
<path d="M651.721 467.874V478.569L661.229 484.115V473.42L651.721 467.874Z" fill="#D3DAED"/>
<path d="M638.252 460.347V471.043L647.759 476.589V465.497L638.252 460.347Z" fill="#D3DAED"/>
<path d="M705.993 518.58V529.672L715.104 534.822V524.126L705.993 518.58Z" fill="#D3DAED"/>
<path d="M692.524 511.449V522.145L701.635 527.691V516.995L692.524 511.449Z" fill="#D3DAED"/>
<path d="M678.659 503.526V514.618L688.166 519.768V509.072L678.659 503.526Z" fill="#D3DAED"/>
<path d="M665.19 496V506.696L674.697 512.242V501.546L665.19 496Z" fill="#D3DAED"/>
<path d="M651.721 487.681V498.773L661.229 504.319V493.227L651.721 487.681Z" fill="#D3DAED"/>
<path d="M638.252 480.154V490.85L647.759 496.396V485.7L638.252 480.154Z" fill="#D3DAED"/>
<path d="M705.993 538.783V549.479L715.104 555.025V544.329L705.993 538.783Z" fill="#D3DAED"/>
<path d="M692.524 531.256V542.348L701.635 547.894V536.802L692.524 531.256Z" fill="#D3DAED"/>
<path d="M678.659 523.73V534.426L688.166 539.972V528.88L678.659 523.73Z" fill="#D3DAED"/>
<path d="M665.19 515.807V526.899L674.697 532.445V521.353L665.19 515.807Z" fill="#D3DAED"/>
<path d="M651.721 507.884V518.58L661.229 524.126V513.43L651.721 507.884Z" fill="#D3DAED"/>
<path d="M638.252 499.961V511.053L647.759 516.599V505.507L638.252 499.961Z" fill="#D3DAED"/>
<path d="M705.993 558.59V569.682L715.104 574.832V564.136L705.993 558.59Z" fill="#D3DAED"/>
<path d="M692.524 551.46V562.156L701.635 567.702V557.006L692.524 551.46Z" fill="#D3DAED"/>
<path d="M678.659 543.537V554.233L688.166 559.779V549.083L678.659 543.537Z" fill="#D3DAED"/>
<path d="M665.19 536.01V546.706L674.697 552.252V541.556L665.19 536.01Z" fill="#D3DAED"/>
<path d="M651.721 527.691V538.783L661.229 544.329V533.237L651.721 527.691Z" fill="#D3DAED"/>
<path d="M638.252 520.165V530.86L647.759 536.406V525.711L638.252 520.165Z" fill="#D3DAED"/>
<path d="M705.993 578.794V589.49L715.104 595.036V583.944L705.993 578.794Z" fill="#D3DAED"/>
<path d="M692.524 571.267V582.359L701.635 587.509V576.813L692.524 571.267Z" fill="#D3DAED"/>
<path d="M678.659 563.344V574.436L688.166 579.982V568.89L678.659 563.344Z" fill="#D3DAED"/>
<path d="M665.19 555.817V566.909L674.697 572.455V561.363L665.19 555.817Z" fill="#D3DAED"/>
<path d="M651.721 547.895V558.59L661.229 564.136V553.441L651.721 547.895Z" fill="#D3DAED"/>
<path d="M638.252 539.972V551.064L647.759 556.214V545.518L638.252 539.972Z" fill="#D3DAED"/>
<path d="M705.993 598.601V609.693L715.104 614.842V604.147L705.993 598.601Z" fill="#D3DAED"/>
<path d="M692.524 591.47V602.166L701.635 607.712V597.016L692.524 591.47Z" fill="#D3DAED"/>
<path d="M678.659 583.547V594.243L688.166 599.789V589.093L678.659 583.547Z" fill="#D3DAED"/>
<path d="M665.19 576.021V586.716L674.697 592.262V581.567L665.19 576.021Z" fill="#D3DAED"/>
<path d="M651.721 567.702V578.794L661.229 583.944V573.248L651.721 567.702Z" fill="#D3DAED"/>
<path d="M638.252 560.175V570.871L647.759 576.417V565.721L638.252 560.175Z" fill="#D3DAED"/>
<path d="M705.993 618.805V629.501L715.104 635.047V623.955L705.993 618.805Z" fill="#D3DAED"/>
<path d="M692.524 611.278V622.37L701.635 627.52V616.824L692.524 611.278Z" fill="#D3DAED"/>
<path d="M678.659 603.355V614.447L688.166 619.993V608.901L678.659 603.355Z" fill="#D3DAED"/>
<path d="M665.19 595.828V606.92L674.697 612.07V601.374L665.19 595.828Z" fill="#D3DAED"/>
<path d="M651.721 587.905V598.601L661.229 604.147V593.055L651.721 587.905Z" fill="#D3DAED"/>
<path d="M638.252 579.982V591.074L647.759 596.224V585.528L638.252 579.982Z" fill="#D3DAED"/>
<path d="M781.09 554.883L877.353 499.225C880.324 497.641 881.711 495.264 881.711 492.887C881.711 490.114 881.711 485.954 881.711 485.954L837.541 462.78C830.212 458.422 818.922 458.026 812.386 461.79L711.765 516.656C711.765 516.656 711.765 521.211 711.765 523.786C711.765 526.559 713.944 529.53 717.905 531.907L756.133 553.893C763.462 558.251 774.752 558.647 781.09 554.883Z" fill="#D3DAED"/>
<path fill-rule="evenodd" clip-rule="evenodd" d="M756.133 546.961L717.906 524.975C710.577 520.617 709.785 514.081 716.123 510.516L812.386 454.858C818.922 451.094 830.212 451.49 837.541 455.848L875.769 477.834C883.098 482.191 883.89 488.53 877.552 492.293L781.289 547.951C774.752 551.715 763.462 551.319 756.133 546.961ZM717.906 513.487C716.915 513.883 715.331 515.071 715.331 516.656C715.331 518.439 716.915 520.419 719.688 521.806L757.916 543.792C761.283 545.773 765.839 546.961 770.395 546.961C773.96 546.961 777.327 546.367 779.506 544.98L875.769 489.322C876.759 488.926 878.344 487.737 878.344 486.153C878.344 484.568 876.759 482.588 873.986 481.003L835.758 459.017C832.391 457.036 827.836 455.848 823.28 455.848C819.715 455.848 816.347 456.442 814.169 457.829L717.906 513.487Z" fill="#F6F8FB"/>
<path d="M717.906 513.487L814.168 457.828C816.347 456.442 819.715 455.848 823.28 455.848C827.835 455.848 832.391 457.036 835.758 459.017L873.986 481.003C876.759 482.587 878.344 484.568 878.344 486.153C878.344 487.737 876.759 488.926 875.769 489.322L779.506 544.98C777.327 546.367 773.96 546.961 770.395 546.961C765.839 546.961 761.283 545.772 757.916 543.792L719.688 521.806C716.915 520.221 715.331 518.24 715.331 516.656C715.331 515.269 716.915 514.081 717.906 513.487Z" fill="url(#paint4_linear)"/>
<path d="M835.758 465.949C832.391 463.969 827.835 462.78 823.28 462.78C819.715 462.78 816.347 463.573 814.168 464.761L717.906 520.419C717.906 520.419 717.707 520.419 717.707 520.617C716.123 519.429 715.331 518.042 715.331 516.854C715.331 515.269 716.915 514.081 717.906 513.685L814.168 458.027C816.347 456.64 819.715 456.046 823.28 456.046C827.835 456.046 832.391 457.234 835.758 459.215L873.986 481.201C876.759 482.786 878.344 484.766 878.344 486.351C878.344 487.737 876.957 488.926 875.967 489.52C875.373 489.124 874.779 488.53 873.986 488.134L835.758 465.949Z" fill="#E8ECF6"/>
<path d="M779.308 544.98C777.129 546.366 773.762 546.961 770.196 546.961C765.641 546.961 761.085 545.772 757.718 543.792L719.49 521.806C718.698 521.409 718.103 520.815 717.509 520.419C717.509 520.419 717.707 520.419 717.707 520.221L813.97 464.563C816.149 463.176 819.516 462.582 823.082 462.582C827.637 462.582 832.193 463.77 835.56 465.751L873.788 487.737C874.58 488.133 875.175 488.728 875.769 489.124C875.769 489.124 875.571 489.124 875.571 489.322L779.308 544.98Z" fill="#D3DAED"/>
<path d="M778.911 715.124C779.11 715.124 779.11 715.124 779.308 714.926C779.11 715.124 778.911 715.124 778.911 715.124Z" fill="#00A551"/>
<path d="M780.298 714.53C780.298 714.53 780.496 714.53 780.496 714.332C780.496 714.53 780.298 714.53 780.298 714.53Z" fill="#00A551"/>
<path d="M779.506 714.926C779.704 714.926 779.704 714.926 779.902 714.728C779.704 714.926 779.704 714.926 779.506 714.926Z" fill="#00A551"/>
<path d="M774.356 557.063C774.356 557.063 774.158 557.261 774.356 557.063C774.158 557.261 774.356 557.063 774.356 557.063Z" fill="#00A551"/>
<path d="M777.327 715.718C777.525 715.718 777.723 715.718 777.723 715.52C777.723 715.52 777.525 715.718 777.327 715.718Z" fill="#00A551"/>
<path d="M778.119 715.52C778.318 715.52 778.318 715.52 778.516 715.322C778.516 715.322 778.318 715.52 778.119 715.52Z" fill="#00A551"/>
<path d="M778.912 556.072C778.714 556.072 778.714 556.072 778.515 556.27C778.714 556.072 778.714 556.072 778.912 556.072Z" fill="#00A551"/>
<path d="M781.091 554.884C780.893 555.082 780.695 555.082 780.496 555.28C780.695 555.082 780.893 555.082 781.091 554.884Z" fill="#00A551"/>
<path d="M780.298 555.478C780.1 555.478 780.1 555.676 779.902 555.676C780.1 555.478 780.1 555.478 780.298 555.478Z" fill="#00A551"/>
<path d="M779.506 555.676C779.308 555.676 779.308 555.676 779.11 555.874C779.308 555.874 779.506 555.676 779.506 555.676Z" fill="#00A551"/>
<path d="M775.148 716.313C775.346 716.313 775.544 716.313 775.743 716.114C775.544 716.114 775.346 716.114 775.148 716.313Z" fill="#00A551"/>
<path d="M771.781 716.709C771.979 716.709 772.375 716.709 772.574 716.709C772.375 716.511 772.177 716.511 771.781 716.709Z" fill="#00A551"/>
<path d="M776.733 715.916C776.931 715.916 777.129 715.916 777.327 715.718C776.931 715.916 776.733 715.916 776.733 715.916Z" fill="#00A551"/>
<path d="M711.765 523.787C711.765 526.758 713.944 529.531 717.905 531.908L756.133 553.894C759.897 556.072 764.848 557.261 769.404 557.459V716.709C764.65 716.511 759.897 715.322 756.133 713.143L717.905 691.157C713.746 688.781 711.765 685.81 711.765 682.838C711.765 680.66 711.765 532.304 711.765 523.787Z" fill="url(#paint5_linear)"/>
<path d="M775.941 716.114C776.139 716.114 776.337 716.114 776.535 715.916C776.337 715.916 776.139 716.114 775.941 716.114Z" fill="#00A551"/>
<path d="M774.356 716.313C774.554 716.313 774.752 716.313 774.95 716.114C774.752 716.313 774.554 716.313 774.356 716.313Z" fill="#00A551"/>
<path d="M769.404 557.459C769.602 557.459 769.999 557.459 770.197 557.459C770.395 557.459 770.791 557.459 770.989 557.459C771.187 557.459 771.583 557.459 771.781 557.459C771.979 557.459 772.375 557.459 772.573 557.459C772.772 557.459 772.97 557.459 773.366 557.459C773.564 557.459 773.762 557.459 774.158 557.459C774.158 557.459 774.158 557.459 774.356 557.459C774.554 557.459 774.752 557.459 774.95 557.26C774.95 557.26 774.95 557.26 775.148 557.26C775.346 557.26 775.545 557.26 775.743 557.062H775.941C776.139 557.062 776.337 557.062 776.535 556.864H776.733C776.931 556.864 777.129 556.864 777.327 556.666H777.525C777.723 556.666 777.921 556.666 777.921 556.468H778.119C778.318 556.468 778.318 556.468 778.516 556.27C778.714 556.27 778.714 556.27 778.912 556.072C779.11 556.072 779.11 556.072 779.308 555.874C779.506 555.874 779.506 555.874 779.704 555.676C779.902 555.676 779.902 555.676 780.1 555.478C780.298 555.478 780.298 555.28 780.496 555.28C780.496 555.28 780.694 555.28 780.694 555.082C780.892 554.884 781.091 554.884 781.289 554.685L877.552 499.027C880.523 497.443 881.909 495.066 881.909 492.689C881.909 492.887 881.909 648.968 881.909 651.939C881.909 654.316 880.523 656.494 877.552 658.277L781.289 713.935C781.091 714.133 780.892 714.133 780.694 714.332C780.694 714.332 780.496 714.332 780.496 714.53C780.298 714.53 780.298 714.728 780.1 714.728C779.902 714.728 779.902 714.728 779.704 714.926C779.506 714.926 779.506 714.926 779.308 715.124C779.11 715.124 779.11 715.124 778.912 715.322C778.714 715.322 778.714 715.322 778.516 715.52C778.318 715.52 778.318 715.52 778.119 715.718H777.921C777.723 715.718 777.525 715.718 777.525 715.916H777.327C777.129 715.916 776.931 715.916 776.733 716.114H776.535C776.337 716.114 776.139 716.114 775.941 716.312H775.743C775.545 716.312 775.346 716.312 775.148 716.51C775.148 716.51 775.148 716.51 774.95 716.51C774.752 716.51 774.554 716.51 774.356 716.708C774.356 716.708 774.356 716.708 774.158 716.708C773.96 716.708 773.762 716.708 773.564 716.708C773.366 716.708 773.168 716.708 772.772 716.708C772.573 716.708 772.177 716.708 771.979 716.708C771.781 716.708 771.385 716.708 771.187 716.708C770.989 716.708 770.593 716.708 770.395 716.708C770.197 716.708 769.8 716.708 769.602 716.708V557.459H769.404Z" fill="#F6F8FB"/>
<path d="M711.765 652.533C711.765 655.504 713.944 658.277 717.905 660.654L756.133 682.64C759.897 684.819 764.848 686.007 769.404 686.205V716.709C764.65 716.51 759.897 715.322 756.133 713.143L718.327 691.4L711.765 687.624V684.312C711.765 684.312 711.765 661.05 711.765 652.533Z" fill="#D3DAED"/>
<path d="M770.196 686.007C770.394 686.007 770.79 686.007 770.989 686.007C771.187 686.007 771.583 686.007 771.781 686.007C771.979 686.007 772.375 686.007 772.573 686.007C772.771 686.007 772.969 686.007 773.365 686.007C773.563 686.007 773.762 686.007 774.158 686.007C774.158 686.007 774.158 686.007 774.356 686.007C774.554 686.007 774.752 686.007 774.95 685.809C774.95 685.809 774.95 685.809 775.148 685.809C775.346 685.809 775.544 685.809 775.742 685.611H775.94C776.138 685.611 776.336 685.611 776.535 685.413H776.733C776.931 685.413 777.129 685.413 777.327 685.215H777.525C777.723 685.215 777.921 685.215 777.921 685.017H778.119C778.317 685.017 778.317 685.017 778.515 684.819C778.713 684.819 778.713 684.819 778.911 684.621C779.11 684.621 779.11 684.621 779.308 684.423C779.506 684.423 779.506 684.423 779.704 684.225C779.902 684.225 779.902 684.225 780.1 684.027C780.298 684.027 780.298 683.829 780.496 683.829C780.496 683.829 780.694 683.829 780.694 683.63C780.892 683.432 781.09 683.432 781.288 683.234L877.551 627.576C880.522 625.992 881.909 623.615 881.909 621.238C881.909 621.436 881.909 651.741 881.909 651.741V655.771L877.551 658.277L781.288 713.737C781.09 713.935 780.892 713.935 780.694 714.134C780.694 714.134 780.496 714.134 780.496 714.332C780.298 714.332 780.298 714.53 780.1 714.53C779.902 714.53 779.902 714.53 779.704 714.728C779.506 714.728 779.506 714.728 779.308 714.926C779.11 714.926 779.11 714.926 778.911 715.124C778.713 715.124 778.713 715.124 778.515 715.322C778.317 715.322 778.317 715.322 778.119 715.52H777.921C777.723 715.52 777.525 715.52 777.525 715.718H777.327C777.129 715.718 776.931 715.718 776.733 715.916H776.535C776.336 715.916 776.138 715.916 775.94 716.114H775.742C775.544 716.114 775.346 716.114 775.148 716.312C775.148 716.312 775.148 716.312 774.95 716.312C774.752 716.312 774.554 716.312 774.356 716.51C774.356 716.51 774.356 716.51 774.158 716.51C773.96 716.51 773.762 716.51 773.563 716.51C773.365 716.51 773.167 716.51 772.771 716.51C772.573 716.51 772.177 716.51 771.979 716.51C771.781 716.51 771.385 716.51 771.187 716.51C770.989 716.51 770.592 716.51 770.394 716.51C770.196 716.51 769.8 716.51 769.602 716.51V686.8C769.8 686.602 769.8 686.403 770.196 686.007Z" fill="#D2D6EA"/>
<path d="M788.815 501.479L808.226 512.571L790.003 523.068C789.607 523.266 789.211 523.465 788.815 523.663C778.119 529.803 760.887 529.803 750.191 523.663C749.597 523.266 748.805 522.87 748.408 522.474L730.978 512.373L750.389 501.281L769.8 490.188L788.815 501.479Z" fill="#F2F4FA"/>
<path d="M767.225 513.883L776.733 508.337L785.25 513.289L789.806 510.714L769.8 499.226L765.245 501.801L772.97 506.356L763.462 511.902L755.737 507.347L751.182 509.921L771.187 521.41L775.743 518.835L767.225 513.883Z" fill="white"/>
<path d="M748.21 522.004C749.003 522.4 749.597 522.796 750.191 523.192C750.983 523.588 751.578 523.985 752.37 524.381C763.066 529.333 778.714 528.936 788.815 523.39C789.211 523.192 789.608 522.994 789.806 522.796L808.028 512.298V521.806L788.419 533.096C778.714 538.642 763.462 539.038 752.964 534.284L752.172 533.888C751.578 533.492 750.785 533.294 750.191 532.898C749.597 532.502 749.003 532.304 748.607 531.907L748.409 531.709L734.345 523.588L731.176 521.806V512.298L748.21 522.004Z" fill="#E5E9F4"/>
<path d="M827.241 510.317L813.574 502.395V497.839L827.241 505.762V510.317Z" fill="#E5E9F4"/>
<path d="M856.16 489.124L842.493 481.201L813.574 497.839L827.241 505.762L856.16 489.124Z" fill="#F2F4FA"/>
<path d="M827.241 510.318L856.16 493.68V489.124L827.241 505.762V510.318Z" fill="#F2F4FA"/>
<path d="M797.927 493.481L784.26 485.558V480.805L797.927 488.926V493.481Z" fill="#E5E9F4"/>
<path d="M826.845 472.089L813.178 464.167L784.26 480.805L797.927 488.926L826.845 472.089Z" fill="#F2F4FA"/>
<path d="M797.927 493.481L826.845 476.645V472.089L797.927 488.925V493.481Z" fill="#E5E9F4"/>
<path d="M855.169 651.543L871.015 642.233V659.466V662.041L855.169 671.152V651.543Z" fill="#F6F8FB"/>
<path d="M831.995 684.621V665.012L847.841 655.702V671.152V675.509L831.995 684.621Z" fill="#F6F8FB"/>
<path d="M824.468 688.978L808.82 698.089V678.48L824.468 669.171V688.978Z" fill="#F6F8FB"/>
<path d="M801.294 702.447L785.448 711.756V691.949L801.294 682.838V688.384V699.674V702.447Z" fill="#F6F8FB"/>
<path d="M726.647 696.169L742.493 705.479V685.671L726.647 676.56V696.169Z" fill="#F6F8FB"/>
<path d="M711.765 563.401C711.765 566.372 713.944 569.145 717.905 571.522L756.133 593.508C763.462 597.865 774.752 598.261 781.288 594.498L877.551 538.84C880.522 537.255 881.909 534.878 881.909 532.501C881.909 532.7 881.909 538.047 881.909 540.82C881.909 543.197 880.522 545.376 877.551 547.159L781.288 602.817C774.95 606.58 763.66 605.986 756.133 601.827L717.905 579.841C713.746 577.464 711.765 574.493 711.765 571.522C711.765 569.343 711.765 571.918 711.765 563.401Z" fill="#D3DAED"/>
<path opacity="0.04" d="M769.404 597.073C773.762 597.271 777.921 596.281 781.091 594.498L877.354 538.84C880.325 537.255 881.711 534.878 881.711 532.501C881.711 532.7 881.711 538.047 881.711 540.82C881.711 543.197 880.325 545.376 877.354 547.159L781.091 602.817C777.921 604.6 773.762 605.392 769.404 605.392V597.073Z" fill="#D073AE"/>
<path d="M711.765 535.275C711.765 538.246 713.944 541.019 717.905 543.396L756.133 565.382C763.462 569.739 774.752 570.135 781.288 566.372L877.551 510.714C880.522 509.129 881.909 506.752 881.909 504.375C881.909 504.574 881.909 509.922 881.909 512.695C881.909 515.071 880.522 517.25 877.551 519.033L781.288 574.691C774.95 578.454 763.66 577.86 756.133 573.701L717.905 551.715C713.746 549.338 711.765 546.367 711.765 543.396C711.765 541.217 711.765 543.792 711.765 535.275Z" fill="#D3DAED"/>
<path opacity="0.04" d="M769.404 568.947C773.762 569.145 777.921 568.155 781.091 566.372L877.354 510.714C880.325 509.129 881.711 506.752 881.711 504.375C881.711 504.574 881.711 509.922 881.711 512.695C881.711 515.071 880.325 517.25 877.354 519.033L781.091 574.691C777.921 576.474 773.762 577.266 769.404 577.266V568.947Z" fill="#D073AE"/>
<path d="M711.765 549.338C711.765 552.309 713.944 555.082 717.905 557.459L756.133 579.445C763.462 583.802 774.752 584.198 781.288 580.435L877.551 524.777C880.522 523.192 881.909 520.815 881.909 518.438C881.909 518.637 881.909 523.984 881.909 526.757C881.909 529.134 880.522 531.313 877.551 533.096L781.288 588.754C774.95 592.517 763.66 591.923 756.133 587.764L717.905 565.778C713.746 563.401 711.765 560.43 711.765 557.459C711.765 555.28 711.765 557.855 711.765 549.338Z" fill="#D3DAED"/>
<path opacity="0.04" d="M769.404 583.01C773.762 583.208 777.921 582.218 781.091 580.435L877.354 524.777C880.325 523.192 881.711 520.815 881.711 518.438C881.711 518.637 881.711 523.984 881.711 526.757C881.711 529.134 880.325 531.313 877.354 533.096L781.091 588.754C777.921 590.537 773.762 591.329 769.404 591.329V583.01Z" fill="#D073AE"/>
<path d="M711.765 591.527C711.765 594.498 713.944 597.271 717.905 599.648L756.133 621.634C763.462 625.992 774.752 626.388 781.288 622.624L877.551 566.966C880.522 565.382 881.909 563.005 881.909 560.628C881.909 560.826 881.909 566.174 881.909 568.947C881.909 571.324 880.522 573.503 877.551 575.285L781.288 630.943C774.95 634.707 763.66 634.113 756.133 629.953L717.905 607.967C713.746 605.59 711.765 602.619 711.765 599.648C711.765 597.469 711.765 600.044 711.765 591.527Z" fill="#D3DAED"/>
<path opacity="0.04" d="M769.404 625.199C773.762 625.397 777.921 624.407 781.091 622.624L877.354 566.966C880.325 565.382 881.711 563.005 881.711 560.628C881.711 560.826 881.711 566.174 881.711 568.947C881.711 571.324 880.325 573.503 877.354 575.285L781.091 630.943C777.921 632.726 773.762 633.518 769.404 633.518V625.199Z" fill="#D073AE"/>
<path d="M711.765 577.464C711.765 580.435 713.944 583.208 717.905 585.585L756.133 607.571C763.462 611.929 774.752 612.325 781.288 608.561L877.551 552.903C880.522 551.319 881.909 548.942 881.909 546.565C881.909 546.763 881.909 552.111 881.909 554.884C881.909 557.261 880.522 559.44 877.551 561.222L781.288 616.881C774.95 620.644 763.66 620.05 756.133 615.89L717.905 593.904C713.746 591.527 711.765 588.556 711.765 585.585C711.765 583.406 711.765 585.981 711.765 577.464Z" fill="#D3DAED"/>
<path opacity="0.04" d="M769.404 611.136C773.762 611.334 777.921 610.344 781.091 608.561L877.354 552.903C880.325 551.319 881.711 548.942 881.711 546.565C881.711 546.763 881.711 552.111 881.711 554.884C881.711 557.261 880.325 559.44 877.354 561.222L781.091 616.881C777.921 618.663 773.762 619.455 769.404 619.455V611.136Z" fill="#D073AE"/>
<path d="M711.765 619.654C711.765 622.625 713.944 625.398 717.906 627.775L756.134 649.761C763.462 654.118 774.752 654.514 781.289 650.751L877.552 595.093C880.523 593.508 881.909 591.131 881.909 588.754C881.909 588.952 881.909 594.3 881.909 597.073C881.909 599.45 880.523 601.629 877.552 603.412L781.091 659.268C774.752 663.031 763.462 662.437 755.936 658.278L717.708 636.292C713.548 633.915 711.567 630.944 711.567 627.973C711.765 625.596 711.765 628.171 711.765 619.654Z" fill="#D3DAED"/>
<path opacity="0.04" d="M769.404 653.326C773.762 653.524 777.921 652.534 781.091 650.751L877.354 595.093C880.325 593.508 881.711 591.131 881.711 588.754C881.711 588.952 881.711 594.3 881.711 597.073C881.711 599.45 880.325 601.629 877.354 603.412L781.091 659.268C777.921 661.051 773.762 661.843 769.404 661.843V653.326Z" fill="#D073AE"/>
<path d="M711.765 605.59C711.765 608.561 713.944 611.334 717.905 613.711L756.133 635.697C763.462 640.055 774.752 640.451 781.288 636.687L877.551 581.029C880.522 579.445 881.909 577.068 881.909 574.691C881.909 574.889 881.909 580.237 881.909 583.01C881.909 585.387 880.522 587.566 877.551 589.348L781.288 645.006C774.95 648.77 763.66 648.176 756.133 644.016L717.905 622.03C713.746 619.653 711.765 616.682 711.765 613.711C711.765 611.532 711.765 614.107 711.765 605.59Z" fill="#D3DAED"/>
<path opacity="0.04" d="M769.404 639.262C773.762 639.46 777.921 638.47 781.091 636.687L877.354 581.029C880.325 579.445 881.711 577.068 881.711 574.691C881.711 574.889 881.711 580.237 881.711 583.01C881.711 585.387 880.325 587.566 877.354 589.348L781.091 645.006C777.921 646.789 773.762 647.581 769.404 647.581V639.262Z" fill="#D073AE"/>
<path d="M711.765 633.716C711.765 636.687 713.944 639.46 717.905 641.837L756.133 663.823C763.462 668.181 774.752 668.577 781.288 664.813L877.551 609.155C880.522 607.571 881.909 605.194 881.909 602.817C881.909 603.015 881.909 608.363 881.909 611.136C881.909 613.513 880.522 615.692 877.551 617.474L781.288 673.132C774.95 676.896 763.66 676.302 756.133 672.142L717.905 650.156C713.746 647.779 711.765 644.808 711.765 641.837C711.765 639.658 711.765 642.233 711.765 633.716Z" fill="#D3DAED"/>
<path opacity="0.04" d="M769.404 667.388C773.762 667.586 777.921 666.596 781.091 664.813L877.354 609.155C880.325 607.571 881.711 605.194 881.711 602.817C881.711 603.015 881.711 608.363 881.711 611.136C881.711 613.513 880.325 615.692 877.354 617.474L781.091 673.132C777.921 674.915 773.762 675.707 769.404 675.707V667.388Z" fill="#D073AE"/>
<path d="M602.401 685.697C605.902 685.697 608.74 684.1 608.74 682.131C608.74 680.162 605.902 678.566 602.401 678.566C598.901 678.566 596.063 680.162 596.063 682.131C596.063 684.1 598.901 685.697 602.401 685.697Z" fill="#D073AD"/>
<path d="M637.46 665.493C640.96 665.493 643.798 663.897 643.798 661.928C643.798 659.959 640.96 658.362 637.46 658.362C633.959 658.362 631.122 659.959 631.122 661.928C631.122 663.897 633.959 665.493 637.46 665.493Z" fill="#D073AD"/>
<path d="M567.144 665.493C570.645 665.493 573.483 663.897 573.483 661.928C573.483 659.959 570.645 658.362 567.144 658.362C563.644 658.362 560.806 659.959 560.806 661.928C560.806 663.897 563.644 665.493 567.144 665.493Z" fill="#D073AD"/>
<path d="M644.789 588.641L607.551 610.033C604.58 611.815 599.826 611.815 596.855 610.033L559.816 588.641C556.845 586.858 556.845 584.283 559.816 582.501L597.053 561.109C600.024 559.326 604.778 559.326 607.749 561.109L644.987 582.501C647.76 584.283 647.76 587.056 644.789 588.641Z" fill="#DFE5F2"/>
<path d="M639.44 583.095C639.837 583.293 640.431 583.689 640.431 583.689L606.164 563.882C604.184 562.694 600.618 562.694 598.638 563.882C598.638 563.882 585.565 571.607 574.869 577.945L565.362 583.095C564.569 583.491 563.975 584.085 563.777 584.482C562.985 585.67 563.579 587.056 565.362 588.047C563.579 587.056 598.638 607.26 598.638 607.26C600.618 608.448 604.184 608.448 606.164 607.26C606.164 607.26 619.237 599.535 629.933 593.197L639.44 588.047C640.233 587.651 640.827 587.056 641.025 586.66C641.817 585.472 641.223 584.085 639.44 583.095Z" fill="#FBFCFD"/>
<path d="M598.638 569.824C598.638 569.824 585.565 577.549 574.869 583.887L566.154 588.641C571.502 591.81 598.638 607.458 598.638 607.458C600.618 608.646 604.184 608.646 606.164 607.458C606.164 607.458 619.237 599.733 629.933 593.395L638.648 588.641L606.164 569.824C604.184 568.636 600.618 568.636 598.638 569.824Z" fill="#D3DAED"/>
<path d="M602.401 611.419C600.42 611.419 598.44 611.023 597.053 610.231L559.816 588.641C558.429 587.849 557.637 586.66 557.637 585.472V657.743L557.741 661.927L602.401 687.829V611.419Z" fill="url(#paint6_linear)"/>
<path d="M646.968 585.67C646.968 586.858 646.175 587.849 644.789 588.839L607.749 610.231C606.165 611.023 604.382 611.419 602.401 611.419V685.696V687.829L607.749 684.904L646.968 662.239V585.67Z" fill="url(#paint7_linear)"/>
<path d="M602.401 625.68V616.371C600.42 616.371 598.44 615.975 597.053 615.183L559.816 593.791C558.429 592.999 557.637 591.81 557.637 590.82V601.516C557.439 602.704 558.231 604.091 559.816 604.883L596.855 626.275C598.242 627.067 600.222 627.463 602.203 627.463V625.68H602.401Z" fill="#D3DAED"/>
<path d="M602.401 641.526V632.217C600.42 632.217 598.44 631.821 597.053 631.028L559.816 609.637C558.429 608.844 557.637 607.656 557.637 606.666V617.361C557.439 618.55 558.231 619.936 559.816 620.729L596.855 642.12C598.242 642.913 600.222 643.309 602.203 643.309V641.526H602.401Z" fill="#D3DAED"/>
<path d="M602.401 657.57V648.261C600.42 648.261 598.44 647.864 597.053 647.072L559.816 625.482C558.429 624.69 557.637 623.502 557.637 622.511V633.207C557.439 634.396 558.231 635.782 559.816 636.574L596.855 657.966C598.242 658.758 600.222 659.155 602.203 659.155V657.57H602.401Z" fill="#D3DAED"/>
<path d="M602.401 625.68V616.371C604.382 616.371 606.362 615.975 607.749 615.183L644.788 593.791C646.175 592.999 646.967 591.81 646.967 590.82V601.516C647.165 602.704 646.373 604.091 644.788 604.883L607.749 626.275C606.362 627.067 604.382 627.463 602.401 627.463V625.68Z" fill="#C7CCE4"/>
<path d="M602.401 641.526V632.217C604.382 632.217 606.362 631.821 607.749 631.028L644.788 609.637C646.175 608.844 646.967 607.656 646.967 606.666V617.361C647.165 618.55 646.373 619.936 644.788 620.729L607.749 642.12C606.362 642.913 604.382 643.309 602.401 643.309V641.526Z" fill="#C7CCE4"/>
<path d="M602.401 657.57V648.26C604.382 648.26 606.362 647.864 607.749 647.072L644.788 625.68C646.175 624.888 646.967 623.699 646.967 622.709V633.405C647.165 634.593 646.373 635.98 644.788 636.772L607.749 658.164C606.362 658.956 604.382 659.352 602.401 659.352V657.57Z" fill="#C7CCE4"/>
<path d="M591.903 595.772L582.792 590.622V587.453L591.903 592.801V595.772Z" fill="#E5E9F4"/>
<path d="M610.126 582.105L601.213 576.757L582.792 587.453L591.903 592.801L610.126 582.105Z" fill="#F2F4FA"/>
<path d="M591.903 595.771L610.126 585.076V582.104L591.903 592.8V595.771Z" fill="#F6F8FB"/>
<path d="M604.976 603.496L595.865 598.148V595.177L604.976 600.327V603.496Z" fill="#E5E9F4"/>
<path d="M623.397 589.829L614.285 584.481L595.865 595.177L604.976 600.525L623.397 589.829Z" fill="#F2F4FA"/>
<path d="M604.976 603.496L623.397 592.8V589.829L604.976 600.327V603.496Z" fill="#F6F8FB"/>
<g opacity="0.79">
<path opacity="0.01" d="M574.898 590.604C573.607 589.829 573.607 588.537 574.898 588.021L600.212 573.297C601.504 572.522 603.57 572.522 604.862 573.297L630.176 588.021C631.468 588.795 631.468 590.087 630.176 590.604L604.862 605.327C603.57 606.102 601.504 606.102 600.212 605.327L574.898 590.604Z" fill="white"/>
<path opacity="0.02439" d="M575.157 590.604C573.865 589.829 573.865 588.795 575.157 588.021L600.212 573.555C601.504 572.78 603.57 572.78 604.862 573.555L629.918 588.021C631.209 588.795 631.209 589.829 629.918 590.604L604.862 605.069C603.57 605.844 601.504 605.844 600.212 605.069L575.157 590.604Z" fill="#FBFBFB"/>
<path opacity="0.04878" d="M575.415 590.604C574.123 589.829 574.123 588.795 575.415 588.021L600.471 573.555C601.762 572.78 603.829 572.78 605.12 573.555L630.176 588.021C631.468 588.795 631.468 589.829 630.176 590.604L605.12 605.069C603.829 605.844 601.762 605.844 600.471 605.069L575.415 590.604Z" fill="#F6F6F8"/>
<path opacity="0.073171" d="M575.673 590.604C574.382 589.829 574.382 588.795 575.673 588.021L600.471 573.814C601.762 573.039 603.829 573.039 605.12 573.814L629.918 588.021C631.209 588.795 631.209 589.829 629.918 590.604L605.12 604.811C603.829 605.585 601.762 605.585 600.471 604.811L575.673 590.604Z" fill="#F2F2F4"/>
<path opacity="0.097561" d="M575.932 590.604C574.64 589.829 574.64 588.795 575.932 588.021L600.471 573.814C601.762 573.039 603.829 573.039 604.862 573.814L629.401 588.021C630.693 588.795 630.693 589.829 629.401 590.604L604.862 604.811C603.57 605.585 601.504 605.585 600.471 604.811L575.932 590.604Z" fill="#EDEDF0"/>
<path opacity="0.122" d="M576.19 590.604C574.898 589.829 574.898 588.795 576.19 588.021L600.471 574.072C601.762 573.297 603.57 573.297 604.862 574.072L629.143 588.021C630.434 588.795 630.434 589.829 629.143 590.604L604.862 604.552C603.57 605.327 601.762 605.327 600.471 604.552L576.19 590.604Z" fill="#E9E9ED"/>
<path opacity="0.1463" d="M576.448 590.604C575.157 589.829 575.157 588.795 576.448 588.021L600.471 574.072C601.762 573.297 603.57 573.297 604.862 574.072L628.885 588.021C630.176 588.795 630.176 589.829 628.885 590.604L604.862 604.552C603.57 605.327 601.762 605.327 600.471 604.552L576.448 590.604Z" fill="#E4E4E9"/>
<path opacity="0.1707" d="M576.706 590.604C575.415 589.829 575.415 588.795 576.706 588.021L600.471 574.33C601.762 573.555 603.57 573.555 604.862 574.33L628.626 588.021C629.918 588.795 629.918 589.829 628.626 590.604L604.862 604.294C603.57 605.069 601.762 605.069 600.471 604.294L576.706 590.604Z" fill="#E0E0E6"/>
<path opacity="0.1951" d="M576.706 590.604C575.415 589.829 575.415 588.795 576.706 588.021L600.471 574.33C601.762 573.555 603.57 573.555 604.862 574.33L628.626 588.021C629.918 588.795 629.918 589.829 628.626 590.604L604.862 604.294C603.57 605.069 601.762 605.069 600.471 604.294L576.706 590.604Z" fill="#DBDBE2"/>
<path opacity="0.2195" d="M576.965 590.604C575.673 589.829 575.673 588.795 576.965 588.021L600.471 574.589C601.762 573.814 603.57 573.814 604.862 574.589L628.368 588.021C629.659 588.795 629.659 589.829 628.368 590.604L604.862 604.036C603.57 604.811 601.762 604.811 600.471 604.036L576.965 590.604Z" fill="#D7D7DE"/>
<path opacity="0.2439" d="M577.223 590.604C575.932 589.829 575.932 588.795 577.223 588.279L600.471 574.847C601.762 574.072 603.57 574.072 604.604 574.847L627.851 588.279C629.143 589.054 629.143 590.087 627.851 590.604L604.604 604.036C603.312 604.81 601.504 604.81 600.471 604.036L577.223 590.604Z" fill="#D2D2DB"/>
<path opacity="0.2683" d="M577.481 590.604C576.448 589.829 576.448 588.795 577.481 588.279L600.471 575.105C601.504 574.33 603.571 574.33 604.604 575.105L627.593 588.279C628.626 589.054 628.626 590.087 627.593 590.604L604.604 603.777C603.571 604.552 601.504 604.552 600.471 603.777L577.481 590.604Z" fill="#CECED7"/>
<path opacity="0.2927" d="M577.74 590.604C576.707 589.829 576.707 588.795 577.74 588.279L600.471 575.105C601.504 574.33 603.571 574.33 604.604 575.105L627.335 588.279C628.368 589.054 628.368 590.087 627.335 590.604L604.604 603.777C603.571 604.552 601.504 604.552 600.471 603.777L577.74 590.604Z" fill="#C9C9D3"/>
<path opacity="0.3171" d="M577.998 590.604C576.965 589.829 576.965 588.795 577.998 588.279L600.729 575.105C601.762 574.33 603.829 574.33 604.862 575.105L627.593 588.279C628.626 589.054 628.626 590.087 627.593 590.604L604.862 603.777C603.829 604.552 601.762 604.552 600.729 603.777L577.998 590.604Z" fill="#C5C5D0"/>
<path opacity="0.3415" d="M578.256 590.604C577.223 589.829 577.223 588.795 578.256 588.279L600.729 575.363C601.762 574.588 603.571 574.588 604.862 575.363L627.335 588.279C628.368 589.054 628.368 590.087 627.335 590.604L604.862 603.519C603.829 604.294 602.021 604.294 600.729 603.519L578.256 590.604Z" fill="#C1C1CC"/>
<path opacity="0.3659" d="M578.515 590.604C577.481 590.087 577.481 588.796 578.515 588.279L600.729 575.364C601.762 574.847 603.571 574.847 604.862 575.364L627.076 588.279C628.11 588.796 628.11 590.087 627.076 590.604L604.862 603.519C603.829 604.036 602.021 604.036 600.729 603.519L578.515 590.604Z" fill="#BCBCC8"/>
<path opacity="0.3902" d="M578.773 590.604C577.74 590.087 577.74 588.796 578.773 588.279L600.729 575.622C601.762 575.105 603.57 575.105 604.862 575.622L626.818 588.279C627.851 588.796 627.851 590.087 626.818 590.604L604.862 603.261C603.829 603.777 602.021 603.777 600.729 603.261L578.773 590.604Z" fill="#B8B8C5"/>
<path opacity="0.4146" d="M579.031 590.604C577.998 590.087 577.998 589.054 579.031 588.279L600.729 575.622C601.762 575.105 603.57 575.105 604.604 575.622L626.302 588.279C627.335 588.796 627.335 589.829 626.302 590.604L604.604 603.261C603.57 603.777 601.762 603.777 600.729 603.261L579.031 590.604Z" fill="#B3B3C1"/>
<path opacity="0.439" d="M579.031 590.604C577.998 590.087 577.998 589.054 579.031 588.279L600.471 575.88C601.504 575.364 603.312 575.364 604.345 575.88L625.785 588.279C626.818 588.796 626.818 589.829 625.785 590.604L604.345 603.002C603.312 603.519 601.504 603.519 600.471 603.002L579.031 590.604Z" fill="#AFAFBE"/>
<path opacity="0.4634" d="M579.29 590.604C578.256 590.087 578.256 589.054 579.29 588.279L600.729 575.88C601.762 575.364 603.57 575.364 604.604 575.88L626.043 588.279C627.076 588.796 627.076 589.829 626.043 590.604L604.604 603.002C603.57 603.519 601.762 603.519 600.729 603.002L579.29 590.604Z" fill="#AAAABA"/>
<path opacity="0.4878" d="M579.548 590.604C578.515 590.087 578.515 589.054 579.548 588.279L600.729 576.138C601.762 575.622 603.57 575.622 604.604 576.138L625.785 588.279C626.818 588.796 626.818 589.829 625.785 590.604L604.604 602.744C603.57 603.261 601.762 603.261 600.729 602.744L579.548 590.604Z" fill="#A6A6B6"/>
<path opacity="0.5122" d="M579.806 590.345C578.773 589.829 578.773 588.796 579.806 588.021L600.729 575.88C601.762 575.364 603.57 575.364 604.604 575.88L625.527 588.021C626.56 588.537 626.56 589.57 625.527 590.345L604.604 602.486C603.57 603.002 601.762 603.002 600.729 602.486L579.806 590.345Z" fill="#A1A1B3"/>
<path opacity="0.5366" d="M580.064 590.345C579.031 589.829 579.031 588.796 580.064 588.279L600.729 576.397C601.762 575.88 603.57 575.88 604.604 576.397L625.268 588.279C626.302 588.796 626.302 589.829 625.268 590.345L604.604 602.227C603.57 602.744 601.762 602.744 600.729 602.227L580.064 590.345Z" fill="#9D9DAF"/>
<path opacity="0.561" d="M580.323 590.345C579.29 589.829 579.29 588.796 580.323 588.279L600.729 576.397C601.762 575.88 603.312 575.88 604.345 576.397L624.752 588.279C625.785 588.796 625.785 589.829 624.752 590.345L604.345 602.227C603.312 602.744 601.762 602.744 600.729 602.227L580.323 590.345Z" fill="#9898AB"/>
<path opacity="0.5854" d="M580.581 590.345C579.548 589.829 579.548 588.795 580.581 588.279L600.729 576.655C601.762 576.138 603.312 576.138 604.345 576.655L624.493 588.279C625.527 588.795 625.527 589.829 624.493 590.345L604.345 601.969C603.312 602.486 601.762 602.486 600.729 601.969L580.581 590.345Z" fill="#9494A8"/>
<path opacity="0.6098" d="M580.839 590.345C579.806 589.829 579.806 588.795 580.839 588.279L600.987 576.655C602.021 576.138 603.57 576.138 604.604 576.655L624.752 588.279C625.785 588.795 625.785 589.829 624.752 590.345L604.604 601.969C603.57 602.486 602.021 602.486 600.987 601.969L580.839 590.345Z" fill="#8F8FA4"/>
<path opacity="0.6341" d="M581.098 590.345C580.064 589.829 580.064 588.795 581.098 588.279L600.987 576.913C602.021 576.397 603.57 576.397 604.604 576.913L624.493 588.279C625.527 588.795 625.527 589.829 624.493 590.345L604.604 601.711C603.57 602.227 602.021 602.227 600.987 601.711L581.098 590.345Z" fill="#8B8BA1"/>
<path opacity="0.6585" d="M581.356 590.345C580.323 589.829 580.323 588.795 581.356 588.279L600.987 576.913C602.021 576.397 603.57 576.397 604.604 576.913L624.235 588.279C625.268 588.795 625.268 589.829 624.235 590.345L604.604 601.711C603.57 602.227 602.021 602.227 600.987 601.711L581.356 590.345Z" fill="#86869D"/>
<path opacity="0.6829" d="M581.614 590.345C580.581 589.829 580.581 588.795 581.614 588.279L600.987 577.172C602.021 576.655 603.57 576.655 604.604 577.172L623.977 588.279C625.01 588.795 625.01 589.829 623.977 590.345L604.604 601.453C603.57 601.969 602.021 601.969 600.987 601.453L581.614 590.345Z" fill="#828299"/>
<path opacity="0.7073" d="M581.614 590.345C580.581 589.829 580.581 588.795 581.614 588.279L600.729 577.172C601.762 576.655 603.312 576.655 604.345 577.172L623.46 588.279C624.493 588.795 624.493 589.829 623.46 590.345L604.345 601.453C603.312 601.969 601.762 601.969 600.729 601.453L581.614 590.345Z" fill="#7E7E96"/>
<path opacity="0.7317" d="M581.873 590.345C580.839 589.829 580.839 588.795 581.873 588.279L600.729 577.43C601.762 576.913 603.312 576.913 604.087 577.43L622.943 588.279C623.977 588.795 623.977 589.829 622.943 590.345L604.087 601.194C603.054 601.711 601.504 601.711 600.729 601.194L581.873 590.345Z" fill="#797992"/>
<path opacity="0.7561" d="M582.131 590.345C581.098 589.829 581.098 588.795 582.131 588.279L600.987 577.43C602.021 576.913 603.57 576.913 604.345 577.43L623.202 588.279C624.235 588.795 624.235 589.829 623.202 590.345L604.345 601.194C603.312 601.711 601.762 601.711 600.987 601.194L582.131 590.345Z" fill="#75758E"/>
<path opacity="0.7805" d="M582.389 590.345C581.356 589.829 581.356 589.054 582.389 588.279L600.987 577.688C602.021 577.172 603.57 577.172 604.345 577.688L622.943 588.279C623.977 588.795 623.977 589.57 622.943 590.345L604.345 600.936C603.312 601.453 601.762 601.453 600.987 600.936L582.389 590.345Z" fill="#70708B"/>
<path opacity="0.8049" d="M582.647 590.345C581.614 589.829 581.614 589.054 582.647 588.537L600.987 577.947C602.021 577.43 603.312 577.43 604.345 577.947L622.685 588.537C623.718 589.054 623.718 589.829 622.685 590.345L604.345 600.936C603.312 601.453 602.021 601.453 600.987 600.936L582.647 590.345Z" fill="#6C6C87"/>
<path opacity="0.8293" d="M582.906 590.345C581.873 589.829 581.873 589.054 582.906 588.537L600.988 578.205C602.021 577.688 603.313 577.688 604.346 578.205L622.427 588.537C623.461 589.054 623.461 589.829 622.427 590.345L604.346 600.678C603.313 601.194 602.021 601.194 600.988 600.678L582.906 590.345Z" fill="#676783"/>
<path opacity="0.8537" d="M583.164 590.345C582.389 589.829 582.389 589.054 583.164 588.537L600.987 578.205C601.762 577.688 603.312 577.688 604.345 578.205L622.169 588.537C622.944 589.054 622.944 589.829 622.169 590.345L604.345 600.678C603.57 601.194 602.021 601.194 600.987 600.678L583.164 590.345Z" fill="#636380"/>
<path opacity="0.878" d="M583.423 590.345C582.648 589.829 582.648 589.054 583.423 588.537L600.987 578.205C601.762 577.688 603.312 577.688 604.345 578.205L621.91 588.537C622.685 589.054 622.685 589.829 621.91 590.345L604.345 600.678C603.57 601.194 602.021 601.194 600.987 600.678L583.423 590.345Z" fill="#5E5E7C"/>
<path opacity="0.9024" d="M583.681 590.345C582.906 589.829 582.906 589.054 583.681 588.537L601.246 578.463C602.021 577.947 603.57 577.947 604.345 578.463L621.91 588.537C622.685 589.054 622.685 589.829 621.91 590.345L604.345 600.419C603.57 600.936 602.021 600.936 601.246 600.419L583.681 590.345Z" fill="#5A5A79"/>
<path opacity="0.9268" d="M583.939 590.345C583.164 589.829 583.164 589.054 583.939 588.537L601.246 578.463C602.021 577.947 603.57 577.947 604.345 578.463L621.652 588.537C622.427 589.054 622.427 589.829 621.652 590.345L604.345 600.419C603.57 600.936 602.021 600.936 601.246 600.419L583.939 590.345Z" fill="#555575"/>
<path opacity="0.9512" d="M583.939 590.345C583.164 589.829 583.164 589.054 583.939 588.537L600.987 578.721C601.762 578.205 603.312 578.205 604.087 578.721L621.135 588.537C621.91 589.054 621.91 589.829 621.135 590.345L604.087 600.161C603.312 600.678 601.762 600.678 600.987 600.161L583.939 590.345Z" fill="#515171"/>
<path opacity="0.9756" d="M584.197 590.345C583.422 589.829 583.422 589.054 584.197 588.537L600.987 578.721C601.762 578.205 603.312 578.205 604.087 578.721L620.877 588.537C621.652 589.054 621.652 589.829 620.877 590.345L604.087 600.161C603.312 600.678 601.762 600.678 600.987 600.161L584.197 590.345Z" fill="#4C4C6E"/>
<path d="M584.456 590.345C583.681 589.829 583.681 589.054 584.456 588.537L600.987 578.98C601.762 578.463 603.312 578.463 604.087 578.98L620.619 588.537C621.394 589.054 621.394 589.829 620.619 590.345L604.087 599.903C603.312 600.419 601.762 600.419 600.987 599.903L584.456 590.345Z" fill="#48486A"/>
</g>
<path d="M603.054 551.858L581.356 564.515L603.054 576.914V551.858Z" fill="#ADB9E0"/>
<path d="M603.054 551.858V576.914L624.494 564.515L603.054 551.858Z" fill="#C2CAE8"/>
<path d="M581.356 564.515V589.312L603.054 601.711V576.913L581.356 564.515Z" fill="#C2CAE8"/>
<path d="M603.054 601.711L624.494 589.312V564.515L603.054 576.913V601.711Z" fill="#ADB9E0"/>
<path d="M581.356 564.515L573.607 554.699L595.046 542.3L603.054 551.858L581.356 564.515Z" fill="#EFF1F9"/>
<path d="M624.494 564.515L632.243 554.699L610.803 542.3L603.054 551.858L624.494 564.515Z" fill="#EFF1F9"/>
<path opacity="0.3" d="M624.494 575.622V565.548L603.054 576.913L608.737 584.663L624.494 575.622Z" fill="#231F20"/>
<path d="M603.054 576.913L609.512 583.113L630.951 570.456L624.494 564.515L603.054 576.913Z" fill="#EFF1F9"/>
<path opacity="0.3" d="M581.356 565.806V575.622L597.371 584.663L603.054 576.913L581.614 565.806H581.356Z" fill="#231F20"/>
<path d="M603.054 576.913L596.338 583.113L574.898 570.456L581.614 564.515L603.054 576.913Z" fill="#EFF1F9"/>
<path opacity="0.754209" d="M589.88 558.574C596.854 553.149 608.478 553.149 615.711 558.574C622.685 563.998 622.685 573.039 615.711 578.463C608.737 583.888 597.113 583.888 589.88 578.463C582.906 573.039 582.906 563.998 589.88 558.574Z" fill="url(#paint8_radial)"/>
<path fill-rule="evenodd" clip-rule="evenodd" d="M618.294 550.824C619.069 550.824 619.586 551.083 619.586 551.599L619.328 555.732C619.328 556.249 618.811 556.507 618.036 556.507H616.486V559.607C616.486 559.865 616.486 560.123 616.228 560.123L613.128 561.932C612.87 562.19 612.612 562.19 612.095 562.19C611.966 562.19 611.837 562.125 611.707 562.061C611.578 561.996 611.449 561.932 611.32 561.932L609.254 560.898H607.962C607.704 561.157 607.445 561.157 607.187 561.157C606.67 561.157 606.412 561.415 606.412 561.673V563.223C606.412 563.74 605.896 563.998 605.121 563.998H600.471C599.696 563.998 599.18 563.74 599.18 563.223V561.673C599.18 561.415 598.921 561.157 598.405 561.157C598.275 561.157 598.146 561.092 598.017 561.028C597.888 560.963 597.759 560.898 597.63 560.898C597.113 560.898 596.596 560.898 596.338 561.157L594.272 562.19C594.013 562.448 593.755 562.448 593.497 562.448C593.238 562.448 592.722 562.448 592.464 562.19L589.364 560.382C589.364 560.253 589.299 560.188 589.235 560.123C589.17 560.059 589.106 559.994 589.106 559.865V559.607V556.507H587.556C586.781 556.507 586.264 556.249 586.264 555.732V551.858C586.264 551.341 586.781 551.083 587.556 551.083H590.397C590.637 551.083 590.933 551.194 591.181 551.288C591.467 551.396 591.689 551.479 591.689 551.341C591.947 551.083 591.689 550.824 591.43 550.566L589.364 549.533C589.106 549.404 589.687 549.404 590.397 549.404C591.107 549.404 591.947 549.404 592.205 549.275L592.464 546.691C592.98 546.433 593.755 546.433 594.272 546.691L596.338 547.725H597.63C597.888 547.466 598.146 547.466 598.405 547.466C598.921 547.466 599.18 547.208 599.18 546.95V545.4C599.18 544.883 599.696 544.625 600.471 544.625H605.121C605.896 544.625 606.412 544.883 606.412 545.4V546.95C606.412 547.208 606.67 547.466 607.187 547.466C607.316 547.466 607.445 547.531 607.575 547.596C607.704 547.66 607.833 547.725 607.962 547.725C608.479 547.725 608.995 547.725 609.254 547.466L611.32 546.433C611.837 546.175 612.612 546.175 613.128 546.433V548.758C613.367 548.877 614.211 548.941 615 549.001C615.92 549.071 616.764 549.136 616.486 549.275L614.42 550.308C614.161 550.566 613.903 550.824 614.161 551.083C614.161 551.221 614.383 551.137 614.669 551.03C614.917 550.936 615.213 550.824 615.453 550.824H618.294ZM600.988 557.54C604.604 558.315 608.737 557.024 609.512 554.699C610.028 553.149 608.22 551.341 605.637 550.566C602.021 549.791 597.888 551.083 597.113 553.407C596.338 555.216 598.146 557.024 600.988 557.54Z" fill="#48486A"/>
<path d="M616.744 547.208V545.142H613.903L613.128 544.883C612.611 544.625 611.837 544.625 611.32 544.883L610.545 545.142H606.412V543.592C606.412 543.075 605.895 542.817 605.121 542.817H600.471C599.696 542.817 599.179 543.075 599.179 543.592V545.142H595.047L594.53 544.883C594.013 544.625 593.238 544.625 592.722 544.883L592.205 545.142H589.364V547.208C589.364 547.466 589.364 547.725 589.622 547.725L591.689 548.758H614.42L616.486 547.725C616.744 547.466 616.744 547.466 616.744 547.208Z" fill="#48486A"/>
<path fill-rule="evenodd" clip-rule="evenodd" d="M619.586 551.858C619.586 552.374 619.069 552.633 618.294 552.633H614.678C614.678 552.633 614.42 552.891 614.161 553.666C613.903 553.924 614.161 554.182 614.42 554.441L616.486 555.474C617.003 555.732 617.003 556.249 616.486 556.507L613.386 558.315C612.87 558.574 612.095 558.574 611.578 558.315L609.512 557.282H608.22C607.962 557.54 607.704 557.54 607.445 557.54C606.929 557.54 606.67 557.799 606.67 558.057V559.607C606.67 560.124 606.154 560.382 605.379 560.382H600.729C599.954 560.382 599.438 560.124 599.438 559.607V558.057C599.438 557.799 599.18 557.54 598.663 557.54C598.534 557.54 598.405 557.476 598.275 557.411C598.146 557.347 598.017 557.282 597.888 557.282C597.371 557.282 596.855 557.282 596.596 557.54L594.53 558.574C594.013 558.832 593.238 558.832 592.722 558.574L589.622 556.766C589.106 556.507 589.106 555.991 589.622 555.732L591.689 554.699C591.947 554.441 592.205 554.182 591.947 553.924C591.947 553.795 591.882 553.73 591.818 553.666C591.753 553.601 591.689 553.537 591.689 553.408C591.43 553.149 591.172 552.891 590.655 552.891H587.814C587.039 552.891 586.522 552.633 586.522 552.116V549.533C586.522 549.016 587.039 548.758 587.814 548.758H590.655C591.172 548.758 591.43 548.5 591.689 548.241C591.689 548.112 591.753 548.048 591.818 547.983C591.882 547.919 591.947 547.854 591.947 547.725C592.205 547.466 591.947 547.208 591.689 546.95L589.622 545.917C589.106 545.658 589.106 545.142 589.622 544.883L592.722 543.075C593.238 542.817 594.013 542.817 594.53 543.075L596.596 544.108H597.888C598.146 543.85 598.405 543.85 598.663 543.85C599.18 543.85 599.438 543.592 599.438 543.334V541.784C599.438 541.267 599.954 541.009 600.729 541.009H605.379C606.154 541.009 606.67 541.267 606.67 541.784V543.334C606.67 543.592 606.929 543.85 607.445 543.85C607.575 543.85 607.704 543.915 607.833 543.979C607.962 544.044 608.091 544.108 608.22 544.108C608.737 544.108 609.254 544.108 609.512 543.85L611.578 542.817C612.095 542.559 612.87 542.559 613.386 542.817L616.486 544.625C617.003 544.883 617.003 545.4 616.486 545.658L614.42 546.692C614.161 546.95 613.903 547.208 614.161 547.466C614.161 547.596 614.226 547.66 614.291 547.725C614.355 547.789 614.42 547.854 614.42 547.983C614.678 548.241 614.936 548.5 615.453 548.5H618.294C619.069 548.5 619.586 548.758 619.586 549.275V551.858ZM605.379 546.95C601.763 546.175 597.63 547.466 596.855 549.791C596.08 551.599 597.888 553.408 600.729 553.924C604.346 554.699 608.479 553.408 609.254 551.083C610.028 549.275 608.22 547.466 605.379 546.95Z" fill="#5C629E"/>
<path opacity="0.6" d="M486.175 625.596C486.175 717.275 636.381 758.308 726.647 758.308C870.927 758.308 954.12 677.377 954.12 627.463V1.15674H485.114L486.175 625.596Z" fill="url(#paint9_linear)" fill-opacity="0.14"/>
<path d="M697.865 268.297L704.514 278.303L718.147 257.404L711.808 247.389L697.865 268.297Z" fill="url(#paint10_linear)"/>
<path d="M713.781 268.297L720.43 278.303L734.064 257.404L727.725 247.389L713.781 268.297Z" fill="url(#paint11_linear)"/>
<path d="M728.703 269.098L735.351 279.103L741.992 268.924L735.318 259.178L728.703 269.098Z" fill="url(#paint12_linear)"/>
<defs>
<linearGradient id="paint0_linear" x1="485.114" y1="623.544" x2="485.114" y2="788.018" gradientUnits="userSpaceOnUse">
<stop stop-color="#F4ECE2"/>
<stop offset="1" stop-color="#CD9D52"/>
</linearGradient>
<linearGradient id="paint1_linear" x1="486.175" y1="487.719" x2="486.175" y2="758.308" gradientUnits="userSpaceOnUse">
<stop stop-color="#CD9D52"/>
<stop offset="1" stop-color="#F4ECE2"/>
</linearGradient>
<linearGradient id="paint2_linear" x1="645.291" y1="805.661" x2="815.258" y2="777.75" gradientUnits="userSpaceOnUse">
<stop offset="0.3042" stop-color="white"/>
<stop offset="1" stop-color="#EFF2F9"/>
</linearGradient>
<linearGradient id="paint3_linear" x1="885.095" y1="234.421" x2="673.683" y2="211.496" gradientUnits="userSpaceOnUse">
<stop offset="0.1043" stop-color="white"/>
<stop offset="0.3013" stop-color="#F4F6FA"/>
<stop offset="0.6125" stop-color="#EAEEF6"/>
<stop offset="1" stop-color="#E7EBF5"/>
</linearGradient>
<linearGradient id="paint4_linear" x1="881.766" y1="453.931" x2="711.774" y2="453.931" gradientUnits="userSpaceOnUse">
<stop offset="1.1e-07" stop-color="#7378B8"/>
<stop offset="1" stop-color="#4890CD"/>
</linearGradient>
<linearGradient id="paint5_linear" x1="734.367" y1="846.591" x2="833.944" y2="828.842" gradientUnits="userSpaceOnUse">
<stop stop-color="white"/>
<stop offset="0.3013" stop-color="#F4F6FA"/>
<stop offset="0.6125" stop-color="#EAEEF6"/>
<stop offset="1" stop-color="#E7EBF5"/>
</linearGradient>
<linearGradient id="paint6_linear" x1="562.798" y1="765.155" x2="657.793" y2="748.026" gradientUnits="userSpaceOnUse">
<stop offset="0.3042" stop-color="white"/>
<stop offset="1" stop-color="#EFF2F9"/>
</linearGradient>
<linearGradient id="paint7_linear" x1="647.044" y1="687.842" x2="647.044" y2="585.615" gradientUnits="userSpaceOnUse">
<stop offset="0.1043" stop-color="white"/>
<stop offset="0.3013" stop-color="#F4F6FA"/>
<stop offset="0.6125" stop-color="#EAEEF6"/>
<stop offset="1" stop-color="#E7EBF5"/>
</linearGradient>
<radialGradient id="paint8_radial" cx="0" cy="0" r="1" gradientUnits="userSpaceOnUse" gradientTransform="translate(605.611 568.458) scale(15.6099 12.0546)">
<stop stop-color="#9A9EC3"/>
<stop offset="0.1983" stop-color="#A2A6C8"/>
<stop offset="0.4425" stop-color="#CACCE0" stop-opacity="0.701677"/>
<stop offset="0.6659" stop-color="#E7E8F1" stop-opacity="0.01"/>
<stop offset="0.859" stop-color="#F9F9FB" stop-opacity="0.01"/>
<stop offset="1" stop-color="white" stop-opacity="0.01"/>
</radialGradient>
<linearGradient id="paint9_linear" x1="494.608" y1="31.3403" x2="494.608" y2="759.877" gradientUnits="userSpaceOnUse">
<stop stop-color="white" stop-opacity="0.01"/>
<stop offset="0.318678" stop-color="#D8B372" stop-opacity="0.318678"/>
<stop offset="1" stop-color="#CEA056"/>
</linearGradient>
<linearGradient id="paint10_linear" x1="697.865" y1="247.389" x2="697.865" y2="278.303" gradientUnits="userSpaceOnUse">
<stop stop-color="#E8D19C"/>
<stop offset="1" stop-color="#CE9E52"/>
</linearGradient>
<linearGradient id="paint11_linear" x1="713.781" y1="247.389" x2="713.781" y2="278.303" gradientUnits="userSpaceOnUse">
<stop stop-color="#E8D19C"/>
<stop offset="1" stop-color="#CE9E52"/>
</linearGradient>
<linearGradient id="paint12_linear" x1="728.703" y1="259.178" x2="728.703" y2="279.103" gradientUnits="userSpaceOnUse">
<stop stop-color="#E8D19C"/>
<stop offset="1" stop-color="#CE9E52"/>
</linearGradient>
</defs>
</svg>
