<svg width="118" height="101" viewBox="0 0 118 101" fill="none" xmlns="http://www.w3.org/2000/svg">
<path d="M15.6693 63.0735L13.8447 62.0493L8.44113 64.7686C3.87967 67.0641 1.00244 71.7611 1.00244 76.8818L4.58143 78.9654L15.6693 63.0735Z" fill="url(#paint0_linear)"/>
<path d="M1.56348 75.7516L4.08982 77.1995V76.3873C4.08982 75.7163 4.19509 75.01 4.37053 74.3743L4.61614 73.5267L2.40559 72.2554L2.19506 72.7145C1.77401 73.6327 1.56348 74.6921 1.56348 75.7516Z" fill="white"/>
<path fill-rule="evenodd" clip-rule="evenodd" d="M1.56348 75.7516L4.08982 77.1995V76.3873C4.08982 75.7163 4.19509 75.01 4.37053 74.3743L4.61614 73.5267L2.40559 72.2554L2.19506 72.7145C1.77401 73.6327 1.56348 74.6921 1.56348 75.7516V75.7516Z" stroke="#E3BA18" stroke-width="0.5"/>
<path d="M87.6695 66.4636L83.7046 64.2034L86.7573 62.8967L90.7573 65.2982L87.6695 66.4636Z" fill="#292929"/>
<path d="M92.1897 59.3319C94.5361 55.2678 94.5306 50.8718 92.1773 49.513C89.824 48.1543 86.0141 50.3475 83.6676 54.4116C81.3211 58.4757 81.3267 62.8717 83.68 64.2304C86.0333 65.5892 89.8432 63.396 92.1897 59.3319Z" fill="#292929"/>
<path d="M92.161 49.4768L96.1259 51.737C96.1259 51.737 92.3715 54.8801 91.1434 53.1849C89.8802 51.5251 92.161 49.4768 92.161 49.4768Z" fill="#292929"/>
<path d="M117.775 17.4104V20.7301L43.564 63.709V60.5306L117.775 17.4104Z" fill="#F6F8FB"/>
<path d="M13.8442 46.4397V43.2613L31.0725 41.7781L43.5639 60.5306V63.709L13.8442 46.4397Z" fill="#F6F8FB"/>
<path d="M13.8442 43.2615C21.7391 44.3916 29.1427 47.8172 35.1427 53.1145L43.5639 60.5308L117.775 17.4106L109.389 9.99437C103.389 4.69705 95.9856 1.27145 88.0556 0.141357L13.8442 43.2615Z" fill="#E8ECF3"/>
<path d="M13.8442 46.4399V69.7835L43.5288 87.0527V63.7092L13.8442 46.4399Z" fill="url(#paint1_linear)"/>
<path d="M43.5288 63.7091L117.775 20.7302V42.4139C117.775 43.3321 117.284 44.1444 116.512 44.6035L43.5288 87.0173V63.7091Z" fill="url(#paint2_linear)"/>
<path d="M4.61621 71.4432V81.3315L25.0375 93.1622L27.1077 81.0843L5.17762 68.4414C4.82674 69.4302 4.61621 70.4191 4.61621 71.4432Z" fill="url(#paint3_linear)"/>
<path d="M15.6341 57.3523L6.9673 65.828C6.19536 66.5696 5.59886 67.4878 5.21289 68.4767L27.6693 81.5081L41.7747 72.5026L15.6341 57.3523Z" fill="url(#paint4_linear)"/>
<path d="M41.7746 72.5378L29.2481 78.1177C26.6867 79.2478 25.0024 81.8258 25.0024 84.651V93.4799L41.7746 86.0283V72.5378Z" fill="url(#paint5_linear)"/>
<path d="M35.4943 97.0468L31.5293 94.7866L34.582 93.4446L38.6171 95.846L35.4943 97.0468Z" fill="#292929"/>
<path d="M40.0207 89.913C37.7049 93.9743 33.8803 96.1639 31.5294 94.7866C29.1785 93.4093 29.1434 89.0302 31.4943 84.9689C33.8101 80.9076 37.6347 78.718 39.9856 80.0953C42.3365 81.4373 42.3365 85.8165 40.0207 89.913Z" fill="#292929"/>
<path d="M39.9852 80.0601L43.9501 82.3202C43.9501 82.3202 40.1957 85.4633 38.9676 83.7682C37.7045 82.073 39.9852 80.0601 39.9852 80.0601Z" fill="#292929"/>
<path d="M44.0027 92.1432C46.3491 88.0791 46.3436 83.683 43.9903 82.3243C41.637 80.9656 37.8271 83.1588 35.4806 87.2228C33.1341 91.2869 33.1397 95.683 35.493 97.0417C37.8463 98.4004 41.6562 96.2073 44.0027 92.1432Z" fill="#424242"/>
<path d="M42.3714 91.22C40.8977 93.7627 38.5468 95.14 37.0731 94.2571C35.5994 93.4095 35.5994 90.6549 37.038 88.1122C38.5117 85.5695 40.8626 84.1922 42.3363 85.0751C43.8451 85.958 43.8451 88.6772 42.3714 91.22Z" fill="white"/>
<path d="M42.0556 91.0432C40.7924 93.2681 38.7222 94.4688 37.4239 93.7272C36.1257 92.9856 36.1257 90.5841 37.3888 88.3593C38.652 86.1344 40.7222 84.9337 42.0205 85.6753C43.3187 86.4169 43.3187 88.8184 42.0556 91.0432Z" fill="#424242"/>
<path d="M41.3187 90.6195C40.4415 92.1381 39.0029 92.9857 38.1257 92.4559C37.2485 91.9262 37.2485 90.3017 38.1257 88.7478C39.0029 87.2293 40.4415 86.3817 41.3187 86.9114C42.1959 87.4411 42.1959 89.101 41.3187 90.6195Z" fill="#F6F8FB"/>
<path d="M40.266 90.0192C39.9502 90.549 39.459 90.8315 39.1783 90.6549C38.8625 90.4783 38.8625 89.9133 39.1783 89.3835C39.494 88.8538 39.9853 88.5713 40.266 88.7479C40.5818 88.9244 40.5818 89.4895 40.266 90.0192Z" fill="#424242"/>
<path d="M96.1613 61.5903C93.8455 65.6516 90.0209 67.8411 87.67 66.4638C85.3191 65.0865 85.284 60.7074 87.6349 56.6461C89.9507 52.5848 93.7753 50.3953 96.1262 51.7726C98.4771 53.1146 98.4771 57.529 96.1613 61.5903Z" fill="#424242"/>
<path d="M94.5472 60.6721C93.0735 63.2148 90.7226 64.5921 89.2489 63.7092C87.7752 62.8617 87.7752 60.1071 89.2138 57.5644C90.6875 55.0216 93.0384 53.6443 94.5121 54.5272C95.9858 55.3748 96.0209 58.1294 94.5472 60.6721Z" fill="white"/>
<path d="M94.2313 60.4602C92.9682 62.6851 90.898 63.8858 89.5997 63.1442C88.3014 62.4026 88.3014 60.0011 89.5646 57.7763C90.8278 55.5514 92.898 54.3507 94.1963 55.0923C95.4945 55.8339 95.4945 58.2354 94.2313 60.4602Z" fill="#424242"/>
<path d="M93.4945 60.0363C92.6173 61.5549 91.1787 62.4024 90.3015 61.8727C89.4243 61.343 89.4243 59.7184 90.3015 58.1646C91.1787 56.646 92.6173 55.7984 93.4945 56.3282C94.3717 56.8579 94.3717 58.5177 93.4945 60.0363Z" fill="#F6F8FB"/>
<path d="M92.4418 59.436C92.126 59.9657 91.6347 60.2482 91.354 60.0716C91.0382 59.8951 91.0382 59.33 91.354 58.8003C91.6698 58.2706 92.1611 57.988 92.4418 58.1646C92.7576 58.3412 92.7576 58.9062 92.4418 59.436Z" fill="#424242"/>
<path d="M43.564 75.8576L41.8447 74.7981L32.4761 79.0713C27.9147 81.1549 24.9673 85.7459 24.9673 90.796L28.5112 92.8796V91.9967C28.5112 87.3704 30.9674 83.1325 34.9323 80.837L43.564 75.8576Z" fill="url(#paint6_linear)"/>
<path d="M43.5288 75.8928V76.7051L35.5638 81.2255C31.5638 83.4856 29.1076 87.8294 29.248 92.4558L28.5462 92.8442L28.5111 91.9967C28.4058 87.3703 30.8269 83.0619 34.827 80.8017L43.5288 75.8928Z" fill="url(#paint7_linear)"/>
<path d="M41.7749 64.3801V72.0083L15.5991 56.7873V49.1592L41.7749 64.3801Z" fill="#F6F8FB"/>
<path d="M45.3184 64.4155V71.973L115.81 31.0424V23.4849L45.3184 64.4155Z" fill="#E8ECF3"/>
<path d="M25.5288 89.7013L28.0552 91.1492V90.337C28.0552 89.666 28.1604 88.9597 28.3359 88.324L28.5815 87.4764L26.3709 86.2051L26.1604 86.6642C25.7393 87.5824 25.5288 88.6065 25.5288 89.7013Z" fill="white"/>
<path fill-rule="evenodd" clip-rule="evenodd" d="M25.5288 89.7013L28.0552 91.1492V90.337C28.0552 89.666 28.1604 88.9597 28.3359 88.324L28.5815 87.4764L26.3709 86.2051L26.1604 86.6642C25.7393 87.5824 25.5288 88.6065 25.5288 89.7013V89.7013Z" stroke="#E3BA18" stroke-width="0.5"/>
<path d="M24.5813 80.9783C24.1603 82.3202 23.9497 83.6975 23.9497 85.1102V88.677L5.59863 78.0824V74.4449C5.59863 73.0676 5.80916 71.6903 6.19513 70.3836L6.23022 70.313L24.5813 80.9783Z" fill="url(#paint8_linear)"/>
<path d="M27.9497 93.1974V95.4223C28.4059 95.4223 28.862 95.281 29.248 95.0692V92.4558L27.9497 93.1974Z" fill="url(#paint9_linear)"/>
<path d="M2.68656 81.155L26.6518 95.0693C27.0377 95.3165 27.4939 95.4225 27.95 95.4225V93.1976L0.440918 77.1997C0.440918 78.8595 1.28303 80.3428 2.68656 81.155Z" fill="url(#paint10_linear)"/>
<path d="M1.03742 76.8818L0.440918 77.235L27.95 93.1976L28.5465 92.8444L1.03742 76.8818Z" fill="#F6F8FB"/>
<path d="M20.8271 49.4064V45.6277L34.2659 53.4324V57.2465L20.8271 49.4064Z" fill="url(#paint11_linear)"/>
<path d="M20.0551 47.7112C20.0551 48.3822 19.6691 48.6647 19.1428 48.3822C18.6515 48.0996 18.2305 47.3227 18.2305 46.6517C18.2305 45.9807 18.6164 45.6982 19.1428 45.9807C19.634 46.2632 20.0551 47.0402 20.0551 47.7112Z" fill="url(#paint12_linear)"/>
<path d="M17.2479 46.0867C17.2479 46.7576 16.862 47.0402 16.3356 46.7576C15.8444 46.4751 15.4233 45.6982 15.4233 45.0272C15.4233 44.3562 15.8093 44.0737 16.3356 44.3562C16.8269 44.674 17.2479 45.4157 17.2479 46.0867Z" fill="url(#paint13_linear)"/>
<path d="M39.6693 59.1181C39.6693 59.7891 39.2833 60.0717 38.757 59.7891C38.2658 59.5066 37.8447 58.7297 37.8447 58.0587C37.8447 57.3877 38.2307 57.1052 38.757 57.3877C39.2833 57.7055 39.6693 58.4825 39.6693 59.1181Z" fill="url(#paint14_linear)"/>
<path d="M36.8622 57.5288C36.8622 58.1998 36.4762 58.4823 35.9499 58.1998C35.4587 57.9173 35.0376 57.1403 35.0376 56.4693C35.0376 55.7983 35.4236 55.5158 35.9499 55.7983C36.4762 56.0809 36.8622 56.8578 36.8622 57.5288Z" fill="url(#paint15_linear)"/>
<g opacity="0.5">
<path d="M7.00244 68.3354C7.80947 68.7592 8.58141 69.1477 9.38843 69.5715C10.1604 69.9953 10.9674 70.3837 11.7744 70.8428L16.4762 73.4209C18.0552 74.3038 19.5991 75.1513 21.143 76.0342C22.6868 76.9171 24.2658 77.8 25.8097 78.6829L25.4939 78.7182C26.0202 78.3297 26.5816 78.0119 27.143 77.694C27.7044 77.3762 28.3009 77.0937 28.8974 76.8112C29.2132 76.6699 29.4939 76.564 29.8097 76.458L30.722 76.1048L32.5115 75.4339C33.7045 74.9748 34.8975 74.5157 36.1256 74.0919C37.3186 73.6681 38.5467 73.209 39.7397 72.7852C38.5818 73.3149 37.3888 73.8093 36.2309 74.3391C35.073 74.8688 33.88 75.3279 32.687 75.8576L30.9326 76.5993L30.0553 76.9877C29.7396 77.0937 29.4588 77.2349 29.1781 77.3762C28.6167 77.6587 28.0553 77.9413 27.4939 78.2591C26.9676 78.5769 26.4062 78.9301 25.9149 79.2832L25.7395 79.3892L25.5641 79.2832C24.0202 78.4004 22.4412 77.5175 20.8973 76.6346C19.3535 75.7517 17.8096 74.8335 16.2657 73.9506L11.6341 71.196C10.8621 70.7369 10.0902 70.2778 9.35335 69.8187C8.51123 69.289 7.73929 68.8299 7.00244 68.3354Z" fill="white"/>
</g>
<g opacity="0.2">
<path d="M1.56348 78.5417C1.56348 78.5417 1.98453 78.7536 2.6863 79.1421C3.38806 79.5306 4.4407 80.0603 5.6337 80.7313C6.86178 81.4023 8.26531 82.1792 9.7741 83.0268C10.511 83.4506 11.318 83.9097 12.0899 84.3335C12.8619 84.7926 13.6689 85.2517 14.4759 85.7108C15.2829 86.1699 16.0549 86.6643 16.8619 87.1234C17.6338 87.5825 18.4058 88.0416 19.1426 88.5007C20.6163 89.3836 22.0199 90.2312 23.1778 90.9728C24.3708 91.7144 25.3181 92.3501 26.0199 92.7739C26.6866 93.1977 27.0726 93.4802 27.0726 93.4802C27.0726 93.4802 26.6515 93.2683 25.9497 92.8798C25.248 92.4914 24.1953 91.9616 23.0023 91.2906C21.7742 90.6196 20.3707 89.8427 18.8619 88.9951C18.1251 88.5713 17.3181 88.1122 16.5461 87.6885C15.7742 87.2294 14.9671 86.7702 14.1601 86.3111C13.3531 85.852 12.5812 85.3576 11.7741 84.8985C11.0022 84.4394 10.2302 83.9803 9.4934 83.5212C8.01969 82.6383 6.61617 81.7908 5.45826 81.0491C4.26526 80.3075 3.31788 79.6718 2.61612 79.2481C1.94945 78.789 1.56348 78.5417 1.56348 78.5417Z" fill="white"/>
</g>
<g opacity="0.5">
<path d="M7.2832 67.6997C7.2832 67.6997 7.35338 67.5231 7.52882 67.2053C7.70426 66.9228 7.98497 66.499 8.33585 66.0399C8.51129 65.7927 8.72182 65.5808 8.96743 65.3336C9.17796 65.0864 9.42358 64.8392 9.70428 64.5566C9.9499 64.3094 10.2306 64.0622 10.5113 63.7797C10.792 63.5325 11.0727 63.25 11.3183 62.9674C11.599 62.6849 11.8797 62.4377 12.1605 62.1552C12.4412 61.8727 12.7219 61.6254 12.9675 61.3782C13.4938 60.8838 13.985 60.4247 14.4061 60.0362C15.2482 59.2593 15.8798 58.7649 15.8798 58.7649C15.8798 58.7649 15.4237 59.4006 14.6868 60.2835C14.3008 60.7426 13.8798 61.237 13.3885 61.7667C13.1429 62.0492 12.8973 62.2964 12.6166 62.579C12.3359 62.8615 12.0903 63.1087 11.8096 63.3912C11.5289 63.6737 11.2482 63.9209 10.9675 64.2035C10.6868 64.4507 10.406 64.6979 10.1253 64.9451C9.56393 65.4042 9.0727 65.8633 8.65164 66.2518C8.23058 66.6402 7.91479 66.9934 7.66917 67.2406C7.38847 67.5584 7.2832 67.6997 7.2832 67.6997Z" fill="white"/>
</g>
<path fill-rule="evenodd" clip-rule="evenodd" d="M24.9673 58.6236C26.441 59.5771 26.6165 60.2481 25.3533 60.0715C24.0901 59.895 21.8796 58.9767 20.4059 57.9879C18.9322 57.0344 18.7567 56.3634 20.0199 56.54C21.248 56.7166 23.4936 57.6348 24.9673 58.6236Z" stroke="url(#paint16_linear)"/>
<path d="M20.8267 56.7166L22.2302 59.0121L25.2478 58.8002" stroke="url(#paint17_linear)"/>
<path d="M15.5991 56.7872C16.8272 56.1163 18.3009 56.1163 19.529 56.8226L41.7749 69.748V72.0435L15.5991 56.7872Z" fill="url(#paint18_linear)"/>
<path d="M15.5991 56.7873L21.5641 52.6201L15.5991 49.1592V56.7873Z" fill="url(#paint19_linear)"/>
<g opacity="0.2">
<path d="M18.0548 50.6072L15.5986 53.0793V56.7874L23.2478 61.2371L28.0549 56.3989L18.0548 50.6072Z" fill="url(#paint20_linear)"/>
<path d="M41.7745 64.3802L40.0903 63.3914L35.2832 68.2649L41.7745 72.0083V64.3802Z" fill="url(#paint21_linear)"/>
<path d="M36.1954 61.1312L31.2128 58.2354L26.4058 63.0736L31.3883 65.9694L36.1954 61.1312Z" fill="url(#paint22_linear)"/>
</g>
<path fill-rule="evenodd" clip-rule="evenodd" d="M41.7749 64.3801V72.0083L15.5991 56.7873V49.1592L41.7749 64.3801Z" stroke="#F6F8FB" stroke-width="0.5"/>
<defs>
<linearGradient id="paint0_linear" x1="-4.87486" y1="95.2255" x2="27.0868" y2="90.3598" gradientUnits="userSpaceOnUse">
<stop stop-color="#F6F8FB"/>
<stop offset="1" stop-color="#99A7D8"/>
</linearGradient>
<linearGradient id="paint1_linear" x1="1.94904" y1="126.091" x2="67.0636" y2="117.734" gradientUnits="userSpaceOnUse">
<stop stop-color="#F6F8FB"/>
<stop offset="1" stop-color="#99A7D8"/>
</linearGradient>
<linearGradient id="paint2_linear" x1="113.721" y1="21.6905" x2="23.6265" y2="11.5068" gradientUnits="userSpaceOnUse">
<stop stop-color="#DCE4F0"/>
<stop offset="1" stop-color="#99A7D8"/>
</linearGradient>
<linearGradient id="paint3_linear" x1="-4.39658" y1="116.924" x2="44.5043" y2="109.112" gradientUnits="userSpaceOnUse">
<stop stop-color="#F6F8FB"/>
<stop offset="1" stop-color="#99A7D8"/>
</linearGradient>
<linearGradient id="paint4_linear" x1="7.11102" y1="87.7926" x2="62.702" y2="87.7926" gradientUnits="userSpaceOnUse">
<stop stop-color="#F6F8FB"/>
<stop offset="1" stop-color="#99A7D8"/>
</linearGradient>
<linearGradient id="paint5_linear" x1="18.2815" y1="113.61" x2="54.9528" y2="108.453" gradientUnits="userSpaceOnUse">
<stop stop-color="#F6F8FB"/>
<stop offset="1" stop-color="#99A7D8"/>
</linearGradient>
<linearGradient id="paint6_linear" x1="17.5152" y1="110.26" x2="57.6704" y2="103.008" gradientUnits="userSpaceOnUse">
<stop stop-color="#F6F8FB"/>
<stop offset="1" stop-color="#99A7D8"/>
</linearGradient>
<linearGradient id="paint7_linear" x1="28.5331" y1="92.8272" x2="43.5259" y2="92.8272" gradientUnits="userSpaceOnUse">
<stop stop-color="#D3DAED"/>
<stop offset="1" stop-color="#99A7D8"/>
</linearGradient>
<linearGradient id="paint8_linear" x1="1.61461" y1="71.0235" x2="-5.29862" y2="93.0714" gradientUnits="userSpaceOnUse">
<stop stop-color="#FBFCFD"/>
<stop offset="1" stop-color="#9BA9D9"/>
</linearGradient>
<linearGradient id="paint9_linear" x1="-9.49009" y1="94.4039" x2="23.8916" y2="101.603" gradientUnits="userSpaceOnUse">
<stop stop-color="#FBFCFD"/>
<stop offset="1" stop-color="#9BA9D9"/>
</linearGradient>
<linearGradient id="paint10_linear" x1="1.74644" y1="96.1831" x2="31.2877" y2="92.4155" gradientUnits="userSpaceOnUse">
<stop stop-color="#F6F8FB"/>
<stop offset="1" stop-color="#99A7D8"/>
</linearGradient>
<linearGradient id="paint11_linear" x1="20.2902" y1="41.6357" x2="16.5996" y2="57.773" gradientUnits="userSpaceOnUse">
<stop stop-color="#FBFCFD"/>
<stop offset="1" stop-color="#9BA9D9"/>
</linearGradient>
<linearGradient id="paint12_linear" x1="18.2308" y1="48.4887" x2="20.0556" y2="48.4887" gradientUnits="userSpaceOnUse">
<stop stop-color="#CE9F55"/>
<stop offset="1" stop-color="#DCBC81"/>
</linearGradient>
<linearGradient id="paint13_linear" x1="15.4237" y1="46.8642" x2="17.2485" y2="46.8642" gradientUnits="userSpaceOnUse">
<stop stop-color="#CE9F55"/>
<stop offset="1" stop-color="#DCBC81"/>
</linearGradient>
<linearGradient id="paint14_linear" x1="37.845" y1="59.8957" x2="39.6699" y2="59.8957" gradientUnits="userSpaceOnUse">
<stop stop-color="#CE9F55"/>
<stop offset="1" stop-color="#DCBC81"/>
</linearGradient>
<linearGradient id="paint15_linear" x1="35.0379" y1="58.3064" x2="36.8627" y2="58.3064" gradientUnits="userSpaceOnUse">
<stop stop-color="#CE9F55"/>
<stop offset="1" stop-color="#DCBC81"/>
</linearGradient>
<linearGradient id="paint16_linear" x1="19.177" y1="60.0966" x2="26.1996" y2="60.0966" gradientUnits="userSpaceOnUse">
<stop stop-color="#CE9F55"/>
<stop offset="1" stop-color="#DCBC81"/>
</linearGradient>
<linearGradient id="paint17_linear" x1="20.8274" y1="59.01" x2="25.2491" y2="59.01" gradientUnits="userSpaceOnUse">
<stop stop-color="#CE9F55"/>
<stop offset="1" stop-color="#DCBC81"/>
</linearGradient>
<linearGradient id="paint18_linear" x1="0.336071" y1="42.6658" x2="0.336071" y2="69.8333" gradientUnits="userSpaceOnUse">
<stop stop-color="#FBFCFD"/>
<stop offset="1" stop-color="#9BA9D9"/>
</linearGradient>
<linearGradient id="paint19_linear" x1="4.08086" y1="54.2821" x2="24.2844" y2="73.8398" gradientUnits="userSpaceOnUse">
<stop stop-color="#FBFCFD"/>
<stop offset="1" stop-color="#9BA9D9"/>
</linearGradient>
<linearGradient id="paint20_linear" x1="-8.45421" y1="57.7461" x2="17.8721" y2="95.9358" gradientUnits="userSpaceOnUse">
<stop stop-color="#FBFCFD"/>
<stop offset="1" stop-color="#9BA9D9"/>
</linearGradient>
<linearGradient id="paint21_linear" x1="22.7486" y1="69.1784" x2="45.5277" y2="90.4212" gradientUnits="userSpaceOnUse">
<stop stop-color="#FBFCFD"/>
<stop offset="1" stop-color="#9BA9D9"/>
</linearGradient>
<linearGradient id="paint22_linear" x1="7.50226" y1="63.4294" x2="26.0907" y2="92.5566" gradientUnits="userSpaceOnUse">
<stop stop-color="#FBFCFD"/>
<stop offset="1" stop-color="#9BA9D9"/>
</linearGradient>
</defs>
</svg>
