<svg width="64" height="125" viewBox="0 0 64 125" fill="none" xmlns="http://www.w3.org/2000/svg">
<path d="M62.4525 94.98L56.0967 98.6493V107.54L62.4525 103.871V94.98Z" fill="url(#paint0_linear)"/>
<path d="M34.9106 111.069L28.4136 114.738V123.629L34.9106 119.96V111.069Z" fill="url(#paint1_linear)"/>
<path d="M0.589355 98.6492V107.54L28.4137 123.629V114.738L0.589355 98.6492Z" fill="url(#paint2_linear)"/>
<path d="M34.9106 111.069V119.96L41.6902 123.911V115.02L34.9106 111.069Z" fill="url(#paint3_linear)"/>
<path d="M63.0177 102.601L41.6904 115.02V123.911L63.0177 111.492V102.601Z" fill="url(#paint4_linear)"/>
<path d="M56.0968 98.6492L62.4527 94.9798L34.6283 78.8911L0.589355 98.6492L28.4137 114.738L34.9108 111.069L41.6903 115.02L63.0176 102.601L56.0968 98.6492Z" fill="url(#paint5_linear)"/>
<path d="M34.911 110.504L28.4139 114.174L1.43701 98.6494L34.6285 79.3147L61.7467 94.98L55.2496 98.6494L62.1704 102.601L41.6905 114.456L34.911 110.504Z" fill="url(#paint6_linear)"/>
<path opacity="0.5" fill-rule="evenodd" clip-rule="evenodd" d="M1.43701 98.6491L2.00197 98.9314L34.4873 80.0201L61.0405 95.262L61.6054 94.9798L34.6285 79.3145L1.43701 98.6491ZM55.2496 99.2136L55.8146 98.9314L62.1704 102.601L61.6054 102.883L55.2496 99.2136Z" fill="#4F565B"/>
<path d="M28.2725 17.4999V112.198L57.2267 95.4031V0.705566L28.2725 17.4999Z" fill="url(#paint7_linear)"/>
<path d="M33.357 3.52815L4.54395 20.3225L28.2723 17.4999L57.2266 0.705566L33.357 3.52815Z" fill="#F6F8FB"/>
<path d="M28.2723 17.5L4.54395 20.3226V98.3669L28.2723 112.198V17.5Z" fill="#F6F8FB"/>
<path fill-rule="evenodd" clip-rule="evenodd" d="M26.4363 109.798V19.3347L27.2837 19.1936V110.222L26.4363 109.798ZM25.0239 109.093V19.4759L25.8713 19.3347V109.516L25.0239 109.093ZM16.6907 20.4638V104.153L17.5382 104.577V20.3226L16.6907 20.4638ZM15.2783 20.6049V103.307L16.1257 103.73V20.4638L15.2783 20.6049ZM13.8659 20.746V102.601L14.7133 103.024V20.6049L13.8659 20.746ZM11.0411 100.907V21.0283L11.8885 20.8872V101.331L11.0411 100.907ZM10.4761 100.625V21.1694L9.62869 21.3105V100.202L10.4761 100.625ZM8.21628 99.3549V21.4517L9.06373 21.3105V99.7783L8.21628 99.3549ZM6.80388 98.5081V21.5928L7.65132 21.4517V98.9315L6.80388 98.5081ZM5.53271 21.7339V97.6613L6.38016 98.0847V21.5928L5.53271 21.7339ZM12.4535 101.754V20.8872L13.3009 20.746V102.177L12.4535 101.754ZM22.1991 19.7581V107.399L23.0465 107.823V19.617L22.1991 19.7581ZM23.6115 19.617V108.246L24.4589 108.669V19.4759L23.6115 19.617ZM18.1031 105V20.3226L18.9506 20.1815V105.423L18.1031 105ZM19.5155 20.0404V105.706L20.363 106.129V19.8992L19.5155 20.0404ZM20.7867 106.552V19.8992L21.6341 19.7581V106.976L20.7867 106.552Z" fill="url(#paint8_linear)"/>
<path opacity="0.5" fill-rule="evenodd" clip-rule="evenodd" d="M26.7188 19.1936V109.657L27.425 110.081L26.5775 109.657V19.1936H26.7188ZM25.3064 108.952V19.4759H25.1651V109.093L26.0126 109.516V109.375L25.3064 108.952ZM15.4195 20.6049V103.307L16.1257 103.589V103.73L15.2783 103.307V20.6049H15.4195ZM12.736 101.613V20.8872H12.5947V101.754L13.4422 102.177V102.036L12.736 101.613ZM11.3236 21.1694V100.907L12.0298 101.331V101.472L11.1823 101.048V21.1694H11.3236ZM10.4761 100.484V100.343L9.76993 100.202V21.3105H9.62869V100.202L10.4761 100.484ZM8.49876 21.3105V99.2138L9.20497 99.496V99.6372L8.35752 99.2138V21.3105H8.49876ZM5.67396 97.6613V21.7339H5.53271V97.6613L6.38016 98.0847V97.9436L5.67396 97.6613ZM7.08636 98.5081V21.5928H6.94512V98.5081L7.79256 98.9315V98.7904L7.08636 98.5081ZM14.0071 20.746V102.46L14.7133 102.883V103.024L13.8659 102.601V20.746H14.0071ZM23.894 19.617V108.105L24.6002 108.528V108.669L23.7527 108.246V19.617H23.894ZM16.8319 104.012V20.3226H16.6907V104.012L17.5382 104.436L16.8319 104.012ZM22.4816 107.258V19.7581H22.3403V107.399L23.1878 107.823V107.682L22.4816 107.258ZM18.2444 20.1815V104.859L18.9506 105.141V105.282L18.1031 104.859V20.1815H18.2444ZM21.0692 106.552V19.8992H20.9279V106.552L21.7754 106.976V106.835L21.0692 106.552ZM19.6568 20.0404V105.706L20.363 105.988V106.129L19.5155 105.706V20.0404H19.6568Z" fill="#378C8C"/>
<path d="M34.9106 31.1895L51.2945 21.7339L58.4978 31.754L42.1139 41.2097L34.9106 31.1895Z" fill="url(#paint9_linear)"/>
<path d="M42.1138 41.2098L58.4977 31.7542V103.024L42.255 112.48L42.1138 41.2098Z" fill="#F6F8FB"/>
<path d="M34.9106 31.1897L42.1139 41.2099L42.2551 112.48L34.9106 108.246V31.1897Z" fill="url(#paint10_linear)"/>
<path fill-rule="evenodd" clip-rule="evenodd" d="M57.0853 34.012V102.46L57.9328 102.036V33.5886L57.0853 34.012ZM49.5996 38.387V106.835L48.7522 107.258V38.8104L49.5996 38.387ZM45.9273 40.3628V108.81L46.7748 108.387V39.9394L45.9273 40.3628ZM47.3398 108.105V39.6572L48.1872 39.2338V107.681L47.3398 108.105ZM43.1025 42.0564V110.504L43.95 110.081V41.633L43.1025 42.0564ZM44.5149 109.657V41.2096L45.3624 40.7862V109.234L44.5149 109.657ZM50.1646 106.411V37.9636L51.012 37.5402V105.988L50.1646 106.411ZM54.4018 35.5644V104.012L55.2492 103.589V35.141L54.4018 35.5644ZM55.6729 103.165V34.7177L56.5204 34.2943V102.742L55.6729 103.165ZM52.9894 36.4112V104.859L53.8368 104.435V35.9878L52.9894 36.4112ZM51.577 105.706V37.258L52.4244 36.8346V105.282L51.577 105.706Z" fill="url(#paint11_linear)"/>
<path opacity="0.5" fill-rule="evenodd" clip-rule="evenodd" d="M57.6502 101.754V33.5886L57.9327 33.4475V101.895L57.0852 102.318V102.036L57.6502 101.754ZM50.7294 105.847L50.1644 106.129V106.411L51.0119 105.988V37.5403L50.7294 37.6814V105.847ZM49.317 38.5282L49.5995 38.387V106.835L48.752 107.258V106.976L49.317 106.693V38.5282ZM47.9046 39.2338V107.54L47.3396 107.823V108.105L48.1871 107.681V39.2338H47.9046ZM44.5148 109.375L45.0798 109.093V40.9273L45.3623 40.7862V109.234L44.5148 109.657V109.375ZM43.8086 109.939L43.2437 110.222V110.504L44.0911 110.081V41.633L43.8086 41.7741V109.939ZM45.9272 108.669L46.4922 108.387V40.2217L46.7747 40.0806V108.528L45.9272 108.952V108.669ZM56.379 102.742L55.814 103.024V103.306L56.6615 102.883V34.4354L56.379 34.5765V102.742ZM53.5542 104.153V35.9878L53.8367 35.8467V104.294L52.9892 104.718V104.435L53.5542 104.153ZM52.1418 105.141L51.5768 105.423V105.706L52.4243 105.282V36.8346L52.1418 36.9757V105.141ZM54.9666 103.448V35.2822L55.2491 35.1411V103.589L54.4016 104.012V103.73L54.9666 103.448Z" fill="#378C8C"/>
<path d="M30.5324 27.3789L29.9674 27.0967V29.637L30.5324 29.9193V27.3789Z" fill="#DAE1EA"/>
<path d="M56.0968 12.137L29.9673 27.0966L30.5322 27.3789L56.5205 12.4192L56.0968 12.137Z" fill="#DAE1EA"/>
<path d="M30.5322 27.3789V29.9192L56.5205 14.9595V12.4192L30.5322 27.3789Z" fill="url(#paint12_linear)"/>
<path d="M29.9673 18.0644V23.1451L56.0968 8.1854V2.96362L29.9673 18.0644Z" fill="url(#paint13_linear)"/>
<path opacity="0.5" d="M55.8143 3.10475V8.04427L29.9673 22.8628V23.1451L56.0968 8.1854V2.96362L55.8143 3.10475Z" fill="#F6F8FB"/>
<path fill-rule="evenodd" clip-rule="evenodd" d="M52.7071 4.51613L52.9896 4.375V10.3024L52.7071 10.4435V4.51613ZM48.0462 7.19758L47.7637 7.33871V13.2661L48.0462 13.125V7.19758ZM42.9615 10.1613L43.244 10.0202V15.9476L42.9615 16.0887V10.1613ZM38.3006 12.8427L38.0181 12.9839V18.9113L38.3006 18.7702V12.8427ZM33.3572 21.7339L33.0747 21.875V15.9476L33.3572 15.8065V21.7339Z" fill="#F6F8FB"/>
<path d="M56.9442 3.66943L29.4023 19.617V19.8993L56.9442 4.09282V3.66943Z" fill="#F6F8FB"/>
<path d="M56.9442 5.78638L29.4023 21.5928V22.0162L56.9442 6.06864V5.78638Z" fill="#F6F8FB"/>
<path d="M61.7463 112.339V105.847L43.1025 116.572V123.064L61.7463 112.339Z" fill="url(#paint14_linear)"/>
<path d="M2.00195 108.246L27.0015 122.782V116.149L2.00195 101.754V108.246Z" fill="url(#paint15_linear)"/>
<defs>
<linearGradient id="paint0_linear" x1="56.0636" y1="112.899" x2="67.8437" y2="112.943" gradientUnits="userSpaceOnUse">
<stop stop-color="#F6F8FB"/>
<stop offset="1" stop-color="#99A7D8"/>
</linearGradient>
<linearGradient id="paint1_linear" x1="28.3797" y1="128.988" x2="40.4216" y2="129.034" gradientUnits="userSpaceOnUse">
<stop stop-color="#F6F8FB"/>
<stop offset="1" stop-color="#99A7D8"/>
</linearGradient>
<linearGradient id="paint2_linear" x1="0.444362" y1="134.286" x2="52.0124" y2="134.713" gradientUnits="userSpaceOnUse">
<stop stop-color="#F6F8FB"/>
<stop offset="1" stop-color="#99A7D8"/>
</linearGradient>
<linearGradient id="paint3_linear" x1="34.8753" y1="129.39" x2="47.4408" y2="129.44" gradientUnits="userSpaceOnUse">
<stop stop-color="#F6F8FB"/>
<stop offset="1" stop-color="#99A7D8"/>
</linearGradient>
<linearGradient id="paint4_linear" x1="41.5793" y1="133.003" x2="81.1066" y2="133.297" gradientUnits="userSpaceOnUse">
<stop stop-color="#F6F8FB"/>
<stop offset="1" stop-color="#99A7D8"/>
</linearGradient>
<linearGradient id="paint5_linear" x1="0.694524" y1="114.984" x2="63.0054" y2="114.984" gradientUnits="userSpaceOnUse">
<stop stop-color="#D3DAED"/>
<stop offset="1" stop-color="#99A7D8"/>
</linearGradient>
<linearGradient id="paint6_linear" x1="-4.32446" y1="127.18" x2="97.8833" y2="146.962" gradientUnits="userSpaceOnUse">
<stop stop-color="#F6F8FB"/>
<stop offset="1" stop-color="#99A7D8"/>
</linearGradient>
<linearGradient id="paint7_linear" x1="28.1216" y1="159.762" x2="81.7872" y2="159.866" gradientUnits="userSpaceOnUse">
<stop stop-color="#F6F8FB"/>
<stop offset="1" stop-color="#99A7D8"/>
</linearGradient>
<linearGradient id="paint8_linear" x1="-10.3456" y1="126.136" x2="23.605" y2="126.671" gradientUnits="userSpaceOnUse">
<stop stop-color="#D3DAED"/>
<stop offset="1" stop-color="#99A7D8"/>
</linearGradient>
<linearGradient id="paint9_linear" x1="34.9504" y1="52.1284" x2="84.988" y2="52.1284" gradientUnits="userSpaceOnUse">
<stop stop-color="#F6F8FB"/>
<stop offset="1" stop-color="#99A7D8"/>
</linearGradient>
<linearGradient id="paint10_linear" x1="34.923" y1="156.106" x2="50.1517" y2="156.106" gradientUnits="userSpaceOnUse">
<stop stop-color="#F6F8FB"/>
<stop offset="1" stop-color="#99A7D8"/>
</linearGradient>
<linearGradient id="paint11_linear" x1="32.2764" y1="123.951" x2="55.4265" y2="124.245" gradientUnits="userSpaceOnUse">
<stop stop-color="#D3DAED"/>
<stop offset="1" stop-color="#99A7D8"/>
</linearGradient>
<linearGradient id="paint12_linear" x1="11.5608" y1="32.9787" x2="51.7503" y2="36.9112" gradientUnits="userSpaceOnUse">
<stop stop-color="#D3DAED"/>
<stop offset="1" stop-color="#99A7D8"/>
</linearGradient>
<linearGradient id="paint13_linear" x1="10.8927" y1="26.6734" x2="51.3929" y2="30.1284" gradientUnits="userSpaceOnUse">
<stop stop-color="#D3DAED"/>
<stop offset="1" stop-color="#99A7D8"/>
</linearGradient>
<linearGradient id="paint14_linear" x1="43.1058" y1="123.049" x2="61.7521" y2="123.049" gradientUnits="userSpaceOnUse">
<stop stop-color="#CE9F55"/>
<stop offset="1" stop-color="#DCBC81"/>
</linearGradient>
<linearGradient id="paint15_linear" x1="2.00636" y1="122.764" x2="27.0093" y2="122.764" gradientUnits="userSpaceOnUse">
<stop stop-color="#CE9F55"/>
<stop offset="1" stop-color="#DCBC81"/>
</linearGradient>
</defs>
</svg>
