<svg width="40" height="117" viewBox="0 0 40 117" fill="none" xmlns="http://www.w3.org/2000/svg">
<path d="M20.1841 97.7615V115.48L22.2174 114.333V113.313L37.0863 104.645L38.6113 104.773L39.5009 104.263V86.5439L20.1841 97.7615Z" fill="url(#paint0_linear)"/>
<path d="M21.0737 99.2911L38.7385 88.9658L38.6114 104.772L37.7218 105.282L37.0864 104.645L22.2175 113.568V114.333L21.0737 114.97V99.2911Z" fill="url(#paint1_linear)"/>
<path d="M0.740234 86.5439V104.263L20.1842 115.48V97.7615L0.740234 86.5439Z" fill="url(#paint2_linear)"/>
<path d="M1.50293 104.772V88.9658L19.2948 99.2911V114.97L1.50293 104.772Z" fill="url(#paint3_linear)"/>
<path d="M20.0571 75.1987L0.740234 86.5438L20.1842 97.7614L39.501 86.5438L20.0571 75.1987Z" fill="url(#paint4_linear)"/>
<path d="M30.0972 85.3969H11.2886L10.272 7.89355L30.6055 8.1485L30.0972 85.3969Z" fill="url(#paint5_linear)"/>
<g opacity="0.5">
<path d="M10.2715 66.2759H30.605V66.021H10.2715V66.2759Z" fill="url(#paint6_linear)"/>
<path d="M10.2715 54.5486H30.605V54.4212H10.2715V54.5486Z" fill="url(#paint7_linear)"/>
<path d="M10.2715 60.4122H30.605V60.1572H10.2715V60.4122Z" fill="url(#paint8_linear)"/>
<path d="M10.2715 72.1397H30.605V71.8848H10.2715V72.1397Z" fill="url(#paint9_linear)"/>
<path d="M30.605 13.6299V13.375H10.2715V13.6299H30.605Z" fill="url(#paint10_linear)"/>
<path d="M10.2715 78.0035H30.605V77.7485H10.2715V78.0035Z" fill="url(#paint11_linear)"/>
<path d="M10.2715 42.8211H30.605V42.6936H10.2715V42.8211Z" fill="url(#paint12_linear)"/>
<path d="M10.2715 19.4932H30.605V19.2383H10.2715V19.4932Z" fill="url(#paint13_linear)"/>
<path d="M10.2715 48.6849H30.605V48.5574H10.2715V48.6849Z" fill="url(#paint14_linear)"/>
<path d="M10.2715 25.357H30.605V25.1021H10.2715V25.357Z" fill="url(#paint15_linear)"/>
<path d="M10.2715 37.0845H30.605V36.8296H10.2715V37.0845Z" fill="url(#paint16_linear)"/>
<path d="M10.2715 31.2208H30.605V30.9658H10.2715V31.2208Z" fill="url(#paint17_linear)"/>
</g>
<path d="M30.6055 14.3947V8.1485L10.272 7.89355L10.3991 14.3947H30.6055Z" fill="url(#paint18_linear)"/>
<path d="M36.1972 5.08887V86.1614L30.9868 89.2207L20.1846 95.4669V83.9944L29.843 8.78557L36.1972 5.08887Z" fill="url(#paint19_linear)"/>
<path d="M20.1843 83.9944V95.4669L14.2113 92.0251L3.91748 86.1614V5.08887L10.3988 8.78557L20.1843 83.9944Z" fill="url(#paint20_linear)"/>
<g opacity="0.5">
<path d="M26.9199 31.2211L36.1971 25.7398V25.9948V25.4849L26.9199 30.9662V31.4761V31.2211Z" fill="url(#paint21_linear)"/>
<path d="M25.395 42.8209L36.1972 36.5748V36.3198L25.395 42.6935V43.2033V42.8209Z" fill="url(#paint22_linear)"/>
<path d="M29.2075 13.6295L36.1972 9.55036V9.8053V9.29541L29.2075 13.3745V13.8844V13.6295Z" fill="url(#paint23_linear)"/>
<path d="M27.6826 25.3572L36.1973 20.3858V20.6407V20.1309L27.6826 25.1023V25.6122V25.3572Z" fill="url(#paint24_linear)"/>
<path d="M24.6328 48.6848L36.1975 41.9287V42.0562V42.1837V41.8013L24.6328 48.5573V49.0672V48.9397V48.6848Z" fill="url(#paint25_linear)"/>
<path d="M28.4453 19.4933L36.1975 14.9043V15.1593V14.7769L28.4453 19.2384V19.7483V19.4933Z" fill="url(#paint26_linear)"/>
<path d="M26.1577 37.0845L36.1974 31.2208V30.9658L26.1577 36.8296V37.3394V37.0845Z" fill="url(#paint27_linear)"/>
<path d="M20.9469 78.0032L36.1971 69.0801V69.3351V68.8252L20.9469 77.7483L20.8198 78.2582H20.9469V78.0032Z" fill="url(#paint28_linear)"/>
<path d="M20.1846 83.4847V83.8671V83.9946V83.7396L36.1972 74.3067V74.1792L20.1846 83.4847Z" fill="url(#paint29_linear)"/>
<path d="M21.7096 72.1398L36.1972 63.5992V63.4717L21.7096 71.8849L21.5825 72.3948L21.7096 72.1398Z" fill="url(#paint30_linear)"/>
<path d="M22.4723 66.2759L36.1974 58.2452V58.5001V57.9902L22.4723 66.021L22.3452 66.5309L22.4723 66.2759Z" fill="url(#paint31_linear)"/>
<path d="M23.9972 54.5482L36.1973 47.4097V47.6647V47.1548L23.9972 54.4207L23.8701 54.9306V54.8031L23.9972 54.5482Z" fill="url(#paint32_linear)"/>
<path d="M23.2345 60.4121L36.1971 52.7637V52.6362L23.2345 60.2846L23.1074 60.667L23.2345 60.4121Z" fill="url(#paint33_linear)"/>
</g>
<g opacity="0.5">
<path d="M3.91748 47.4097L16.2447 54.5482L16.3718 54.8031L16.2447 54.4207L3.91748 47.2822V47.4097Z" fill="url(#paint34_linear)"/>
<path d="M3.91748 52.8912L17.0072 60.4121L17.1343 60.667L17.0072 60.1571L3.91748 52.6362V52.8912Z" fill="url(#paint35_linear)"/>
<path d="M3.91748 58.2451L17.7697 66.2759V66.5309H17.8968L17.7697 66.021L3.91748 58.1177V58.2451Z" fill="url(#paint36_linear)"/>
<path d="M3.91748 74.5616L20.0572 83.8671V84.122H20.1843L20.0572 83.6121L3.91748 74.3066V74.5616Z" fill="url(#paint37_linear)"/>
<path d="M3.91748 69.0801L19.2947 78.0032V78.2581H19.4218L19.2947 77.7482L3.91748 68.9526V69.0801Z" fill="url(#paint38_linear)"/>
<path d="M3.91748 63.7266L18.5322 72.1398V72.3948H18.6593L18.5322 71.8849L3.91748 63.4717V63.7266Z" fill="url(#paint39_linear)"/>
<path d="M3.91748 36.5747L14.7197 42.8209L14.8468 43.2033L14.7197 42.6934L3.91748 36.4473V36.5747Z" fill="url(#paint40_linear)"/>
<path d="M3.91748 15.0318L11.7967 19.4933V19.7483V19.2384L3.91748 14.7769V15.0318Z" fill="url(#paint41_linear)"/>
<path d="M3.91748 42.0562L15.4822 48.6848L15.6093 48.9397V49.0672L15.4822 48.5573L3.91748 41.8013V42.0562Z" fill="url(#paint42_linear)"/>
<path d="M11.0342 13.6295V13.8844V13.3745L3.91748 9.29541V9.55036L11.0342 13.6295Z" fill="url(#paint43_linear)"/>
<path d="M3.91748 20.3858L12.4321 25.3572L12.5592 25.6122L12.4321 25.1023L3.91748 20.1309V20.3858Z" fill="url(#paint44_linear)"/>
<path d="M3.91748 25.7398L13.1947 31.2211L13.3217 31.476L13.1947 30.9662L3.91748 25.6123V25.7398Z" fill="url(#paint45_linear)"/>
<path d="M3.91748 31.2208L13.9572 37.0845L14.0842 37.3394L13.9572 36.8296L3.91748 30.9658V31.2208Z" fill="url(#paint46_linear)"/>
</g>
<path d="M3.91748 5.08892L10.3988 8.78562H29.8427L36.197 5.08892L29.0802 0.882324H10.9071L3.91748 5.08892Z" fill="#EAEAEA"/>
<path d="M11.1613 14.2669L10.3988 8.78557L3.91748 5.08887V10.1878L11.1613 14.2669Z" fill="url(#paint47_linear)"/>
<path d="M36.1973 10.3152V5.08887L29.8431 8.78557L29.0806 14.3944L36.1973 10.3152Z" fill="url(#paint48_linear)"/>
<path d="M29.589 8.40332L20.1847 81.955L10.6534 8.40332L10.145 8.53079L19.9305 83.9945V95.3396L20.3118 95.5945L20.4389 95.4671V83.9945L30.0973 8.53079L29.589 8.40332Z" fill="url(#paint49_linear)"/>
<path d="M3.91748 5.08892L10.3988 8.78562H29.8427L36.197 5.08892L29.0802 0.882324H10.9071L3.91748 5.08892Z" fill="url(#paint50_linear)"/>
<path d="M10.5262 8.40311L4.55322 5.08882L11.0345 1.26465H29.0806L35.5619 5.08882L29.716 8.40311H10.5262Z" fill="#F6F8FB"/>
<path opacity="0.4" d="M11.034 2.4119H29.0801L34.6718 5.59871L35.5614 5.08882L29.0801 1.26465H11.034L4.55273 5.08882L5.44233 5.59871L11.034 2.4119Z" fill="url(#paint51_linear)"/>
<rect x="14.2114" y="10.188" width="11.946" height="0.72956" fill="#EAEAEA"/>
<rect x="14.2114" y="10.4429" width="11.946" height="2.42198" fill="url(#paint52_linear)"/>
<path d="M3.91748 77.6206V86.4162L20.1843 95.7217L20.3114 87.0536L3.91748 77.6206Z" fill="url(#paint53_linear)"/>
<path d="M36.1972 77.6206L20.1846 87.0536V95.7217L36.1972 86.4162V77.6206Z" fill="url(#paint54_linear)"/>
<defs>
<linearGradient id="paint0_linear" x1="26.8885" y1="114.628" x2="26.8885" y2="94.5518" gradientUnits="userSpaceOnUse">
<stop stop-color="#CE9F55"/>
<stop offset="1" stop-color="#DCBC81"/>
</linearGradient>
<linearGradient id="paint1_linear" x1="-8.65163" y1="151.45" x2="58.5774" y2="151.45" gradientUnits="userSpaceOnUse">
<stop stop-color="#99A7D8"/>
<stop offset="1" stop-color="#F6F8FB"/>
</linearGradient>
<linearGradient id="paint2_linear" x1="7.48875" y1="114.628" x2="7.48875" y2="94.5518" gradientUnits="userSpaceOnUse">
<stop stop-color="#CE9F55"/>
<stop offset="1" stop-color="#DCBC81"/>
</linearGradient>
<linearGradient id="paint3_linear" x1="1.5329" y1="129.549" x2="39.2764" y2="129.549" gradientUnits="userSpaceOnUse">
<stop stop-color="#F6F8FB"/>
<stop offset="1" stop-color="#99A7D8"/>
</linearGradient>
<linearGradient id="paint4_linear" x1="-4.3247" y1="99.166" x2="35.369" y2="115.009" gradientUnits="userSpaceOnUse">
<stop stop-color="#CE9F55"/>
<stop offset="1" stop-color="#DCBC81"/>
</linearGradient>
<linearGradient id="paint5_linear" x1="2.64553" y1="22.3602" x2="2.64553" y2="158.001" gradientUnits="userSpaceOnUse">
<stop stop-color="#D3DAED"/>
<stop offset="1" stop-color="#99A7D8"/>
</linearGradient>
<linearGradient id="paint6_linear" x1="10.2751" y1="66.5126" x2="30.6113" y2="66.5126" gradientUnits="userSpaceOnUse">
<stop stop-color="#CE9F55"/>
<stop offset="1" stop-color="#DCBC81"/>
</linearGradient>
<linearGradient id="paint7_linear" x1="10.2751" y1="54.849" x2="30.6113" y2="54.849" gradientUnits="userSpaceOnUse">
<stop stop-color="#CE9F55"/>
<stop offset="1" stop-color="#DCBC81"/>
</linearGradient>
<linearGradient id="paint8_linear" x1="10.2751" y1="60.6488" x2="30.6113" y2="60.6488" gradientUnits="userSpaceOnUse">
<stop stop-color="#CE9F55"/>
<stop offset="1" stop-color="#DCBC81"/>
</linearGradient>
<linearGradient id="paint9_linear" x1="10.2751" y1="72.3764" x2="30.6113" y2="72.3764" gradientUnits="userSpaceOnUse">
<stop stop-color="#CE9F55"/>
<stop offset="1" stop-color="#DCBC81"/>
</linearGradient>
<linearGradient id="paint10_linear" x1="10.2751" y1="13.8666" x2="30.6113" y2="13.8666" gradientUnits="userSpaceOnUse">
<stop stop-color="#CE9F55"/>
<stop offset="1" stop-color="#DCBC81"/>
</linearGradient>
<linearGradient id="paint11_linear" x1="10.2751" y1="78.2401" x2="30.6113" y2="78.2401" gradientUnits="userSpaceOnUse">
<stop stop-color="#CE9F55"/>
<stop offset="1" stop-color="#DCBC81"/>
</linearGradient>
<linearGradient id="paint12_linear" x1="10.2751" y1="43.1215" x2="30.6113" y2="43.1215" gradientUnits="userSpaceOnUse">
<stop stop-color="#CE9F55"/>
<stop offset="1" stop-color="#DCBC81"/>
</linearGradient>
<linearGradient id="paint13_linear" x1="10.2751" y1="19.7299" x2="30.6113" y2="19.7299" gradientUnits="userSpaceOnUse">
<stop stop-color="#CE9F55"/>
<stop offset="1" stop-color="#DCBC81"/>
</linearGradient>
<linearGradient id="paint14_linear" x1="10.2751" y1="48.9853" x2="30.6113" y2="48.9853" gradientUnits="userSpaceOnUse">
<stop stop-color="#CE9F55"/>
<stop offset="1" stop-color="#DCBC81"/>
</linearGradient>
<linearGradient id="paint15_linear" x1="10.2751" y1="25.5937" x2="30.6113" y2="25.5937" gradientUnits="userSpaceOnUse">
<stop stop-color="#CE9F55"/>
<stop offset="1" stop-color="#DCBC81"/>
</linearGradient>
<linearGradient id="paint16_linear" x1="10.2751" y1="37.3212" x2="30.6113" y2="37.3212" gradientUnits="userSpaceOnUse">
<stop stop-color="#CE9F55"/>
<stop offset="1" stop-color="#DCBC81"/>
</linearGradient>
<linearGradient id="paint17_linear" x1="10.2751" y1="31.4574" x2="30.6113" y2="31.4574" gradientUnits="userSpaceOnUse">
<stop stop-color="#CE9F55"/>
<stop offset="1" stop-color="#DCBC81"/>
</linearGradient>
<linearGradient id="paint18_linear" x1="10.272" y1="7.89355" x2="10.272" y2="14.3947" gradientUnits="userSpaceOnUse">
<stop stop-color="#CE9F55"/>
<stop offset="1" stop-color="#DCBC81"/>
</linearGradient>
<linearGradient id="paint19_linear" x1="14.1787" y1="21.9587" x2="14.1787" y2="180.132" gradientUnits="userSpaceOnUse">
<stop stop-color="#D3DAED"/>
<stop offset="1" stop-color="#99A7D8"/>
</linearGradient>
<linearGradient id="paint20_linear" x1="-2.18368" y1="21.9587" x2="-2.18368" y2="180.132" gradientUnits="userSpaceOnUse">
<stop stop-color="#D3DAED"/>
<stop offset="1" stop-color="#99A7D8"/>
</linearGradient>
<linearGradient id="paint21_linear" x1="26.9216" y1="31.4708" x2="36.2" y2="31.4708" gradientUnits="userSpaceOnUse">
<stop stop-color="#CE9F55"/>
<stop offset="1" stop-color="#DCBC81"/>
</linearGradient>
<linearGradient id="paint22_linear" x1="25.3969" y1="43.1973" x2="36.2006" y2="43.1973" gradientUnits="userSpaceOnUse">
<stop stop-color="#CE9F55"/>
<stop offset="1" stop-color="#DCBC81"/>
</linearGradient>
<linearGradient id="paint23_linear" x1="29.2088" y1="13.8804" x2="36.1993" y2="13.8804" gradientUnits="userSpaceOnUse">
<stop stop-color="#CE9F55"/>
<stop offset="1" stop-color="#DCBC81"/>
</linearGradient>
<linearGradient id="paint24_linear" x1="27.6841" y1="25.6074" x2="36.1999" y2="25.6074" gradientUnits="userSpaceOnUse">
<stop stop-color="#CE9F55"/>
<stop offset="1" stop-color="#DCBC81"/>
</linearGradient>
<linearGradient id="paint25_linear" x1="24.6349" y1="49.0608" x2="36.2011" y2="49.0608" gradientUnits="userSpaceOnUse">
<stop stop-color="#CE9F55"/>
<stop offset="1" stop-color="#DCBC81"/>
</linearGradient>
<linearGradient id="paint26_linear" x1="28.4467" y1="19.7439" x2="36.1999" y2="19.7439" gradientUnits="userSpaceOnUse">
<stop stop-color="#CE9F55"/>
<stop offset="1" stop-color="#DCBC81"/>
</linearGradient>
<linearGradient id="paint27_linear" x1="26.1595" y1="37.3338" x2="36.2005" y2="37.3338" gradientUnits="userSpaceOnUse">
<stop stop-color="#CE9F55"/>
<stop offset="1" stop-color="#DCBC81"/>
</linearGradient>
<linearGradient id="paint28_linear" x1="20.8225" y1="78.2499" x2="36.2018" y2="78.2499" gradientUnits="userSpaceOnUse">
<stop stop-color="#CE9F55"/>
<stop offset="1" stop-color="#DCBC81"/>
</linearGradient>
<linearGradient id="paint29_linear" x1="20.1874" y1="83.986" x2="36.2022" y2="83.986" gradientUnits="userSpaceOnUse">
<stop stop-color="#CE9F55"/>
<stop offset="1" stop-color="#DCBC81"/>
</linearGradient>
<linearGradient id="paint30_linear" x1="21.5851" y1="72.3869" x2="36.2018" y2="72.3869" gradientUnits="userSpaceOnUse">
<stop stop-color="#CE9F55"/>
<stop offset="1" stop-color="#DCBC81"/>
</linearGradient>
<linearGradient id="paint31_linear" x1="22.3477" y1="66.5234" x2="36.2017" y2="66.5234" gradientUnits="userSpaceOnUse">
<stop stop-color="#CE9F55"/>
<stop offset="1" stop-color="#DCBC81"/>
</linearGradient>
<linearGradient id="paint32_linear" x1="23.8723" y1="54.9238" x2="36.2012" y2="54.9238" gradientUnits="userSpaceOnUse">
<stop stop-color="#CE9F55"/>
<stop offset="1" stop-color="#DCBC81"/>
</linearGradient>
<linearGradient id="paint33_linear" x1="23.1097" y1="60.6599" x2="36.2012" y2="60.6599" gradientUnits="userSpaceOnUse">
<stop stop-color="#CE9F55"/>
<stop offset="1" stop-color="#DCBC81"/>
</linearGradient>
<linearGradient id="paint34_linear" x1="3.91968" y1="54.7965" x2="16.3756" y2="54.7965" gradientUnits="userSpaceOnUse">
<stop stop-color="#CE9F55"/>
<stop offset="1" stop-color="#DCBC81"/>
</linearGradient>
<linearGradient id="paint35_linear" x1="3.91981" y1="60.6599" x2="17.1384" y2="60.6599" gradientUnits="userSpaceOnUse">
<stop stop-color="#CE9F55"/>
<stop offset="1" stop-color="#DCBC81"/>
</linearGradient>
<linearGradient id="paint36_linear" x1="3.91994" y1="66.5235" x2="17.9011" y2="66.5235" gradientUnits="userSpaceOnUse">
<stop stop-color="#CE9F55"/>
<stop offset="1" stop-color="#DCBC81"/>
</linearGradient>
<linearGradient id="paint37_linear" x1="3.92035" y1="84.1134" x2="20.1894" y2="84.1134" gradientUnits="userSpaceOnUse">
<stop stop-color="#CE9F55"/>
<stop offset="1" stop-color="#DCBC81"/>
</linearGradient>
<linearGradient id="paint38_linear" x1="3.92021" y1="78.25" x2="19.4266" y2="78.25" gradientUnits="userSpaceOnUse">
<stop stop-color="#CE9F55"/>
<stop offset="1" stop-color="#DCBC81"/>
</linearGradient>
<linearGradient id="paint39_linear" x1="3.92008" y1="72.3869" x2="18.6639" y2="72.3869" gradientUnits="userSpaceOnUse">
<stop stop-color="#CE9F55"/>
<stop offset="1" stop-color="#DCBC81"/>
</linearGradient>
<linearGradient id="paint40_linear" x1="3.91941" y1="43.1974" x2="14.8502" y2="43.1974" gradientUnits="userSpaceOnUse">
<stop stop-color="#CE9F55"/>
<stop offset="1" stop-color="#DCBC81"/>
</linearGradient>
<linearGradient id="paint41_linear" x1="3.91887" y1="19.7439" x2="11.7992" y2="19.7439" gradientUnits="userSpaceOnUse">
<stop stop-color="#CE9F55"/>
<stop offset="1" stop-color="#DCBC81"/>
</linearGradient>
<linearGradient id="paint42_linear" x1="3.91954" y1="49.0608" x2="15.6129" y2="49.0608" gradientUnits="userSpaceOnUse">
<stop stop-color="#CE9F55"/>
<stop offset="1" stop-color="#DCBC81"/>
</linearGradient>
<linearGradient id="paint43_linear" x1="3.91873" y1="13.8804" x2="11.0364" y2="13.8804" gradientUnits="userSpaceOnUse">
<stop stop-color="#CE9F55"/>
<stop offset="1" stop-color="#DCBC81"/>
</linearGradient>
<linearGradient id="paint44_linear" x1="3.919" y1="25.6074" x2="12.5619" y2="25.6074" gradientUnits="userSpaceOnUse">
<stop stop-color="#CE9F55"/>
<stop offset="1" stop-color="#DCBC81"/>
</linearGradient>
<linearGradient id="paint45_linear" x1="3.91914" y1="31.4709" x2="13.3247" y2="31.4709" gradientUnits="userSpaceOnUse">
<stop stop-color="#CE9F55"/>
<stop offset="1" stop-color="#DCBC81"/>
</linearGradient>
<linearGradient id="paint46_linear" x1="3.91927" y1="37.3338" x2="14.0874" y2="37.3338" gradientUnits="userSpaceOnUse">
<stop stop-color="#CE9F55"/>
<stop offset="1" stop-color="#DCBC81"/>
</linearGradient>
<linearGradient id="paint47_linear" x1="3.91748" y1="5.08887" x2="3.91748" y2="14.2669" gradientUnits="userSpaceOnUse">
<stop stop-color="#CE9F55"/>
<stop offset="1" stop-color="#DCBC81"/>
</linearGradient>
<linearGradient id="paint48_linear" x1="29.0806" y1="5.08887" x2="29.0806" y2="14.3944" gradientUnits="userSpaceOnUse">
<stop stop-color="#CE9F55"/>
<stop offset="1" stop-color="#DCBC81"/>
</linearGradient>
<linearGradient id="paint49_linear" x1="10.1485" y1="95.5179" x2="30.1035" y2="95.5179" gradientUnits="userSpaceOnUse">
<stop stop-color="#CE9F55"/>
<stop offset="1" stop-color="#DCBC81"/>
</linearGradient>
<linearGradient id="paint50_linear" x1="-75.3318" y1="-10.7804" x2="-75.3318" y2="35.9296" gradientUnits="userSpaceOnUse">
<stop stop-color="#D3DAED"/>
<stop offset="1" stop-color="#99A7D8"/>
</linearGradient>
<linearGradient id="paint51_linear" x1="-153.496" y1="1.1852" x2="-153.518" y2="49.7005" gradientUnits="userSpaceOnUse">
<stop stop-color="#CE9F55"/>
<stop offset="1" stop-color="#DCBC81"/>
</linearGradient>
<linearGradient id="paint52_linear" x1="-43.3564" y1="-0.7062" x2="-43.3564" y2="25.0589" gradientUnits="userSpaceOnUse">
<stop stop-color="#FBFCFD"/>
<stop offset="1" stop-color="#9BA9D9"/>
</linearGradient>
<linearGradient id="paint53_linear" x1="3.9451" y1="105.87" x2="38.723" y2="105.87" gradientUnits="userSpaceOnUse">
<stop stop-color="#F6F8FB"/>
<stop offset="1" stop-color="#99A7D8"/>
</linearGradient>
<linearGradient id="paint54_linear" x1="-17.0837" y1="126.949" x2="54.1807" y2="126.949" gradientUnits="userSpaceOnUse">
<stop stop-color="#99A7D8"/>
<stop offset="1" stop-color="#F6F8FB"/>
</linearGradient>
</defs>
</svg>
