<svg width="147" height="114" viewBox="0 0 147 114" fill="none" xmlns="http://www.w3.org/2000/svg">
<path d="M120.405 88.054C118.885 92.4931 115.236 104.169 115.236 104.169C115.236 104.169 119.432 92.6756 120.953 88.2364L120.405 88.054Z" fill="url(#paint0_linear)"/>
<path d="M114.629 88.9055C113.838 92.8582 112.014 103.196 112.014 103.196C112.014 103.196 114.385 92.919 115.176 89.0271L114.629 88.9055Z" fill="url(#paint1_linear)"/>
<path d="M109.155 91.946C108.912 94.4393 108.608 101.007 108.608 101.007C108.608 101.007 109.52 94.5001 109.763 92.0069L109.155 91.946Z" fill="url(#paint2_linear)"/>
<path d="M98.3309 100.642C98.1485 103.804 98.0269 112.074 98.0269 112.074C98.0269 112.074 98.7566 103.804 98.939 100.703L98.3309 100.642Z" fill="url(#paint3_linear)"/>
<path d="M91.7027 102.953C91.5811 105.263 91.4595 111.405 91.4595 111.405C91.4595 111.405 92.1284 105.324 92.25 102.953H91.7027Z" fill="url(#paint4_linear)"/>
<path d="M84.2228 104.656C84.162 106.237 84.2228 110.493 84.2228 110.493C84.2228 110.493 84.7701 106.297 84.8309 104.716L84.2228 104.656Z" fill="url(#paint5_linear)"/>
<path d="M79.4798 105.385C79.2974 106.601 79.1758 109.824 79.1758 109.824C79.1758 109.824 79.9055 106.662 80.0271 105.446L79.4798 105.385Z" fill="url(#paint6_linear)"/>
<path d="M72.1823 105.324C72.1215 106.54 72.304 109.642 72.304 109.642C72.304 109.642 72.7296 106.54 72.7904 105.324H72.1823Z" fill="url(#paint7_linear)"/>
<path d="M66.3447 104.959C66.4055 106.541 66.8312 110.737 66.8312 110.737C66.8312 110.737 67.0136 106.541 66.9528 104.899L66.3447 104.959Z" fill="url(#paint8_linear)"/>
<path d="M57.7095 104.108C57.8919 106.176 58.5608 111.649 58.5608 111.649C58.5608 111.649 58.4392 106.176 58.3176 104.047L57.7095 104.108Z" fill="url(#paint9_linear)"/>
<path d="M52.6621 103.257C53.0878 105.507 54.3648 111.284 54.3648 111.284C54.3648 111.284 53.6351 105.385 53.2094 103.135L52.6621 103.257Z" fill="url(#paint10_linear)"/>
<path d="M44.8174 102.466C45.1822 103.986 46.3985 107.878 46.3985 107.878C46.3985 107.878 45.7904 103.804 45.4255 102.284L44.8174 102.466Z" fill="url(#paint11_linear)"/>
<path d="M40.6216 101.554C40.9256 102.709 41.4729 104.838 41.8986 106.662C42.3243 108.486 42.5675 110.068 42.5675 110.068C42.5675 110.068 42.4459 108.486 42.1419 106.601C41.8986 104.716 41.4729 102.588 41.1689 101.372L40.6216 101.554Z" fill="url(#paint12_linear)"/>
<path d="M31.6216 99.2432C32.3513 101.736 34.6013 108.243 34.6013 108.243C34.6013 108.243 32.9594 101.615 32.1689 99.1216L31.6216 99.2432Z" fill="url(#paint13_linear)"/>
<path d="M76.1351 101.25C67.2567 98.2703 59.1689 95.2298 52.9662 92.0068L45.1216 92.7974C53.1486 96.5676 61.8446 99.669 71.0878 102.041L76.1351 101.25Z" fill="url(#paint14_linear)"/>
<path d="M29.7363 69.9932C37.216 78.8715 46.0944 86.1688 56.3714 92.0675L46.0336 92.1891C38.9187 87.4459 31.4998 80.0878 23.8984 71.3918L29.7363 69.9932Z" fill="url(#paint15_linear)"/>
<path d="M118.156 112.317L129.527 68.8986C129.771 68.108 130.561 68.4121 130.44 68.8986L118.703 112.317H118.156Z" fill="url(#paint16_linear)"/>
<path d="M131.351 68.6552C130.986 69.385 130.257 69.689 129.649 69.385C129.041 69.0809 128.797 68.2904 129.162 67.5606C129.527 66.8309 130.257 66.5269 130.865 66.8309C131.473 67.135 131.655 67.9255 131.351 68.6552Z" fill="url(#paint17_linear)"/>
<path d="M130.074 69.4458C129.162 73.0336 128.25 76.5607 127.338 80.1485L124.48 90.8512L121.561 101.554L120.101 106.905L118.581 112.257L119.919 106.905L121.318 101.554L124.176 90.8512L127.095 80.1485C128.007 76.5607 129.041 72.9728 130.074 69.4458Z" fill="url(#paint18_linear)"/>
<path d="M129.649 69.0201C129.649 69.0201 129.71 69.0201 129.771 69.0809C129.831 69.0809 129.953 69.0809 130.075 69.0809C130.318 69.0201 130.622 68.8377 130.804 68.5336C130.987 68.2296 130.987 67.8647 130.987 67.6215C130.926 67.3782 130.926 67.1958 130.926 67.1958C130.926 67.1958 130.926 67.1958 130.987 67.2566C131.048 67.3174 131.108 67.3782 131.169 67.4999C131.23 67.6215 131.291 67.8039 131.291 67.9863C131.291 68.1688 131.23 68.412 131.108 68.6553C130.987 68.8985 130.804 69.0809 130.561 69.1417C130.379 69.2634 130.196 69.2634 130.014 69.2026C129.71 69.2026 129.649 69.0201 129.649 69.0201Z" fill="url(#paint19_linear)"/>
<path d="M130.379 67.135C130.379 67.135 130.257 67.135 130.075 67.1959C129.892 67.2567 129.771 67.3783 129.649 67.6215C129.527 67.8648 129.467 68.0472 129.467 68.2296C129.467 68.4121 129.467 68.5337 129.467 68.5337C129.467 68.5337 129.406 68.4729 129.345 68.2905C129.284 68.108 129.223 67.804 129.406 67.4999C129.467 67.3175 129.588 67.1959 129.771 67.135C129.892 67.0742 130.014 67.0134 130.136 67.0134C130.257 67.0134 130.318 67.0742 130.379 67.0742C130.379 67.135 130.379 67.135 130.379 67.135Z" fill="url(#paint20_linear)"/>
<path d="M129.527 69.6282C128.798 72.6687 128.007 75.7701 127.217 78.8106L124.845 87.993L122.412 97.1147L121.135 101.675L119.858 106.236L121.014 101.675L122.169 97.1147L124.541 87.9322L126.973 78.8106C127.825 75.7093 128.676 72.6687 129.527 69.6282Z" fill="url(#paint21_linear)"/>
<path d="M126.912 112.439L144.182 69.0202C144.486 68.2296 145.338 68.5337 145.095 69.0202L127.399 112.439H126.912Z" fill="url(#paint22_linear)"/>
<path d="M146.128 68.7768C145.703 69.5065 144.851 69.8106 144.304 69.5065C143.757 69.2025 143.635 68.412 144.061 67.6822C144.486 66.9525 145.338 66.6484 145.885 66.9525C146.432 67.1957 146.554 68.0471 146.128 68.7768Z" fill="url(#paint23_linear)"/>
<path d="M144.73 69.5674C143.331 73.1552 141.932 76.6822 140.473 80.2701L136.155 90.9728L131.777 101.675L129.588 107.027L127.338 112.378L129.466 107.027L131.595 101.675L135.912 90.9728L140.291 80.2701C141.75 76.6822 143.21 73.0944 144.73 69.5674Z" fill="url(#paint24_linear)"/>
<path d="M144.365 69.1417C144.365 69.1417 144.426 69.1417 144.486 69.2025C144.547 69.2025 144.669 69.2025 144.79 69.2025C145.034 69.1417 145.399 68.9593 145.642 68.6552C145.885 68.3512 145.946 67.9863 145.946 67.7431C145.946 67.4998 145.885 67.3174 145.885 67.3174C145.885 67.3174 145.885 67.3174 145.946 67.3782C146.007 67.439 146.067 67.4998 146.067 67.6214C146.128 67.7431 146.128 67.9255 146.128 68.1079C146.128 68.2904 146.007 68.5336 145.885 68.7768C145.703 69.0201 145.52 69.2025 145.277 69.2633C145.034 69.385 144.851 69.385 144.73 69.3241C144.426 69.2633 144.365 69.1417 144.365 69.1417Z" fill="url(#paint25_linear)"/>
<path d="M145.338 67.2566C145.338 67.2566 145.216 67.2566 145.034 67.3174C144.851 67.3783 144.669 67.4999 144.547 67.7431C144.426 67.9864 144.304 68.1688 144.304 68.3512C144.243 68.5337 144.243 68.6553 144.243 68.6553C144.243 68.6553 144.182 68.5945 144.122 68.412C144.061 68.2296 144.061 67.9256 144.304 67.6215C144.426 67.4391 144.547 67.3174 144.669 67.2566C144.791 67.1958 144.973 67.135 145.034 67.135C145.216 67.135 145.277 67.1958 145.338 67.2566Z" fill="url(#paint26_linear)"/>
<path d="M144.182 69.75C143.027 72.7905 141.811 75.8919 140.655 78.9324L137.007 88.1149L133.297 97.2365L131.412 101.797L129.527 106.358L131.29 101.797L133.054 97.2365L136.703 88.0541L140.412 78.9324C141.628 75.8311 142.905 72.7905 144.182 69.75Z" fill="url(#paint27_linear)"/>
<path d="M123.568 86.5337C123.568 86.5337 125.149 87.3243 125.027 89.8175C125.027 89.8175 122.838 88.1756 119.433 88.1756C114.629 88.1148 104.23 94.8648 101.98 97.9054C100.946 97.8446 100.216 97.4189 99.8516 96.5067C109.338 89.2702 116.939 84.7702 123.568 86.5337Z" fill="url(#paint28_linear)"/>
<path d="M108.365 102.953C105.324 101.432 102.831 99.304 100.459 96.9932C100.52 97.054 103.378 98.7567 106.662 99.8513C108.304 100.399 110.007 100.824 111.588 100.824C115.541 100.824 120.709 99.1824 123.385 94.4999C126.973 88.1756 123.507 86.5337 123.507 86.5337C116.878 84.7702 109.277 89.2702 99.8514 96.4459L97.4189 93.8918C107.331 86.4729 116.696 81.6689 124.784 83.2499C127.642 83.7364 129.223 85.4391 129.527 88.358C129.284 91.3986 127.095 95.108 125.149 97.358C121.135 102.101 114.568 106.054 108.365 102.953Z" fill="url(#paint29_linear)"/>
<path d="M49.0138 112.439L44.5746 3.89177C44.4529 1.94583 42.8719 2.61475 42.9935 3.89177L48.1624 112.439H49.0138Z" fill="url(#paint30_linear)"/>
<path d="M41.8379 3.28386C41.8379 4.25683 42.6284 4.56088 43.6014 4.01359C44.5744 3.46629 45.3649 2.18926 45.3649 1.2771C45.3649 0.304127 44.5744 7.25687e-05 43.6014 0.54737C42.6284 1.09467 41.8379 2.31088 41.8379 3.28386Z" fill="url(#paint31_linear)"/>
<path d="M38.6758 18.7298C38.9799 22.3176 25.4191 24.8717 25.0542 20.9798L25.6623 12.7703C28.7637 13.3176 32.2299 12.4055 36.1218 10.2771C36.4258 13.7433 36.9731 16.9663 38.6758 18.7298Z" fill="url(#paint32_linear)"/>
<path d="M23.8989 16.4798C24.9935 17.6352 25.48 19.3987 25.1151 20.9798C25.7841 20.7973 26.453 20.6149 27.0611 20.3109C27.6692 19.946 28.1557 19.3379 28.2165 18.669C28.2773 17.7568 27.5476 16.9055 26.6962 16.6014C25.7841 16.2365 24.8111 16.3582 23.8989 16.4798Z" fill="url(#paint33_linear)"/>
<path d="M37.2771 14.2297C37.2771 15.6892 37.7636 17.2094 38.6149 18.3648C38.1284 17.8783 37.3379 18 36.669 17.8783C35.5136 17.7567 34.419 17.2094 33.6284 16.3581C34.419 15.6892 34.8446 14.6554 34.7838 13.6824C35.3311 13.6216 35.7568 13.5608 36.3041 13.5C36.5473 13.5 36.8514 13.4392 37.0946 13.6216C37.2163 13.6824 37.2771 14.1081 37.2771 14.2297Z" fill="url(#paint34_linear)"/>
<path d="M43.6016 6.75009C41.3516 6.20279 38.6151 5.7163 36.2435 5.83792C35.3921 5.89873 34.5408 5.95954 33.8111 6.32441C33.0205 6.68927 32.4124 7.35819 32.23 8.14873C33.1421 9.36495 34.1151 10.7028 34.48 12.1622C34.9057 13.6217 34.6624 15.3852 33.507 16.3582C34.1759 17.2704 35.3313 17.9393 36.4259 18.0001C36.8516 18.0609 37.2165 18.0001 37.6421 18.0609C38.007 18.1217 38.4327 18.3649 38.6151 18.7298C38.6759 18.2433 38.3111 17.9393 37.8854 17.696C37.4597 17.4528 36.9124 17.392 36.4867 17.2704C36.0003 17.0879 35.5138 16.8447 35.3921 16.3582C35.2705 15.9325 35.3921 15.5068 35.6962 15.142C35.9394 14.8379 36.3651 14.5947 36.73 14.4122C39.0408 13.2568 41.7773 13.1352 44.2097 14.1082L43.6016 6.75009Z" fill="url(#paint35_linear)"/>
<path d="M27.7296 19.6419C28.2161 19.4595 28.6418 19.0946 28.8242 18.5473C29.0067 18.0609 28.9459 17.4527 28.7026 17.0271C28.4594 16.6014 27.9729 16.2973 27.7905 15.8109C27.4864 15.1419 27.7296 14.3514 28.0945 13.7433C28.4594 13.0744 29.1891 12.4055 29.2499 11.6149C29.3107 10.8852 29.0067 10.0946 28.3378 9.72978C27.7296 9.42572 26.9999 9.48653 26.331 9.66897C25.6621 9.8514 25.054 10.2163 24.3851 10.4595C22.8648 11.0068 21.1013 11.0068 19.581 10.4595C18.0607 9.91221 16.7229 8.7568 15.8715 7.35815C15.5675 9.8514 17.2702 12.9527 19.3986 14.2298C17.2702 14.4122 15.5675 13.5 13.4999 11.25C13.3175 12.9527 13.9864 14.7163 15.2026 15.9325C16.4188 17.1487 18.1215 17.8176 19.8242 17.696C21.7702 17.5744 23.5337 16.4798 25.4796 16.4798C26.2702 16.4798 27.0607 16.723 27.608 17.2703C28.1553 17.8176 28.2769 19.0946 27.7296 19.6419Z" fill="url(#paint36_linear)"/>
<path d="M43.5405 4.01343L44.027 17.5134L44.5135 31.0134L45.6689 58.0134L46.9459 85.0134L47.6149 98.4526L48.3446 112.439L47.9189 98.4526L47.3716 84.9526L46.277 57.9526L45 31.0134L44.3311 17.5134L43.5405 4.01343Z" fill="url(#paint37_linear)"/>
<path d="M42.6891 2.25C42.6891 2.25 42.6283 2.31081 42.5675 2.37162C42.5067 2.43243 42.4459 2.55405 42.3243 2.73649C42.2635 2.91892 42.2027 3.16216 42.2635 3.40541C42.3243 3.52703 42.3851 3.64865 42.5067 3.77027C42.6283 3.89189 42.8108 3.89189 42.9932 3.89189C43.2973 3.83108 43.5405 3.70946 43.7229 3.52703C43.9054 3.40541 44.027 3.22297 44.1486 3.10135C44.331 2.7973 44.4527 2.61486 44.4527 2.61486C44.4527 2.61486 44.2702 2.73649 44.027 2.91892C43.9054 3.04054 43.7229 3.10135 43.5405 3.22297C43.3581 3.34459 43.1756 3.40541 42.9932 3.46622C42.6283 3.52703 42.5067 3.10135 42.5067 2.7973C42.5067 2.61486 42.5675 2.49324 42.5675 2.43243C42.6283 2.31081 42.6891 2.25 42.6891 2.25Z" fill="url(#paint38_linear)"/>
<path d="M43.4189 1.21631C43.4189 1.21631 43.5406 1.1555 43.7838 1.03388C43.9662 0.912254 44.2703 0.851444 44.4527 0.973065C44.5744 1.03388 44.5744 1.45955 44.5744 1.70279C44.5744 1.94604 44.5744 2.12847 44.5744 2.12847C44.5744 2.12847 44.696 2.00685 44.8176 1.76361C44.8784 1.64198 44.9392 1.52036 44.9392 1.33793C44.9392 1.27712 44.9392 1.1555 44.9392 1.03388C44.9392 0.912254 44.8176 0.790633 44.696 0.669011C44.4527 0.486579 44.2095 0.486579 44.0271 0.6082C43.8446 0.669011 43.723 0.790633 43.6622 0.912254C43.4798 1.03388 43.4189 1.21631 43.4189 1.21631Z" fill="url(#paint39_linear)"/>
<path d="M44.2095 4.80396L44.5743 14.8377L44.9392 24.9323L45.8514 45.1215L46.8243 65.3107L47.3108 75.4053L47.9189 85.4999L47.5541 75.4053L47.1284 65.3107L46.277 45.1215L45.3041 24.9323L44.7568 14.8377L44.2095 4.80396Z" fill="url(#paint40_linear)"/>
<path d="M105.811 99.5473L116.756 49.2567C116.878 48.527 118.034 48.1621 117.79 49.3175L106.419 99.7905L105.811 99.5473Z" fill="url(#paint41_linear)"/>
<path d="M105.446 101.189L105.993 101.554L103.56 112.439H103.013L105.446 101.189Z" fill="url(#paint42_linear)"/>
<path d="M116.149 48.831C115.966 49.3783 116.453 49.6215 117.121 49.3175C117.851 49.0134 118.52 48.3445 118.703 47.7364C118.885 47.1891 118.399 46.9458 117.73 47.2499C117 47.6148 116.331 48.2837 116.149 48.831Z" fill="url(#paint43_linear)"/>
<path d="M111.709 57.7094C111.344 59.7769 102.284 60.9323 102.648 58.6823L104.351 53.9391C106.236 54.3648 108.608 53.9391 111.405 52.7837C111.101 54.7904 110.919 56.6756 111.709 57.7094Z" fill="url(#paint44_linear)"/>
<path d="M102.648 56.0068C103.196 56.7365 103.196 57.7703 102.709 58.6824C103.196 58.6216 103.621 58.5 104.047 58.3176C104.473 58.1351 104.898 57.7703 105.02 57.4054C105.202 56.8581 104.898 56.3716 104.351 56.1892C103.865 55.9459 103.196 56.0068 102.648 56.0068Z" fill="url(#paint45_linear)"/>
<path d="M111.527 55.0944C111.284 55.9457 111.345 56.7971 111.77 57.5268C111.527 57.2228 111.04 57.2836 110.615 57.2228C109.885 57.1011 109.277 56.7971 108.912 56.2498C109.52 55.8849 109.946 55.2768 110.068 54.7295C110.432 54.7295 110.736 54.6687 111.04 54.6687C111.223 54.6687 111.405 54.6687 111.527 54.7295C111.588 54.7295 111.527 54.9728 111.527 55.0944Z" fill="url(#paint46_linear)"/>
<path d="M116.757 50.8984C115.419 50.5336 113.716 50.1687 112.196 50.1687C111.649 50.1687 111.102 50.1687 110.554 50.3511C110.007 50.5336 109.46 50.8984 109.277 51.3849C109.642 52.1146 110.068 52.9052 110.129 53.7565C110.129 54.6079 109.764 55.6417 108.852 56.189C109.156 56.7363 109.764 57.1619 110.433 57.2228C110.676 57.2228 110.919 57.2228 111.162 57.2836C111.406 57.3444 111.649 57.466 111.649 57.7092C111.77 57.4052 111.588 57.2228 111.345 57.1011C111.102 56.9795 110.798 56.9187 110.493 56.7971C110.189 56.6755 109.946 56.493 109.946 56.2498C109.946 56.0065 110.068 55.7633 110.311 55.5809C110.554 55.3984 110.798 55.2768 111.102 55.1552C112.743 54.5471 114.568 54.5471 115.906 55.1552L116.757 50.8984Z" fill="url(#paint47_linear)"/>
<path d="M104.595 57.9526C104.959 57.8918 105.263 57.6486 105.446 57.3445C105.628 57.0404 105.689 56.7364 105.568 56.4323C105.446 56.1891 105.263 56.0067 105.142 55.7026C105.02 55.3377 105.324 54.8513 105.628 54.4864C105.993 54.1215 106.54 53.6959 106.723 53.2702C106.905 52.8445 106.784 52.358 106.419 52.1756C106.054 51.9932 105.568 51.9932 105.142 52.1148C104.716 52.2364 104.23 52.4188 103.804 52.5404C102.709 52.8445 101.615 52.7837 100.703 52.4188C99.7905 52.054 99.1216 51.385 98.8175 50.5337C98.2702 51.9323 98.8175 53.8175 99.9729 54.608C98.5743 54.6688 97.6621 54.0607 96.6891 52.7229C96.3243 53.6959 96.4459 54.7296 97.054 55.4594C97.6013 56.1891 98.6351 56.6148 99.7297 56.6148C101.007 56.554 102.284 56.0067 103.561 56.0675C104.047 56.0675 104.534 56.2499 104.777 56.554C105.142 56.9188 105.02 57.6486 104.595 57.9526Z" fill="url(#paint48_linear)"/>
<path d="M116.879 48.2837C116.879 48.2837 116.879 48.2837 116.818 48.3445C116.757 48.4053 116.696 48.4661 116.635 48.5269C116.574 48.6486 116.514 48.7702 116.514 48.8918C116.514 48.9526 116.574 49.0742 116.635 49.135C116.696 49.1959 116.818 49.1959 116.939 49.1959C117.183 49.1959 117.304 49.0742 117.487 49.0134C117.608 48.9526 117.73 48.831 117.852 48.7702C118.034 48.5877 118.095 48.4661 118.095 48.4661C118.095 48.4661 117.973 48.5269 117.791 48.6486C117.669 48.7094 117.547 48.7702 117.426 48.831C117.304 48.8918 117.122 48.9526 117 48.9526C116.757 48.9526 116.757 48.7094 116.818 48.5269C116.879 48.4661 116.879 48.3445 116.939 48.2837C116.879 48.2837 116.879 48.2837 116.879 48.2837Z" fill="url(#paint49_linear)"/>
<path d="M117.547 47.6755C117.547 47.6755 117.669 47.6147 117.791 47.5539C117.912 47.4931 118.155 47.4931 118.216 47.5539C118.277 47.6147 118.216 47.858 118.155 47.9796C118.095 48.1012 118.095 48.2228 118.095 48.2228C118.095 48.2228 118.216 48.162 118.277 48.0404C118.338 47.9796 118.399 47.9188 118.46 47.7972C118.46 47.7364 118.52 47.6755 118.52 47.6147C118.52 47.5539 118.52 47.4323 118.46 47.4323C118.338 47.3107 118.155 47.3107 118.034 47.3715C117.912 47.4323 117.791 47.4931 117.73 47.5539C117.547 47.6147 117.547 47.6755 117.547 47.6755Z" fill="url(#paint50_linear)"/>
<path d="M117.487 49.804L116.088 55.6418L114.75 61.5404L112.135 73.2769L109.581 85.0134L108.304 90.8513L107.088 96.7499L108.487 90.8513L109.824 85.0134L112.439 73.2769L114.993 61.5404L116.21 55.6418L117.487 49.804Z" fill="url(#paint51_linear)"/>
<path d="M104.838 104.229L105.507 101.25L105.689 101.371L105.081 104.229L103.196 112.439L104.838 104.229Z" fill="url(#paint52_linear)"/>
<path d="M106.115 99.6687L105.872 99.5471L106.541 96.3849L110.007 80.6958L113.534 65.0066L115.358 57.162L117.182 49.3174L115.541 57.162L113.838 65.0066L110.372 80.6958L106.845 96.3849L106.115 99.6687Z" fill="url(#paint53_linear)"/>
<path fill-rule="evenodd" clip-rule="evenodd" d="M125.027 101.007L120.527 112.439H119.98L124.054 101.068L125.027 101.007ZM116.027 106.48L113.899 112.439H114.446L116.939 106.297L116.027 106.48ZM105.872 112.439L107.27 106.054L108.304 106.358L106.419 112.439H105.872Z" fill="url(#paint54_linear)"/>
<path d="M94.0742 95.6554C77.7769 102.831 59.0471 102.284 38.0674 94.4392C33.385 94.9865 30.7701 96.8716 29.7363 99.8514C58.3174 107.088 83.7363 108.182 99.1823 100.824L94.0742 95.6554Z" fill="url(#paint55_linear)"/>
<path d="M129.588 88.3581C129.345 91.3987 127.156 95.1081 125.21 97.3581C121.135 102.101 114.568 106.054 108.365 102.953C103.135 100.338 99.365 95.9595 95.5339 91.7635C92.9191 88.8446 90.365 85.9257 87.811 82.946C84.3447 78.8108 80.8785 74.6757 77.3515 70.6014C74.1893 66.9527 71.2704 63.1217 67.6826 59.8379C64.2772 56.6757 60.4461 53.9392 56.311 51.75C51.5069 49.196 46.3988 47.3108 41.0474 46.0946C32.7772 44.2703 19.5812 43.2973 16.5407 53.6352C16.4191 54.1217 16.2974 54.6081 16.2366 55.0946C15.6893 58.6825 18.3042 63.4257 21.1623 65.7365C23.6556 65.7365 24.5677 64.7027 25.7839 63.3041C23.8988 62.0271 23.5947 59.1081 24.4461 56.9798C25.3583 54.9122 27.365 53.4527 29.5542 52.7838C31.7434 52.1757 34.0542 52.2365 36.3042 52.5406C48.4056 54 59.3515 60.5068 68.5339 68.5338C74.1893 73.5203 79.2974 79.1149 84.3447 84.7095C89.392 90.4257 94.3785 96.446 100.034 101.554C104.899 105.932 111.466 108.547 117.912 106.176C119.311 105.689 120.588 104.959 121.683 104.047C123.811 102.405 125.574 100.399 127.034 98.0879C128.493 95.8379 129.71 93.8919 129.71 90.3649C129.831 90.0608 129.649 88.723 129.588 88.3581Z" fill="url(#paint56_linear)"/>
<path opacity="0.3" d="M25.7836 63.3039C24.2633 63.608 22.6822 64.0945 21.2836 64.885C19.2768 63.4256 17.7565 61.2972 17.1484 58.8647C16.4795 56.4931 16.7836 53.9391 17.7565 51.6891C19.3984 53.0877 22.2565 51.5066 24.02 50.8985C30.9525 48.5877 38.6146 49.0742 45.4863 51.4458C52.4187 53.7566 58.6214 57.8918 64.0944 62.635C69.6281 67.3783 74.493 72.8512 79.2971 78.3242C78.689 78.0202 78.0809 77.6553 77.4727 77.2904C74.6146 74.3107 71.6957 71.331 68.5336 68.6553C59.3511 60.6283 48.4052 54.1215 36.3038 52.662C34.0538 52.358 31.743 52.2972 29.5538 52.9053C27.3646 53.5134 25.2971 54.9729 24.4457 57.1012C23.5944 59.0472 23.8984 62.0269 25.7836 63.3039Z" fill="url(#paint57_linear)"/>
<path fill-rule="evenodd" clip-rule="evenodd" d="M29.858 50.2297L32.8985 64.8851L33.5066 64.7635L31.2566 49.9257C30.9526 48.6486 29.6147 48.8919 29.858 50.2297ZM43.2363 66.7702L41.8377 51.1419C41.7161 49.6216 42.9323 49.5608 43.0539 51.0811L43.8445 66.7094L43.2363 66.7702ZM52.4796 55.4594V69.6284H53.0877L53.8174 55.4594C53.8174 53.8784 52.5404 53.8175 52.4796 55.4594ZM60.9323 74.1284L62.5742 61.7838C62.7566 60.5675 63.8512 60.75 63.7296 61.9662L61.5404 74.25L60.9323 74.1284ZM71.6958 80.8784L74.5539 70.4797C74.858 69.2027 73.7026 68.9594 73.3985 70.2365L71.1485 80.7567L71.6958 80.8784ZM24.0809 67.0743L19.2769 56.7365C18.7296 55.3986 19.7026 54.9729 20.3107 56.25L24.6282 66.8311L24.0809 67.0743Z" fill="url(#paint58_linear)"/>
<path d="M74.0069 92.8581C76.6217 92.0676 79.0541 90.6081 80.9393 88.5405C70.4798 73.7027 53.8177 63.7297 35.9393 62.027C31.5001 61.6014 26.8177 61.723 22.8041 63.7297C18.7906 65.7365 15.6893 70.1757 16.3582 74.6757C16.7231 77.3514 18.3041 79.6622 20.2501 81.4865C22.196 83.25 24.5677 84.527 26.8785 85.8041L32.7771 85.3176C30.0406 83.25 27.7298 80.5743 26.0879 77.5338C25.3582 76.196 24.7501 74.6149 25.3582 73.2162C25.9663 71.8784 27.4866 71.2095 28.8852 70.9054C32.5339 70.0541 36.3041 70.3581 40.0136 71.027C52.2366 73.1554 63.7298 79.1149 72.9731 87.5676C71.2704 88.9662 69.446 90.1216 67.4393 90.973L74.0069 92.8581Z" fill="url(#paint59_linear)"/>
<path opacity="0.3" d="M21.2228 71.2094C22.3782 70.8445 23.2904 70.1148 24.2634 69.4459C27.7296 67.1959 31.9255 66.3445 36.0607 66.4661C40.1958 66.5878 44.2093 67.6824 48.1012 69.0202C58.2566 72.608 67.9255 78.5067 73.9458 87.3851C73.4593 87.2634 73.0337 87.2026 72.5472 87.081C63.3647 78.9324 52.1147 73.0945 40.0742 71.0269C36.4255 70.358 32.5945 70.054 28.9458 70.9053C27.5472 71.2094 26.0269 71.8783 25.4188 73.2161C24.8107 74.6148 25.4188 76.1959 26.1485 77.5337C27.608 80.2094 29.4931 82.581 31.8039 84.5269C30.4661 84.831 29.1282 85.1351 27.8512 85.5607C24.8715 84.7094 22.5607 82.5202 20.5539 80.1486C19.3985 78.8107 18.3647 77.3513 17.7566 75.6486C17.1485 74.0067 17.3309 72.0607 17.9999 70.4188C18.6688 71.3918 20.0674 71.5742 21.2228 71.2094Z" fill="url(#paint60_linear)"/>
<path fill-rule="evenodd" clip-rule="evenodd" d="M41.1691 86.2297L38.311 66.3446C38.1894 65.1892 39.284 65.0675 39.5273 66.2229L41.7773 86.1689L41.1691 86.2297ZM27.6083 68.5337L32.8989 86.777L33.4462 86.5946L28.5813 68.2297C28.2773 67.0743 27.2435 67.3175 27.6083 68.5337ZM49.9259 69.6892L50.23 88.2973H50.8381L51.1421 69.6892C51.0813 68.3513 49.9259 68.3513 49.9259 69.6892ZM60.8718 90.1216L62.5745 75.2229C62.757 74.0067 63.7908 74.1283 63.6691 75.3446L61.48 90.1824L60.8718 90.1216ZM70.1151 92.9797L73.4597 83.9189C73.8854 82.6419 72.9124 82.3378 72.4867 83.554L69.5678 92.7973L70.1151 92.9797ZM27.8516 88.8446L20.7367 73.3986C20.0678 71.9392 20.98 71.5135 21.6489 72.9729L28.3989 88.6013L27.8516 88.8446Z" fill="url(#paint61_linear)"/>
<path d="M29.7366 99.8514C27.5474 98.8176 25.3583 97.7838 23.7164 96.0811C22.0745 94.3784 21.2231 91.8244 22.1961 89.7568C23.2299 87.5068 25.9056 86.4122 28.4596 85.8041C35.088 84.1622 42.0812 84.1014 48.892 85.0135C55.7029 85.9257 62.3312 87.75 68.838 89.7568C72.2434 90.7906 75.6488 91.946 78.7501 93.5879C81.8515 95.2906 84.892 97.3581 86.5947 100.399C84.588 102.405 81.7907 103.682 78.8718 103.804C79.8447 103.378 80.8177 102.649 81.2434 101.737C69.9326 96.1419 57.2839 93.4054 44.5745 93.6487C41.7164 93.7095 38.8583 93.9527 36.3042 95.0473C33.5069 96.2635 31.865 97.7838 29.7366 99.8514Z" fill="url(#paint62_linear)"/>
<path fill-rule="evenodd" clip-rule="evenodd" d="M86.8379 112.439L88.2365 86.6553C88.2974 85.9256 89.4528 86.0472 89.3919 86.7769L87.446 112.439H86.8379ZM96.0203 112.439L97.9663 97.054C98.0271 96.4458 96.9933 96.3242 96.9325 96.9323L95.4122 112.439H96.0203Z" fill="url(#paint63_linear)"/>
<path opacity="0.3" d="M27.5471 92.4323C33.5065 89.635 40.1957 88.9053 46.7025 89.331C53.2092 89.7566 59.6552 91.2769 65.9795 92.9796C72.1822 94.6215 78.3849 96.9323 82.8849 101.493C82.3376 102.344 81.6079 103.013 80.6957 103.439C80.6349 103.5 80.5133 103.5 80.4525 103.561C79.9052 103.682 79.3579 103.743 78.8106 103.804C79.7836 103.378 80.7565 102.649 81.1822 101.736C69.8714 96.1418 57.2227 93.4053 44.5133 93.6485C41.6552 93.7093 38.7971 93.9526 36.243 95.0472C33.7498 96.1418 32.1079 97.4796 30.2836 99.3039C30.1011 99.3039 29.9187 99.3039 29.7363 99.3039C28.52 98.331 27.3646 97.358 26.1484 96.4458C25.2971 95.7769 24.4457 95.0472 23.7768 94.2566C23.0471 93.4053 22.5606 92.5539 22.439 91.4593C23.8376 92.6148 25.9052 93.2229 27.5471 92.4323Z" fill="url(#paint64_linear)"/>
<path fill-rule="evenodd" clip-rule="evenodd" d="M48.7702 112.439L46.4593 89.0878C46.3377 88.1148 47.7972 87.9932 47.9188 88.9662L49.3783 112.439H48.7702ZM63.3039 91.8851L60.7499 112.439H61.358L64.8242 92.1284C64.885 91.277 63.4256 91.0338 63.3039 91.8851ZM78.4458 97.5405L73.9458 112.439H73.3985L77.108 97.1757C77.2904 96.3851 78.6891 96.75 78.4458 97.5405ZM32.7769 90.304L38.5539 112.439H39.1012L34.2364 89.9392C33.9931 88.9054 32.5337 89.2702 32.7769 90.304ZM31.4391 112.439L24.5066 94.3784C23.9593 92.8581 25.4796 92.3108 26.0269 93.8311L31.9864 112.439H31.4391Z" fill="url(#paint65_linear)"/>
<path d="M110.372 60.9933C110.615 61.4798 111.041 61.9055 111.527 62.0879C112.013 62.2703 112.682 62.1487 112.986 61.723C113.23 61.419 113.23 61.0541 113.23 60.6284C113.169 60.0203 112.926 59.473 112.561 59.0474C111.831 59.7771 111.162 60.446 110.372 60.9933Z" fill="url(#paint66_linear)"/>
<path d="M106.905 62.696C107.027 63.1825 107.149 63.669 107.453 64.0338C107.696 64.4595 108.182 64.7636 108.669 64.7636C109.155 64.7636 109.581 64.4595 109.824 64.0338C110.067 63.6082 110.067 63.1217 110.007 62.6352C109.946 62.1487 109.763 61.723 109.642 61.2974C108.79 61.9663 107.878 62.4528 106.905 62.696Z" fill="url(#paint67_linear)"/>
<path d="M102.284 63.6081C102.223 64.7027 102.77 65.8581 103.683 66.4662C103.865 66.5878 104.108 66.7095 104.351 66.7095C104.656 66.7095 104.838 66.4662 105.02 66.2838C105.811 65.4324 106.054 64.0946 105.689 63C104.595 63.4865 103.5 63.6689 102.284 63.6081Z" fill="url(#paint68_linear)"/>
<path d="M96.689 63.1824C96.689 64.3986 96.993 65.6148 97.6011 66.6486C97.7836 66.9526 97.966 67.2567 98.3309 67.3783C98.8173 67.5608 99.3038 67.1959 99.6687 66.831C100.52 65.9189 101.067 64.7635 101.189 63.608C99.7295 63.7297 98.0268 63.608 96.689 63.1824Z" fill="url(#paint69_linear)"/>
<path d="M90.7905 61.7229C90.7905 62.9391 90.973 64.0945 91.3986 65.1891C91.5811 65.7364 91.9459 66.2837 92.4932 66.4053C92.9189 66.527 93.4054 66.3445 93.7703 66.0405C94.6824 65.3107 95.0473 64.0337 95.3513 62.8783C93.8919 62.8783 92.1284 62.5134 90.7905 61.7229Z" fill="url(#paint70_linear)"/>
<path d="M85.2569 59.1689C85.0137 60.9933 85.2569 63.3041 86.534 64.8244C86.6556 64.946 86.7772 65.0676 86.8988 65.1284C87.0813 65.1892 87.2637 65.1284 87.4461 65.0676C88.2367 64.7635 88.6623 63.973 89.0272 63.3041C89.1488 63.1216 90.061 61.2973 89.9394 61.2365C88.3583 60.75 86.6556 60.0811 85.2569 59.1689Z" fill="url(#paint71_linear)"/>
<path d="M79.48 55.946C79.0543 57.7096 79.2367 59.5339 79.9056 61.2366C80.1489 61.7839 80.5137 62.392 81.1219 62.5136C81.6692 62.5744 82.1556 62.2704 82.5205 61.9055C83.4327 61.0542 84.0408 59.8987 84.284 58.6825C82.6421 58.0136 80.8786 57.0406 79.48 55.946Z" fill="url(#paint72_linear)"/>
<path d="M74.0065 51.9932C73.5809 54.304 74.0673 56.7972 75.3444 58.804C75.5876 59.1688 75.8309 59.5337 76.2565 59.5945C76.6822 59.6553 77.1079 59.3513 77.3511 58.9864C77.6552 58.5607 78.9322 55.3986 78.2633 55.0945C76.743 54.304 75.1011 53.2094 74.0065 51.9932Z" fill="url(#paint73_linear)"/>
<path d="M68.1079 46.946C67.9254 49.0744 68.2295 51.2028 68.9592 53.2096C69.2633 53.9393 69.689 54.7298 70.4187 54.8515C71.27 54.9731 71.9998 54.3042 72.3038 53.5136C72.6079 52.7231 72.6687 51.8717 72.9727 51.0812C71.0876 49.9258 69.5065 48.7096 68.1079 46.946Z" fill="url(#paint74_linear)"/>
<path d="M62.6959 41.5337C62.3919 43.9661 62.7568 46.5202 63.7905 48.7702C63.973 49.135 64.2162 49.5607 64.6419 49.6823C65.1892 49.804 65.7365 49.2567 66.0405 48.7702C66.5878 47.858 66.9527 46.885 67.1351 45.8513C65.4324 44.6959 63.7297 43.2364 62.6959 41.5337Z" fill="url(#paint75_linear)"/>
<path d="M57.2838 34.9055C56.6757 37.8852 56.9189 41.0474 58.1352 43.8447C58.3176 44.3312 58.6825 44.8785 59.2298 44.8785C59.5946 44.8785 59.8987 44.5744 60.2027 44.2704C61.1149 43.2366 61.723 41.8988 61.9662 40.5609C59.9595 39.1015 58.5 36.9731 57.2838 34.9055Z" fill="url(#paint76_linear)"/>
<path d="M52.4799 27.6082C51.5677 30.9527 51.7501 34.5406 52.9663 37.7636C53.2096 38.3717 53.5744 39.0406 54.1826 38.9798C54.7299 38.9798 55.0947 38.4325 55.2771 38.0068C55.8853 36.7298 56.2501 35.2703 56.3109 33.8717C54.7907 32.1082 53.5744 29.7365 52.4799 27.6082Z" fill="url(#paint77_linear)"/>
<path d="M48.7701 20.7366C47.9187 24.2028 47.9795 27.8514 49.0133 31.2568C49.0741 31.5609 49.1958 31.865 49.4998 31.9258C49.8647 32.0474 50.2295 31.6825 50.412 31.3785C51.3241 29.9798 51.8106 28.2771 51.8106 26.6352C50.412 24.9933 49.439 22.865 48.7701 20.7366Z" fill="url(#paint78_linear)"/>
<path d="M117.182 49.6215C116.635 51.8715 115.905 54.0607 114.75 56.0675C113.595 58.0742 112.074 59.8986 110.128 61.1756C109.642 61.5405 109.155 61.7837 108.608 62.0878C108.061 62.331 107.574 62.5742 107.027 62.7567C105.932 63.1824 104.777 63.4256 103.622 63.608C101.311 63.9121 98.9392 63.8513 96.6892 63.4256C92.1284 62.6351 87.7501 60.8715 83.6757 58.6824C79.6014 56.4932 75.7703 53.8783 72.1825 50.9594C65.0676 45.0607 58.7433 38.1891 53.7568 30.4053C51.2636 26.5134 49.0744 22.4391 47.3717 18.1215C45.7298 13.804 44.5136 9.30398 44.0879 4.74316C44.5744 9.30398 45.8514 13.804 47.6149 17.9999C49.3176 22.2567 51.5676 26.2702 54.0609 30.1013C59.1082 37.7634 65.3717 44.6351 72.4865 50.4121C76.0136 53.331 79.8447 55.9459 83.8582 58.1351C87.8717 60.3242 92.1892 62.0878 96.6892 62.8783C98.9392 63.304 101.25 63.4256 103.5 63.1215C104.595 62.9391 105.75 62.7567 106.784 62.331C107.331 62.1486 107.818 61.9053 108.365 61.6621C108.851 61.358 109.399 61.1148 109.824 60.8107C111.77 59.5945 113.291 57.831 114.446 55.8242C115.784 53.9999 116.574 51.8107 117.182 49.6215Z" fill="url(#paint79_linear)"/>
<path d="M19.7026 112.318L3.64856 37.0338C3.3445 35.6959 1.88505 36.1216 2.06748 37.0338L18.8513 112.318H19.7026Z" fill="url(#paint80_linear)"/>
<path d="M0.48668 36.5474C1.03398 37.7636 2.311 38.3717 3.4056 37.8244C4.50019 37.2771 4.92587 35.8785 4.37857 34.6623C3.83127 33.4461 2.55425 32.838 1.45965 33.3853C0.365059 33.8717 -0.0606171 35.3312 0.48668 36.5474Z" fill="url(#paint81_linear)"/>
<path d="M2.61475 37.8853C3.89177 44.088 5.1688 50.2907 6.50664 56.4934L10.5202 75.0407L14.6553 93.588L16.7837 102.831L18.9729 112.074L17.0877 102.77L15.1418 93.4663L11.1283 74.919L6.93231 56.3717C5.53366 50.2907 4.13502 44.088 2.61475 37.8853Z" fill="url(#paint82_linear)"/>
<path d="M3.40543 37.2162C3.40543 37.2162 3.34462 37.277 3.223 37.277C3.10138 37.3378 2.91895 37.3378 2.6757 37.277C2.25003 37.2162 1.70273 36.9121 1.39868 36.304C1.09462 35.7567 1.09462 35.0878 1.15543 34.6621C1.21624 34.2364 1.33786 33.9324 1.33786 33.9324C1.33786 33.9324 1.27705 33.9932 1.21624 34.054C1.15543 34.1756 1.03381 34.2972 0.912189 34.5405C0.790567 34.7837 0.729756 35.027 0.668945 35.3918C0.668945 35.7567 0.729756 36.1216 0.912189 36.5472C1.09462 36.9121 1.39868 37.2162 1.76354 37.3986C2.1284 37.581 2.43246 37.581 2.6757 37.581C3.223 37.4594 3.40543 37.1553 3.40543 37.2162Z" fill="url(#paint83_linear)"/>
<path d="M2.25 33.9324C2.25 33.9324 2.49324 33.9324 2.73649 33.9932C3.04054 34.1149 3.28378 34.3581 3.46622 34.723C3.64865 35.0878 3.70946 35.5135 3.70946 35.8176C3.70946 36.1216 3.70946 36.3649 3.70946 36.3649C3.70946 36.3649 3.83108 36.2432 3.9527 35.9392C4.07432 35.6351 4.19595 35.1486 3.9527 34.5405C3.83108 34.2973 3.64865 34.0541 3.40541 33.9324C3.16216 33.8108 2.91892 33.75 2.73649 33.75C2.55405 33.75 2.43243 33.8108 2.31081 33.8716L2.25 33.9324Z" fill="url(#paint84_linear)"/>
<path d="M3.46631 38.25C4.50009 43.5405 5.59469 48.8311 6.68928 54.1216L10.0339 69.9932L13.5001 85.8649L15.2636 93.7703L17.0879 101.676L15.5068 93.7095L13.9866 85.8041L10.5812 69.9324L7.11496 54.0608C5.95955 48.7703 4.74334 43.4797 3.46631 38.25Z" fill="url(#paint85_linear)"/>
<path d="M40.5 112.317L30.1013 32.5945C29.8581 31.1958 28.277 31.6823 28.4594 32.5945L39.5878 112.317H40.5Z" fill="url(#paint86_linear)"/>
<path d="M26.8173 32.1081C27.3037 33.4459 28.6416 34.054 29.797 33.5067C30.9524 32.9594 31.5605 31.4392 31.1348 30.1621C30.6483 28.8243 29.3105 28.2162 28.1551 28.7635C26.9997 29.3108 26.3308 30.7702 26.8173 32.1081Z" fill="url(#paint87_linear)"/>
<path d="M28.9458 33.5674C29.7363 40.135 30.5877 46.7025 31.439 53.2701L34.1147 72.912L36.912 92.5539L38.3715 102.344L39.8917 112.135L38.6755 102.284L37.3377 92.4322L34.662 72.7904L31.8647 53.1485C30.9526 46.6417 29.9796 40.0741 28.9458 33.5674Z" fill="url(#paint88_linear)"/>
<path d="M29.8579 32.777C29.8579 32.777 29.7971 32.8378 29.6755 32.8378C29.5539 32.8986 29.3714 32.8986 29.1282 32.8378C28.6417 32.777 28.1552 32.4121 27.8512 31.804C27.6079 31.1959 27.6079 30.527 27.7295 30.1013C27.8512 29.6148 27.9728 29.3108 27.9728 29.3108C27.9728 29.3108 27.912 29.3716 27.7904 29.4932C27.6687 29.6148 27.5471 29.7365 27.4255 29.9797C27.3039 30.223 27.1822 30.527 27.1214 30.8919C27.0606 31.2567 27.1214 31.6824 27.3039 32.1081C27.4863 32.5338 27.7904 32.8378 28.1552 33.0203C28.5201 33.2027 28.8241 33.2027 29.1282 33.2027C29.6147 33.0811 29.8579 32.777 29.8579 32.777Z" fill="url(#paint89_linear)"/>
<path d="M28.8848 29.3109C28.8848 29.3109 29.128 29.25 29.3713 29.4325C29.6753 29.5541 29.9185 29.7973 30.101 30.223C30.2834 30.5879 30.2834 31.0744 30.2834 31.3784C30.2834 31.6825 30.2226 31.9257 30.2226 31.9257C30.2226 31.9257 30.405 31.7433 30.5267 31.4392C30.7091 31.1352 30.8307 30.5879 30.6483 29.9798C30.5267 29.6757 30.3442 29.4325 30.101 29.3109C29.8577 29.1892 29.6145 29.1284 29.4321 29.1284C29.2496 29.1284 29.0672 29.1892 29.0064 29.25C28.9456 29.3109 28.8848 29.3109 28.8848 29.3109Z" fill="url(#paint90_linear)"/>
<path d="M29.8579 33.8716C30.466 39.4662 31.1957 45.1216 31.8647 50.7162L34.0539 67.5L36.3647 84.2837L37.5809 92.6756L38.8579 101.068L37.8849 92.6756L36.8512 84.2837L34.662 67.5L32.3512 50.7162C31.4998 45.0608 30.7093 39.4662 29.8579 33.8716Z" fill="url(#paint91_linear)"/>
<path d="M129.588 69.3853C128.372 70.7231 127.155 72.0001 125.939 73.2771C124.723 74.5542 123.446 75.8312 122.169 77.1082C120.892 78.3244 119.615 79.6015 118.277 80.8177L116.331 82.642C115.662 83.2501 114.993 83.8582 114.324 84.4055C114.932 83.7366 115.54 83.0677 116.149 82.3988L118.034 80.4528C119.25 79.1758 120.527 77.8988 121.804 76.6217C123.081 75.4055 124.358 74.1285 125.696 72.9123C126.912 71.7569 128.25 70.5407 129.588 69.3853Z" fill="url(#paint92_linear)"/>
<path d="M144.729 69.5676C143.513 71.0271 142.236 72.4865 140.959 73.8852C139.682 75.2838 138.405 76.6825 137.067 78.0811C135.729 79.4798 134.452 80.8176 133.054 82.2163L131.047 84.223C130.378 84.892 129.648 85.5609 128.979 86.2298C129.588 85.5001 130.196 84.7703 130.865 84.0406L132.75 81.9122C134.027 80.5136 135.304 79.1149 136.642 77.7163C137.979 76.3176 139.257 74.9798 140.655 73.5811C141.993 72.1825 143.331 70.8447 144.729 69.5676Z" fill="url(#paint93_linear)"/>
<path d="M29.7974 33.446C30.892 35.392 31.8649 37.3987 32.7163 39.4055C33.6284 41.4123 34.419 43.4798 35.1487 45.6082C34.0541 43.6623 33.0811 41.6555 32.2298 39.6487C31.3176 37.642 30.4663 35.5744 29.7974 33.446Z" fill="url(#paint94_linear)"/>
<path d="M3.40527 37.8242C4.80392 38.6148 6.14176 39.4661 7.54041 40.3783C8.87825 41.2296 10.2161 42.1418 11.5539 43.0539C12.8918 43.9661 14.2296 44.8783 15.5066 45.8512L17.4526 47.3107C18.1215 47.7972 18.7296 48.2837 19.3985 48.7702C18.6688 48.3445 17.9999 47.9188 17.3309 47.5539L15.2634 46.2769C13.9255 45.4256 12.5877 44.5134 11.2499 43.6012C9.91203 42.6891 8.57419 41.7769 7.29717 40.8039C5.95933 39.831 4.6823 38.858 3.40527 37.8242Z" fill="url(#paint95_linear)"/>
<path d="M97.9663 94.4391C97.9663 94.4391 99.6082 96.3851 102.77 99.0608C104.351 100.338 106.237 101.98 108.791 102.953C110.068 103.439 111.466 103.865 112.926 103.926C114.385 103.986 115.905 103.622 117.365 103.074C120.284 101.858 122.716 100.034 124.541 98.027C126.365 96.0202 127.703 93.8918 128.615 92.0675C129.101 91.1553 129.345 90.2432 129.466 89.4526C129.588 88.6621 129.527 87.9324 129.405 87.3851C129.345 87.081 129.284 86.8378 129.223 86.6553C129.162 86.4729 129.101 86.2905 129.041 86.108C128.919 85.804 128.858 85.6824 128.858 85.6824C128.858 85.6824 128.919 85.804 129.041 86.108C129.101 86.2297 129.162 86.4121 129.284 86.6553C129.345 86.8378 129.466 87.081 129.527 87.3851C129.649 87.9324 129.77 88.6621 129.649 89.5135C129.527 90.304 129.284 91.277 128.858 92.1891C128.433 93.1621 127.824 94.1351 127.155 95.108C126.487 96.1418 125.696 97.1756 124.784 98.2094C122.96 100.277 120.466 102.101 117.547 103.318C116.088 103.926 114.507 104.29 112.987 104.169C111.466 104.108 110.068 103.682 108.791 103.196C108.183 102.953 107.574 102.649 106.966 102.345C106.419 102.04 105.872 101.676 105.385 101.311C104.412 100.581 103.5 99.8513 102.77 99.1824C99.5474 96.4459 97.9663 94.4391 97.9663 94.4391Z" fill="url(#paint96_linear)"/>
<path d="M42.0205 46.6418C42.0205 46.6418 42.2029 46.6418 42.507 46.7027C42.811 46.7635 43.2975 46.8243 43.9056 46.9459C45.1219 47.1891 46.8854 47.6148 48.9529 48.2837C53.1489 49.6216 58.7435 52.3581 64.034 56.6148C69.3246 60.8108 73.3989 65.4324 76.1962 68.8986C77.5948 70.6013 78.6286 72.0608 79.3583 73.0945C80.0881 74.1283 80.4529 74.6756 80.4529 74.6756C80.4529 74.6756 80.0273 74.1283 79.2975 73.1554C78.5678 72.1824 77.4732 70.7837 76.0746 69.081C73.2773 65.6756 69.1421 61.1148 63.8516 56.9189C58.561 52.7229 53.0273 49.9256 48.8921 48.527C46.8246 47.7973 45.061 47.3716 43.8448 47.0675C43.2367 46.9459 42.7502 46.8851 42.4462 46.7635C42.2029 46.6418 42.0205 46.6418 42.0205 46.6418Z" fill="url(#paint97_linear)"/>
<path d="M39.8921 62.5742C39.8921 62.5742 40.561 62.6958 41.7772 62.8783C42.0813 62.9391 42.3853 62.9999 42.7502 63.0607C43.1151 63.1215 43.4799 63.2431 43.9056 63.3039C44.757 63.4864 45.7299 63.7296 46.7637 64.0337C47.311 64.1553 47.8583 64.3377 48.4056 64.5202C48.9529 64.7026 49.561 64.885 50.1691 65.1283C51.3853 65.4931 52.6624 66.0404 54.0002 66.5877C56.6759 67.7431 59.4732 69.1418 62.3313 70.9053C65.1286 72.6688 67.6826 74.5539 69.9326 76.4391C71.0272 77.4121 72.061 78.2634 72.9732 79.2364C73.3988 79.6621 73.8853 80.0877 74.311 80.5742C74.7367 80.9999 75.1016 81.4256 75.4664 81.8512C76.1961 82.6418 76.8043 83.4323 77.4124 84.1012C77.7164 84.4053 77.9597 84.7702 78.2029 85.0134C78.4461 85.3175 78.6286 85.5607 78.811 85.8039C79.5407 86.7769 79.9664 87.3242 79.9664 87.3242C79.9664 87.3242 79.5407 86.7769 78.811 85.8648C78.6286 85.6215 78.3853 85.3783 78.2029 85.0742C77.9597 84.7702 77.7164 84.4661 77.4124 84.1621C76.8651 83.4931 76.1961 82.7634 75.4664 81.9729C75.1016 81.608 74.6759 81.1823 74.311 80.7567C73.8853 80.331 73.4597 79.9053 72.9732 79.4796C72.061 78.5675 71.0272 77.7161 69.9326 76.7431C67.7434 74.9188 65.1894 73.0337 62.3921 71.2702C59.534 69.5675 56.7367 68.108 54.1218 66.9526C52.784 66.4053 51.5678 65.858 50.3515 65.4323C49.7434 65.2499 49.1961 65.0067 48.588 64.8242C48.0407 64.6418 47.4934 64.4594 46.9461 64.3377C45.9124 63.9729 44.9394 63.7904 44.088 63.5472C43.6624 63.4256 43.2975 63.3648 42.9326 63.2431C42.5678 63.1823 42.2637 63.1215 41.9597 63.0607C40.561 62.6958 39.8921 62.5742 39.8921 62.5742Z" fill="url(#paint98_linear)"/>
<path d="M39.8921 84.4663C39.8921 84.4663 40.561 84.4663 41.838 84.4663C43.1151 84.5271 44.9394 84.5271 47.1286 84.7704C49.3786 85.0136 51.9934 85.3785 54.9124 85.9258C57.8313 86.4731 60.9934 87.2636 64.338 88.1758C67.6218 89.0879 70.784 90.0609 73.5813 91.0339C76.3786 92.0677 78.811 93.2231 80.6961 94.5001C82.5813 95.7771 83.8583 97.0541 84.7097 98.0271C85.1353 98.5136 85.3786 98.8785 85.561 99.1825C85.7434 99.4866 85.8651 99.6082 85.8651 99.6082C85.8651 99.6082 85.7434 99.4866 85.561 99.1825C85.3786 98.9393 85.0745 98.5136 84.6488 98.0879C83.7975 97.115 82.5205 95.8987 80.6353 94.6825C78.7502 93.4663 76.3178 92.3109 73.5205 91.3379C70.7232 90.365 67.561 89.4528 64.2772 88.5406C60.9934 87.6285 57.8313 86.8379 54.9124 86.2298C51.9934 85.6217 49.3786 85.2568 47.1286 84.9528C44.8786 84.7096 43.0543 84.5879 41.838 84.5271C40.561 84.4663 39.8921 84.4663 39.8921 84.4663Z" fill="url(#paint99_linear)"/>
<path opacity="0.5" d="M40.9258 84.4663C53.392 86.8379 66.0406 89.3312 77.3515 95.1082C78.8717 95.8987 80.3312 96.6893 81.5474 97.8447C82.7636 98.9393 83.919 100.338 84.2839 101.98C85.1352 101.615 85.9258 101.068 86.4731 100.338C85.3177 98.0879 83.3109 96.3852 81.1825 95.0474C79.0542 93.6487 76.7433 92.6758 74.3717 91.7636C63.7906 87.6285 52.3582 85.196 40.9258 84.4663Z" fill="url(#paint100_linear)"/>
<path opacity="0.5" d="M35.5742 62.2703C53.5742 63.8513 70.6621 73.5203 80.8175 88.4189C79.7837 89.9392 78.2026 91.0946 76.4391 91.5811C76.8039 90.6689 77.2904 89.6959 77.7161 88.8446C67.4999 75.4054 52.1148 65.4932 35.5742 62.2703Z" fill="url(#paint101_linear)"/>
<path opacity="0.5" d="M104.595 100.399C107.027 102.466 109.642 104.655 112.804 105.081C114.872 105.385 117 104.899 118.885 104.047C124.297 101.676 128.372 96.3852 129.223 90.4866C127.277 96.142 122.777 100.824 117.304 103.196C116.21 103.683 115.054 104.047 113.838 104.108C112.379 104.169 110.98 103.743 109.642 103.196C107.939 102.588 106.115 101.372 104.595 100.399Z" fill="url(#paint102_linear)"/>
<path opacity="0.5" d="M67.8646 62.8783C59.0471 54.3648 47.6146 48.831 35.939 45.1216C37.7633 45.3648 39.5268 45.6689 41.1079 45.9729C46.3984 47.1283 51.5673 49.0135 56.3714 51.6283C60.4457 53.8175 64.2768 56.554 67.743 59.7162C71.3309 63 74.2498 66.831 77.4119 70.4797C80.939 74.554 84.4052 78.6891 87.8714 82.8243C88.2971 83.3108 88.7227 83.8581 89.2092 84.3446C89.6349 85.0135 90.1214 85.7432 90.5471 86.4121C81.7903 80.027 75.6484 70.4189 67.8646 62.8783Z" fill="url(#paint103_linear)"/>
<defs>
<linearGradient id="paint0_linear" x1="109.346" y1="118.25" x2="125.064" y2="118.093" gradientUnits="userSpaceOnUse">
<stop stop-color="#F6F8FB"/>
<stop offset="1" stop-color="#99A7D8"/>
</linearGradient>
<linearGradient id="paint1_linear" x1="108.755" y1="115.683" x2="117.451" y2="115.629" gradientUnits="userSpaceOnUse">
<stop stop-color="#F6F8FB"/>
<stop offset="1" stop-color="#99A7D8"/>
</linearGradient>
<linearGradient id="paint2_linear" x1="107.417" y1="108.924" x2="110.595" y2="108.913" gradientUnits="userSpaceOnUse">
<stop stop-color="#F6F8FB"/>
<stop offset="1" stop-color="#99A7D8"/>
</linearGradient>
<linearGradient id="paint3_linear" x1="92.6894" y1="169.763" x2="102.807" y2="169.763" gradientUnits="userSpaceOnUse">
<stop stop-color="#F6F8FB"/>
<stop offset="1" stop-color="#99A7D8"/>
</linearGradient>
<linearGradient id="paint4_linear" x1="86.8337" y1="154.058" x2="95.6026" y2="154.058" gradientUnits="userSpaceOnUse">
<stop stop-color="#F6F8FB"/>
<stop offset="1" stop-color="#99A7D8"/>
</linearGradient>
<linearGradient id="paint5_linear" x1="80.4794" y1="139.952" x2="87.5245" y2="139.952" gradientUnits="userSpaceOnUse">
<stop stop-color="#F6F8FB"/>
<stop offset="1" stop-color="#99A7D8"/>
</linearGradient>
<linearGradient id="paint6_linear" x1="74.1942" y1="132.225" x2="83.6376" y2="132.225" gradientUnits="userSpaceOnUse">
<stop stop-color="#F6F8FB"/>
<stop offset="1" stop-color="#99A7D8"/>
</linearGradient>
<linearGradient id="paint7_linear" x1="68.539" y1="131.429" x2="75.422" y2="131.429" gradientUnits="userSpaceOnUse">
<stop stop-color="#F6F8FB"/>
<stop offset="1" stop-color="#99A7D8"/>
</linearGradient>
<linearGradient id="paint8_linear" x1="62.7138" y1="140.195" x2="69.5968" y2="140.195" gradientUnits="userSpaceOnUse">
<stop stop-color="#F6F8FB"/>
<stop offset="1" stop-color="#99A7D8"/>
</linearGradient>
<linearGradient id="paint9_linear" x1="52.7279" y1="150.006" x2="62.1713" y2="150.006" gradientUnits="userSpaceOnUse">
<stop stop-color="#F6F8FB"/>
<stop offset="1" stop-color="#99A7D8"/>
</linearGradient>
<linearGradient id="paint10_linear" x1="42.6989" y1="152.403" x2="61.5858" y2="152.403" gradientUnits="userSpaceOnUse">
<stop stop-color="#F6F8FB"/>
<stop offset="1" stop-color="#99A7D8"/>
</linearGradient>
<linearGradient id="paint11_linear" x1="35.5658" y1="136.109" x2="53.1037" y2="136.109" gradientUnits="userSpaceOnUse">
<stop stop-color="#F6F8FB"/>
<stop offset="1" stop-color="#99A7D8"/>
</linearGradient>
<linearGradient id="paint12_linear" x1="29.2351" y1="153.948" x2="50.8201" y2="153.948" gradientUnits="userSpaceOnUse">
<stop stop-color="#F6F8FB"/>
<stop offset="1" stop-color="#99A7D8"/>
</linearGradient>
<linearGradient id="paint13_linear" x1="14.186" y1="154.272" x2="47.2381" y2="154.272" gradientUnits="userSpaceOnUse">
<stop stop-color="#F6F8FB"/>
<stop offset="1" stop-color="#99A7D8"/>
</linearGradient>
<linearGradient id="paint14_linear" x1="-25.3161" y1="104.616" x2="43.4216" y2="168.311" gradientUnits="userSpaceOnUse">
<stop stop-color="#F6F8FB"/>
<stop offset="1" stop-color="#99A7D8"/>
</linearGradient>
<linearGradient id="paint15_linear" x1="-49.854" y1="97.8861" x2="62.3359" y2="147.093" gradientUnits="userSpaceOnUse">
<stop stop-color="#F6F8FB"/>
<stop offset="1" stop-color="#99A7D8"/>
</linearGradient>
<linearGradient id="paint16_linear" x1="121.731" y1="164.318" x2="158.544" y2="158.376" gradientUnits="userSpaceOnUse">
<stop stop-color="#F6F8FB"/>
<stop offset="1" stop-color="#99A7D8"/>
</linearGradient>
<linearGradient id="paint17_linear" x1="129.719" y1="72.8043" x2="135.787" y2="69.6622" gradientUnits="userSpaceOnUse">
<stop stop-color="#F6F8FB"/>
<stop offset="1" stop-color="#99A7D8"/>
</linearGradient>
<linearGradient id="paint18_linear" x1="121.922" y1="162.962" x2="156.402" y2="157.627" gradientUnits="userSpaceOnUse">
<stop stop-color="#F6F8FB"/>
<stop offset="1" stop-color="#99A7D8"/>
</linearGradient>
<linearGradient id="paint19_linear" x1="130.126" y1="71.6666" x2="134.282" y2="69.7455" gradientUnits="userSpaceOnUse">
<stop stop-color="#F6F8FB"/>
<stop offset="1" stop-color="#99A7D8"/>
</linearGradient>
<linearGradient id="paint20_linear" x1="129.602" y1="70.3343" x2="132.471" y2="69.144" gradientUnits="userSpaceOnUse">
<stop stop-color="#F6F8FB"/>
<stop offset="1" stop-color="#99A7D8"/>
</linearGradient>
<linearGradient id="paint21_linear" x1="122.669" y1="149.595" x2="151.698" y2="145.176" gradientUnits="userSpaceOnUse">
<stop stop-color="#F6F8FB"/>
<stop offset="1" stop-color="#99A7D8"/>
</linearGradient>
<linearGradient id="paint22_linear" x1="133.16" y1="161.778" x2="182.866" y2="150.278" gradientUnits="userSpaceOnUse">
<stop stop-color="#F6F8FB"/>
<stop offset="1" stop-color="#99A7D8"/>
</linearGradient>
<linearGradient id="paint23_linear" x1="144.689" y1="72.7568" x2="150.544" y2="69.738" gradientUnits="userSpaceOnUse">
<stop stop-color="#F6F8FB"/>
<stop offset="1" stop-color="#99A7D8"/>
</linearGradient>
<linearGradient id="paint24_linear" x1="133.3" y1="160.488" x2="180.834" y2="149.726" gradientUnits="userSpaceOnUse">
<stop stop-color="#F6F8FB"/>
<stop offset="1" stop-color="#99A7D8"/>
</linearGradient>
<linearGradient id="paint25_linear" x1="144.969" y1="71.6641" x2="149.087" y2="69.6869" gradientUnits="userSpaceOnUse">
<stop stop-color="#F6F8FB"/>
<stop offset="1" stop-color="#99A7D8"/>
</linearGradient>
<linearGradient id="paint26_linear" x1="144.516" y1="70.3637" x2="147.485" y2="69.0036" gradientUnits="userSpaceOnUse">
<stop stop-color="#F6F8FB"/>
<stop offset="1" stop-color="#99A7D8"/>
</linearGradient>
<linearGradient id="paint27_linear" x1="134.551" y1="147.497" x2="174.663" y2="138.548" gradientUnits="userSpaceOnUse">
<stop stop-color="#F6F8FB"/>
<stop offset="1" stop-color="#99A7D8"/>
</linearGradient>
<linearGradient id="paint28_linear" x1="42.6576" y1="100.922" x2="116.1" y2="148.092" gradientUnits="userSpaceOnUse">
<stop stop-color="#F6F8FB"/>
<stop offset="1" stop-color="#99A7D8"/>
</linearGradient>
<linearGradient id="paint29_linear" x1="65.3234" y1="88.0762" x2="78.9766" y2="138.514" gradientUnits="userSpaceOnUse">
<stop stop-color="#FBFCFD"/>
<stop offset="1" stop-color="#9BA9D9"/>
</linearGradient>
<linearGradient id="paint30_linear" x1="18.3028" y1="353.564" x2="58.3196" y2="353.912" gradientUnits="userSpaceOnUse">
<stop stop-color="#F6F8FB"/>
<stop offset="1" stop-color="#99A7D8"/>
</linearGradient>
<linearGradient id="paint31_linear" x1="27.3926" y1="13.0853" x2="50.3642" y2="16.2945" gradientUnits="userSpaceOnUse">
<stop stop-color="#F6F8FB"/>
<stop offset="1" stop-color="#99A7D8"/>
</linearGradient>
<linearGradient id="paint32_linear" x1="17.5152" y1="23.5312" x2="37.383" y2="26.2142" gradientUnits="userSpaceOnUse">
<stop stop-color="#CE9F55"/>
<stop offset="1" stop-color="#DCBC81"/>
</linearGradient>
<linearGradient id="paint33_linear" x1="21.5082" y1="21.1995" x2="27.8364" y2="21.9414" gradientUnits="userSpaceOnUse">
<stop stop-color="#CE9F55"/>
<stop offset="1" stop-color="#DCBC81"/>
</linearGradient>
<linearGradient id="paint34_linear" x1="30.8696" y1="18.5966" x2="38.1527" y2="19.5307" gradientUnits="userSpaceOnUse">
<stop stop-color="#CE9F55"/>
<stop offset="1" stop-color="#DCBC81"/>
</linearGradient>
<linearGradient id="paint35_linear" x1="25.6021" y1="19.3435" x2="43.1497" y2="21.3852" gradientUnits="userSpaceOnUse">
<stop stop-color="#CE9F55"/>
<stop offset="1" stop-color="#DCBC81"/>
</linearGradient>
<linearGradient id="paint36_linear" x1="4.73579" y1="20.2259" x2="27.5803" y2="23.9074" gradientUnits="userSpaceOnUse">
<stop stop-color="#CE9F55"/>
<stop offset="1" stop-color="#DCBC81"/>
</linearGradient>
<linearGradient id="paint37_linear" x1="23.865" y1="350.613" x2="55.7631" y2="350.838" gradientUnits="userSpaceOnUse">
<stop stop-color="#F6F8FB"/>
<stop offset="1" stop-color="#99A7D8"/>
</linearGradient>
<linearGradient id="paint38_linear" x1="33.1691" y1="7.49857" x2="47.2288" y2="10.5079" gradientUnits="userSpaceOnUse">
<stop stop-color="#F6F8FB"/>
<stop offset="1" stop-color="#99A7D8"/>
</linearGradient>
<linearGradient id="paint39_linear" x1="37.1925" y1="5.65418" x2="47.0643" y2="7.13811" gradientUnits="userSpaceOnUse">
<stop stop-color="#F6F8FB"/>
<stop offset="1" stop-color="#99A7D8"/>
</linearGradient>
<linearGradient id="paint40_linear" x1="29.017" y1="262.761" x2="53.647" y2="262.941" gradientUnits="userSpaceOnUse">
<stop stop-color="#F6F8FB"/>
<stop offset="1" stop-color="#99A7D8"/>
</linearGradient>
<linearGradient id="paint41_linear" x1="105.257" y1="179.022" x2="146.087" y2="173.629" gradientUnits="userSpaceOnUse">
<stop stop-color="#F6F8FB"/>
<stop offset="1" stop-color="#99A7D8"/>
</linearGradient>
<linearGradient id="paint42_linear" x1="102.876" y1="129.843" x2="112.956" y2="128.34" gradientUnits="userSpaceOnUse">
<stop stop-color="#F6F8FB"/>
<stop offset="1" stop-color="#99A7D8"/>
</linearGradient>
<linearGradient id="paint43_linear" x1="115.989" y1="53.0583" x2="122.472" y2="48.9398" gradientUnits="userSpaceOnUse">
<stop stop-color="#F6F8FB"/>
<stop offset="1" stop-color="#99A7D8"/>
</linearGradient>
<linearGradient id="paint44_linear" x1="95.7785" y1="62.5973" x2="111.712" y2="62.5973" gradientUnits="userSpaceOnUse">
<stop stop-color="#CE9F55"/>
<stop offset="1" stop-color="#DCBC81"/>
</linearGradient>
<linearGradient id="paint45_linear" x1="100.815" y1="59.6944" x2="105.074" y2="59.6944" gradientUnits="userSpaceOnUse">
<stop stop-color="#CE9F55"/>
<stop offset="1" stop-color="#DCBC81"/>
</linearGradient>
<linearGradient id="paint46_linear" x1="106.751" y1="58.6051" x2="111.771" y2="58.6051" gradientUnits="userSpaceOnUse">
<stop stop-color="#CE9F55"/>
<stop offset="1" stop-color="#DCBC81"/>
</linearGradient>
<linearGradient id="paint47_linear" x1="102.874" y1="60.5541" x2="116.759" y2="60.5541" gradientUnits="userSpaceOnUse">
<stop stop-color="#CE9F55"/>
<stop offset="1" stop-color="#DCBC81"/>
</linearGradient>
<linearGradient id="paint48_linear" x1="88.6786" y1="60.7515" x2="106.81" y2="60.7515" gradientUnits="userSpaceOnUse">
<stop stop-color="#CE9F55"/>
<stop offset="1" stop-color="#DCBC81"/>
</linearGradient>
<linearGradient id="paint49_linear" x1="116.441" y1="50.607" x2="119.241" y2="47.874" gradientUnits="userSpaceOnUse">
<stop stop-color="#F6F8FB"/>
<stop offset="1" stop-color="#99A7D8"/>
</linearGradient>
<linearGradient id="paint50_linear" x1="117.503" y1="49.6017" x2="119.944" y2="48.1006" gradientUnits="userSpaceOnUse">
<stop stop-color="#F6F8FB"/>
<stop offset="1" stop-color="#99A7D8"/>
</linearGradient>
<linearGradient id="paint51_linear" x1="106.608" y1="169.377" x2="142.017" y2="164.961" gradientUnits="userSpaceOnUse">
<stop stop-color="#F6F8FB"/>
<stop offset="1" stop-color="#99A7D8"/>
</linearGradient>
<linearGradient id="paint52_linear" x1="103.081" y1="129.749" x2="111.569" y2="128.684" gradientUnits="userSpaceOnUse">
<stop stop-color="#F6F8FB"/>
<stop offset="1" stop-color="#99A7D8"/>
</linearGradient>
<linearGradient id="paint53_linear" x1="105.35" y1="177.564" x2="143.848" y2="172.694" gradientUnits="userSpaceOnUse">
<stop stop-color="#F6F8FB"/>
<stop offset="1" stop-color="#99A7D8"/>
</linearGradient>
<linearGradient id="paint54_linear" x1="101.49" y1="107.673" x2="106.748" y2="123.308" gradientUnits="userSpaceOnUse">
<stop stop-color="#FBFCFD"/>
<stop stop-color="#FBFCFD"/>
<stop offset="1" stop-color="#9BA9D9"/>
</linearGradient>
<linearGradient id="paint55_linear" x1="-16.9489" y1="108.687" x2="87.2123" y2="108.687" gradientUnits="userSpaceOnUse">
<stop stop-color="#F6F8FB"/>
<stop offset="1" stop-color="#99A7D8"/>
</linearGradient>
<linearGradient id="paint56_linear" x1="7.3583" y1="167.049" x2="102.941" y2="34.4824" gradientUnits="userSpaceOnUse">
<stop stop-color="#F6F8FB"/>
<stop offset="1" stop-color="#99A7D8"/>
</linearGradient>
<linearGradient id="paint57_linear" x1="-45.6926" y1="56.4233" x2="-32.046" y2="128.023" gradientUnits="userSpaceOnUse">
<stop stop-color="#FBFCFD"/>
<stop offset="1" stop-color="#9BA9D9"/>
</linearGradient>
<linearGradient id="paint58_linear" x1="-19.3376" y1="86.9433" x2="29.155" y2="181.451" gradientUnits="userSpaceOnUse">
<stop stop-color="#FBFCFD"/>
<stop offset="1" stop-color="#9BA9D9"/>
</linearGradient>
<linearGradient id="paint59_linear" x1="7.91897" y1="95.7746" x2="84.7563" y2="95.7746" gradientUnits="userSpaceOnUse">
<stop stop-color="#F6F8FB"/>
<stop offset="1" stop-color="#99A7D8"/>
</linearGradient>
<linearGradient id="paint60_linear" x1="-39.1512" y1="71.5398" x2="-31.1557" y2="124.005" gradientUnits="userSpaceOnUse">
<stop stop-color="#FBFCFD"/>
<stop offset="1" stop-color="#9BA9D9"/>
</linearGradient>
<linearGradient id="paint61_linear" x1="-16.2688" y1="98.2383" x2="23.321" y2="183.335" gradientUnits="userSpaceOnUse">
<stop stop-color="#FBFCFD"/>
<stop offset="1" stop-color="#9BA9D9"/>
</linearGradient>
<linearGradient id="paint62_linear" x1="2.56937" y1="109.564" x2="81.0576" y2="83.5643" gradientUnits="userSpaceOnUse">
<stop stop-color="#F6F8FB"/>
<stop offset="1" stop-color="#99A7D8"/>
</linearGradient>
<linearGradient id="paint63_linear" x1="84.292" y1="101.486" x2="103.503" y2="115.931" gradientUnits="userSpaceOnUse">
<stop stop-color="#FBFCFD"/>
<stop stop-color="#FBFCFD"/>
<stop offset="1" stop-color="#9BA9D9"/>
</linearGradient>
<linearGradient id="paint64_linear" x1="-37.9834" y1="92.762" x2="-34.3022" y2="129.807" gradientUnits="userSpaceOnUse">
<stop stop-color="#FBFCFD"/>
<stop offset="1" stop-color="#9BA9D9"/>
</linearGradient>
<linearGradient id="paint65_linear" x1="-13.0905" y1="117.045" x2="18.1644" y2="195.221" gradientUnits="userSpaceOnUse">
<stop stop-color="#FBFCFD"/>
<stop offset="1" stop-color="#9BA9D9"/>
</linearGradient>
<linearGradient id="paint66_linear" x1="84.9567" y1="65.9601" x2="99.3934" y2="89.5377" gradientUnits="userSpaceOnUse">
<stop stop-color="#FBFCFD"/>
<stop offset="1" stop-color="#9BA9D9"/>
</linearGradient>
<linearGradient id="paint67_linear" x1="79.027" y1="68.9707" x2="95.138" y2="94.9721" gradientUnits="userSpaceOnUse">
<stop stop-color="#FBFCFD"/>
<stop offset="1" stop-color="#9BA9D9"/>
</linearGradient>
<linearGradient id="paint68_linear" x1="70.482" y1="71.2118" x2="87.2147" y2="99.9931" gradientUnits="userSpaceOnUse">
<stop stop-color="#FBFCFD"/>
<stop offset="1" stop-color="#9BA9D9"/>
</linearGradient>
<linearGradient id="paint69_linear" x1="56.6741" y1="72.5785" x2="74.8794" y2="107.018" gradientUnits="userSpaceOnUse">
<stop stop-color="#FBFCFD"/>
<stop offset="1" stop-color="#9BA9D9"/>
</linearGradient>
<linearGradient id="paint70_linear" x1="50.2349" y1="72.1729" x2="71.5046" y2="108.841" gradientUnits="userSpaceOnUse">
<stop stop-color="#FBFCFD"/>
<stop offset="1" stop-color="#9BA9D9"/>
</linearGradient>
<linearGradient id="paint71_linear" x1="42.689" y1="72.4174" x2="71.9058" y2="114.036" gradientUnits="userSpaceOnUse">
<stop stop-color="#FBFCFD"/>
<stop offset="1" stop-color="#9BA9D9"/>
</linearGradient>
<linearGradient id="paint72_linear" x1="34.4961" y1="70.5022" x2="67.033" y2="114.941" gradientUnits="userSpaceOnUse">
<stop stop-color="#FBFCFD"/>
<stop offset="1" stop-color="#9BA9D9"/>
</linearGradient>
<linearGradient id="paint73_linear" x1="32.9648" y1="68.8378" x2="72.3494" y2="111.308" gradientUnits="userSpaceOnUse">
<stop stop-color="#FBFCFD"/>
<stop offset="1" stop-color="#9BA9D9"/>
</linearGradient>
<linearGradient id="paint74_linear" x1="24.3369" y1="64.4784" x2="65.2318" y2="109.778" gradientUnits="userSpaceOnUse">
<stop stop-color="#FBFCFD"/>
<stop offset="1" stop-color="#9BA9D9"/>
</linearGradient>
<linearGradient id="paint75_linear" x1="22.1964" y1="59.6107" x2="64.5816" y2="101.685" gradientUnits="userSpaceOnUse">
<stop stop-color="#FBFCFD"/>
<stop offset="1" stop-color="#9BA9D9"/>
</linearGradient>
<linearGradient id="paint76_linear" x1="12.4769" y1="56.9831" x2="63.9272" y2="103.036" gradientUnits="userSpaceOnUse">
<stop stop-color="#FBFCFD"/>
<stop offset="1" stop-color="#9BA9D9"/>
</linearGradient>
<linearGradient id="paint77_linear" x1="12.7293" y1="52.7905" x2="67.9617" y2="90.9594" gradientUnits="userSpaceOnUse">
<stop stop-color="#FBFCFD"/>
<stop offset="1" stop-color="#9BA9D9"/>
</linearGradient>
<linearGradient id="paint78_linear" x1="15.8975" y1="45.5597" x2="66.3192" y2="74.6885" gradientUnits="userSpaceOnUse">
<stop stop-color="#FBFCFD"/>
<stop offset="1" stop-color="#9BA9D9"/>
</linearGradient>
<linearGradient id="paint79_linear" x1="-54.8863" y1="87.9255" x2="102.568" y2="171.497" gradientUnits="userSpaceOnUse">
<stop stop-color="#F6F8FB"/>
<stop offset="1" stop-color="#99A7D8"/>
</linearGradient>
<linearGradient id="paint80_linear" x1="-13.6616" y1="137.81" x2="32.8701" y2="139.778" gradientUnits="userSpaceOnUse">
<stop stop-color="#F6F8FB"/>
<stop offset="1" stop-color="#99A7D8"/>
</linearGradient>
<linearGradient id="paint81_linear" x1="-3.64017" y1="39.6488" x2="7.59199" y2="41.4966" gradientUnits="userSpaceOnUse">
<stop stop-color="#F6F8FB"/>
<stop offset="1" stop-color="#99A7D8"/>
</linearGradient>
<linearGradient id="paint82_linear" x1="-11.9478" y1="136.915" x2="31.1833" y2="138.65" gradientUnits="userSpaceOnUse">
<stop stop-color="#F6F8FB"/>
<stop offset="1" stop-color="#99A7D8"/>
</linearGradient>
<linearGradient id="paint83_linear" x1="-1.76717" y1="38.8027" x2="5.32695" y2="39.7733" gradientUnits="userSpaceOnUse">
<stop stop-color="#F6F8FB"/>
<stop offset="1" stop-color="#99A7D8"/>
</linearGradient>
<linearGradient id="paint84_linear" x1="0.609174" y1="37.2404" x2="5.39763" y2="37.8561" gradientUnits="userSpaceOnUse">
<stop stop-color="#F6F8FB"/>
<stop offset="1" stop-color="#99A7D8"/>
</linearGradient>
<linearGradient id="paint85_linear" x1="-8.66013" y1="122.912" x2="27.2587" y2="124.32" gradientUnits="userSpaceOnUse">
<stop stop-color="#F6F8FB"/>
<stop offset="1" stop-color="#99A7D8"/>
</linearGradient>
<linearGradient id="paint86_linear" x1="8.08951" y1="182.745" x2="54.541" y2="184.196" gradientUnits="userSpaceOnUse">
<stop stop-color="#F6F8FB"/>
<stop offset="1" stop-color="#99A7D8"/>
</linearGradient>
<linearGradient id="paint87_linear" x1="18.8657" y1="38.2023" x2="36.0586" y2="41.4243" gradientUnits="userSpaceOnUse">
<stop stop-color="#F6F8FB"/>
<stop offset="1" stop-color="#99A7D8"/>
</linearGradient>
<linearGradient id="paint88_linear" x1="10.4634" y1="180.787" x2="52.6463" y2="182.015" gradientUnits="userSpaceOnUse">
<stop stop-color="#F6F8FB"/>
<stop offset="1" stop-color="#99A7D8"/>
</linearGradient>
<linearGradient id="paint89_linear" x1="22.4395" y1="36.6034" x2="32.8536" y2="38.1461" gradientUnits="userSpaceOnUse">
<stop stop-color="#F6F8FB"/>
<stop offset="1" stop-color="#99A7D8"/>
</linearGradient>
<linearGradient id="paint90_linear" x1="25.7547" y1="34.37" x2="32.7701" y2="35.3414" gradientUnits="userSpaceOnUse">
<stop stop-color="#F6F8FB"/>
<stop offset="1" stop-color="#99A7D8"/>
</linearGradient>
<linearGradient id="paint91_linear" x1="14.6613" y1="159.783" x2="49.3472" y2="160.754" gradientUnits="userSpaceOnUse">
<stop stop-color="#F6F8FB"/>
<stop offset="1" stop-color="#99A7D8"/>
</linearGradient>
<linearGradient id="paint92_linear" x1="93.6566" y1="90.5422" x2="129.073" y2="105.976" gradientUnits="userSpaceOnUse">
<stop stop-color="#F6F8FB"/>
<stop offset="1" stop-color="#99A7D8"/>
</linearGradient>
<linearGradient id="paint93_linear" x1="107.653" y1="93.0373" x2="145.002" y2="108.176" gradientUnits="userSpaceOnUse">
<stop stop-color="#F6F8FB"/>
<stop offset="1" stop-color="#99A7D8"/>
</linearGradient>
<linearGradient id="paint94_linear" x1="22.5513" y1="50.5772" x2="36.8183" y2="53.2691" gradientUnits="userSpaceOnUse">
<stop stop-color="#F6F8FB"/>
<stop offset="1" stop-color="#99A7D8"/>
</linearGradient>
<linearGradient id="paint95_linear" x1="-18.2505" y1="53.2422" x2="13.4582" y2="73.1096" gradientUnits="userSpaceOnUse">
<stop stop-color="#F6F8FB"/>
<stop offset="1" stop-color="#99A7D8"/>
</linearGradient>
<linearGradient id="paint96_linear" x1="67.3538" y1="89.5288" x2="66.2771" y2="138.207" gradientUnits="userSpaceOnUse">
<stop stop-color="#FBFCFD"/>
<stop offset="1" stop-color="#9BA9D9"/>
</linearGradient>
<linearGradient id="paint97_linear" x1="22.6542" y1="39.501" x2="22.6542" y2="112.2" gradientUnits="userSpaceOnUse">
<stop stop-color="#FBFCFD"/>
<stop offset="1" stop-color="#9BA9D9"/>
</linearGradient>
<linearGradient id="paint98_linear" x1="26.3532" y1="88.4228" x2="36.2986" y2="131.323" gradientUnits="userSpaceOnUse">
<stop stop-color="#FBFCFD"/>
<stop offset="1" stop-color="#9BA9D9"/>
</linearGradient>
<linearGradient id="paint99_linear" x1="-6.06291" y1="88.145" x2="-0.890219" y2="126.281" gradientUnits="userSpaceOnUse">
<stop stop-color="#FBFCFD"/>
<stop offset="1" stop-color="#9BA9D9"/>
</linearGradient>
<linearGradient id="paint100_linear" x1="-4.60371" y1="88.7212" x2="2.33542" y2="132.543" gradientUnits="userSpaceOnUse">
<stop stop-color="#FBFCFD"/>
<stop offset="1" stop-color="#9BA9D9"/>
</linearGradient>
<linearGradient id="paint101_linear" x1="0.242874" y1="74.8069" x2="11.734" y2="152.139" gradientUnits="userSpaceOnUse">
<stop stop-color="#FBFCFD"/>
<stop offset="1" stop-color="#9BA9D9"/>
</linearGradient>
<linearGradient id="paint102_linear" x1="79.976" y1="94.0544" x2="88.6996" y2="129.579" gradientUnits="userSpaceOnUse">
<stop stop-color="#FBFCFD"/>
<stop offset="1" stop-color="#9BA9D9"/>
</linearGradient>
<linearGradient id="paint103_linear" x1="17.4899" y1="88.2448" x2="37.2993" y2="158.04" gradientUnits="userSpaceOnUse">
<stop stop-color="#FBFCFD"/>
<stop offset="1" stop-color="#9BA9D9"/>
</linearGradient>
</defs>
</svg>
