<svg width="78" height="88" viewBox="0 0 78 88" fill="none" xmlns="http://www.w3.org/2000/svg">
<g id="Group">
<g id="XMLID_729_">
<path id="XMLID_742_" d="M44.9109 34.9728C41.5529 33.054 36.1562 33.054 32.7982 34.9728L3.53605 51.8825C0.178089 53.8014 0.178089 56.9195 3.53605 58.8383L32.7982 75.748C36.1562 77.6668 41.5529 77.6668 44.9109 75.748L74.1731 58.8383C77.531 56.9195 77.531 53.8014 74.1731 51.8825L44.9109 34.9728Z" fill="#F6F8FB"/>
<g id="XMLID_739_" opacity="0.744606">
<path id="XMLID_741_" opacity="0.01" d="M43.8321 41.4486C41.0738 39.8895 36.6365 39.8895 33.8782 41.4486L9.77284 55.3601C7.01452 56.9192 7.01452 59.5576 9.77284 61.1166L33.8782 75.0282C36.6365 76.5872 41.0738 76.5872 43.8321 75.0282L67.9375 61.1166C70.6958 59.5576 70.6958 56.9192 67.9375 55.3601L43.8321 41.4486Z" fill="#FFC107"/>
<path id="Path" opacity="0.1707" d="M43.8321 37.6109C41.0738 36.0519 36.6365 36.0519 33.8782 37.6109L9.77284 51.5225C7.01452 53.0815 7.01452 55.7199 9.77284 57.279L33.8782 71.1905C36.6365 72.7496 41.0738 72.7496 43.8321 71.1905L67.9375 57.279C70.6958 55.7199 70.6958 53.0815 67.9375 51.5225L43.8321 37.6109Z" fill="#FFBA06"/>
<path id="Path_2" opacity="0.1951" d="M43.8321 37.0113C41.0738 35.4523 36.6365 35.4523 33.8782 37.0113L9.77284 50.9229C7.01452 52.4819 7.01452 55.1203 9.77284 56.6794L33.8782 70.5909C36.6365 72.15 41.0738 72.15 43.8321 70.5909L67.9375 56.6794C70.6958 55.1203 70.6958 52.4819 67.9375 50.9229L43.8321 37.0113Z" fill="#FFB906"/>
<path id="Path_3" opacity="0.2195" d="M43.8321 36.4117C41.0738 34.8527 36.6365 34.8527 33.8782 36.4117L9.77284 50.3233C7.01452 51.8823 7.01452 54.5207 9.77284 56.0798L33.8782 69.9913C36.6365 71.5503 41.0738 71.5503 43.8321 69.9913L67.9375 56.0798C70.6958 54.5207 70.6958 51.8823 67.9375 50.3233L43.8321 36.4117Z" fill="#FFB805"/>
<path id="Path_4" opacity="0.2439" d="M43.8321 35.932C41.0738 34.3729 36.6365 34.3729 33.8782 35.932L9.77284 49.8435C7.01452 51.4026 7.01452 54.041 9.77284 55.6L33.8782 69.5116C36.6365 71.0706 41.0738 71.0706 43.8321 69.5116L67.9375 55.6C70.6958 54.041 70.6958 51.4026 67.9375 49.8435L43.8321 35.932Z" fill="#FFB705"/>
<path id="Path_5" opacity="0.2683" d="M43.8321 35.3324C41.0738 33.7733 36.6365 33.7733 33.8782 35.3324L9.77284 49.2439C7.01452 50.803 7.01452 53.4414 9.77284 55.0004L33.8782 68.9119C36.6365 70.471 41.0738 70.471 43.8321 68.9119L67.9375 55.0004C70.6958 53.4414 70.6958 50.803 67.9375 49.2439L43.8321 35.3324Z" fill="#FFB605"/>
<path id="Path_6" opacity="0.2927" d="M43.8321 34.8526C41.0738 33.2936 36.6365 33.2936 33.8782 34.8526L9.77284 48.7642C7.01452 50.3232 7.01452 52.9616 9.77284 54.5207L33.8782 68.4322C36.6365 69.9913 41.0738 69.9913 43.8321 68.4322L67.9375 54.5207C70.6958 52.9616 70.6958 50.3232 67.9375 48.7642L43.8321 34.8526Z" fill="#FFB505"/>
<path id="Path_7" opacity="0.3171" d="M43.8321 34.253C41.0738 32.694 36.6365 32.694 33.8782 34.253L9.77284 48.1646C7.01452 49.7236 7.01452 52.362 9.77284 53.9211L33.8782 67.8326C36.6365 69.3917 41.0738 69.3917 43.8321 67.8326L67.9375 53.9211C70.6958 52.362 70.6958 49.7236 67.9375 48.1646L43.8321 34.253Z" fill="#FFB405"/>
<path id="Path_8" opacity="0.3415" d="M43.8321 33.6534C41.0738 32.0944 36.6365 32.0944 33.8782 33.6534L9.77284 47.565C7.01452 49.124 7.01452 51.7624 9.77284 53.3215L33.8782 67.233C36.6365 68.792 41.0738 68.792 43.8321 67.233L67.9375 53.3215C70.6958 51.7624 70.6958 49.124 67.9375 47.565L43.8321 33.6534Z" fill="#FFB305"/>
<path id="Path_9" opacity="0.3659" d="M43.8318 33.1737C41.0735 31.6146 36.6362 31.6146 33.8779 33.1737L9.89247 47.0852C7.13415 48.6443 7.13415 51.2827 9.89247 52.8417L33.9978 66.7533C36.7561 68.3123 41.1934 68.3123 43.9518 66.7533L68.0571 52.8417C70.8154 51.2827 70.8154 48.6443 68.0571 47.0852L43.8318 33.1737Z" fill="#FFB204"/>
<path id="Path_10" opacity="0.3902" d="M43.8321 32.5741C41.0738 31.015 36.6365 31.015 33.8782 32.5741L9.77284 46.4856C7.01452 48.0447 7.01452 50.6831 9.77284 52.2421L33.8782 66.1536C36.6365 67.7127 41.0738 67.7127 43.8321 66.1536L67.9375 52.2421C70.6958 50.6831 70.6958 48.0447 67.9375 46.4856L43.8321 32.5741Z" fill="#FFB104"/>
<path id="Path_11" opacity="0.4146" d="M43.8318 31.9745C41.0735 30.4154 36.6362 30.4154 33.8779 31.9745L9.89247 45.886C7.13415 47.4451 7.13415 50.0834 9.89247 51.6425L33.9978 65.554C36.7561 67.1131 41.1934 67.1131 43.9518 65.554L68.0571 51.6425C70.8154 50.0834 70.8154 47.4451 68.0571 45.886L43.8318 31.9745Z" fill="#FFB004"/>
<path id="Path_12" opacity="0.439" d="M43.8321 31.4947C41.0738 29.9357 36.6365 29.9357 33.8782 31.4947L9.77284 45.4063C7.01452 46.9653 7.01452 49.6037 9.77284 51.1628L33.8782 65.0743C36.6365 66.6334 41.0738 66.6334 43.8321 65.0743L67.9375 51.1628C70.6958 49.6037 70.6958 46.9653 67.9375 45.4063L43.8321 31.4947Z" fill="#FFAF04"/>
<path id="Path_13" opacity="0.4634" d="M43.8321 30.8951C41.0738 29.3361 36.6365 29.3361 33.8782 30.8951L9.77284 44.8067C7.01452 46.3657 7.01452 49.0041 9.77284 50.5632L33.8782 64.4747C36.6365 66.0337 41.0738 66.0337 43.8321 64.4747L67.9375 50.5632C70.6958 49.0041 70.6958 46.3657 67.9375 44.8067L43.8321 30.8951Z" fill="#FFAE04"/>
<path id="Path_14" opacity="0.4878" d="M43.8321 30.4154C41.0738 28.8563 36.6365 28.8563 33.8782 30.4154L9.77284 44.3269C7.01452 45.886 7.01452 48.5244 9.77284 50.0834L33.8782 63.995C36.6365 65.554 41.0738 65.554 43.8321 63.995L67.9375 50.0834C70.6958 48.5244 70.6958 45.886 67.9375 44.3269L43.8321 30.4154Z" fill="#FFAD04"/>
<path id="Path_15" opacity="0.5122" d="M43.8321 29.8158C41.0738 28.2567 36.6365 28.2567 33.8782 29.8158L9.77284 43.7273C7.01452 45.2864 7.01452 47.9248 9.77284 49.4838L33.8782 63.3953C36.6365 64.9544 41.0738 64.9544 43.8321 63.3953L67.9375 49.4838C70.6958 47.9248 70.6958 45.2864 67.9375 43.7273L43.8321 29.8158Z" fill="#FFAC03"/>
<path id="Path_16" opacity="0.5366" d="M43.8321 29.2162C41.0738 27.6571 36.6365 27.6571 33.8782 29.2162L9.77284 43.1277C7.01452 44.6868 7.01452 47.3251 9.77284 48.8842L33.8782 62.7957C36.6365 64.3548 41.0738 64.3548 43.8321 62.7957L67.9375 48.8842C70.6958 47.3251 70.6958 44.6868 67.9375 43.1277L43.8321 29.2162Z" fill="#FFAB03"/>
<path id="Path_17" opacity="0.561" d="M43.8321 28.7364C41.0738 27.1774 36.6365 27.1774 33.8782 28.7364L9.77284 42.648C7.01452 44.207 7.01452 46.8454 9.77284 48.4045L33.8782 62.316C36.6365 63.875 41.0738 63.875 43.8321 62.316L67.9375 48.4045C70.6958 46.8454 70.6958 44.207 67.9375 42.648L43.8321 28.7364Z" fill="#FFAA03"/>
<path id="Path_18" opacity="0.5854" d="M43.8321 28.1368C41.0738 26.5778 36.6365 26.5778 33.8782 28.1368L9.77284 42.0484C7.01452 43.6074 7.01452 46.2458 9.77284 47.8049L33.8782 61.7164C36.6365 63.2754 41.0738 63.2754 43.8321 61.7164L67.9375 47.8049C70.6958 46.2458 70.6958 43.6074 67.9375 42.0484L43.8321 28.1368Z" fill="#FFA903"/>
<path id="Path_19" opacity="0.6098" d="M43.8321 27.6571C41.0738 26.098 36.6365 26.098 33.8782 27.6571L9.77284 41.5686C7.01452 43.1277 7.01452 45.7661 9.77284 47.3251L33.8782 61.2367C36.6365 62.7957 41.0738 62.7957 43.8321 61.2367L67.9375 47.3251C70.6958 45.7661 70.6958 43.1277 67.9375 41.5686L43.8321 27.6571Z" fill="#FFA803"/>
<path id="Path_20" opacity="0.6341" d="M43.8321 27.0575C41.0738 25.4984 36.6365 25.4984 33.8782 27.0575L9.77284 40.969C7.01452 42.5281 7.01452 45.1665 9.77284 46.7255L33.8782 60.637C36.6365 62.1961 41.0738 62.1961 43.8321 60.637L67.9375 46.7255C70.6958 45.1665 70.6958 42.5281 67.9375 40.969L43.8321 27.0575Z" fill="#FFA703"/>
<path id="Path_21" opacity="0.6585" d="M43.8321 26.4579C41.0738 24.8988 36.6365 24.8988 33.8782 26.4579L9.77284 40.3694C7.01452 41.9285 7.01452 44.5668 9.77284 46.1259L33.8782 60.0374C36.6365 61.5965 41.0738 61.5965 43.8321 60.0374L67.9375 46.1259C70.6958 44.5668 70.6958 41.9285 67.9375 40.3694L43.8321 26.4579Z" fill="#FFA602"/>
<path id="Path_22" opacity="0.6829" d="M43.8318 25.9781C41.0735 24.4191 36.6362 24.4191 33.8779 25.9781L9.89247 39.8897C7.13415 41.4487 7.13415 44.0871 9.89247 45.6462L33.9978 59.5577C36.7561 61.1167 41.1934 61.1167 43.9518 59.5577L68.0571 45.6462C70.8154 44.0871 70.8154 41.4487 68.0571 39.8897L43.8318 25.9781Z" fill="#FFA502"/>
<path id="Path_23" opacity="0.7073" d="M43.8321 25.3785C41.0738 23.8195 36.6365 23.8195 33.8782 25.3785L9.77284 39.2901C7.01452 40.8491 7.01452 43.4875 9.77284 45.0466L33.8782 58.9581C36.6365 60.5171 41.0738 60.5171 43.8321 58.9581L67.9375 45.0466C70.6958 43.4875 70.6958 40.8491 67.9375 39.2901L43.8321 25.3785Z" fill="#FFA402"/>
<path id="Path_24" opacity="0.7317" d="M43.8318 24.8988C41.0735 23.3397 36.6362 23.3397 33.8779 24.8988L9.89247 38.6904C7.13415 40.2494 7.13415 42.8878 9.89247 44.4469L33.9978 58.3584C36.7561 59.9175 41.1934 59.9175 43.9518 58.3584L68.0571 44.4469C70.8154 42.8878 70.8154 40.2494 68.0571 38.6904L43.8318 24.8988Z" fill="#FFA302"/>
<path id="Path_25" opacity="0.7561" d="M43.8321 24.2992C41.0738 22.7401 36.6365 22.7401 33.8782 24.2992L9.77284 38.2107C7.01452 39.7698 7.01452 42.4082 9.77284 43.9672L33.8782 57.8787C36.6365 59.4378 41.0738 59.4378 43.8321 57.8787L67.9375 43.9672C70.6958 42.4082 70.6958 39.7698 67.9375 38.2107L43.8321 24.2992Z" fill="#FFA202"/>
<path id="Path_26" opacity="0.7805" d="M43.8321 23.6996C41.0738 22.1405 36.6365 22.1405 33.8782 23.6996L9.77284 37.6111C7.01452 39.1702 7.01452 41.8085 9.77284 43.3676L33.8782 57.2791C36.6365 58.8382 41.0738 58.8382 43.8321 57.2791L67.9375 43.3676C70.6958 41.8085 70.6958 39.1702 67.9375 37.6111L43.8321 23.6996Z" fill="#FFA102"/>
<path id="Path_27" opacity="0.8049" d="M43.8321 23.2198C41.0738 21.6608 36.6365 21.6608 33.8782 23.2198L9.77284 37.1314C7.01452 38.6904 7.01452 41.3288 9.77284 42.8879L33.8782 56.7994C36.6365 58.3584 41.0738 58.3584 43.8321 56.7994L67.9375 42.8879C70.6958 41.3288 70.6958 38.6904 67.9375 37.1314L43.8321 23.2198Z" fill="#FFA001"/>
<path id="Path_28" opacity="0.8293" d="M43.8321 22.6202C41.0738 21.0612 36.6365 21.0612 33.8782 22.6202L9.77284 36.5318C7.01452 38.0908 7.01452 40.7292 9.77284 42.2883L33.8782 56.1998C36.6365 57.7588 41.0738 57.7588 43.8321 56.1998L67.9375 42.2883C70.6958 40.7292 70.6958 38.0908 67.9375 36.5318L43.8321 22.6202Z" fill="#FF9F01"/>
<path id="Path_29" opacity="0.8537" d="M43.8321 22.0206C41.0738 20.4616 36.6365 20.4616 33.8782 22.0206L9.77284 35.9321C7.01452 37.4912 7.01452 40.1296 9.77284 41.6886L33.8782 55.6002C36.6365 57.1592 41.0738 57.1592 43.8321 55.6002L67.9375 41.6886C70.6958 40.1296 70.6958 37.4912 67.9375 35.9321L43.8321 22.0206Z" fill="#FF9E01"/>
<path id="Path_30" opacity="0.878" d="M43.8321 21.5409C41.0738 19.9818 36.6365 19.9818 33.8782 21.5409L9.77284 35.4524C7.01452 37.0115 7.01452 39.6499 9.77284 41.2089L33.8782 55.1204C36.6365 56.6795 41.0738 56.6795 43.8321 55.1204L67.9375 41.2089C70.6958 39.6499 70.6958 37.0115 67.9375 35.4524L43.8321 21.5409Z" fill="#FF9D01"/>
<path id="Path_31" opacity="0.9024" d="M43.8321 20.9413C41.0738 19.3822 36.6365 19.3822 33.8782 20.9413L9.77284 34.8528C7.01452 36.4118 7.01452 39.0502 9.77284 40.6093L33.8782 54.5208C36.6365 56.0799 41.0738 56.0799 43.8321 54.5208L67.9375 40.6093C70.6958 39.0502 70.6958 36.4118 67.9375 34.8528L43.8321 20.9413Z" fill="#FF9C01"/>
<path id="Path_32" opacity="0.9268" d="M43.8321 20.4615C41.0738 18.9025 36.6365 18.9025 33.8782 20.4615L9.77284 34.3731C7.01452 35.9321 7.01452 38.5705 9.77284 40.1296L33.8782 54.0411C36.6365 55.6001 41.0738 55.6001 43.8321 54.0411L67.9375 40.1296C70.6958 38.5705 70.6958 35.9321 67.9375 34.3731L43.8321 20.4615Z" fill="#FF9B01"/>
<path id="Path_33" opacity="0.9512" d="M43.8321 19.8619C41.0738 18.3029 36.6365 18.3029 33.8782 19.8619L9.77284 33.7735C7.01452 35.3325 7.01452 37.9709 9.77284 39.53L33.8782 53.4415C36.6365 55.0005 41.0738 55.0005 43.8321 53.4415L67.9375 39.53C70.6958 37.9709 70.6958 35.3325 67.9375 33.7735L43.8321 19.8619Z" fill="#FF9A00"/>
<path id="Path_34" opacity="0.9756" d="M43.8321 19.2623C41.0738 17.7033 36.6365 17.7033 33.8782 19.2623L9.77284 33.1738C7.01452 34.7329 7.01452 37.3713 9.77284 38.9303L33.8782 52.8419C36.6365 54.4009 41.0738 54.4009 43.8321 52.8419L67.9375 38.9303C70.6958 37.3713 70.6958 34.7329 67.9375 33.1738L43.8321 19.2623Z" fill="#FF9900"/>
<path id="XMLID_740_" d="M43.8318 18.7826C41.0735 17.2235 36.6362 17.2235 33.8779 18.7826L9.89247 32.6941C7.13415 34.2532 7.13415 36.8916 9.89247 38.4506L33.9978 52.3621C36.7561 53.9212 41.1934 53.9212 43.9518 52.3621L68.0571 38.4506C70.8154 36.8916 70.8154 34.2532 68.0571 32.6941L43.8318 18.7826Z" fill="#FF9800"/>
</g>
<g id="XMLID_738_ 2">
<path id="XMLID_738_" d="M44.9109 11.2272C41.5529 9.30838 36.1562 9.30838 32.7982 11.2272L1.01758 21.7808V29.2163C1.01758 31.4949 2.21685 33.5336 4.13568 34.7329L32.6783 51.8825C36.0363 53.8013 41.433 53.8013 44.7909 51.8825L73.2137 35.5724C75.2524 34.3731 76.4517 32.3344 76.4517 29.9358V21.6609L44.9109 11.2272Z" fill="url(#paint0_linear)"/>
</g>
<path id="XMLID_737_" d="M44.9111 1.5131C41.5531 -0.405734 36.1564 -0.405734 32.7984 1.5131L3.65616 18.3029C0.298206 20.2217 0.298206 23.3398 3.65616 25.2587L32.9184 42.1684C36.2763 44.0872 41.673 44.0872 45.031 42.1684L74.2932 25.2587C77.6511 23.3398 77.6511 20.2217 74.2932 18.3029L44.9111 1.5131Z" fill="#F6F8FB"/>
<path id="XMLID_736_" d="M40.9533 14.9448C39.8739 14.3452 37.9551 14.3452 36.8758 14.9448L26.9218 20.7013C25.8425 21.301 25.8425 22.3803 26.9218 23.0999L36.8758 28.8564C37.9551 29.456 39.8739 29.456 40.9533 28.8564L50.9072 23.0999C51.9866 22.5002 51.9866 21.4209 50.9072 20.7013L40.9533 14.9448Z" fill="#48486A"/>
<path id="XMLID_735_" d="M26.9218 22.98L27.2816 23.2199L36.8758 17.7032C37.9551 17.1036 39.8739 17.1036 40.9533 17.7032L50.5474 23.2199L50.9072 22.98C51.9866 22.3804 51.9866 21.301 50.9072 20.5815L40.9533 14.825C39.8739 14.2253 37.9551 14.2253 36.8758 14.825L26.9218 20.7014C25.8425 21.301 25.8425 22.3804 26.9218 22.98Z" fill="white"/>
<path id="XMLID_734_" d="M74.1731 58.7184L44.9109 75.6281C41.5529 77.5469 36.1562 77.5469 32.7982 75.6281L3.53605 58.7184C1.85707 57.7589 1.01758 56.4397 1.01758 55.2405V62.676C1.01758 64.9546 2.21685 66.9933 4.13568 68.1926L32.9182 85.4621C36.2761 87.3809 41.6728 87.3809 45.0308 85.4621L73.4535 69.152C75.4923 67.9527 76.6915 65.914 76.6915 63.5154V55.2405C76.6915 56.5597 75.8521 57.7589 74.1731 58.7184Z" fill="url(#paint1_linear)"/>
<path id="XMLID_733_" d="M43.8319 52.1224C41.0736 53.6814 36.6363 53.6814 33.878 52.1224L7.82383 36.9216L7.73389 53.8862C7.73389 55.805 8.6933 57.484 10.2524 58.4434L33.7581 71.5948C36.5164 73.1538 40.9537 73.1538 43.712 71.5948L67.2177 59.163C68.8967 58.2036 69.8561 56.4046 69.8561 54.6057V37.4854L43.8319 52.1224Z" fill="url(#paint2_linear)"/>
<g id="XMLID_730_">
<path id="XMLID_732_" d="M41.1935 7.62952C39.9942 6.90995 37.8355 6.90995 36.6363 7.62952L24.6436 11.5871V14.3454C24.6436 15.1849 25.1233 16.0244 25.8428 16.3842L36.6363 22.8602C37.8355 23.5798 39.9942 23.5798 41.1935 22.8602L51.9869 16.744C52.7065 16.2643 53.1862 15.5447 53.1862 14.5853V11.4672L41.1935 7.62952Z" fill="url(#paint3_linear)"/>
<path id="XMLID_731_" d="M41.1931 3.91174C39.9938 3.19218 37.8351 3.19218 36.6359 3.91174L25.6026 10.2679C24.4033 10.9874 24.4033 12.1867 25.6026 12.9063L36.6359 19.2624C37.8351 19.982 39.9938 19.982 41.1931 19.2624L52.2264 12.9063C53.4257 12.1867 53.4257 10.9874 52.2264 10.2679L41.1931 3.91174Z" fill="white"/>
</g>
</g>
</g>
<defs>
<linearGradient id="paint0_linear" x1="1.14506" y1="53.3903" x2="76.6767" y2="53.3903" gradientUnits="userSpaceOnUse">
<stop stop-color="#D3DAED"/>
<stop offset="1" stop-color="#99A7D8"/>
</linearGradient>
<linearGradient id="paint1_linear" x1="1.14506" y1="86.8694" x2="76.6767" y2="86.8694" gradientUnits="userSpaceOnUse">
<stop stop-color="#D3DAED"/>
<stop offset="1" stop-color="#99A7D8"/>
</linearGradient>
<linearGradient id="paint2_linear" x1="7.74483" y1="72.7326" x2="69.8754" y2="72.7326" gradientUnits="userSpaceOnUse">
<stop stop-color="#CE9F55"/>
<stop offset="1" stop-color="#DCBC81"/>
</linearGradient>
<linearGradient id="paint3_linear" x1="24.6178" y1="23.4909" x2="53.2049" y2="23.4909" gradientUnits="userSpaceOnUse">
<stop stop-color="#D3DAED"/>
<stop offset="1" stop-color="#99A7D8"/>
</linearGradient>
</defs>
</svg>
