<svg width="78" height="110" viewBox="0 0 78 110" fill="none" xmlns="http://www.w3.org/2000/svg">
<path d="M74.9456 47.5051L43.0579 65.8236C40.5137 67.3501 36.4429 67.3501 33.8987 65.8236L2.18063 47.5051C-0.363597 45.9786 -0.363597 43.7736 2.18063 42.2471L34.0683 23.9286C36.6126 22.4021 40.6833 22.4021 43.2276 23.9286L75.1152 42.2471C77.4899 43.7736 77.4899 46.1482 74.9456 47.5051Z" fill="#DFE5F2"/>
<path d="M70.3662 42.756C70.7055 42.9256 71.2143 43.2648 71.2143 43.2648L41.8709 26.3033C40.1747 25.2856 37.1216 25.2856 35.4255 26.3033C35.4255 26.3033 24.2309 32.9183 15.0716 38.346L6.93009 42.756C6.25163 43.0952 5.74279 43.6041 5.57317 43.9433C4.89471 44.961 5.40356 46.1483 6.93009 46.9964C5.40356 46.1483 35.4255 63.4491 35.4255 63.4491C37.1216 64.4668 40.1747 64.4668 41.8709 63.4491C41.8709 63.4491 53.0655 56.8341 62.2247 51.4064L70.3662 46.9964C71.0447 46.6572 71.5536 46.1483 71.7232 45.8091C72.4016 44.7914 71.8928 43.6041 70.3662 42.756Z" fill="#FBFCFD"/>
<path d="M35.4253 31.3917C35.4253 31.3917 24.2307 38.0067 15.0715 43.4344L7.6084 47.5051C12.188 50.219 35.4253 63.6186 35.4253 63.6186C37.1215 64.6363 40.1745 64.6363 41.8707 63.6186C41.8707 63.6186 53.0653 57.0036 62.2246 51.5759L69.6876 47.5051L41.8707 31.3917C40.1745 30.374 37.1215 30.374 35.4253 31.3917Z" fill="#D3DAED"/>
<path d="M38.648 67.0111C36.9519 67.0111 35.2557 66.6719 34.0684 65.9934L2.18071 47.5054C0.993403 46.8269 0.314941 45.8092 0.314941 44.7915C0.314941 44.7915 0.314941 70.8636 0.314941 83.8996L38.648 104.812C38.648 92.2115 38.648 67.0111 38.648 67.0111Z" fill="url(#paint0_linear)"/>
<path d="M76.8114 44.9609C76.8114 45.9786 76.1329 46.8267 74.9456 47.6748L43.2276 65.9932C41.8706 66.6717 40.3441 67.0109 38.6479 67.0109C38.6479 67.0109 38.6479 93.6267 38.6479 106.935L76.8114 84.1921C76.8114 71.1151 76.8114 44.9609 76.8114 44.9609Z" fill="url(#paint1_linear)"/>
<path d="M38.6482 79.2232V71.2512C36.9521 71.2512 35.2559 70.912 34.0686 70.2335L2.18093 51.9151C0.993627 51.2366 0.315165 50.2189 0.315165 49.3708V58.5301C0.14555 59.5478 0.824011 60.7351 2.18093 61.4135L33.899 79.732C35.0863 80.4105 36.7825 80.7497 38.4786 80.7497V79.2232H38.6482Z" fill="#D3DAED"/>
<path d="M38.6482 92.7925V84.8206C36.9521 84.8206 35.2559 84.4813 34.0686 83.8029L2.18093 65.4844C0.993627 64.806 0.315165 63.7883 0.315165 62.9402V72.0994C0.14555 73.1171 0.824011 74.3044 2.18093 74.9829L33.899 93.3013C35.0863 93.9798 36.7825 94.319 38.4786 94.319V92.7925H38.6482Z" fill="#D3DAED"/>
<path d="M38.6482 106.531V98.5593C36.9521 98.5593 35.2559 98.22 34.0686 97.5416L2.18093 79.0535C0.993627 78.375 0.315165 77.3574 0.315165 76.5093V85.6685C0.14555 86.6862 0.824011 87.8735 2.18093 88.552L33.899 106.87C35.0863 107.549 36.7825 107.888 38.4786 107.888V106.531H38.6482Z" fill="#D3DAED"/>
<path d="M38.6479 79.2232V71.2512C40.3441 71.2512 42.0403 70.912 43.2276 70.2335L74.9456 51.9151C76.1329 51.2366 76.8114 50.2189 76.8114 49.3708V58.5301C76.981 59.5478 76.3026 60.7351 74.9456 61.4135L43.2276 79.732C42.0403 80.4105 40.3441 80.7497 38.6479 80.7497V79.2232Z" fill="#C7CCE4"/>
<path d="M38.6479 92.7925V84.8206C40.3441 84.8206 42.0403 84.4813 43.2276 83.8029L74.9456 65.4844C76.1329 64.806 76.8114 63.7883 76.8114 62.9402V72.0994C76.981 73.1171 76.3026 74.3044 74.9456 74.9829L43.2276 93.3013C42.0403 93.9798 40.3441 94.319 38.6479 94.319V92.7925Z" fill="#C7CCE4"/>
<path d="M38.6479 106.531V98.5593C40.3441 98.5593 42.0403 98.2201 43.2276 97.5416L74.9456 79.2232C76.1329 78.5447 76.8114 77.527 76.8114 76.679V85.8382C76.981 86.8559 76.3026 88.0432 74.9456 88.7216L43.2276 107.04C42.0403 107.719 40.3441 108.058 38.6479 108.058V106.531Z" fill="#C7CCE4"/>
<path d="M29.6583 53.6114L21.856 49.2014V46.4875L29.6583 51.0672V53.6114Z" fill="#E5E9F4"/>
<path d="M45.2629 41.908L37.6302 37.3284L21.856 46.4876L29.6583 51.0672L45.2629 41.908Z" fill="#F2F4FA"/>
<path d="M29.6582 53.6114L45.2628 44.4522V41.908L29.6582 51.0672V53.6114Z" fill="#F6F8FB"/>
<path d="M40.8531 60.2266L33.0508 55.647V53.1028L40.8531 57.5128V60.2266Z" fill="#E5E9F4"/>
<path d="M56.6273 48.523L48.825 43.9434L33.0508 53.1026L40.8531 57.6822L56.6273 48.523Z" fill="#F2F4FA"/>
<path d="M40.853 60.2267L56.6273 51.0674V48.5232L40.853 57.5128V60.2267Z" fill="#F6F8FB"/>
<g opacity="0.79">
<path opacity="0.01" d="M13.3998 50.5757C12.2938 49.9121 12.2938 48.8061 13.3998 48.3637L35.0771 35.7555C36.1831 35.0919 37.9527 35.0919 39.0587 35.7555L60.736 48.3637C61.842 49.0273 61.842 50.1333 60.736 50.5757L39.0587 63.1839C37.9527 63.8475 36.1831 63.8475 35.0771 63.1839L13.3998 50.5757Z" fill="white"/>
<path opacity="0.02439" d="M13.621 50.5757C12.515 49.9121 12.515 49.0273 13.621 48.3637L35.0771 35.9767C36.1831 35.3131 37.9527 35.3131 39.0587 35.9767L60.5148 48.3637C61.6208 49.0273 61.6208 49.9121 60.5148 50.5757L39.0587 62.9627C37.9527 63.6263 36.1831 63.6263 35.0771 62.9627L13.621 50.5757Z" fill="#FBFBFB"/>
<path opacity="0.04878" d="M13.8422 50.5757C12.7362 49.9121 12.7362 49.0273 13.8422 48.3637L35.2983 35.9767C36.4043 35.3131 38.1739 35.3131 39.2798 35.9767L60.736 48.3637C61.8419 49.0273 61.8419 49.9121 60.736 50.5757L39.2798 62.9627C38.1739 63.6263 36.4043 63.6263 35.2983 62.9627L13.8422 50.5757Z" fill="#F6F6F8"/>
<path opacity="0.073171" d="M14.0634 50.5757C12.9574 49.9121 12.9574 49.0273 14.0634 48.3637L35.2983 36.1979C36.4043 35.5343 38.1739 35.5343 39.2798 36.1979L60.5148 48.3637C61.6207 49.0273 61.6207 49.9121 60.5148 50.5757L39.2798 62.7415C38.1739 63.4051 36.4043 63.4051 35.2983 62.7415L14.0634 50.5757Z" fill="#F2F2F4"/>
<path opacity="0.097561" d="M14.2846 50.5757C13.1786 49.9121 13.1786 49.0273 14.2846 48.3637L35.2983 36.1979C36.4043 35.5343 38.1738 35.5343 39.0586 36.1979L60.0724 48.3637C61.1783 49.0273 61.1783 49.9121 60.0724 50.5757L39.0586 62.7415C37.9527 63.4051 36.1831 63.4051 35.2983 62.7415L14.2846 50.5757Z" fill="#EDEDF0"/>
<path opacity="0.122" d="M14.5058 50.5757C13.3998 49.9121 13.3998 49.0273 14.5058 48.3637L35.2983 36.4191C36.4043 35.7555 37.9526 35.7555 39.0586 36.4191L59.8512 48.3637C60.9571 49.0273 60.9571 49.9121 59.8512 50.5757L39.0586 62.5203C37.9526 63.1839 36.4043 63.1839 35.2983 62.5203L14.5058 50.5757Z" fill="#E9E9ED"/>
<path opacity="0.1463" d="M14.7269 50.5757C13.621 49.9121 13.621 49.0273 14.7269 48.3637L35.2983 36.4191C36.4043 35.7555 37.9526 35.7555 39.0586 36.4191L59.6299 48.3637C60.7359 49.0273 60.7359 49.9121 59.6299 50.5757L39.0586 62.5203C37.9526 63.1839 36.4043 63.1839 35.2983 62.5203L14.7269 50.5757Z" fill="#E4E4E9"/>
<path opacity="0.1707" d="M14.9481 50.5757C13.8422 49.9121 13.8422 49.0273 14.9481 48.3637L35.2983 36.6403C36.4043 35.9767 37.9526 35.9767 39.0586 36.6403L59.4087 48.3637C60.5147 49.0273 60.5147 49.9121 59.4087 50.5757L39.0586 62.2991C37.9526 62.9627 36.4043 62.9627 35.2983 62.2991L14.9481 50.5757Z" fill="#E0E0E6"/>
<path opacity="0.1951" d="M14.9481 50.5757C13.8422 49.9121 13.8422 49.0273 14.9481 48.3637L35.2983 36.6403C36.4043 35.9767 37.9526 35.9767 39.0586 36.6403L59.4087 48.3637C60.5147 49.0273 60.5147 49.9121 59.4087 50.5757L39.0586 62.2991C37.9526 62.9627 36.4043 62.9627 35.2983 62.2991L14.9481 50.5757Z" fill="#DBDBE2"/>
<path opacity="0.2195" d="M15.1693 50.5757C14.0633 49.9121 14.0633 49.0273 15.1693 48.3637L35.2983 36.8615C36.4042 36.1979 37.9526 36.1979 39.0586 36.8615L59.1875 48.3637C60.2935 49.0273 60.2935 49.9121 59.1875 50.5757L39.0586 62.0779C37.9526 62.7415 36.4042 62.7415 35.2983 62.0779L15.1693 50.5757Z" fill="#D7D7DE"/>
<path opacity="0.2439" d="M15.3905 50.5757C14.2845 49.9121 14.2845 49.0273 15.3905 48.5849L35.2983 37.0827C36.4042 36.4191 37.9526 36.4191 38.8374 37.0827L58.7451 48.5849C59.8511 49.2485 59.8511 50.1333 58.7451 50.5757L38.8374 62.0779C37.7314 62.7415 36.183 62.7415 35.2983 62.0779L15.3905 50.5757Z" fill="#D2D2DB"/>
<path opacity="0.2683" d="M15.6118 50.5757C14.727 49.9121 14.727 49.0273 15.6118 48.5849L35.2984 37.3038C36.1832 36.6403 37.9527 36.6403 38.8375 37.3038L58.5241 48.5849C59.4088 49.2485 59.4088 50.1333 58.5241 50.5757L38.8375 61.8567C37.9527 62.5203 36.1832 62.5203 35.2984 61.8567L15.6118 50.5757Z" fill="#CECED7"/>
<path opacity="0.2927" d="M15.833 50.5757C14.9482 49.9121 14.9482 49.0273 15.833 48.5849L35.2984 37.3038C36.1832 36.6403 37.9527 36.6403 38.8375 37.3038L58.3029 48.5849C59.1876 49.2485 59.1876 50.1333 58.3029 50.5757L38.8375 61.8567C37.9527 62.5203 36.1832 62.5203 35.2984 61.8567L15.833 50.5757Z" fill="#C9C9D3"/>
<path opacity="0.3171" d="M16.0542 50.5757C15.1694 49.9121 15.1694 49.0273 16.0542 48.5849L35.5196 37.3038C36.4043 36.6403 38.1739 36.6403 39.0587 37.3038L58.524 48.5849C59.4088 49.2485 59.4088 50.1333 58.524 50.5757L39.0587 61.8567C38.1739 62.5203 36.4043 62.5203 35.5196 61.8567L16.0542 50.5757Z" fill="#C5C5D0"/>
<path opacity="0.3415" d="M16.2754 50.5757C15.3906 49.9121 15.3906 49.0273 16.2754 48.5849L35.5196 37.525C36.4043 36.8614 37.9527 36.8614 39.0587 37.525L58.3028 48.5849C59.1876 49.2485 59.1876 50.1333 58.3028 50.5757L39.0587 61.6355C38.1739 62.2991 36.6255 62.2991 35.5196 61.6355L16.2754 50.5757Z" fill="#C1C1CC"/>
<path opacity="0.3659" d="M16.4966 50.5758C15.6118 50.1334 15.6118 49.0274 16.4966 48.585L35.5195 37.5252C36.4043 37.0828 37.9527 37.0828 39.0587 37.5252L58.0816 48.585C58.9664 49.0274 58.9664 50.1334 58.0816 50.5758L39.0587 61.6356C38.1739 62.078 36.6255 62.078 35.5195 61.6356L16.4966 50.5758Z" fill="#BCBCC8"/>
<path opacity="0.3902" d="M16.7178 50.5758C15.833 50.1334 15.833 49.0274 16.7178 48.585L35.5195 37.7463C36.4043 37.304 37.9527 37.304 39.0587 37.7463L57.8604 48.585C58.7452 49.0274 58.7452 50.1334 57.8604 50.5758L39.0587 61.4144C38.1739 61.8568 36.6255 61.8568 35.5195 61.4144L16.7178 50.5758Z" fill="#B8B8C5"/>
<path opacity="0.4146" d="M16.939 50.5758C16.0542 50.1334 16.0542 49.2486 16.939 48.585L35.5195 37.7463C36.4043 37.304 37.9527 37.304 38.8375 37.7463L57.418 48.585C58.3028 49.0274 58.3028 49.9122 57.418 50.5758L38.8375 61.4144C37.9527 61.8568 36.4043 61.8568 35.5195 61.4144L16.939 50.5758Z" fill="#B3B3C1"/>
<path opacity="0.439" d="M16.939 50.5758C16.0542 50.1334 16.0542 49.2486 16.939 48.585L35.2983 37.9675C36.1831 37.5251 37.7315 37.5251 38.6163 37.9675L56.9756 48.585C57.8604 49.0274 57.8604 49.9122 56.9756 50.5758L38.6163 61.1932C37.7315 61.6356 36.1831 61.6356 35.2983 61.1932L16.939 50.5758Z" fill="#AFAFBE"/>
<path opacity="0.4634" d="M17.1602 50.5758C16.2754 50.1334 16.2754 49.2486 17.1602 48.585L35.5195 37.9675C36.4043 37.5251 37.9527 37.5251 38.8375 37.9675L57.1968 48.585C58.0816 49.0274 58.0816 49.9122 57.1968 50.5758L38.8375 61.1932C37.9527 61.6356 36.4043 61.6356 35.5195 61.1932L17.1602 50.5758Z" fill="#AAAABA"/>
<path opacity="0.4878" d="M17.3814 50.5758C16.4966 50.1334 16.4966 49.2486 17.3814 48.585L35.5195 38.1887C36.4043 37.7463 37.9527 37.7463 38.8375 38.1887L56.9756 48.585C57.8604 49.0274 57.8604 49.9122 56.9756 50.5758L38.8375 60.972C37.9527 61.4144 36.4043 61.4144 35.5195 60.972L17.3814 50.5758Z" fill="#A6A6B6"/>
<path opacity="0.5122" d="M17.6026 50.3546C16.7178 49.9122 16.7178 49.0274 17.6026 48.3638L35.5195 37.9675C36.4043 37.5251 37.9527 37.5251 38.8375 37.9675L56.7544 48.3638C57.6392 48.8062 57.6392 49.691 56.7544 50.3546L38.8375 60.7508C37.9527 61.1932 36.4043 61.1932 35.5195 60.7508L17.6026 50.3546Z" fill="#A1A1B3"/>
<path opacity="0.5366" d="M17.8237 50.3546C16.939 49.9122 16.939 49.0274 17.8237 48.585L35.5195 38.4099C36.4043 37.9675 37.9527 37.9675 38.8375 38.4099L56.5332 48.585C57.418 49.0274 57.418 49.9122 56.5332 50.3546L38.8375 60.5296C37.9527 60.972 36.4043 60.972 35.5195 60.5296L17.8237 50.3546Z" fill="#9D9DAF"/>
<path opacity="0.561" d="M18.0449 50.3546C17.1602 49.9122 17.1602 49.0274 18.0449 48.585L35.5195 38.4099C36.4043 37.9675 37.7315 37.9675 38.6163 38.4099L56.0908 48.585C56.9756 49.0274 56.9756 49.9122 56.0908 50.3546L38.6163 60.5296C37.7315 60.972 36.4043 60.972 35.5195 60.5296L18.0449 50.3546Z" fill="#9898AB"/>
<path opacity="0.5854" d="M18.2661 50.3546C17.3813 49.9122 17.3813 49.0274 18.2661 48.585L35.5195 38.6311C36.4043 38.1887 37.7315 38.1887 38.6163 38.6311L55.8696 48.585C56.7544 49.0274 56.7544 49.9122 55.8696 50.3546L38.6163 60.3084C37.7315 60.7508 36.4043 60.7508 35.5195 60.3084L18.2661 50.3546Z" fill="#9494A8"/>
<path opacity="0.6098" d="M18.4873 50.3546C17.6025 49.9122 17.6025 49.0274 18.4873 48.585L35.7407 38.6311C36.6255 38.1887 37.9527 38.1887 38.8375 38.6311L56.0908 48.585C56.9756 49.0274 56.9756 49.9122 56.0908 50.3546L38.8375 60.3084C37.9527 60.7508 36.6255 60.7508 35.7407 60.3084L18.4873 50.3546Z" fill="#8F8FA4"/>
<path opacity="0.6341" d="M18.7085 50.3545C17.8237 49.9122 17.8237 49.0274 18.7085 48.585L35.7407 38.8523C36.6255 38.4099 37.9527 38.4099 38.8374 38.8523L55.8696 48.585C56.7544 49.0274 56.7544 49.9122 55.8696 50.3545L38.8374 60.0872C37.9527 60.5296 36.6255 60.5296 35.7407 60.0872L18.7085 50.3545Z" fill="#8B8BA1"/>
<path opacity="0.6585" d="M18.9297 50.3545C18.0449 49.9122 18.0449 49.0274 18.9297 48.585L35.7407 38.8523C36.6255 38.4099 37.9527 38.4099 38.8374 38.8523L55.6484 48.585C56.5332 49.0274 56.5332 49.9122 55.6484 50.3545L38.8374 60.0872C37.9527 60.5296 36.6255 60.5296 35.7407 60.0872L18.9297 50.3545Z" fill="#86869D"/>
<path opacity="0.6829" d="M19.1509 50.3545C18.2661 49.9121 18.2661 49.0274 19.1509 48.585L35.7407 39.0735C36.6255 38.6311 37.9526 38.6311 38.8374 39.0735L55.4272 48.585C56.312 49.0274 56.312 49.9121 55.4272 50.3545L38.8374 59.866C37.9526 60.3084 36.6255 60.3084 35.7407 59.866L19.1509 50.3545Z" fill="#828299"/>
<path opacity="0.7073" d="M19.1509 50.3545C18.2661 49.9121 18.2661 49.0274 19.1509 48.585L35.5195 39.0735C36.4043 38.6311 37.7314 38.6311 38.6162 39.0735L54.9848 48.585C55.8696 49.0274 55.8696 49.9121 54.9848 50.3545L38.6162 59.866C37.7314 60.3084 36.4043 60.3084 35.5195 59.866L19.1509 50.3545Z" fill="#7E7E96"/>
<path opacity="0.7317" d="M19.3721 50.3545C18.4873 49.9121 18.4873 49.0274 19.3721 48.585L35.5195 39.2947C36.4043 38.8523 37.7314 38.8523 38.395 39.2947L54.5424 48.585C55.4272 49.0274 55.4272 49.9121 54.5424 50.3545L38.395 59.6448C37.5102 60.0872 36.1831 60.0872 35.5195 59.6448L19.3721 50.3545Z" fill="#797992"/>
<path opacity="0.7561" d="M19.5933 50.3545C18.7085 49.9121 18.7085 49.0274 19.5933 48.585L35.7407 39.2947C36.6255 38.8523 37.9526 38.8523 38.6162 39.2947L54.7636 48.585C55.6484 49.0274 55.6484 49.9121 54.7636 50.3545L38.6162 59.6448C37.7314 60.0872 36.4043 60.0872 35.7407 59.6448L19.5933 50.3545Z" fill="#75758E"/>
<path opacity="0.7805" d="M19.8145 50.3545C18.9297 49.9121 18.9297 49.2485 19.8145 48.585L35.7407 39.5159C36.6254 39.0735 37.9526 39.0735 38.6162 39.5159L54.5424 48.585C55.4272 49.0274 55.4272 49.6909 54.5424 50.3545L38.6162 59.4236C37.7314 59.866 36.4042 59.866 35.7407 59.4236L19.8145 50.3545Z" fill="#70708B"/>
<path opacity="0.8049" d="M20.0357 50.3545C19.1509 49.9121 19.1509 49.2485 20.0357 48.8061L35.7407 39.7371C36.6254 39.2947 37.7314 39.2947 38.6162 39.7371L54.3212 48.8061C55.206 49.2485 55.206 49.9121 54.3212 50.3545L38.6162 59.4236C37.7314 59.866 36.6254 59.866 35.7407 59.4236L20.0357 50.3545Z" fill="#6C6C87"/>
<path opacity="0.8293" d="M20.2569 50.3545C19.3721 49.9121 19.3721 49.2485 20.2569 48.8061L35.7406 39.9583C36.6254 39.5159 37.7314 39.5159 38.6162 39.9583L54.1 48.8061C54.9848 49.2485 54.9848 49.9121 54.1 50.3545L38.6162 59.2024C37.7314 59.6448 36.6254 59.6448 35.7406 59.2024L20.2569 50.3545Z" fill="#676783"/>
<path opacity="0.8537" d="M20.4782 50.3545C19.8146 49.9121 19.8146 49.2485 20.4782 48.8061L35.7408 39.9583C36.4043 39.5159 37.7315 39.5159 38.6163 39.9583L53.8789 48.8061C54.5425 49.2485 54.5425 49.9121 53.8789 50.3545L38.6163 59.2024C37.9527 59.6448 36.6255 59.6448 35.7408 59.2024L20.4782 50.3545Z" fill="#636380"/>
<path opacity="0.878" d="M20.6994 50.3545C20.0358 49.9121 20.0358 49.2485 20.6994 48.8061L35.7408 39.9583C36.4043 39.5159 37.7315 39.5159 38.6163 39.9583L53.6577 48.8061C54.3213 49.2485 54.3213 49.9121 53.6577 50.3545L38.6163 59.2024C37.9527 59.6448 36.6255 59.6448 35.7408 59.2024L20.6994 50.3545Z" fill="#5E5E7C"/>
<path opacity="0.9024" d="M20.9205 50.3545C20.257 49.9121 20.257 49.2485 20.9205 48.8061L35.9619 40.1795C36.6255 39.7371 37.9527 39.7371 38.6163 40.1795L53.6577 48.8061C54.3213 49.2485 54.3213 49.9121 53.6577 50.3545L38.6163 58.9812C37.9527 59.4236 36.6255 59.4236 35.9619 58.9812L20.9205 50.3545Z" fill="#5A5A79"/>
<path opacity="0.9268" d="M21.1417 50.3545C20.4781 49.9121 20.4781 49.2485 21.1417 48.8061L35.9619 40.1795C36.6255 39.7371 37.9527 39.7371 38.6163 40.1795L53.4365 48.8061C54.1001 49.2485 54.1001 49.9121 53.4365 50.3545L38.6163 58.9812C37.9527 59.4236 36.6255 59.4236 35.9619 58.9812L21.1417 50.3545Z" fill="#555575"/>
<path opacity="0.9512" d="M21.1417 50.3545C20.4781 49.9121 20.4781 49.2485 21.1417 48.8061L35.7407 40.4006C36.4043 39.9582 37.7315 39.9582 38.3951 40.4006L52.9941 48.8061C53.6577 49.2485 53.6577 49.9121 52.9941 50.3545L38.3951 58.76C37.7315 59.2024 36.4043 59.2024 35.7407 58.76L21.1417 50.3545Z" fill="#515171"/>
<path opacity="0.9756" d="M21.3629 50.3545C20.6993 49.9121 20.6993 49.2485 21.3629 48.8061L35.7407 40.4006C36.4043 39.9582 37.7315 39.9582 38.3951 40.4006L52.7729 48.8061C53.4365 49.2485 53.4365 49.9121 52.7729 50.3545L38.3951 58.76C37.7315 59.2024 36.4043 59.2024 35.7407 58.76L21.3629 50.3545Z" fill="#4C4C6E"/>
<path d="M21.5841 50.3545C20.9205 49.9121 20.9205 49.2485 21.5841 48.8061L35.7407 40.6218C36.4043 40.1794 37.7315 40.1794 38.3951 40.6218L52.5517 48.8061C53.2153 49.2485 53.2153 49.9121 52.5517 50.3545L38.3951 58.5388C37.7315 58.9812 36.4043 58.9812 35.7407 58.5388L21.5841 50.3545Z" fill="#48486A"/>
</g>
<path d="M37.5102 17.3962L18.9297 28.2349L37.5102 38.8524V17.3962Z" fill="#ADB9E0"/>
<path d="M37.5103 17.3962V38.8524L55.8696 28.2349L37.5103 17.3962Z" fill="#C2CAE8"/>
<path opacity="0.754209" d="M23.5344 21.1474C29.5067 16.5023 39.4606 16.5023 45.6541 21.1474C51.6264 25.7926 51.6264 33.5345 45.6541 38.1796C39.6818 42.8247 29.7279 42.8247 23.5344 38.1796C17.5621 33.5345 17.5621 25.7926 23.5344 21.1474Z" fill="url(#paint2_radial)"/>
<path d="M18.9297 28.2349V49.4698L37.5102 60.0872V38.8523L18.9297 28.2349Z" fill="#C2CAE8"/>
<path d="M37.5103 60.0872L55.8696 49.4698V28.2349L37.5103 38.8523V60.0872Z" fill="#ADB9E0"/>
<path d="M18.9299 28.2349L12.2939 19.8294L30.6533 9.21191L37.5104 17.3962L18.9299 28.2349Z" fill="#EFF1F9"/>
<path d="M55.8696 28.2349L62.5055 19.8294L44.1462 9.21191L37.5103 17.3962L55.8696 28.2349Z" fill="#EFF1F9"/>
<path opacity="0.3" d="M55.8696 37.7463V29.1196L37.5103 38.8523L42.3766 45.4882L55.8696 37.7463Z" fill="#231F20"/>
<path d="M37.5103 38.8523L43.0402 44.161L61.3995 33.3224L55.8696 28.2349L37.5103 38.8523Z" fill="#EFF1F9"/>
<path opacity="0.3" d="M18.9297 29.3408V37.7463L32.6439 45.4882L37.5102 38.8523L19.1509 29.3408H18.9297Z" fill="#231F20"/>
<path d="M37.5104 38.8523L31.7593 44.161L13.3999 33.3224L19.151 28.2349L37.5104 38.8523Z" fill="#EFF1F9"/>
<path d="M27.0272 11.2677L35.988 1.61233L44.9488 0.892334C44.9488 0.892334 46.384 13.0954 35.988 26.0185C25.5736 25.1323 27.0272 11.2677 27.0272 11.2677Z" fill="url(#paint3_linear)"/>
<path d="M44.9486 0.873779L46.9726 2.03686L38.0118 2.77532L35.9878 1.59378L44.9486 0.873779Z" fill="url(#paint4_linear)"/>
<path d="M29.0325 12.4308L37.9933 2.77542L41.6733 2.40619L46.9541 2.05542C46.9541 2.05542 48.3893 14.2585 37.9933 27.1816C27.5973 26.2954 29.0325 12.4308 29.0325 12.4308Z" fill="url(#paint5_linear)"/>
<path d="M30.1182 12.5784L38.1774 3.90152L41.4894 3.56922L46.2366 3.25537C46.2366 3.25537 47.5246 14.2215 38.1774 25.8523C28.8302 25.04 30.1182 12.5784 30.1182 12.5784Z" fill="url(#paint6_linear)"/>
<path d="M29.0326 12.4308L37.9934 2.77541L46.9542 2.05541C46.6966 1.90771 46.6966 1.90771 46.6966 1.90771L37.607 2.64618L28.6462 12.3016C28.6462 12.3016 27.4502 23.8954 35.1966 26.5539C27.8734 23.6369 29.0326 12.4308 29.0326 12.4308Z" fill="#DAE9EE"/>
<defs>
<linearGradient id="paint0_linear" x1="4.73441" y1="150.154" x2="83.2808" y2="129.471" gradientUnits="userSpaceOnUse">
<stop offset="0.3042" stop-color="white"/>
<stop offset="1" stop-color="#EFF2F9"/>
</linearGradient>
<linearGradient id="paint1_linear" x1="76.8766" y1="106.942" x2="76.8766" y2="44.9278" gradientUnits="userSpaceOnUse">
<stop offset="0.1043" stop-color="white"/>
<stop offset="0.3013" stop-color="#F4F6FA"/>
<stop offset="0.6125" stop-color="#EAEEF6"/>
<stop offset="1" stop-color="#E7EBF5"/>
</linearGradient>
<radialGradient id="paint2_radial" cx="0" cy="0" r="1" gradientUnits="userSpaceOnUse" gradientTransform="translate(37.0056 29.6119) scale(13.3673 10.3228)">
<stop stop-color="#9A9EC3"/>
<stop offset="0.1983" stop-color="#A2A6C8"/>
<stop offset="0.4425" stop-color="#CACCE0" stop-opacity="0.701677"/>
<stop offset="0.6659" stop-color="#E7E8F1" stop-opacity="0.01"/>
<stop offset="0.859" stop-color="#F9F9FB" stop-opacity="0.01"/>
<stop offset="1" stop-color="white" stop-opacity="0.01"/>
</radialGradient>
<linearGradient id="paint3_linear" x1="26.9612" y1="25.9964" x2="45.0216" y2="25.9964" gradientUnits="userSpaceOnUse">
<stop stop-color="#CE9F55"/>
<stop offset="1" stop-color="#9C7C41"/>
</linearGradient>
<linearGradient id="paint4_linear" x1="35.9897" y1="2.77365" x2="46.976" y2="2.77365" gradientUnits="userSpaceOnUse">
<stop stop-color="#CE9F55"/>
<stop offset="1" stop-color="#9C7C41"/>
</linearGradient>
<linearGradient id="paint5_linear" x1="28.9685" y1="27.1595" x2="47.0269" y2="27.1595" gradientUnits="userSpaceOnUse">
<stop stop-color="#CE9F55"/>
<stop offset="1" stop-color="#9C7C41"/>
</linearGradient>
<linearGradient id="paint6_linear" x1="30.061" y1="25.8324" x2="46.3018" y2="25.8324" gradientUnits="userSpaceOnUse">
<stop stop-color="#CE9F55"/>
<stop offset="1" stop-color="#DCBC81"/>
</linearGradient>
</defs>
</svg>
