<svg width="106" height="87" viewBox="0 0 106 87" fill="none" xmlns="http://www.w3.org/2000/svg">
<path d="M61.727 16.043C38.2202 29.7935 17.6649 71.1516 17.6649 74.6692C17.6649 78.0801 38.8527 95.2416 61.8324 81.8109C85.3392 68.0604 105.895 26.7023 105.895 23.1847C105.895 19.7737 84.8122 2.61223 61.727 16.043Z" fill="#CDD5EB"/>
<path opacity="0.527762" d="M61.7272 22.0121C73.8496 14.977 83.6529 20.6264 83.7583 34.6967C83.7583 48.767 74.0604 65.9285 61.9381 72.9636C49.8157 79.9988 40.0124 74.3493 39.907 60.279C39.907 46.2088 49.7103 29.0473 61.7272 22.0121Z" fill="#ABB7DF"/>
<path d="M61.727 16.0428C84.8122 2.61212 105.895 19.667 105.895 23.1846C105.895 23.5044 105.789 24.0373 105.473 24.7835C98.1995 19.2406 82.3877 12.6319 65.4164 22.545C43.9124 35.123 24.8329 70.9383 21.7759 79.5723C19.1407 77.5471 17.6649 75.6284 17.6649 74.7756C17.7703 71.2581 38.2202 29.7934 61.727 16.0428Z" fill="#F6F8FB"/>
<path d="M61.9379 71.4714C80.3849 60.7055 97.04 32.6715 103.365 19.5605C105.051 21.0529 106 22.4386 106 23.0781C106 26.4891 85.4447 67.9538 61.9379 81.7043C38.8527 95.1351 17.7704 78.0802 17.7704 74.5626C17.7704 73.8164 18.7191 71.3648 20.4057 67.8472C26.7304 73.7098 43.7017 82.1307 61.9379 71.4714Z" fill="#F6F8FB"/>
<path d="M0.166458 64.3295V64.3295C0.166458 64.2229 0.166458 64.2229 0.166458 64.2229V64.2229V64.2229C0.166458 64.2229 0.166458 64.2229 0.166458 64.1163V64.0098C0.166458 64.0098 0.166458 64.0098 0.166458 63.9032V63.9032V63.9032V63.7966V63.69C0.166458 63.69 0.166458 63.69 0.166458 63.5834V63.5834V63.5834C0.166458 63.4768 0.166454 63.3702 0.271866 63.2636V63.2636V63.157C0.271866 63.0504 0.271869 63.0504 0.377281 62.9438V62.9438C0.377281 62.8372 0.377277 62.8372 0.482689 62.7306C0.482689 62.624 0.482692 62.624 0.588104 62.5175V62.4109C0.588104 62.4109 0.588104 62.4109 0.588104 62.3043C0.588104 62.1977 0.693512 62.0911 0.693512 61.9845V61.9845V61.8779C0.693512 61.7713 0.798927 61.6647 0.798927 61.5581C0.798927 61.4515 0.798923 61.4515 0.904335 61.3449C0.904335 61.3449 0.904339 61.2383 1.00975 61.2383C1.00975 61.1317 1.11516 61.1317 1.11516 61.0251C1.11516 60.9186 1.22057 60.9186 1.22057 60.812C1.32599 60.7054 1.32598 60.5988 1.4314 60.3856C1.4314 60.279 1.4314 60.279 1.53681 60.1724V60.1724C1.53681 60.0658 1.64222 60.0658 1.64222 59.9592C1.74763 59.8526 1.74763 59.6394 1.85304 59.4263C1.85304 59.3197 1.95846 59.2131 1.95846 59.1065C2.06387 58.9999 2.06387 58.7867 2.16928 58.6801C2.16928 58.6801 2.16928 58.5735 2.27469 58.5735C2.3801 58.4669 2.3801 58.3603 2.48551 58.1471C2.48551 58.1471 2.48552 58.0405 2.59093 58.0405C2.69634 57.8274 2.80175 57.6142 2.90717 57.401C2.90717 57.2944 3.01257 57.2944 3.01257 57.1878C3.11798 56.9746 3.2234 56.868 3.32881 56.6548C3.32881 56.5482 3.43422 56.5482 3.43422 56.4416C3.43422 56.4416 3.43422 56.3351 3.53963 56.3351C3.64505 56.2285 3.64505 56.1219 3.75046 55.9087C3.85587 55.8021 3.85587 55.6955 3.96128 55.5889C4.06669 55.3757 4.1721 55.2691 4.27751 55.0559C4.27751 54.9493 4.38293 54.8427 4.38293 54.7362C4.48834 54.523 4.59375 54.2032 4.80457 53.99C4.80457 53.99 4.80458 53.8834 4.90999 53.8834C5.0154 53.5636 5.22622 53.3504 5.33163 53.0307V53.0307C5.33163 53.0307 5.33163 52.9241 5.43704 52.9241C5.54245 52.7109 5.64786 52.3911 5.85869 52.1779C5.85869 52.0713 5.9641 51.9647 5.9641 51.8581C6.06952 51.645 6.17492 51.4318 6.28033 51.2186C6.28033 51.112 6.38575 51.112 6.38575 51.0054C6.59657 50.6856 6.70199 50.3658 6.91281 50.1527C6.91281 50.0461 7.01822 50.0461 7.01822 49.9395C7.12363 49.7263 7.33445 49.4065 7.43987 49.1933C7.54528 49.0867 7.54528 48.9801 7.65069 48.8735C7.7561 48.6603 7.96692 48.3406 8.07233 48.1274C8.07233 48.0208 8.17775 48.0208 8.17775 47.9142C8.38857 47.5944 8.49399 47.2746 8.70481 47.0615V47.0615C8.91563 46.6351 9.12645 46.3153 9.44269 45.8889C9.44269 45.7823 9.5481 45.7823 9.5481 45.6757C9.75893 45.356 9.96975 45.0362 10.1806 44.7164C10.286 44.6098 10.3914 44.3966 10.3914 44.29C10.6022 44.0768 10.7076 43.7571 10.9185 43.5439C11.0239 43.4373 11.1293 43.2241 11.2347 43.1175C11.3401 42.9043 11.5509 42.5845 11.6563 42.3714C11.7617 42.1582 11.8672 42.0516 11.9726 41.8384C12.1834 41.6252 12.2888 41.3054 12.4996 41.0922C12.605 40.8791 12.7105 40.7725 12.8159 40.5593C13.0267 40.2395 13.1321 40.0263 13.3429 39.7065C13.4483 39.5999 13.5538 39.3867 13.6592 39.2802C13.9754 38.8538 14.1862 38.4274 14.5025 38.001V38.001C14.8187 37.5747 15.0295 37.1483 15.3457 36.7219C15.3457 36.7219 15.3458 36.6153 15.4512 36.6153C15.5566 36.5087 15.5566 36.4021 15.662 36.2956C15.8728 35.9758 16.0836 35.656 16.2945 35.3362C16.3999 35.2296 16.5053 35.0164 16.6107 34.9098C16.8215 34.5901 17.0323 34.2703 17.2432 33.9505C17.3486 33.8439 17.454 33.6307 17.5594 33.5241C17.7702 33.2043 18.0865 32.8846 18.2973 32.4582C18.4027 32.3516 18.5081 32.245 18.5081 32.1384C18.8243 31.712 19.1406 31.2857 19.4568 30.7527C19.4568 30.7527 19.4568 30.7527 19.4568 30.6461L19.5622 30.5395C19.8785 30.0066 20.3001 29.5802 20.6163 29.0472C20.7218 28.9406 20.8272 28.834 20.9326 28.7274C21.3542 28.1945 21.7759 27.6615 22.1975 27.1285C22.1975 27.1285 22.1975 27.0219 22.3029 27.0219C22.4083 26.9154 22.4083 26.8088 22.5137 26.7022C22.7246 26.3824 23.0408 26.0626 23.2516 25.7428C23.357 25.6362 23.4625 25.4231 23.5679 25.3165C23.7787 24.9967 24.0949 24.6769 24.3057 24.3571C24.4112 24.2505 24.4112 24.1439 24.5166 24.0373L24.622 23.9307C24.8328 23.7176 25.0436 23.3978 25.2545 23.1846C25.3599 23.078 25.4653 22.8648 25.6761 22.7582C25.8869 22.4384 26.2032 22.2253 26.414 21.9055C26.5194 21.7989 26.6248 21.6923 26.6248 21.5857V21.5857C26.941 21.2659 27.2573 20.8396 27.5735 20.5198L27.6789 20.4132C27.9952 19.9868 28.3114 19.667 28.733 19.2407V19.2407C28.8385 19.1341 29.0493 18.9209 29.1547 18.8143C29.3655 18.6011 29.5763 18.3879 29.6817 18.1747C29.7872 17.9615 29.998 17.8549 30.1034 17.6418C30.3142 17.4286 30.4196 17.2154 30.6305 17.1088V17.1088C30.8413 16.8956 31.1575 16.5758 31.3683 16.3626C31.4738 16.256 31.4738 16.256 31.5792 16.1495C31.8954 15.8297 32.2116 15.5099 32.5279 15.1901V15.1901C32.6333 15.0835 32.6333 15.0835 32.7387 14.9769C32.9495 14.7637 33.2657 14.444 33.4766 14.2308C33.582 14.1242 33.6874 14.0176 33.7928 13.911C34.0036 13.6978 34.109 13.5912 34.3199 13.378L34.4253 13.2714C34.5307 13.1648 34.6361 13.0583 34.7415 12.9517C34.9523 12.7385 35.1632 12.5253 35.374 12.4187C35.4794 12.3121 35.5848 12.2055 35.7956 12.0989C35.901 11.9923 36.0065 11.8857 36.1119 11.7791C36.2173 11.6725 36.3227 11.566 36.4281 11.566C36.5335 11.4594 36.6389 11.3528 36.7443 11.2462C36.9552 11.033 37.166 10.8198 37.3768 10.7132C37.4822 10.6066 37.5876 10.5 37.693 10.5L37.7985 10.3934C38.1147 10.1802 38.3255 9.96706 38.6417 9.75387C38.7472 9.75387 38.7472 9.64728 38.8526 9.64728C39.0634 9.54068 39.2742 9.3275 39.3796 9.2209C39.485 9.11431 39.485 9.11431 39.5905 9.00772C39.6959 8.90112 39.8013 8.90112 39.9067 8.79453C40.1175 8.58134 40.4337 8.36816 40.6446 8.26157C40.75 8.26157 40.75 8.15497 40.8554 8.15497C40.8554 8.15497 40.8554 8.15497 40.9608 8.15497C41.277 7.94179 41.5933 7.7286 41.8041 7.51541C41.9095 7.51541 41.9095 7.40882 42.0149 7.40882C42.1203 7.30223 42.2257 7.30223 42.3312 7.19563C42.542 7.08904 42.7528 6.98245 42.8582 6.87586C42.8582 6.87586 42.9636 6.87586 42.9636 6.76926C43.1745 6.66267 43.4907 6.44948 43.7015 6.34289C43.8069 6.2363 43.9123 6.2363 44.0177 6.1297C44.334 5.91652 44.6502 5.80992 44.9665 5.59674C44.9665 5.59674 45.0719 5.59674 45.0719 5.49015C45.1773 5.49015 45.1773 5.38355 45.2827 5.38355C45.3881 5.27696 45.4935 5.27696 45.5989 5.17037C45.7043 5.06377 45.8097 5.06377 45.9152 4.95718C46.0206 4.85059 46.126 4.85059 46.2314 4.74399C46.2314 4.74399 46.3368 4.74399 46.3368 4.6374C46.4422 4.6374 46.4422 4.53081 46.5476 4.53081C46.653 4.42421 46.7585 4.42421 46.8639 4.31762C46.9693 4.21103 47.0747 4.21103 47.1801 4.10443C47.2855 4.10443 47.3909 3.99784 47.4963 3.99784C47.4963 3.99784 47.6017 3.99784 47.6017 3.89125C47.7072 3.89125 47.7072 3.78466 47.8126 3.78466C47.918 3.67806 48.0234 3.67806 48.2342 3.57147C48.3396 3.57147 48.445 3.46488 48.5505 3.46488C48.6559 3.35828 48.7613 3.35828 48.9721 3.35828C49.0775 3.35828 49.0775 3.35828 49.1829 3.25169C49.1829 3.25169 49.2883 3.25169 49.2883 3.1451C49.3937 3.1451 49.4992 3.0385 49.71 3.0385C49.8154 3.0385 49.9208 2.93191 50.0262 2.93191C50.1316 2.93191 50.237 2.82532 50.4479 2.82532C50.5533 2.82532 50.5533 2.82532 50.6587 2.71872H50.7641C50.9749 2.61213 51.0803 2.61213 51.2912 2.50554C51.3966 2.50554 51.3966 2.50554 51.502 2.39895C51.7128 2.29235 52.029 2.29235 52.2399 2.18576V2.18576C52.2399 2.18576 52.2399 2.18576 52.3453 2.18576C52.5561 2.07917 52.7669 2.07917 52.9777 1.97257C53.0832 1.97257 53.1886 1.97257 53.1886 1.86598C53.3994 1.86598 53.5048 1.75939 53.7156 1.75939H53.821H53.9265C54.1373 1.65279 54.3481 1.65279 54.6643 1.5462H54.7697C55.086 1.43961 55.2968 1.43961 55.613 1.33301C55.613 1.33301 55.613 1.33301 55.7185 1.33301H55.8239C56.0347 1.33301 56.2455 1.22642 56.5617 1.22642C56.6672 1.22642 56.6672 1.22642 56.7726 1.22642C57.0888 1.22642 57.2996 1.11983 57.6159 1.11983C57.6159 1.11983 57.6159 1.11983 57.7213 1.11983H57.8267C58.1429 1.11983 58.5646 1.01324 58.8808 1.01324V1.01324C59.197 1.01324 59.5133 0.906642 59.9349 0.906642H60.0403V0.906642C60.462 0.906642 60.8836 0.906642 61.1999 0.800049C61.1999 0.800049 61.1999 0.800049 61.3053 0.800049C61.7269 0.800049 62.1486 0.800049 62.5702 0.800049V0.800049V0.800049C62.781 0.800049 62.9919 0.800049 63.3081 0.800049C63.4135 0.800049 63.4135 0.800049 63.5189 0.800049C63.7297 0.800049 63.8352 0.800049 64.046 0.800049C64.1514 0.800049 64.2568 0.800049 64.2568 0.800049C64.4676 0.800049 64.573 0.800049 64.7839 0.800049C64.8893 0.800049 64.8893 0.800049 64.9947 0.800049C65.2055 0.800049 65.4163 0.800049 65.6272 0.800049V0.800049V0.800049C65.9434 0.800049 66.1542 0.906642 66.4705 0.906642C66.5759 0.906642 66.5759 0.906642 66.6813 0.906642C66.9975 0.906642 67.2083 1.01324 67.5246 1.01324H67.63C67.8408 1.01324 68.157 1.11983 68.3679 1.11983H68.4733C68.7895 1.11983 69.0003 1.22642 69.3166 1.22642H69.422C69.422 1.22642 69.422 1.22642 69.5274 1.22642C69.949 1.33301 70.3707 1.43961 70.7923 1.5462V1.5462C71.214 1.65279 71.6356 1.75939 72.0573 1.86598H72.1627C72.5843 1.97257 72.9006 2.07917 73.3222 2.18576C73.3222 2.18576 73.3222 2.18576 73.4276 2.18576C73.8493 2.29235 74.1655 2.39895 74.5872 2.61213V2.61213C74.5872 2.61213 74.5872 2.61213 74.6926 2.61213C75.0088 2.71872 75.2196 2.82532 75.5359 2.93191V2.93191C75.8521 3.0385 76.0629 3.1451 76.3792 3.25169V3.25169C76.59 3.35828 76.9062 3.46488 77.117 3.57147H77.2225C77.4333 3.67806 77.7495 3.78466 77.9603 3.89125C77.9603 3.89125 78.0657 3.89125 78.0657 3.99784C78.2766 4.10443 78.4874 4.21103 78.8036 4.31762C78.8036 4.31762 78.909 4.31762 78.909 4.42421C79.1199 4.53081 79.3307 4.6374 79.5415 4.74399C79.5415 4.74399 79.6469 4.74399 79.6469 4.85059C79.8577 4.95718 80.0686 5.06377 80.2794 5.17037C80.2794 5.17037 80.2794 5.17037 80.3848 5.17037C80.5956 5.27696 80.8064 5.38355 81.0173 5.59674V5.59674L98.5156 15.9363C98.3048 15.8297 98.094 15.7231 97.8832 15.5099C97.8832 15.5099 97.8832 15.5099 97.7777 15.5099C97.5669 15.4033 97.3561 15.2967 97.1453 15.1901H97.0399C96.829 15.0835 96.6182 14.9769 96.4074 14.8703C96.4074 14.8703 96.302 14.8703 96.302 14.7637C96.0912 14.6572 95.8803 14.5506 95.5641 14.444C95.5641 14.444 95.4587 14.444 95.4587 14.3374C95.2479 14.2308 94.9316 14.1242 94.7208 14.0176H94.6154C94.4046 13.911 94.0883 13.8044 93.8775 13.6978V13.6978C93.5613 13.5912 93.3504 13.4846 93.0342 13.378V13.378C92.718 13.2714 92.5072 13.1648 92.1909 13.0583H92.0855C91.6639 12.9517 91.3476 12.8451 90.926 12.6319C90.926 12.6319 90.926 12.6319 90.8206 12.6319C90.3989 12.5253 90.0827 12.4187 89.661 12.3121H89.5556C89.134 12.2055 88.7123 12.0989 88.2907 11.9923V11.9923C87.869 11.8857 87.4474 11.7791 87.0257 11.6725H86.9203C86.7095 11.6725 86.3933 11.566 86.077 11.566H85.9716C85.7608 11.566 85.4446 11.4594 85.2337 11.4594H85.1283C84.8121 11.4594 84.6013 11.3528 84.285 11.3528C84.1796 11.3528 84.1796 11.3528 84.0742 11.3528C83.758 11.3528 83.5472 11.2462 83.2309 11.2462C83.2309 11.2462 83.2309 11.2462 83.1255 11.2462C82.9147 11.2462 82.7039 11.2462 82.493 11.2462C82.3876 11.2462 82.3876 11.2462 82.2822 11.2462C82.0714 11.2462 81.966 11.2462 81.7552 11.2462C81.6497 11.2462 81.5443 11.2462 81.5443 11.2462C81.3335 11.2462 81.2281 11.2462 81.0173 11.2462C80.9119 11.2462 80.9119 11.2462 80.8064 11.2462C80.5956 11.2462 80.3848 11.2462 80.0686 11.2462V11.2462C79.6469 11.2462 79.2253 11.2462 78.8036 11.2462C78.8036 11.2462 78.8036 11.2462 78.6982 11.2462C78.2766 11.2462 77.8549 11.2462 77.5387 11.3528H77.4333C77.117 11.3528 76.8008 11.3528 76.3792 11.4594V11.4594C76.0629 11.4594 75.6413 11.566 75.325 11.566H75.2196C74.9034 11.566 74.6926 11.6725 74.3763 11.6725C74.2709 11.6725 74.2709 11.6725 74.1655 11.6725C73.9547 11.6725 73.7439 11.7791 73.4276 11.7791C73.3222 11.7791 73.3222 11.7791 73.2168 11.7791C72.9006 11.8857 72.6897 11.8857 72.3735 11.9923H72.2681C72.0573 11.9923 71.8465 12.0989 71.5302 12.2055C71.4248 12.2055 71.3194 12.2055 71.3194 12.3121C71.1086 12.3121 71.0032 12.4187 70.7923 12.4187C70.6869 12.4187 70.5815 12.4187 70.5815 12.5253C70.3707 12.6319 70.1599 12.6319 69.949 12.7385H69.8436C69.6328 12.8451 69.3166 12.8451 69.1057 12.9517C69.0003 12.9517 69.0003 12.9517 68.8949 13.0583C68.6841 13.1648 68.5787 13.1648 68.3679 13.2714C68.2625 13.2714 68.157 13.378 68.0516 13.378C67.9462 13.378 67.8408 13.4846 67.63 13.4846C67.5246 13.4846 67.4192 13.5912 67.3137 13.5912C67.2083 13.5912 67.1029 13.6978 66.8921 13.6978C66.7867 13.6978 66.6813 13.8044 66.5759 13.8044C66.4705 13.8044 66.365 13.911 66.1542 13.911C66.0488 13.911 65.9434 14.0176 65.838 14.0176C65.7326 14.1242 65.6272 14.1242 65.4163 14.2308C65.3109 14.2308 65.2055 14.3374 65.1001 14.3374C64.9947 14.3374 64.8893 14.444 64.7839 14.444C64.6785 14.5506 64.573 14.5506 64.4676 14.6572C64.3622 14.6572 64.2568 14.7637 64.1514 14.8703C64.046 14.9769 63.9406 14.9769 63.8352 15.0835C63.7297 15.1901 63.6243 15.1901 63.5189 15.2967C63.4135 15.4033 63.3081 15.4033 63.2027 15.5099C63.0973 15.6165 62.9919 15.6165 62.8865 15.7231C62.781 15.7231 62.6756 15.8297 62.5702 15.9363C62.254 16.1495 61.9377 16.256 61.6215 16.4692C61.3053 16.6824 60.8836 16.8956 60.5674 17.1088C60.5674 17.1088 60.462 17.1088 60.462 17.2154C60.1457 17.4286 59.8295 17.6418 59.6187 17.7484C59.5133 17.7484 59.5133 17.8549 59.4079 17.8549C59.0916 18.0681 58.7754 18.2813 58.4592 18.4945C58.3537 18.4945 58.3537 18.6011 58.2483 18.6011C58.0375 18.8143 57.7213 18.9209 57.5105 19.1341C57.405 19.2407 57.2996 19.2407 57.1942 19.3472C56.878 19.5604 56.6672 19.7736 56.3509 19.9868C56.2455 19.9868 56.2455 20.0934 56.1401 20.0934C55.8239 20.3066 55.5076 20.6264 55.1914 20.8396C55.086 20.9461 54.9806 21.0527 54.8752 21.0527C54.6643 21.2659 54.4535 21.3725 54.2427 21.5857C54.1373 21.6923 54.0319 21.7989 53.9265 21.9055C53.7156 22.1187 53.5048 22.2253 53.294 22.4384C53.1886 22.545 53.0832 22.6516 52.8723 22.7582C52.6615 22.9714 52.4507 23.1846 52.2399 23.2912C52.1345 23.3978 52.029 23.5044 51.9236 23.611C51.7128 23.8242 51.502 24.0373 51.2912 24.2505C51.1857 24.3571 51.0803 24.4637 50.9749 24.5703C50.7641 24.7835 50.4479 25.1033 50.237 25.3165C50.1316 25.4231 50.1316 25.4231 50.0262 25.5296C49.71 25.8494 49.3937 26.1692 49.0775 26.489C48.9721 26.5956 48.9721 26.5956 48.8667 26.7022C48.6559 26.9154 48.3396 27.2351 48.1288 27.4483C47.918 27.6615 47.7072 27.8747 47.6017 27.9813C47.4963 28.0879 47.2855 28.3011 47.1801 28.4077C46.9693 28.6208 46.7585 28.834 46.653 29.0472C46.5476 29.1538 46.3368 29.367 46.2314 29.4736C45.9152 29.7934 45.5989 30.2197 45.1773 30.6461C45.1773 30.6461 45.1773 30.6461 45.0719 30.7527C44.7556 31.0725 44.4394 31.4989 44.1232 31.8186C44.0177 31.9252 43.9123 32.0318 43.8069 32.1384C43.5961 32.4582 43.2799 32.6714 43.069 32.9912C42.9636 33.0978 42.8582 33.3109 42.6474 33.4175C42.4366 33.6307 42.2257 33.9505 42.0149 34.1637C41.9095 34.2703 41.8041 34.4835 41.6987 34.5901C41.4879 34.9098 41.1716 35.2296 40.9608 35.5494C40.8554 35.656 40.75 35.8692 40.6446 35.9758C40.4337 36.2955 40.1175 36.6153 39.9067 36.9351C39.8013 37.0417 39.6959 37.1483 39.5905 37.2549C39.1688 37.7879 38.7472 38.3208 38.3255 38.8538C38.2201 38.9604 38.1147 39.067 38.0093 39.1736C37.693 39.7065 37.2714 40.1329 36.9552 40.6659C36.9552 40.7725 36.8497 40.7725 36.7443 40.8791C36.4281 41.3054 36.1119 41.7318 35.7956 42.2648C35.6902 42.3714 35.6902 42.4779 35.5848 42.5845C35.374 42.9043 35.0577 43.2241 34.8469 43.6505C34.7415 43.7571 34.6361 43.9703 34.5307 44.0768C34.3199 44.3966 34.109 44.7164 33.8982 45.0362C33.7928 45.1428 33.6874 45.356 33.582 45.4626C33.3712 45.7823 33.1603 46.1021 32.9495 46.4219C32.8441 46.5285 32.7387 46.6351 32.7387 46.7417C32.4225 47.168 32.2116 47.5944 31.8954 48.0208V48.0208C31.5792 48.4472 31.3683 48.8735 31.0521 49.2999C30.9467 49.4065 30.8413 49.6197 30.7359 49.7263C30.525 50.0461 30.4196 50.2592 30.2088 50.579C30.1034 50.7922 29.998 50.8988 29.8926 51.112C29.6817 51.3252 29.5763 51.645 29.3655 51.8581C29.2601 52.0713 29.1547 52.1779 29.0493 52.3911C28.8385 52.6043 28.733 52.9241 28.6276 53.1373C28.5222 53.3504 28.4168 53.457 28.3114 53.6702C28.1006 53.99 27.9952 54.2032 27.7843 54.4164C27.6789 54.523 27.5735 54.7362 27.5735 54.8427C27.3627 55.1625 27.1519 55.4823 26.941 55.8021C26.941 55.9087 26.8356 55.9087 26.8356 56.0153C26.6248 56.4416 26.414 56.7614 26.0977 57.1878C25.8869 57.5076 25.7815 57.8274 25.5707 58.1471C25.5707 58.2537 25.4653 58.3603 25.4653 58.3603C25.3599 58.5735 25.149 58.8933 25.0436 59.1065C24.9382 59.2131 24.9382 59.3197 24.8328 59.4263C24.7274 59.6394 24.5166 59.9592 24.4112 60.1724C24.4112 60.279 24.3057 60.279 24.3057 60.3856C24.0949 60.7054 23.9895 61.0251 23.7787 61.2383C23.7787 61.3449 23.6733 61.3449 23.6733 61.4515C23.5679 61.6647 23.4625 61.8779 23.357 62.0911C23.357 62.1977 23.2516 62.3043 23.2516 62.3043C23.1462 62.5175 23.0408 62.8372 22.83 63.0504C22.83 63.0504 22.83 63.157 22.7246 63.157C22.5137 63.4768 22.4083 63.7966 22.3029 64.0098V64.1163C22.1975 64.3295 21.9867 64.6493 21.8813 64.8625C21.8813 64.9691 21.7759 65.0757 21.7759 65.1823C21.6705 65.3955 21.565 65.5021 21.4596 65.7152C21.3542 65.8218 21.3542 65.9284 21.2488 66.035C21.1434 66.2482 21.038 66.3548 21.038 66.568C21.038 66.6746 20.9326 66.6746 20.9326 66.7812C20.8272 66.9944 20.7218 67.2075 20.6163 67.3141C20.6163 67.4207 20.5109 67.4207 20.5109 67.5273C20.4055 67.7405 20.3001 67.9537 20.1947 68.1669C20.1947 68.1669 20.1947 68.2735 20.0893 68.2735C19.9839 68.4867 19.9839 68.5933 19.8785 68.8064C19.773 68.913 19.773 69.1262 19.6676 69.2328C19.6676 69.3394 19.5622 69.446 19.5622 69.5526C19.4568 69.7658 19.4568 69.8724 19.3514 70.0856C19.3514 70.1922 19.246 70.1922 19.246 70.2987C19.246 70.4053 19.246 70.4053 19.1406 70.5119C19.0352 70.6185 19.0352 70.8317 18.9297 70.9383C18.9297 71.0449 18.8243 71.0449 18.8243 71.1515C18.8243 71.2581 18.7189 71.3647 18.7189 71.4713C18.7189 71.5779 18.7189 71.5779 18.6135 71.6845C18.6135 71.791 18.5081 71.8976 18.5081 72.0042V72.1108C18.4027 72.2174 18.4027 72.4306 18.2973 72.5372C18.2973 72.5372 18.2973 72.5372 18.2973 72.6438C18.2973 72.7504 18.1919 72.857 18.1919 72.9636C18.1919 73.0702 18.1919 73.0702 18.0865 73.1768C18.0865 73.2834 17.981 73.2834 17.981 73.3899V73.4965C17.981 73.6031 17.8756 73.7097 17.8756 73.8163V73.8163C17.8756 73.9229 17.8756 74.0295 17.7702 74.1361V74.1361C17.7702 74.2427 17.7702 74.3493 17.7702 74.3493V74.3493C17.7702 74.4559 17.7702 74.4559 17.7702 74.5625V74.6691V74.6691V74.7757V74.7757V74.8822V74.8822V74.9888C17.7702 75.0954 17.7702 75.0954 17.8756 75.202V75.202C17.8756 75.3086 17.981 75.3086 17.981 75.4152C17.981 75.4152 17.981 75.4152 17.981 75.5218C17.981 75.6284 18.0865 75.6284 18.0865 75.735V75.735C18.1919 75.8416 18.1919 75.9482 18.2973 75.9482C18.2973 75.9482 18.2973 75.9482 18.2973 76.0548C18.4027 76.1614 18.4027 76.268 18.5081 76.268V76.268C18.6135 76.3746 18.6135 76.4811 18.7189 76.5877C18.7189 76.5877 18.7189 76.5877 18.8243 76.6943C18.9297 76.8009 19.0352 76.9075 19.0352 77.0141V77.0141C19.1406 77.1207 19.246 77.2273 19.3514 77.3339C19.3514 77.3339 19.3514 77.3339 19.4568 77.4405C19.5622 77.5471 19.6676 77.6537 19.773 77.7603V77.7603C19.8785 77.8669 19.9839 77.9734 20.0893 78.08L20.1947 78.1866C20.3001 78.2932 20.4055 78.3998 20.5109 78.5064V78.5064C20.6163 78.613 20.8272 78.7196 20.9326 78.8262L21.038 78.9328C21.1434 79.0394 21.3542 79.146 21.4596 79.2526V79.2526C21.565 79.3592 21.7759 79.4658 21.8813 79.5723L21.9867 79.6789C22.0921 79.7855 22.3029 79.8921 22.4083 79.9987V79.9987C22.6192 80.1053 22.7246 80.2119 22.9354 80.3185L23.0408 80.4251C23.2516 80.5317 23.357 80.6383 23.5679 80.7449V80.7449C23.7787 80.8515 23.8841 80.9581 24.0949 81.0647L24.2003 81.1712C24.4112 81.2778 24.622 81.3844 24.7274 81.491V81.491V81.491L7.22904 71.1515C7.01822 71.0449 6.8074 70.9383 6.70199 70.8317L6.59657 70.7251C6.38575 70.6185 6.17492 70.5119 6.06951 70.4053V70.4053C5.85869 70.2987 5.75328 70.1922 5.54246 70.0856L5.43704 69.979C5.22622 69.8724 5.12081 69.7658 4.90999 69.6592V69.6592C4.69916 69.5526 4.59375 69.446 4.48833 69.3394L4.38293 69.2328C4.27752 69.1262 4.06669 69.0196 3.96128 68.913V68.913C3.85587 68.8064 3.64505 68.6998 3.53963 68.5933L3.43422 68.4867C3.32881 68.3801 3.11798 68.2735 3.01257 68.1669V68.1669C2.90716 68.0603 2.80175 67.9537 2.69633 67.8471L2.59093 67.7405C2.48552 67.6339 2.3801 67.5273 2.27469 67.4207V67.4207C2.16928 67.3141 2.06387 67.2075 1.95846 67.101C1.95846 67.101 1.95845 67.101 1.85304 66.9944C1.74763 66.8878 1.64222 66.7812 1.53681 66.6746V66.6746C1.4314 66.568 1.32599 66.4614 1.32599 66.3548C1.32599 66.3548 1.32599 66.3548 1.22057 66.2482C1.11516 66.1416 1.00975 66.035 1.00975 65.9284V65.9284C0.904339 65.8218 0.904339 65.7152 0.798927 65.7152C0.798927 65.7152 0.798927 65.7152 0.798927 65.6087C0.693516 65.5021 0.693516 65.3955 0.588104 65.3955V65.3955V65.3955C0.588104 65.2889 0.482689 65.2889 0.482689 65.1823C0.482689 65.1823 0.482689 65.1823 0.482689 65.0757C0.482689 64.9691 0.377281 64.9691 0.377281 64.8625V64.8625V64.8625C0.377281 64.7559 0.271866 64.7559 0.271866 64.6493V64.6493V64.5427V64.5427V64.5427V64.5427V64.4361V64.4361V64.4361V64.4361C0.271866 64.4361 0.271866 64.4361 0.271866 64.3295V64.3295V64.3295V64.3295C0.166454 64.4361 0.166458 64.4361 0.166458 64.3295V64.3295V64.3295Z" fill="url(#paint0_linear)"/>
<path d="M61.8322 35.4429C67.5245 32.1385 72.1626 34.8033 72.1626 41.4121C72.1626 48.0208 67.6299 56.1219 61.9377 59.4263C56.2454 62.7307 51.6073 60.0659 51.6073 53.4571C51.5019 46.8483 56.14 38.7472 61.8322 35.4429Z" fill="url(#paint1_linear)"/>
<path d="M62.5439 43.0156C64.9684 41.6299 66.9712 42.6958 66.9712 45.5738C66.9712 48.3452 65.0738 51.7562 62.6493 53.2485C60.2248 54.6342 58.222 53.5683 58.222 50.6903C58.1166 47.8123 60.1194 44.4013 62.5439 43.0156Z" fill="#D3AA66"/>
<defs>
<linearGradient id="paint0_linear" x1="98.3494" y1="81.6183" x2="-0.126869" y2="81.6183" gradientUnits="userSpaceOnUse">
<stop stop-color="#D3DAED"/>
<stop offset="1" stop-color="#99A7D8"/>
</linearGradient>
<linearGradient id="paint1_linear" x1="72.1429" y1="60.8657" x2="51.5407" y2="60.8657" gradientUnits="userSpaceOnUse">
<stop stop-color="#DAE9EE"/>
<stop offset="0.2332" stop-color="#E5EFF3"/>
<stop offset="0.5985" stop-color="#F0F5F8"/>
<stop offset="1" stop-color="#F4F7FA"/>
</linearGradient>
</defs>
</svg>
