<svg width="67" height="98" viewBox="0 0 67 98" fill="none" xmlns="http://www.w3.org/2000/svg">
<path d="M5.57103 23.0005L2.96805 83.9628L23.411 96.7504L64.8999 70.479L61.9477 6.12988L54.0436 7.7758L48.4249 0.559082L5.57103 23.0005Z" fill="#ECEDEE"/>
<path d="M5.5712 23.0005L11.793 30.7236L21.7287 28.6346L23.4111 96.7503L2.96822 83.9628L5.5712 23.0005Z" fill="url(#paint0_linear)"/>
<path d="M21.7285 28.6347L61.9477 6.12988L64.8999 70.479L23.411 96.7504L21.7285 28.6347Z" fill="url(#paint1_linear)"/>
<path d="M39.4096 24.8681C39.3144 25.5012 38.9652 26.0076 38.5843 25.9443C38.2034 25.881 37.9812 25.3429 38.0764 24.6782C38.1716 24.0452 38.5208 23.5387 38.9017 23.602C39.2827 23.6653 39.5049 24.2351 39.4096 24.8681Z" fill="url(#paint2_linear)"/>
<path d="M50.2978 17.9044C50.2026 18.5374 49.8534 19.0122 49.4724 18.9806C49.1233 18.9173 48.8693 18.3792 48.9646 17.7461C49.0598 17.1131 49.409 16.6383 49.7899 16.67C50.1391 16.7333 50.3613 17.2713 50.2978 17.9044Z" fill="url(#paint3_linear)"/>
<path opacity="0.6" d="M2.96822 83.9629L13.5071 80.0063L23.4111 96.7504L2.96822 83.9629Z" fill="url(#paint4_linear)"/>
<path d="M44.7108 37.5922C44.0442 37.5922 43.4093 37.4023 42.8062 37.0224C39.5048 34.8701 38.5208 27.052 38.2986 25.0262C38.2668 24.773 38.4573 24.5198 38.743 24.5198C38.9969 24.4881 39.2191 24.678 39.2509 24.9313C39.4413 26.862 40.3936 34.3636 43.3141 36.2628C44.0124 36.7059 44.7743 36.8009 45.6313 36.4843C50.0755 34.9334 49.758 23.0954 49.1866 18.0944C49.1549 17.8411 49.3453 17.6196 49.5993 17.5879C49.8532 17.5563 50.1072 17.7462 50.1389 17.9994C50.4564 20.8798 51.6944 35.3765 45.9488 37.4023C45.5361 37.5289 45.1234 37.5922 44.7108 37.5922Z" fill="#B7C2E3"/>
<path d="M48.4248 0.559082V13.6948L21.7284 28.6347L11.7926 30.7237L5.57088 23.0005L48.4248 0.559082Z" fill="#F6F8FB"/>
<path d="M54.9644 76.24V50.2852L37.2831 60.5405V87.35L54.9644 76.24Z" fill="#F6F8FB"/>
<path d="M54.6787 76.24V50.2852L48.2348 54.0201V80.2915L54.6787 76.24Z" fill="#B8BCFF"/>
<path d="M48.2344 80.2916L48.5518 80.3865V53.8936H48.2344L48.3931 54.6532L48.2344 80.2916Z" fill="#B8BCFF"/>
<path d="M54.9644 76.24V50.2852L48.5521 54.0201V80.2915L54.9644 76.24Z" fill="url(#paint5_linear)"/>
<path d="M43.6953 83.3298V56.8052L37.2831 60.5401V87.3496L43.6953 83.3298Z" fill="url(#paint6_linear)"/>
<path fill-rule="evenodd" clip-rule="evenodd" d="M55.5356 76.5562V49.272L36.6799 60.192V88.4258L55.5356 76.5562ZM54.9643 76.2397L37.283 87.3497V60.5402L54.9643 50.2848V76.2397Z" fill="url(#paint7_linear)"/>
<path d="M54.9644 75.0055L48.5521 69.7196V68.4219L54.9644 73.7078V75.0055Z" fill="white"/>
<path d="M54.9644 67.2823L48.5521 61.9964V61.5532L54.9644 66.8392V67.2823Z" fill="white"/>
<path d="M54.9644 65.1617L48.5521 59.8441V58.5464L54.9644 63.8323V65.1617Z" fill="white"/>
<path d="M54.9644 56.6153L50.4568 52.912L51.3773 52.3423L54.9644 55.3176V56.6153Z" fill="white"/>
<path d="M43.6953 79.1202L37.2831 74.0242V72.6948L43.6953 77.8225V79.1202Z" fill="white"/>
<path d="M43.6953 73.9608L37.2831 68.6116V68.1685L43.6953 73.5177V73.9608Z" fill="white"/>
<path d="M43.6953 64.4337L38.2671 59.9707L39.1877 59.4326L43.6953 63.1359V64.4337Z" fill="white"/>
<path d="M61.4714 38.5737L66.1694 43.005L63.8204 44.3661L59.1223 39.9348L61.4714 38.5737Z" fill="url(#paint8_linear)"/>
<path d="M59.1223 39.9028L63.8203 44.3658L61.4713 45.6952L56.7732 41.2639L59.1223 39.9028Z" fill="white"/>
<path d="M56.7731 41.2642L61.4712 45.6955L59.1222 47.0565L54.4241 42.5936L56.7731 41.2642Z" fill="url(#paint9_linear)"/>
<path d="M54.424 42.5933L59.1221 47.0562L56.773 48.3856L52.0432 43.9543L54.424 42.5933Z" fill="white"/>
<path d="M52.0436 43.9546L56.7734 48.3859L54.3927 49.747L49.6946 45.284L52.0436 43.9546Z" fill="url(#paint10_linear)"/>
<path d="M49.6945 45.2837L54.4243 49.7467L52.0435 51.0761L47.3455 46.6447L49.6945 45.2837Z" fill="white"/>
<path d="M47.3454 46.645L52.0435 51.0763L49.6944 52.4374L44.9964 47.9744L47.3454 46.645Z" fill="url(#paint11_linear)"/>
<path d="M44.9963 47.9746L49.6943 52.4376L47.3453 53.767L42.6472 49.3357L44.9963 47.9746Z" fill="white"/>
<path d="M42.6472 49.3354L47.3452 53.7668L44.9962 55.1278L40.2981 50.6648L42.6472 49.3354Z" fill="url(#paint12_linear)"/>
<path d="M40.2985 50.665L44.9966 55.128L42.6476 56.4574L37.9495 52.0261L40.2985 50.665Z" fill="white"/>
<path d="M37.9494 52.0259L42.6475 56.4572L40.2984 57.8182L35.6004 53.3553L37.9494 52.0259Z" fill="url(#paint13_linear)"/>
<path d="M35.6003 53.3555L40.2983 57.8184L37.9176 59.1478L33.2195 54.7165L35.6003 53.3555Z" fill="white"/>
<path d="M33.2194 54.7163L37.9492 59.1476L35.5684 60.5087L30.8704 56.0457L33.2194 54.7163Z" fill="url(#paint14_linear)"/>
<path d="M30.8703 56.0459L35.6001 60.5089L33.2193 61.8383L28.5213 57.4069L30.8703 56.0459Z" fill="white"/>
<path d="M28.5217 57.4067L33.2197 61.8381L30.8707 63.1991L26.1726 58.7361L28.5217 57.4067Z" fill="url(#paint15_linear)"/>
<path d="M26.1725 58.7363L30.8706 63.1993L28.5216 64.5287L23.8235 60.0974L26.1725 58.7363Z" fill="white"/>
<path d="M66.1694 43.0049C66.1694 43.0049 66.1059 44.2393 65.2489 44.7458C64.2331 45.3472 63.8204 44.3659 63.8204 44.3659L66.1694 43.0049Z" fill="url(#paint16_linear)"/>
<path d="M63.8203 44.3662C63.8203 44.3662 63.7568 45.6006 62.8997 46.1071C61.8839 46.7085 61.4713 45.7273 61.4713 45.7273L63.8203 44.3662Z" fill="url(#paint17_linear)"/>
<path d="M61.4712 45.6953C61.4712 45.6953 61.4077 46.9298 60.5506 47.4362C59.5348 48.0376 59.1222 47.0564 59.1222 47.0564L61.4712 45.6953Z" fill="url(#paint18_linear)"/>
<path d="M59.1221 47.0566C59.1221 47.0566 59.0586 48.2911 58.2015 48.7975C57.1857 49.3989 56.773 48.4177 56.773 48.4177L59.1221 47.0566Z" fill="url(#paint19_linear)"/>
<path d="M56.7734 48.3857C56.7734 48.3857 56.71 49.6202 55.8529 50.1266C54.8371 50.728 54.4244 49.7468 54.4244 49.7468L56.7734 48.3857Z" fill="url(#paint20_linear)"/>
<path d="M54.4243 49.7153C54.4243 49.7153 54.3608 50.9498 53.5038 51.4562C52.488 52.0576 52.0753 51.0764 52.0753 51.0764L54.4243 49.7153Z" fill="url(#paint21_linear)"/>
<path d="M52.0752 51.0762C52.0752 51.0762 52.0117 52.3106 51.1546 52.817C50.1388 53.4184 49.7262 52.4372 49.7262 52.4372L52.0752 51.0762Z" fill="url(#paint22_linear)"/>
<path d="M49.7261 52.4058C49.7261 52.4058 49.6626 53.6402 48.8055 54.1466C47.7897 54.748 47.377 53.7668 47.377 53.7668L49.7261 52.4058Z" fill="url(#paint23_linear)"/>
<path d="M47.377 53.7349C47.377 53.7349 47.3135 54.9693 46.4564 55.4757C45.4406 56.0771 45.0279 55.0959 45.0279 55.0959L47.377 53.7349Z" fill="url(#paint24_linear)"/>
<path d="M45.0283 55.0962C45.0283 55.0962 44.9648 56.3306 44.1078 56.8371C43.092 57.4385 42.6793 56.4572 42.6793 56.4572L45.0283 55.0962Z" fill="url(#paint25_linear)"/>
<path d="M42.6475 56.4253C42.6475 56.4253 42.584 57.6597 41.7269 58.1662C40.7111 58.7676 40.2984 57.7863 40.2984 57.7863L42.6475 56.4253Z" fill="url(#paint26_linear)"/>
<path d="M40.2983 57.7549C40.2983 57.7549 40.2349 58.9893 39.3778 59.4958C38.362 60.0972 37.9493 59.1159 37.9493 59.1159L40.2983 57.7549Z" fill="url(#paint27_linear)"/>
<path d="M37.9492 59.1162C37.9492 59.1162 37.8857 60.3506 37.0287 60.8571C36.0129 61.4585 35.6002 60.4773 35.6002 60.4773L37.9492 59.1162Z" fill="url(#paint28_linear)"/>
<path d="M35.6001 60.4453C35.6001 60.4453 35.5366 61.6798 34.6795 62.1862C33.6637 62.7876 33.2511 61.8064 33.2511 61.8064L35.6001 60.4453Z" fill="url(#paint29_linear)"/>
<path d="M33.2515 61.7749C33.2515 61.7749 33.188 63.0093 32.3309 63.5158C31.3151 64.1172 30.9024 63.136 30.9024 63.136L33.2515 61.7749Z" fill="url(#paint30_linear)"/>
<path d="M30.9023 63.1357C30.9023 63.1357 30.8389 64.3702 29.9818 64.8766C28.966 65.478 28.5533 64.4968 28.5533 64.4968L30.9023 63.1357Z" fill="url(#paint31_linear)"/>
<path d="M53.6309 36.3579L53.2817 36.0098L36.8067 45.5054V50.4116L37.1559 50.7597L53.6309 36.3579Z" fill="#CFD6EC"/>
<path fill-rule="evenodd" clip-rule="evenodd" d="M53.2817 40.9159V36.0098L36.775 45.5054V50.4116L53.2817 40.9159ZM46.1772 43.5758C46.1712 43.5632 46.1712 43.5477 46.1712 43.5114C46.1712 43.5747 46.1712 43.6063 46.2029 43.6063C46.1894 43.5929 46.1816 43.5851 46.1772 43.5758ZM46.2029 43.6063C46.2029 43.6259 46.215 43.6213 46.2318 43.6149C46.2421 43.6109 46.2543 43.6063 46.2664 43.6063H46.2029ZM49.6312 41.6439C49.6135 41.6527 49.5982 41.6616 49.5847 41.6697C49.6025 41.6634 49.6191 41.6559 49.6312 41.6439ZM49.5847 41.6697L49.5677 41.6755C49.5439 41.6834 49.5201 41.6913 49.5042 41.7072C49.5239 41.7072 49.5435 41.6951 49.5706 41.6784L49.5847 41.6697ZM49.3178 40.633L49.3178 40.633C49.3493 40.6089 49.3869 40.5802 49.409 40.536C49.3647 40.5581 49.3359 40.5956 49.3118 40.627C49.3013 40.6406 49.2916 40.6531 49.282 40.6627C49.2916 40.6531 49.3042 40.6435 49.3178 40.633ZM49.0598 40.9159C49.1233 40.8209 49.1868 40.726 49.282 40.6627C49.1868 40.7576 49.1233 40.8209 49.0598 40.9159ZM49.5995 40.3461C49.7264 40.2195 49.7899 40.1246 49.8534 40.0296L49.8534 40.0296C49.8217 40.1562 49.7264 40.2512 49.5995 40.3461ZM49.8217 39.175C49.9169 39.1433 50.0121 39.1433 50.0756 39.175H49.8217Z" fill="#BBC5E4"/>
<path d="M41.0288 45.1886C40.6796 45.3785 40.4891 45.5684 40.4891 45.9799C40.4891 46.3281 40.7113 46.3281 40.997 46.1698L41.251 46.0116V45.062L41.0288 45.1886Z" fill="url(#paint32_linear)"/>
<path fill-rule="evenodd" clip-rule="evenodd" d="M42.838 45.0621C42.838 44.0492 43.2824 43.4162 43.8221 43.0996C44.33 42.8464 44.9014 42.8781 44.9014 43.8593C44.9014 44.8089 44.5204 45.5052 43.8856 45.8534C43.2507 46.2016 42.838 45.98 42.838 45.0621ZM43.2824 44.8405C43.2824 45.3153 43.4094 45.7268 43.8538 45.4735C44.3617 45.1887 44.457 44.5873 44.457 44.1125C44.457 43.6377 44.2982 43.2579 43.8538 43.5111C43.3777 43.796 43.2824 44.429 43.2824 44.8405Z" fill="#F1F1FF"/>
<path d="M43.8539 43.511C43.3777 43.7959 43.2825 44.429 43.2825 44.8404C43.2825 45.3152 43.4095 45.7267 43.8539 45.4735C44.3618 45.1886 44.457 44.5872 44.457 44.1124C44.457 43.6693 44.2983 43.2578 43.8539 43.511Z" fill="url(#paint33_linear)"/>
<path d="M49.8214 39.6499C49.5992 39.7765 49.377 39.9664 49.1548 40.188V40.7893L49.504 40.5994V40.3779C49.504 40.3146 49.504 40.2513 49.5675 40.188C49.631 40.1246 49.7262 40.0613 49.7897 40.0297C50.0119 39.9031 50.1706 39.9031 50.1706 40.1563C50.1706 40.4095 49.9801 40.5994 49.6944 40.8527C49.377 41.1692 49.0278 41.5173 49.0278 42.0238C49.0278 42.5619 49.4087 42.6252 49.8849 42.372C50.1706 42.2137 50.3928 42.0238 50.5833 41.8022V41.1692L50.2341 41.3591V41.6123C50.2341 41.6756 50.2341 41.7389 50.1706 41.8022C50.1071 41.8655 50.0119 41.9288 49.9166 41.9921C49.6944 42.1187 49.504 42.1504 49.504 41.8339C49.504 41.5807 49.6944 41.3907 49.9484 41.1692C50.2976 40.8527 50.615 40.5045 50.615 39.998C50.6468 39.4916 50.3293 39.3966 49.8214 39.6499Z" fill="#F1F1FF"/>
<path d="M45.8536 42.0238V42.3403L45.9806 42.277C46.0441 42.2454 46.0758 42.2454 46.0758 42.3403V44.2078L45.8854 44.3344V44.6826L46.7424 44.1762V43.8596L46.6155 43.923C46.552 43.9546 46.5202 43.9546 46.5202 43.8596V43.1633L47.5043 42.5936V43.4165L47.3138 43.5431V43.8913L48.1709 43.3849V43.0683L48.0439 43.1316C47.9804 43.1633 47.9487 43.1633 47.9487 43.0683V41.2009L48.1392 41.0742V40.7261L47.2821 41.2325V41.549L47.4091 41.4857C47.4725 41.4541 47.5043 41.4541 47.5043 41.549V42.1821L46.5202 42.7518V42.0238L46.7107 41.8972V41.549L45.8536 42.0238Z" fill="#F1F1FF"/>
<path fill-rule="evenodd" clip-rule="evenodd" d="M41.2191 46.4231L40.9334 46.5814C40.3938 46.8979 40.0129 46.8029 39.9811 46.2332C39.9811 45.6951 40.2986 45.2203 40.8065 44.9355L41.8223 44.3657V44.7139L41.6318 44.8405V46.708C41.6318 46.8029 41.6635 46.8029 41.727 46.7713L41.854 46.708V47.0245L40.87 47.5943V47.2461L41.2191 47.0245V46.4231ZM41.2191 46.0116V45.0621L40.9969 45.1887C40.6795 45.3786 40.4573 45.5685 40.4573 45.98C40.4573 46.3598 40.6477 46.3598 40.9652 46.1699L41.2191 46.0116Z" fill="#F1F1FF"/>
<path fill-rule="evenodd" clip-rule="evenodd" d="M53.6309 36.3579L37.1242 45.8536V50.7597L53.6309 41.264V36.3579ZM45.8537 42.3402V42.0237L46.7107 41.5172V41.8654L46.5203 41.992V42.72L47.5043 42.1503V41.5172C47.5043 41.4223 47.4726 41.4223 47.4091 41.4539L47.2821 41.5172V41.2007L48.1392 40.6943V41.0424L47.9487 41.1691V43.0365C47.9487 43.1315 47.9805 43.1315 48.044 43.0998L48.171 43.0365V43.3531L47.3139 43.8595V43.5113L47.5043 43.3847V42.5618L46.5203 43.1315V43.8278C46.5203 43.9228 46.552 43.9228 46.6155 43.8912L46.7425 43.8278V44.1444L45.8854 44.6508V44.3026L46.0759 44.176V42.3085C46.0759 42.2136 46.0441 42.2136 45.9806 42.2452L45.8537 42.3402ZM42.838 45.0939C42.838 46.0119 43.2824 46.2334 43.8856 45.8852C44.5204 45.5054 44.9014 44.8091 44.9014 43.9228C44.8696 42.8783 44.33 42.8466 43.8221 43.1315C43.3142 43.4164 42.838 44.0811 42.838 45.0939ZM40.9334 46.5816C40.3938 46.8981 40.0128 46.8032 40.0128 46.2018C40.0128 45.6637 40.3303 45.1889 40.8382 44.904L41.854 44.3343V44.6825L41.6635 44.8091V46.6766C41.6635 46.7715 41.6952 46.7715 41.7587 46.7399L41.8857 46.6766V46.9931L40.9017 47.5628V47.2146L41.2508 46.9931V46.3917L40.9334 46.5816ZM49.0915 42.0553C49.0915 42.5934 49.4724 42.6884 49.9486 42.4035C50.2025 42.2452 50.4248 42.0553 50.6787 41.8021V41.1691L50.3295 41.359V41.6122C50.3295 41.7071 50.3295 41.7388 50.266 41.8021C50.2025 41.8654 50.1073 41.9287 50.0121 41.992C49.7899 42.1186 49.5994 42.1503 49.5994 41.8338C49.5994 41.5805 49.7899 41.3906 50.0438 41.1691C50.393 40.8525 50.7104 40.5044 50.7104 39.9979C50.7104 39.5231 50.3613 39.3965 49.8851 39.6814C49.6629 39.808 49.4407 39.9979 49.2185 40.2195V40.8209L49.5677 40.631V40.4094C49.5677 40.3144 49.5677 40.2828 49.6312 40.2195C49.6946 40.1562 49.7899 40.0929 49.8534 40.0612C50.0756 39.9346 50.2343 39.9346 50.2343 40.1878C50.2343 40.4152 50.0551 40.5915 49.8347 40.8085C49.8097 40.8331 49.7841 40.8583 49.7581 40.8842C49.4407 41.1691 49.0915 41.5489 49.0915 42.0553Z" fill="url(#paint34_linear)"/>
<defs>
<linearGradient id="paint0_linear" x1="1.10105" y1="-38.3441" x2="51.6525" y2="-38.3441" gradientUnits="userSpaceOnUse">
<stop stop-color="#F6F8FB"/>
<stop offset="1" stop-color="#99A7D8"/>
</linearGradient>
<linearGradient id="paint1_linear" x1="17.7854" y1="-69.2476" x2="124.54" y2="-69.2476" gradientUnits="userSpaceOnUse">
<stop stop-color="#F6F8FB"/>
<stop offset="1" stop-color="#99A7D8"/>
</linearGradient>
<linearGradient id="paint2_linear" x1="39.4314" y1="25.9476" x2="38.054" y2="25.9476" gradientUnits="userSpaceOnUse">
<stop stop-color="#CE9F55"/>
<stop offset="1" stop-color="#DCBC81"/>
</linearGradient>
<linearGradient id="paint3_linear" x1="50.3084" y1="18.98" x2="48.944" y2="18.98" gradientUnits="userSpaceOnUse">
<stop stop-color="#CE9F55"/>
<stop offset="1" stop-color="#DCBC81"/>
</linearGradient>
<linearGradient id="paint4_linear" x1="47.7133" y1="91.5346" x2="11.1633" y2="145.791" gradientUnits="userSpaceOnUse">
<stop stop-color="#D3DAED"/>
<stop offset="1" stop-color="#99A7D8"/>
</linearGradient>
<linearGradient id="paint5_linear" x1="66.7188" y1="153.735" x2="24.4583" y2="154.726" gradientUnits="userSpaceOnUse">
<stop stop-color="#D3DAED"/>
<stop offset="1" stop-color="#99A7D8"/>
</linearGradient>
<linearGradient id="paint6_linear" x1="55.4498" y1="162.11" x2="13.1884" y2="163.084" gradientUnits="userSpaceOnUse">
<stop stop-color="#D3DAED"/>
<stop offset="1" stop-color="#99A7D8"/>
</linearGradient>
<linearGradient id="paint7_linear" x1="46.5593" y1="97.9487" x2="34.3568" y2="111.259" gradientUnits="userSpaceOnUse">
<stop stop-color="#FBFCFD"/>
<stop offset="1" stop-color="#9BA9D9"/>
</linearGradient>
<linearGradient id="paint8_linear" x1="66.1682" y1="44.361" x2="59.1202" y2="44.361" gradientUnits="userSpaceOnUse">
<stop stop-color="#CE9F55"/>
<stop offset="1" stop-color="#DCBC81"/>
</linearGradient>
<linearGradient id="paint9_linear" x1="61.4699" y1="47.0514" x2="54.4219" y2="47.0514" gradientUnits="userSpaceOnUse">
<stop stop-color="#CE9F55"/>
<stop offset="1" stop-color="#DCBC81"/>
</linearGradient>
<linearGradient id="paint10_linear" x1="56.7722" y1="49.7419" x2="49.6924" y2="49.7419" gradientUnits="userSpaceOnUse">
<stop stop-color="#CE9F55"/>
<stop offset="1" stop-color="#DCBC81"/>
</linearGradient>
<linearGradient id="paint11_linear" x1="52.0422" y1="52.4323" x2="44.9942" y2="52.4323" gradientUnits="userSpaceOnUse">
<stop stop-color="#CE9F55"/>
<stop offset="1" stop-color="#DCBC81"/>
</linearGradient>
<linearGradient id="paint12_linear" x1="47.344" y1="55.1227" x2="40.2959" y2="55.1227" gradientUnits="userSpaceOnUse">
<stop stop-color="#CE9F55"/>
<stop offset="1" stop-color="#DCBC81"/>
</linearGradient>
<linearGradient id="paint13_linear" x1="42.6462" y1="57.8132" x2="35.5982" y2="57.8132" gradientUnits="userSpaceOnUse">
<stop stop-color="#CE9F55"/>
<stop offset="1" stop-color="#DCBC81"/>
</linearGradient>
<linearGradient id="paint14_linear" x1="37.948" y1="60.5036" x2="30.8682" y2="60.5036" gradientUnits="userSpaceOnUse">
<stop stop-color="#CE9F55"/>
<stop offset="1" stop-color="#DCBC81"/>
</linearGradient>
<linearGradient id="paint15_linear" x1="33.2185" y1="63.194" x2="26.1704" y2="63.194" gradientUnits="userSpaceOnUse">
<stop stop-color="#CE9F55"/>
<stop offset="1" stop-color="#DCBC81"/>
</linearGradient>
<linearGradient id="paint16_linear" x1="66.169" y1="44.9391" x2="63.8197" y2="44.9391" gradientUnits="userSpaceOnUse">
<stop stop-color="#CE9F55"/>
<stop offset="1" stop-color="#DCBC81"/>
</linearGradient>
<linearGradient id="paint17_linear" x1="53.609" y1="59.2614" x2="53.609" y2="44.3662" gradientUnits="userSpaceOnUse">
<stop stop-color="#D3DAED"/>
<stop offset="1" stop-color="#99A7D8"/>
</linearGradient>
<linearGradient id="paint18_linear" x1="61.4708" y1="47.6295" x2="59.1214" y2="47.6295" gradientUnits="userSpaceOnUse">
<stop stop-color="#CE9F55"/>
<stop offset="1" stop-color="#DCBC81"/>
</linearGradient>
<linearGradient id="paint19_linear" x1="48.9107" y1="61.9518" x2="48.9107" y2="47.0566" gradientUnits="userSpaceOnUse">
<stop stop-color="#D3DAED"/>
<stop offset="1" stop-color="#99A7D8"/>
</linearGradient>
<linearGradient id="paint20_linear" x1="56.773" y1="50.32" x2="54.4237" y2="50.32" gradientUnits="userSpaceOnUse">
<stop stop-color="#CE9F55"/>
<stop offset="1" stop-color="#DCBC81"/>
</linearGradient>
<linearGradient id="paint21_linear" x1="44.213" y1="64.6105" x2="44.213" y2="49.7153" gradientUnits="userSpaceOnUse">
<stop stop-color="#D3DAED"/>
<stop offset="1" stop-color="#99A7D8"/>
</linearGradient>
<linearGradient id="paint22_linear" x1="52.0748" y1="53.0104" x2="49.7254" y2="53.0104" gradientUnits="userSpaceOnUse">
<stop stop-color="#CE9F55"/>
<stop offset="1" stop-color="#DCBC81"/>
</linearGradient>
<linearGradient id="paint23_linear" x1="39.5148" y1="67.301" x2="39.5148" y2="52.4058" gradientUnits="userSpaceOnUse">
<stop stop-color="#D3DAED"/>
<stop offset="1" stop-color="#99A7D8"/>
</linearGradient>
<linearGradient id="paint24_linear" x1="47.3765" y1="55.6691" x2="45.0272" y2="55.6691" gradientUnits="userSpaceOnUse">
<stop stop-color="#CE9F55"/>
<stop offset="1" stop-color="#DCBC81"/>
</linearGradient>
<linearGradient id="paint25_linear" x1="34.817" y1="69.9914" x2="34.817" y2="55.0962" gradientUnits="userSpaceOnUse">
<stop stop-color="#D3DAED"/>
<stop offset="1" stop-color="#99A7D8"/>
</linearGradient>
<linearGradient id="paint26_linear" x1="42.647" y1="58.3595" x2="40.2977" y2="58.3595" gradientUnits="userSpaceOnUse">
<stop stop-color="#CE9F55"/>
<stop offset="1" stop-color="#DCBC81"/>
</linearGradient>
<linearGradient id="paint27_linear" x1="30.087" y1="72.6501" x2="30.087" y2="57.7549" gradientUnits="userSpaceOnUse">
<stop stop-color="#D3DAED"/>
<stop offset="1" stop-color="#99A7D8"/>
</linearGradient>
<linearGradient id="paint28_linear" x1="37.9488" y1="61.0504" x2="35.5995" y2="61.0504" gradientUnits="userSpaceOnUse">
<stop stop-color="#CE9F55"/>
<stop offset="1" stop-color="#DCBC81"/>
</linearGradient>
<linearGradient id="paint29_linear" x1="25.3888" y1="75.3405" x2="25.3888" y2="60.4453" gradientUnits="userSpaceOnUse">
<stop stop-color="#D3DAED"/>
<stop offset="1" stop-color="#99A7D8"/>
</linearGradient>
<linearGradient id="paint30_linear" x1="33.2511" y1="63.7091" x2="30.9017" y2="63.7091" gradientUnits="userSpaceOnUse">
<stop stop-color="#CE9F55"/>
<stop offset="1" stop-color="#DCBC81"/>
</linearGradient>
<linearGradient id="paint31_linear" x1="20.691" y1="78.0309" x2="20.691" y2="63.1357" gradientUnits="userSpaceOnUse">
<stop stop-color="#D3DAED"/>
<stop offset="1" stop-color="#99A7D8"/>
</linearGradient>
<linearGradient id="paint32_linear" x1="41.2508" y1="46.2706" x2="40.4889" y2="46.2706" gradientUnits="userSpaceOnUse">
<stop stop-color="#CE9F55"/>
<stop offset="1" stop-color="#DCBC81"/>
</linearGradient>
<linearGradient id="paint33_linear" x1="44.4568" y1="45.5488" x2="43.2822" y2="45.5488" gradientUnits="userSpaceOnUse">
<stop stop-color="#CE9F55"/>
<stop offset="1" stop-color="#DCBC81"/>
</linearGradient>
<linearGradient id="paint34_linear" x1="53.628" y1="50.747" x2="37.119" y2="50.747" gradientUnits="userSpaceOnUse">
<stop stop-color="#CE9F55"/>
<stop offset="1" stop-color="#DCBC81"/>
</linearGradient>
</defs>
</svg>
