<svg width="97" height="117" viewBox="0 0 97 117" fill="none" xmlns="http://www.w3.org/2000/svg">
<path opacity="0.6" fill-rule="evenodd" clip-rule="evenodd" d="M93.8908 94.3841L94.7081 93.9166L88.5196 90.4108L36.209 71.4795L26.6343 71.8301L0.595703 86.905L49.6369 115.185H58.1608V113.666H60.7296L60.8463 113.549H58.044V112.264H63.0649L63.1816 112.147H57.9272V110.861H65.6337L65.7505 110.744H58.1608V110.628L60.2625 109.459H67.969L68.0858 109.342H60.3793L62.5978 108.057H70.3043L70.4211 107.94H62.7146L64.9331 106.654H65.2834L68.6696 104.668H68.9375L65.7505 106.537H65.9497L65.7505 106.654H72.6396L72.7564 106.537H65.9497L69.1367 104.668H68.9375L69.1367 104.551H68.7864L72.4061 102.447H72.672L69.2534 104.434H69.4545L69.2534 104.551H76.1425V104.434H69.4545L72.8731 102.447H72.672L72.8731 102.331H79.879L79.9958 102.214H72.4061L74.6246 100.928H82.3311L82.4478 100.811H74.8581L77.0767 99.5259H84.7831L84.8999 99.409H77.3102L79.5287 98.1236H87.2352L87.352 98.0067H79.7622L81.9808 96.7213H89.6873L89.804 96.6044H82.2143L84.4328 95.3189H92.1393L92.2561 95.2021H84.6664L86.5346 94.1503L93.8908 94.3841Z" fill="#F6F8FB"/>
<path d="M14.7241 32.6816L51.2715 11.4131L61.3133 17.2561L24.7659 38.5246L14.7241 32.6816Z" fill="url(#paint0_linear)"/>
<path d="M24.7656 38.5249L61.313 17.2563L57.5766 72.5311L21.2627 93.9165L24.7656 38.5249Z" fill="#948A72"/>
<path d="M27.9185 40.2775L24.7658 95.9028L20.9126 93.6825L23.9485 38.0571L27.9185 40.2775Z" fill="url(#paint1_linear)"/>
<path opacity="0.6" d="M24.7656 38.5245L61.1962 17.1392L65.0495 19.3595L28.6189 40.7449L24.7656 38.5245Z" fill="url(#paint2_linear)"/>
<path d="M14.724 32.6816L24.7657 38.5246L21.2628 93.9163L8.06836 86.2035L14.724 32.6816Z" fill="url(#paint3_linear)"/>
<path d="M37.3764 29.877L29.3196 25.2026L16.709 32.5648L24.7658 37.1224L37.3764 29.877Z" fill="url(#paint4_linear)"/>
<path d="M29.7865 26.8384L29.3194 25.7866L17.8765 32.4476L18.9273 33.0319L29.7865 26.8384Z" fill="url(#paint5_linear)"/>
<path opacity="0.5" d="M36.2085 29.877L29.3194 25.9038L17.9932 32.5648L24.8823 36.5381L36.2085 29.877Z" fill="url(#paint6_linear)"/>
<path d="M56.5259 20.0609L56.4091 19.944V18.7754H56.5259V20.0609Z" fill="#515050"/>
<path d="M54.0737 21.4632L53.957 21.3463V20.1777H54.0737V21.4632Z" fill="#515050"/>
<path d="M54.0738 20.0612H53.957L56.5259 18.542L56.6426 18.6589L54.0738 20.0612Z" fill="#515050"/>
<path d="M51.6216 22.8655L51.5048 22.7487V21.5801H51.6216V22.8655Z" fill="#515050"/>
<path d="M51.6216 21.4634H51.5049L53.9569 20.061H54.0737L51.6216 21.4634Z" fill="#515050"/>
<path d="M49.1699 24.2679H49.0532V22.9824L49.1699 23.0993V24.2679Z" fill="#515050"/>
<path d="M49.2867 22.8657H49.1699L51.5052 21.4634H51.622L49.2867 22.8657Z" fill="#515050"/>
<path d="M46.7178 25.6702H46.601V24.3848L46.7178 24.5016V25.6702Z" fill="#515050"/>
<path d="M46.8345 24.268H46.7178L49.1698 22.8657H49.2866L46.8345 24.268Z" fill="#515050"/>
<path d="M44.2656 27.0726H44.1489V25.7871L44.2656 25.904V27.0726Z" fill="#515050"/>
<path d="M44.3824 25.6704H44.2656L46.7177 24.2681H46.8345L44.3824 25.6704Z" fill="#515050"/>
<path d="M41.9302 28.4749H41.8134V27.1895L41.9302 27.3063V28.4749Z" fill="#515050"/>
<path d="M41.9302 27.1896L41.8135 27.0727L44.2655 25.6704H44.3823L41.9302 27.1896Z" fill="#515050"/>
<path d="M39.478 29.8773H39.3613V28.5918L39.478 28.7087V29.8773Z" fill="#515050"/>
<path d="M39.4781 28.5919L39.3613 28.4751L41.8134 27.0728L41.9302 27.1896L39.4781 28.5919Z" fill="#515050"/>
<path d="M37.0264 31.2796H36.9096V29.9941L37.0264 30.111V31.2796Z" fill="#515050"/>
<path d="M34.5742 32.7988L34.4575 32.6819V31.3965L34.5742 31.5133V32.7988Z" fill="#515050"/>
<path d="M34.5743 31.3966L34.4575 31.2797L39.3616 28.4751L39.4784 28.592L34.5743 31.3966Z" fill="#515050"/>
<path d="M32.1221 34.2011L32.0053 34.0843V32.7988L32.1221 32.9157V34.2011Z" fill="#515050"/>
<path d="M32.1221 32.799L32.0054 32.6821L34.4574 31.2798L34.5742 31.3966L32.1221 32.799Z" fill="#515050"/>
<path d="M29.6699 35.6033L29.5532 35.4865V34.3179H29.6699V35.6033Z" fill="#515050"/>
<path d="M29.67 34.2008L29.5532 34.084L32.0053 32.6816L32.122 32.7985L29.67 34.2008Z" fill="#515050"/>
<path d="M27.2178 37.0057L27.101 36.8888V35.7202H27.2178V37.0057Z" fill="#515050"/>
<path d="M27.2178 35.6032L27.1011 35.4863L29.5531 34.084L29.6699 34.2008L27.2178 35.6032Z" fill="#515050"/>
<path opacity="0.6" d="M51.7383 21.5801V22.7487L54.0736 21.4632V20.1777L51.7383 21.5801Z" fill="#2B6F7A"/>
<path opacity="0.6" d="M49.2866 22.9824V24.151L51.6219 22.8655V21.5801L49.2866 22.9824Z" fill="#2B6F7A"/>
<path opacity="0.6" d="M46.8345 24.3847V25.5533L49.1698 24.2679V22.9824L46.8345 24.3847Z" fill="#2B6F7A"/>
<path opacity="0.6" d="M44.3823 25.7871V26.9557L46.7176 25.6702V24.3848L44.3823 25.7871Z" fill="#2B6F7A"/>
<path opacity="0.6" d="M41.9302 27.1894V28.358L44.2655 27.0726V25.7871L41.9302 27.1894Z" fill="#2B6F7A"/>
<path opacity="0.6" d="M39.478 28.5918V29.8772L41.8133 28.4749V27.1895L39.478 28.5918Z" fill="#2B6F7A"/>
<path opacity="0.6" d="M37.0264 29.994V31.2794L39.3617 29.8771V28.7085L37.0264 29.994Z" fill="#2B6F7A"/>
<path opacity="0.6" d="M34.6909 31.3963V32.6818L36.9094 31.2794V30.1108L34.6909 31.3963Z" fill="#2B6F7A"/>
<path opacity="0.6" d="M32.2388 32.7986V34.0841L34.4573 32.6818V31.5132L32.2388 32.7986Z" fill="#2B6F7A"/>
<path opacity="0.6" d="M29.7866 34.201V35.4864L32.1219 34.0841V32.9155L29.7866 34.201Z" fill="#2B6F7A"/>
<path opacity="0.6" d="M27.3345 35.6033V36.8888L29.6698 35.4865V34.3179L27.3345 35.6033Z" fill="#2B6F7A"/>
<path opacity="0.6" d="M24.8828 37.0057V38.2911L27.2181 37.0057V35.7202L24.8828 37.0057Z" fill="url(#paint7_linear)"/>
<path d="M24.7656 38.4082L24.6489 38.2913V37.0059H24.7656V38.4082Z" fill="#515050"/>
<path opacity="0.6" d="M54.1904 20.0609V21.3463L56.5257 20.0609V18.7754L54.1904 20.0609Z" fill="#2B6F7A"/>
<path d="M56.6424 18.6587V19.9442L56.5257 20.061V18.7756L54.1904 20.1779V21.3465L54.0736 21.4633V20.1779L51.7383 21.5802V22.7488L51.6215 22.8657V21.5802L49.2862 22.9825V24.268H49.1695V23.0994L46.8342 24.3848V25.6703H46.7174V24.5017L44.3821 25.7872V27.0726H44.2653V25.904L41.9301 27.1895V28.4749V27.3063L39.5948 28.5918V29.8773H39.478V28.7087L37.1427 29.9941V31.2796H37.0259V30.111L34.6906 31.3964V32.6819L34.5739 32.7988V31.5133L32.2386 32.7988V34.0842L32.1218 34.2011V32.9156L29.7865 34.3179V35.4865L29.6697 35.6034V34.3179L27.3345 35.7203V36.8889L27.2177 37.0057V35.7203L24.8824 37.1226V38.2912L24.7656 38.408V37.0057L27.2177 35.6034L29.6697 34.2011L32.1218 32.7988L34.5739 31.3964L39.478 28.5918L41.9301 27.1895L44.3821 25.6703L46.8342 24.268L49.2862 22.8657L51.6215 21.4633L54.0736 20.061L56.6424 18.6587Z" fill="url(#paint8_linear)"/>
<path d="M24.7657 37.0055H24.6489L27.101 35.4863L27.2178 35.6032L24.7657 37.0055Z" fill="url(#paint9_linear)"/>
<path d="M46.7173 14.3348H46.6005V13.0493L46.7173 13.1662V14.3348Z" fill="#515050"/>
<path d="M44.2656 15.854L44.1489 15.7371V14.4517L44.2656 14.5685V15.854Z" fill="#515050"/>
<path d="M44.2656 14.4513V14.3344L46.7177 12.9321H46.8345L44.2656 14.4513Z" fill="#515050"/>
<path d="M41.8135 17.2563L41.6967 17.1395V15.854L41.8135 15.9709V17.2563Z" fill="#515050"/>
<path d="M41.9302 15.8537L41.8135 15.7368L44.2655 14.3345V14.4513L41.9302 15.8537Z" fill="#515050"/>
<path d="M39.3613 18.6585L39.2446 18.5416V17.373H39.3613V18.6585Z" fill="#515050"/>
<path d="M39.4781 17.256L39.3613 17.1391L41.8134 15.7368L41.9302 15.8537L39.4781 17.256Z" fill="#515050"/>
<path d="M37.0259 18.6583L36.9092 18.5415L39.3612 17.1392L39.478 17.256L37.0259 18.6583Z" fill="#515050"/>
<path d="M34.5737 21.4632L34.457 21.3463V20.1777H34.5737V21.4632Z" fill="#515050"/>
<path d="M34.5738 20.0607H34.457L36.9091 18.5415L37.0259 18.6584L34.5738 20.0607Z" fill="#515050"/>
<path d="M32.1221 22.8655L32.0053 22.7487V21.5801H32.1221V22.8655Z" fill="#515050"/>
<path d="M32.1216 21.4629H32.0049L34.4569 20.0605H34.5737L32.1216 21.4629Z" fill="#515050"/>
<path d="M29.6699 24.2679L29.5532 24.151V22.9824H29.6699V24.2679Z" fill="#515050"/>
<path d="M29.67 22.8652H29.5532L32.0053 21.4629H32.122L29.67 22.8652Z" fill="#515050"/>
<path d="M27.2178 25.6702H27.101V24.3848H27.2178V25.6702Z" fill="#515050"/>
<path d="M24.7656 27.0726H24.6489V25.7871L24.7656 25.904V27.0726Z" fill="#515050"/>
<path d="M24.7657 25.6699H24.6489L29.553 22.8652H29.6698L24.7657 25.6699Z" fill="url(#paint10_linear)"/>
<path d="M22.3135 28.4749H22.1967V27.1895L22.3135 27.3063V28.4749Z" fill="#515050"/>
<path d="M22.3135 27.0722H22.1968L24.6488 25.6699H24.7656L22.3135 27.0722Z" fill="url(#paint11_linear)"/>
<path d="M19.8613 29.8773H19.7446V28.5918L19.8613 28.7087V29.8773Z" fill="#515050"/>
<path d="M19.8614 28.5914L19.7446 28.4746L22.1967 27.0723H22.3135L19.8614 28.5914Z" fill="url(#paint12_linear)"/>
<path d="M17.4097 31.2791H17.2929V29.9937L17.4097 30.1105V31.2791Z" fill="#515050"/>
<path d="M17.4097 29.9938V29.8769L19.745 28.4746L19.8617 28.5915L17.4097 29.9938Z" fill="url(#paint13_linear)"/>
<path opacity="0.6" d="M41.9302 15.8538V17.1393L44.2655 15.737V14.5684L41.9302 15.8538Z" fill="url(#paint14_linear)"/>
<path opacity="0.6" d="M39.478 17.2562V18.5416L41.8133 17.1393V15.9707L39.478 17.2562Z" fill="url(#paint15_linear)"/>
<path opacity="0.6" d="M37.0259 18.6585V19.944L39.3612 18.6585V17.373L37.0259 18.6585Z" fill="url(#paint16_linear)"/>
<path opacity="0.6" d="M34.5737 20.0609V21.3463L36.909 20.0609V18.7754L34.5737 20.0609Z" fill="url(#paint17_linear)"/>
<path opacity="0.6" d="M32.1221 21.4632V22.7487L34.4574 21.4632V20.1777L32.1221 21.4632Z" fill="url(#paint18_linear)"/>
<path opacity="0.6" d="M29.7866 22.9824V24.151L32.0052 22.8655V21.5801L29.7866 22.9824Z" fill="url(#paint19_linear)"/>
<path opacity="0.6" d="M27.3345 24.3847V25.5533L29.553 24.2679V22.9824L27.3345 24.3847Z" fill="url(#paint20_linear)"/>
<path opacity="0.6" d="M24.8823 25.7871V26.9557L27.2176 25.6702V24.3848L24.8823 25.7871Z" fill="url(#paint21_linear)"/>
<path opacity="0.6" d="M22.4302 27.1894V28.358L24.7655 27.0726V25.7871L22.4302 27.1894Z" fill="url(#paint22_linear)"/>
<path opacity="0.6" d="M19.9785 28.5918V29.7604L22.3138 28.4749V27.1895L19.9785 28.5918Z" fill="url(#paint23_linear)"/>
<path opacity="0.6" d="M17.5264 29.9941V31.2796L19.8617 29.8773V28.5918L17.5264 29.9941Z" fill="url(#paint24_linear)"/>
<path opacity="0.6" d="M15.0742 31.3963V32.6818L17.4095 31.2794V30.1108L15.0742 31.3963Z" fill="url(#paint25_linear)"/>
<path d="M15.0742 32.6816H14.9575V31.2793L15.0742 31.3962V32.6816Z" fill="#515050"/>
<path opacity="0.6" d="M44.3823 14.4515V15.7369L46.7176 14.3346V13.166L44.3823 14.4515Z" fill="url(#paint26_linear)"/>
<path d="M46.8342 12.9321V14.3344H46.7175V13.1658L44.3822 14.4513V15.7368L44.2654 15.8536V14.5682L41.9301 15.8536V17.1391L41.8134 17.2559V15.9705L39.4781 17.3728V18.5414L39.3613 18.6583V17.3728L37.026 18.7751V19.9437L36.9092 20.0606V18.7751L34.6907 20.1774V21.346L34.5739 21.4629V20.1774L32.2386 21.5798V22.7484L32.1219 22.8652V21.5798L29.7866 22.9821V24.1507L29.6698 24.2675V22.9821L27.3345 24.3844V25.6699H27.2178V24.3844L24.8825 25.7867V27.0722H24.7657V25.9036L22.4304 27.189V28.4745H22.3136V27.3059L19.9783 28.5914V29.8768H19.8616V28.7082L17.5263 29.9937V31.2791H17.4095V30.1105L15.0742 31.396V32.6815V31.396L17.4095 29.9937L19.8616 28.5914L22.3136 27.0722L24.7657 25.6699L29.6698 22.8652L32.1219 21.4629L34.5739 20.0606L37.026 18.6583L39.4781 17.2559L41.9301 15.8536L44.2654 14.4513L46.8342 12.9321Z" fill="url(#paint27_linear)"/>
<path d="M15.0743 31.3961L14.9575 31.2793L17.4096 29.877V29.9938L15.0743 31.3961Z" fill="url(#paint28_linear)"/>
<path d="M15.0742 32.7986L15.1909 32.6818V31.5132H15.0742V32.7986Z" fill="#515050"/>
<path d="M17.4096 32.7985H17.5264L14.9576 31.2793L14.8408 31.3962L17.4096 32.7985Z" fill="url(#paint29_linear)"/>
<path d="M19.8618 35.6033L19.9785 35.4865V34.3179H19.8618V35.6033Z" fill="url(#paint30_linear)"/>
<path d="M19.8617 34.2011H19.9785L17.5264 32.7988H17.4097L19.8617 34.2011Z" fill="url(#paint31_linear)"/>
<path d="M22.3134 37.0057H22.4302V35.7202H22.3134V37.0057Z" fill="url(#paint32_linear)"/>
<path d="M22.3134 35.6035H22.4302L19.9781 34.2012H19.8613L22.3134 35.6035Z" fill="url(#paint33_linear)"/>
<path d="M24.7656 38.4077L24.8823 38.2908V37.0054H24.7656V38.4077Z" fill="url(#paint34_linear)"/>
<g opacity="0.6">
<path d="M24.766 37.1225V38.2911L22.4307 37.0057V35.7202L24.766 37.1225Z" fill="url(#paint35_linear)"/>
<path d="M22.3138 35.6033V36.8888L19.9785 35.6033V34.3179L22.3138 35.6033Z" fill="url(#paint36_linear)"/>
<path d="M19.8617 34.201V35.4864L17.5264 34.201V32.9155L19.8617 34.201Z" fill="url(#paint37_linear)"/>
<path d="M17.4095 32.7986V34.0841L15.0742 32.7986V31.5132L17.4095 32.7986Z" fill="url(#paint38_linear)"/>
</g>
<path d="M22.3137 35.6034L19.8616 34.2011L17.4096 32.7988L14.9575 31.3965V32.6819L15.0743 32.7988V31.5133L17.4096 32.9157V34.0843L17.5263 34.2011V32.9157L19.7449 34.318V35.4866L19.8616 35.6034V34.318L22.1969 35.7203V36.8889L22.3137 37.0058V35.7203L24.649 37.1226V38.4081H24.7658V37.0058L22.3137 35.6034Z" fill="url(#paint39_linear)"/>
<path d="M24.7655 37.0058H24.8823L22.4302 35.6035H22.3135L24.7655 37.0058Z" fill="url(#paint40_linear)"/>
<path d="M44.1489 32.0971L80.6963 10.8286L80.5795 85.8527L44.2657 107.121L44.1489 32.0971Z" fill="url(#paint41_linear)"/>
<path d="M27.6851 22.6318L64.2324 1.36328L80.6963 10.8289L44.1489 32.0975L27.6851 22.6318Z" fill="url(#paint42_linear)"/>
<path opacity="0.7" d="M84.5496 73.6998L84.4328 88.0736L80.5796 85.8533V71.4795L84.5496 73.6998Z" fill="url(#paint43_linear)"/>
<path opacity="0.6" d="M44.2656 92.748L80.5795 71.4795L84.5495 73.6998L48.1189 95.0852L44.2656 92.748Z" fill="url(#paint44_linear)"/>
<path opacity="0.8" d="M48.1189 95.0851V109.342L44.2656 107.122V92.8647L48.1189 95.0851Z" fill="url(#paint45_linear)"/>
<path d="M23.7148 95.3188L27.6848 22.6318L44.1487 32.0975L44.2655 107.122L23.7148 95.3188Z" fill="url(#paint46_linear)"/>
<path d="M52.0889 97.3051L88.5196 76.0366V90.4104L51.9722 111.679L52.0889 97.3051Z" fill="url(#paint47_linear)"/>
<path d="M54.8911 99.6423L85.717 81.7627V92.1632L54.8911 110.043V99.6423Z" fill="url(#paint48_linear)"/>
<path opacity="0.5" fill-rule="evenodd" clip-rule="evenodd" d="M83.6153 88.073L85.7171 86.9044L85.9506 87.1381L83.8488 88.3067V93.3317L83.7321 93.4486V88.4236L81.5135 89.709V94.734L81.3968 94.8509V89.8259L79.1782 91.1114V96.1363L79.0615 96.2532V91.2282L76.8429 92.5137V97.5387L76.7262 97.6555V92.6305L74.5076 93.916V98.8241L74.3909 98.941V94.9677L70.8879 96.9544V100.928L70.7712 101.044V97.0712L67.2682 99.0578V103.031L67.1514 103.148V98.8533L73.807 94.9677V94.0329C73.1335 94.4373 71.1781 95.5804 69.4867 96.5652V91.4619L69.6035 91.3451V96.4869L71.822 95.2015V90.0596L71.9388 89.9428V95.0846L74.1573 93.7991V88.6573L74.2741 88.5404V93.6823L76.4926 92.3968V87.255L76.6094 87.1381V92.28L78.8279 90.9945V85.8527L78.9447 85.7358V90.8776L81.1632 89.5922V84.4503L81.28 84.3335V89.4753L83.4985 88.1899V83.048L83.6153 82.9312V88.073ZM67.2682 97.8538C67.787 97.5537 68.6006 97.0812 69.4867 96.5652V96.6038L67.2682 97.8892V97.8538ZM67.2682 97.8538C67.0605 97.9739 66.9001 98.0664 66.8012 98.123V98.2091L64.9329 99.2916V104.433L64.8162 104.55V99.4084L62.5976 100.694V105.836L62.4809 105.953V100.811L60.2623 102.096V107.238L60.1456 107.355V102.213L57.927 103.499V108.64L57.8103 108.757V103.615L55.7085 104.784V104.667L57.8103 103.499V103.382V98.3567L57.927 98.2398V103.265V103.382L60.1456 102.096V101.979V96.9544L60.2623 96.8375V101.862V101.979L62.4809 100.694V100.577V95.552L62.5976 95.4352V100.46V100.577L64.8162 99.2916V94.2666L64.9329 94.1497V99.1747L67.1514 97.8892V92.8643L67.2682 92.7474V97.8538ZM66.8012 98.2091L67.1514 98.0061V98.8533L66.8012 99.0578V98.2091Z" fill="#2C737E"/>
<path d="M45.9004 93.7993L82.4478 72.5308L88.5195 76.0366L52.0889 97.3051L45.9004 93.7993Z" fill="#F2F5F9"/>
<path d="M52.0889 97.3051L51.9722 111.679L45.9004 108.056V93.7993L52.0889 97.3051Z" fill="#F2F5F9"/>
<path d="M94.4746 79.4258L93.6572 79.0752V93.3321L94.4746 93.7996V79.4258Z" fill="#A9A089"/>
<path opacity="0.8" d="M58.978 101.512L93.8907 81.1787V94.5008L58.978 114.834V101.512Z" fill="url(#paint49_linear)"/>
<path opacity="0.6" d="M52.0889 97.3051L88.6363 76.0366L94.708 79.6593L58.1606 100.928L52.0889 97.3051Z" fill="url(#paint50_linear)"/>
<path opacity="0.8" d="M58.1606 100.928V115.185L52.0889 111.679V97.3052L58.1606 100.928Z" fill="url(#paint51_linear)"/>
<path d="M58.1606 100.928V115.185L58.978 114.717V101.512L93.8907 81.1784V94.3835L94.708 93.9161V79.6592L58.1606 100.928Z" fill="url(#paint52_linear)"/>
<path d="M57.1094 100.227L93.6568 78.9585L94.7076 79.6597L58.1603 100.928L57.1094 100.227Z" fill="url(#paint53_linear)"/>
<path d="M58.1603 100.928V115.185L57.1094 114.601V100.227L58.1603 100.928Z" fill="url(#paint54_linear)"/>
<path d="M15.3077 35.8369L9.00244 86.7879L20.4454 93.332V38.8753L15.3077 35.8369Z" fill="url(#paint55_linear)"/>
<path d="M28.3853 22.5145L64.1153 1.71338L79.9953 10.9453L44.2653 31.7464L28.3853 22.5145Z" fill="#F2F5F9"/>
<path opacity="0.3" d="M64.1153 2.64826L79.1779 11.4128L79.9953 10.9453L64.1153 1.71338L28.3853 22.5145L29.2026 22.9819L64.1153 2.64826Z" fill="url(#paint56_linear)"/>
<path opacity="0.4" d="M64.1152 2.64826L79.1779 11.4128L79.9952 10.9453L64.1152 1.71338V2.64826Z" fill="url(#paint57_linear)"/>
<path opacity="0.4" fill-rule="evenodd" clip-rule="evenodd" d="M71.1212 8.8418L76.1421 11.8802L75.9086 12.3476H74.6242L69.7201 9.54296L71.1212 8.8418ZM72.2889 13.6331H73.5733L73.8068 13.0488L68.7859 10.0104L67.3848 10.7116L72.2889 13.6331Z" fill="#DEE3F3"/>
<path d="M70.4204 8.8418V9.4261L71.5881 10.0104V9.54296L70.4204 8.8418Z" fill="#909193"/>
<path d="M71.5879 9.54296V10.0104L72.7555 9.4261V8.8418L71.5879 9.54296Z" fill="#C9C9C9"/>
<path d="M70.4204 8.84162L71.5881 9.54278L72.7557 8.84162L71.5881 8.25732L70.4204 8.84162Z" fill="#EAEAEA"/>
<path d="M71.8213 9.65967V10.1271L72.9889 10.8283V10.3608L71.8213 9.65967Z" fill="#909193"/>
<path d="M72.9893 10.3608V10.8283L74.1569 10.1271V9.65967L72.9893 10.3608Z" fill="#C9C9C9"/>
<path d="M71.8213 9.65966L72.9889 10.3608L74.1566 9.65966L72.9889 8.9585L71.8213 9.65966Z" fill="#EAEAEA"/>
<path d="M73.2231 10.478V10.9455L74.3908 11.6466V11.1792L73.2231 10.478Z" fill="#909193"/>
<path d="M74.3906 11.1792V11.6466L75.5583 10.9455V10.478L74.3906 11.1792Z" fill="#C9C9C9"/>
<path d="M73.2231 10.478L74.3908 11.1792L75.5584 10.478L74.3908 9.77686L73.2231 10.478Z" fill="#EAEAEA"/>
<path d="M74.624 11.2959V11.7633L75.7917 12.4645V11.9971L74.624 11.2959Z" fill="#909193"/>
<path d="M75.7915 11.9971V12.4645L76.9592 11.7633V11.2959L75.7915 11.9971Z" fill="#C9C9C9"/>
<path d="M74.624 11.2959L75.7917 11.997L76.9593 11.2959L75.7917 10.5947L74.624 11.2959Z" fill="#EAEAEA"/>
<path d="M68.3184 10.127V10.5944L69.486 11.2956V10.8281L68.3184 10.127Z" fill="#909193"/>
<path d="M69.4863 10.8281V11.2956L70.654 10.5944V10.127L69.4863 10.8281Z" fill="#C9C9C9"/>
<path d="M68.3184 10.1269L69.486 10.8281L70.6537 10.1269L69.486 9.42578L68.3184 10.1269Z" fill="#EAEAEA"/>
<path d="M69.7197 10.9448V11.4123L70.8874 12.1134V11.646L69.7197 10.9448Z" fill="#909193"/>
<path d="M70.8872 11.646V12.1134L72.0549 11.4123V10.9448L70.8872 11.646Z" fill="#C9C9C9"/>
<path d="M69.7197 10.9448L70.8874 11.646L72.055 10.9448L70.8874 10.2437L69.7197 10.9448Z" fill="#EAEAEA"/>
<path d="M71.1211 11.7632V12.2306L72.2887 12.9318V12.3475L71.1211 11.7632Z" fill="#909193"/>
<path d="M72.2886 12.3475V12.9318L73.4562 12.2306V11.7632L72.2886 12.3475Z" fill="#C9C9C9"/>
<path d="M71.1211 11.7632L72.2887 12.3475L73.4564 11.7632L72.2887 11.062L71.1211 11.7632Z" fill="#EAEAEA"/>
<path d="M72.0553 11.5295C71.9385 11.6463 71.9385 11.7632 72.0553 11.7632C72.172 11.8801 72.4056 11.8801 72.5223 11.7632C72.6391 11.6463 72.6391 11.5295 72.5223 11.5295C72.2888 11.5295 72.172 11.5295 72.0553 11.5295Z" fill="#EAEAEA"/>
<path d="M72.4053 12.5815V13.049L73.5729 13.6333V13.1658L72.4053 12.5815Z" fill="#909193"/>
<path d="M73.5732 13.1658V13.6333L74.7409 13.049V12.5815L73.5732 13.1658Z" fill="#C9C9C9"/>
<path d="M72.4053 12.5815L73.5729 13.1658L74.7406 12.5815L73.5729 11.8804L72.4053 12.5815Z" fill="#EAEAEA"/>
<path d="M73.3394 12.3478C73.2227 12.4647 73.2227 12.5816 73.3394 12.5816C73.4562 12.6984 73.6897 12.6984 73.8065 12.5816C73.9233 12.4647 73.9233 12.3478 73.8065 12.3478C73.6897 12.3478 73.4562 12.3478 73.3394 12.3478Z" fill="#EAEAEA"/>
<path fill-rule="evenodd" clip-rule="evenodd" d="M42.1637 25.5532L47.1845 28.5916L46.951 29.059H45.6666L40.7625 26.2544L42.1637 25.5532ZM43.4481 30.3445H44.7325L44.966 29.7602L39.9451 26.7218L38.5439 27.423L43.4481 30.3445Z" fill="#DEE3F3"/>
<path d="M41.5801 25.5532V26.1375L42.7477 26.7218V26.2544L41.5801 25.5532Z" fill="#909193"/>
<path d="M42.7476 26.2544V26.7218L43.9152 26.1375V25.5532L42.7476 26.2544Z" fill="#C9C9C9"/>
<path d="M41.5801 25.553L42.7477 26.2542L43.9154 25.553L42.7477 24.9688L41.5801 25.553Z" fill="#EAEAEA"/>
<path d="M42.5138 25.4362C42.397 25.5531 42.397 25.6699 42.5138 25.6699C42.6305 25.7868 42.8641 25.7868 42.9808 25.6699C43.0976 25.5531 43.0976 25.4362 42.9808 25.4362C42.7473 25.4362 42.6305 25.4362 42.5138 25.4362Z" fill="#EAEAEA"/>
<path d="M42.8643 26.3711V26.8385L44.0319 27.5397V27.0723L42.8643 26.3711Z" fill="#909193"/>
<path d="M44.0317 27.0723V27.5397L45.1994 26.8385V26.3711L44.0317 27.0723Z" fill="#C9C9C9"/>
<path d="M42.8643 26.3711L44.0319 27.0722L45.1996 26.3711L44.0319 25.6699L42.8643 26.3711Z" fill="#EAEAEA"/>
<path d="M43.7984 26.2545C43.6817 26.3713 43.6817 26.4882 43.7984 26.4882C43.9152 26.605 44.1487 26.605 44.2655 26.4882C44.3823 26.3713 44.3823 26.2545 44.2655 26.2545C44.1487 26.1376 43.9152 26.1376 43.7984 26.2545Z" fill="#EAEAEA"/>
<path d="M44.2656 27.189V27.6564L45.4333 28.3576V27.8901L44.2656 27.189Z" fill="#909193"/>
<path d="M45.4331 27.8901V28.3576L46.6008 27.6564V27.189L45.4331 27.8901Z" fill="#C9C9C9"/>
<path d="M44.2656 27.189L45.4333 27.8901L46.6009 27.189L45.4333 26.4878L44.2656 27.189Z" fill="#EAEAEA"/>
<path d="M45.6665 28.0073V28.4748L46.8342 29.1759V28.7085L45.6665 28.0073Z" fill="#909193"/>
<path d="M46.8345 28.7085V29.1759L48.0021 28.4748V28.0073L46.8345 28.7085Z" fill="#C9C9C9"/>
<path d="M45.6665 28.0073L46.8342 28.7085L48.0018 28.0073L46.8342 27.3062L45.6665 28.0073Z" fill="#EAEAEA"/>
<path d="M39.3613 26.8384V27.3058L40.529 28.007V27.5395L39.3613 26.8384Z" fill="#909193"/>
<path d="M40.5288 27.5395V28.007L41.6965 27.3058V26.8384L40.5288 27.5395Z" fill="#C9C9C9"/>
<path d="M39.3613 26.8384L40.529 27.5395L41.6966 26.8384L40.529 26.1372L39.3613 26.8384Z" fill="#EAEAEA"/>
<path d="M40.2955 26.7217C40.1787 26.8386 40.1787 26.9555 40.2955 26.9555C40.4123 27.0723 40.6458 27.0723 40.7626 26.9555C40.8793 26.8386 40.8793 26.7217 40.7626 26.7217C40.6458 26.6049 40.4123 26.6049 40.2955 26.7217Z" fill="#EAEAEA"/>
<path d="M40.7622 27.6562V28.1237L41.9299 28.8248V28.3574L40.7622 27.6562Z" fill="#909193"/>
<path d="M41.9297 28.3574V28.8248L43.0973 28.1237V27.6562L41.9297 28.3574Z" fill="#C9C9C9"/>
<path d="M40.7622 27.6562L41.9299 28.3574L43.0975 27.6562L41.9299 26.9551L40.7622 27.6562Z" fill="#EAEAEA"/>
<path d="M41.6964 27.5394C41.5796 27.6563 41.5796 27.7731 41.6964 27.7731C41.8131 27.7731 42.0467 27.89 42.1634 27.7731C42.2802 27.6563 42.2802 27.5394 42.1634 27.5394C42.0467 27.4225 41.8131 27.4225 41.6964 27.5394Z" fill="#EAEAEA"/>
<path d="M42.1636 28.4741V28.9416L43.3312 29.6427V29.0584L42.1636 28.4741Z" fill="#909193"/>
<path d="M43.3315 29.0584V29.6427L44.4992 28.9416V28.4741L43.3315 29.0584Z" fill="#C9C9C9"/>
<path d="M42.1636 28.4741L43.3312 29.0584L44.4989 28.4741L43.3312 27.7729L42.1636 28.4741Z" fill="#EAEAEA"/>
<path d="M43.0977 28.2404C42.981 28.3573 42.981 28.4741 43.0977 28.4741C43.2145 28.591 43.448 28.591 43.5648 28.4741C43.6816 28.3573 43.6816 28.2404 43.5648 28.2404C43.448 28.2404 43.2145 28.2404 43.0977 28.2404Z" fill="#EAEAEA"/>
<path d="M43.5645 29.2925V29.7599L44.7321 30.3442V29.8768L43.5645 29.2925Z" fill="#909193"/>
<path d="M44.7319 29.8768V30.3442L45.8996 29.7599V29.2925L44.7319 29.8768Z" fill="#C9C9C9"/>
<path d="M43.5645 29.2925L44.7321 29.8768L45.8997 29.2925L44.7321 28.5913L43.5645 29.2925Z" fill="#EAEAEA"/>
<path d="M44.4986 29.0588C44.3819 29.1756 44.3819 29.2925 44.4986 29.2925C44.6154 29.4094 44.8489 29.4094 44.9657 29.2925C45.0824 29.1756 45.0824 29.0588 44.9657 29.0588C44.7322 29.0588 44.6154 29.0588 44.4986 29.0588Z" fill="#EAEAEA"/>
<path d="M78.8276 71.5959L77.1929 72.6476V14.5682L78.8276 13.6333V71.5959Z" fill="url(#paint58_linear)"/>
<path d="M78.8276 71.5959L78.127 71.2453L77.1929 14.5682L78.8276 13.6333V71.5959Z" fill="url(#paint59_linear)"/>
<path d="M78.4773 71.4792V13.8672L77.1929 14.5683V72.1803L78.4773 71.4792Z" fill="url(#paint60_linear)"/>
<path opacity="0.7" fill-rule="evenodd" clip-rule="evenodd" d="M77.1929 17.6064V17.8402L78.4773 17.139V16.9053L77.1929 17.6064ZM77.1929 48.3406V48.5743L78.4773 47.8732V47.6395L77.1929 48.3406ZM77.1929 51.9633V51.7296L78.4773 51.0284V51.2621L77.1929 51.9633ZM78.4773 54.5342V54.3005L77.1929 55.0016V55.2354L78.4773 54.5342ZM77.1929 58.7411V58.5074L78.4773 57.8063V58.04L77.1929 58.7411ZM78.4773 68.2068L77.1929 69.0248V68.6743L78.4773 67.9731V68.2068ZM77.1929 44.8348V45.0685L78.4773 44.3674V44.1337L77.1929 44.8348ZM77.1929 65.519V65.2853L78.4773 64.5842V64.8179L77.1929 65.519ZM77.1929 61.8964V62.1301L78.4773 61.4289V61.1952L77.1929 61.8964ZM77.1929 24.618V24.3843L78.4773 23.6832V23.9169L77.1929 24.618ZM77.1929 20.9954V21.2291L78.4773 20.5279V20.2942L77.1929 20.9954ZM77.1929 41.6796V41.4459L78.4773 40.7447V40.9784L77.1929 41.6796ZM77.1929 27.8901V28.1238L78.4773 27.3058V27.0721L77.1929 27.8901ZM77.1929 38.2907V38.0569L78.4773 37.3558V37.5895L77.1929 38.2907ZM77.1929 31.2791V31.5128L78.4773 30.8116V30.5779L77.1929 31.2791ZM77.1929 34.9017V34.668L78.4773 33.9668V34.2006L77.1929 34.9017Z" fill="url(#paint61_linear)"/>
<path d="M76.0253 73.2316L74.3906 74.1665V16.2039L76.0253 15.269V73.2316Z" fill="url(#paint62_linear)"/>
<path d="M76.0253 73.2316L75.3247 72.881L74.3906 16.2039L76.0253 15.269V73.2316Z" fill="url(#paint63_linear)"/>
<path d="M75.675 72.9982V15.3862L74.3906 16.2043V73.8162L75.675 72.9982Z" fill="url(#paint64_linear)"/>
<path opacity="0.7" fill-rule="evenodd" clip-rule="evenodd" d="M74.3906 19.2427V19.4764L75.675 18.7752V18.5415L74.3906 19.2427ZM74.3906 49.86V50.0937L75.675 49.3925V49.1588L74.3906 49.86ZM74.3906 53.5995V53.3658L75.675 52.6646V52.8983L74.3906 53.5995ZM75.675 56.1704V55.9367L74.3906 56.6379V56.8716L75.675 56.1704ZM74.3906 60.3774V60.1437L75.675 59.4425V59.6762L74.3906 60.3774ZM75.675 69.9599L74.3906 70.6611V70.4273L75.675 69.7262V69.9599ZM74.3906 46.471V46.7048L75.675 46.0036V45.7699L74.3906 46.471ZM74.3906 67.1553V66.9215L75.675 66.2204V66.4541L74.3906 67.1553ZM74.3906 63.5326V63.7663L75.675 63.0652V62.8314L74.3906 63.5326ZM74.3906 26.2543V26.0205L75.675 25.3194V25.5531L74.3906 26.2543ZM74.3906 22.6316V22.8653L75.675 22.1642V21.9304L74.3906 22.6316ZM74.3906 43.3158V43.0821L75.675 42.3809V42.6147L74.3906 43.3158ZM74.3906 29.4095V29.6432L75.675 28.942V28.7083L74.3906 29.4095ZM74.3906 39.9269V39.6932L75.675 38.992V39.2257L74.3906 39.9269ZM74.3906 32.9153V33.149L75.675 32.4478V32.2141L74.3906 32.9153ZM74.3906 36.5379V36.3042L75.675 35.4862V35.8368L74.3906 36.5379Z" fill="url(#paint65_linear)"/>
<path d="M73.2231 74.8678L71.5884 75.8027V17.8402L73.2231 16.9053V74.8678Z" fill="url(#paint66_linear)"/>
<path d="M73.2231 74.8678L72.5225 74.5173L71.5884 17.8402L73.2231 16.9053V74.8678Z" fill="url(#paint67_linear)"/>
<path d="M72.8728 74.6344V17.0225L71.5884 17.8405V75.4525L72.8728 74.6344Z" fill="url(#paint68_linear)"/>
<path opacity="0.7" fill-rule="evenodd" clip-rule="evenodd" d="M71.5884 20.8789V21.1126L72.8728 20.4115V20.1777L71.5884 20.8789ZM71.5884 51.4962V51.7299L72.8728 51.0288V50.7951L71.5884 51.4962ZM71.5884 55.1189V54.8852L72.8728 54.184V54.4177L71.5884 55.1189ZM72.8728 57.8067V57.5729L71.5884 58.2741V58.5078L72.8728 57.8067ZM71.5884 62.0136V61.7799L72.8728 61.0787V61.3125L71.5884 62.0136ZM72.8728 71.4793L71.5884 72.1804V71.9467L72.8728 71.2456V71.4793ZM71.5884 48.1073V48.341L72.8728 47.6398V47.4061L71.5884 48.1073ZM71.5884 68.7915V68.5578L72.8728 67.8566V68.0903L71.5884 68.7915ZM71.5884 65.1688V65.4026L72.8728 64.7014V64.4677L71.5884 65.1688ZM71.5884 27.8905V27.6568L72.8728 26.9556V27.1893L71.5884 27.8905ZM71.5884 24.2678V24.5016L72.8728 23.8004V23.5667L71.5884 24.2678ZM71.5884 44.9521V44.7183L72.8728 44.0172V44.2509L71.5884 44.9521ZM71.5884 31.0457V31.2794L72.8728 30.5783V30.3446L71.5884 31.0457ZM71.5884 41.5631V41.3294L72.8728 40.6282V40.862L71.5884 41.5631ZM71.5884 34.4347V34.6684L72.8728 33.9672V33.7335L71.5884 34.4347ZM71.5884 38.0573V37.8236L72.8728 37.1224V37.3562L71.5884 38.0573Z" fill="url(#paint69_linear)"/>
<path d="M70.4208 76.5037L68.7861 77.4386V19.3592L70.4208 18.4243V76.5037Z" fill="url(#paint70_linear)"/>
<path d="M70.4208 76.5037L69.837 76.0363L68.7861 19.3592L70.4208 18.4243V76.5037Z" fill="url(#paint71_linear)"/>
<path d="M70.0705 76.2702V18.6582L68.7861 19.3594V76.9713L70.0705 76.2702Z" fill="url(#paint72_linear)"/>
<path opacity="0.7" fill-rule="evenodd" clip-rule="evenodd" d="M68.7861 22.3979V22.6317L70.0705 21.9305V21.6968L68.7861 22.3979ZM68.7861 53.1321V53.3658L70.0705 52.6647V52.431L68.7861 53.1321ZM68.7861 56.7548V56.5211L70.0705 55.8199V56.0536L68.7861 56.7548ZM70.0705 59.4426V59.2088L68.7861 59.91V60.1437L70.0705 59.4426ZM68.7861 63.5327V63.2989L70.0705 62.5978V62.8315L68.7861 63.5327ZM70.0705 73.1152L68.7861 73.8163V73.5826L70.0705 72.8815V73.1152ZM68.7861 49.7432V49.9769L70.0705 49.2757V49.042L68.7861 49.7432ZM68.7861 70.4274V70.1937L70.0705 69.3757V69.7262L68.7861 70.4274ZM68.7861 66.8047V67.0385L70.0705 66.3373V66.1036L68.7861 66.8047ZM68.7861 29.5264V29.2927L70.0705 28.4747V28.8252L68.7861 29.5264ZM68.7861 25.9037V26.1375L70.0705 25.4363V25.2026L68.7861 25.9037ZM68.7861 46.588V46.3542L70.0705 45.6531V45.8868L68.7861 46.588ZM68.7861 32.6816V32.9153L70.0705 32.2142V31.9805L68.7861 32.6816ZM68.7861 43.0822V42.8484L70.0705 42.1473V42.381L68.7861 43.0822ZM68.7861 36.0706V36.3043L70.0705 35.6031V35.3694L68.7861 36.0706ZM68.7861 39.6932V39.4595L70.0705 38.7583V38.9921L68.7861 39.6932Z" fill="url(#paint73_linear)"/>
<path d="M67.6181 78.0231L65.9834 79.0748V20.9954L67.6181 20.0605V78.0231Z" fill="url(#paint74_linear)"/>
<path d="M67.6181 78.0231L67.0343 77.6725L65.9834 20.9954L67.6181 20.0605V78.0231Z" fill="url(#paint75_linear)"/>
<path d="M67.2678 77.9059V20.2939L65.9834 20.9951V78.6071L67.2678 77.9059Z" fill="url(#paint76_linear)"/>
<path opacity="0.7" fill-rule="evenodd" clip-rule="evenodd" d="M65.9834 24.0337V24.2674L67.2678 23.5662V23.3325L65.9834 24.0337ZM65.9834 54.7679V55.0016L67.2678 54.3004V54.0667L65.9834 54.7679ZM65.9834 58.3905V58.1568L67.2678 57.4556V57.6894L65.9834 58.3905ZM67.2678 61.0783V60.8446L65.9834 61.5457V61.7795L67.2678 61.0783ZM65.9834 65.1684V64.9347L67.2678 64.2335V64.4672L65.9834 65.1684ZM67.2678 74.7509L65.9834 75.4521V75.2184L67.2678 74.5172V74.7509ZM65.9834 51.3789V51.6126L67.2678 50.9115V50.6778L65.9834 51.3789ZM65.9834 72.0631V71.8294L67.2678 71.1283V71.362L65.9834 72.0631ZM65.9834 68.3236V68.5573L67.2678 67.8562V67.6225L65.9834 68.3236ZM65.9834 31.0453V30.8116L67.2678 30.1104V30.3441L65.9834 31.0453ZM65.9834 27.4226V27.6563L67.2678 26.9552V26.7215L65.9834 27.4226ZM65.9834 48.1068V47.8731L67.2678 47.172V47.4057L65.9834 48.1068ZM65.9834 34.3174V34.5511L67.2678 33.8499V33.6162L65.9834 34.3174ZM65.9834 44.7179V44.4842L67.2678 43.783V44.0167L65.9834 44.7179ZM65.9834 37.7063V37.94L67.2678 37.2389V37.0051L65.9834 37.7063ZM65.9834 41.329V41.0952L67.2678 40.3941V40.6278L65.9834 41.329Z" fill="url(#paint77_linear)"/>
<path d="M64.9326 79.6593L63.1812 80.5942V22.6317L64.9326 21.6968V79.6593Z" fill="url(#paint78_linear)"/>
<path d="M64.9326 79.6593L64.232 79.3088L63.1812 22.6317L64.9326 21.6968V79.6593Z" fill="url(#paint79_linear)"/>
<path d="M64.5823 79.5422V21.9302L63.1812 22.6313V80.2433L64.5823 79.5422Z" fill="url(#paint80_linear)"/>
<path opacity="0.7" fill-rule="evenodd" clip-rule="evenodd" d="M63.1812 25.6699V25.9036L64.4656 25.2025V24.9688L63.1812 25.6699ZM63.1812 56.2872V56.5209L64.4656 55.8198V55.5861L63.1812 56.2872ZM63.1812 60.0267V59.793L64.4656 59.0919V59.3256L63.1812 60.0267ZM64.5823 62.5977V62.3639L63.2979 63.0651V63.2988L64.5823 62.5977ZM63.1812 66.8046V66.5709L64.4656 65.8697V66.1035L63.1812 66.8046ZM64.4656 76.3871L63.1812 77.0883V76.8546L64.4656 76.1534V76.3871ZM63.1812 52.8983V53.132L64.4656 52.4308V52.1971L63.1812 52.8983ZM63.1812 73.5825V73.3488L64.4656 72.6476V72.8813L63.1812 73.5825ZM63.1812 69.9599V70.1936L64.4656 69.4924V69.2587L63.1812 69.9599ZM63.1812 32.6815V32.4478L64.4656 31.7466V31.9803L63.1812 32.6815ZM63.1812 29.0588V29.2926L64.4656 28.5914V28.3577L63.1812 29.0588ZM63.1812 49.7431V49.5093L64.4656 48.8082V49.0419L63.1812 49.7431ZM63.1812 35.8367V36.0704L64.4656 35.3693V35.1356L63.1812 35.8367ZM63.1812 46.3541V46.1204L64.4656 45.4192V45.653L63.1812 46.3541ZM63.1812 39.3425V39.5763L64.4656 38.8751V38.6414L63.1812 39.3425ZM63.1812 42.9652V42.7315L64.4656 42.0303V42.264L63.1812 42.9652Z" fill="url(#paint81_linear)"/>
<path d="M62.1304 81.2951L60.3789 82.23V24.2674L62.1304 23.3325V81.2951Z" fill="url(#paint82_linear)"/>
<path d="M62.1304 81.2951L61.4298 80.9445L60.3789 24.2674L62.1304 23.3325V81.2951Z" fill="url(#paint83_linear)"/>
<path d="M61.7801 81.0612V23.4492L60.3789 24.2672V81.8792L61.7801 81.0612Z" fill="url(#paint84_linear)"/>
<path opacity="0.7" fill-rule="evenodd" clip-rule="evenodd" d="M60.3789 27.3057V27.5394L61.6633 26.8382V26.6045L60.3789 27.3057ZM60.3789 57.923V58.1567L61.6633 57.4555V57.2218L60.3789 57.923ZM60.3789 61.5456V61.3119L61.6633 60.6108V60.8445L60.3789 61.5456ZM61.7801 64.2334V63.9997L60.4957 64.7009V64.9346L61.7801 64.2334ZM60.3789 68.4404V68.2066L61.6633 67.5055V67.7392L60.3789 68.4404ZM61.6633 77.906L60.3789 78.6072V78.3735L61.6633 77.6723V77.906ZM60.3789 54.534V54.7677L61.6633 54.0666V53.8329L60.3789 54.534ZM60.3789 75.2183V74.9845L61.6633 74.2834V74.5171L60.3789 75.2183ZM60.3789 71.5956V71.8293L61.6633 71.1282V70.8944L60.3789 71.5956ZM60.3789 34.3173V34.0835L61.6633 33.3824V33.6161L60.3789 34.3173ZM60.3789 30.6946V30.9283L61.6633 30.2272V29.9934L60.3789 30.6946ZM60.3789 51.3788V51.1451L61.6633 50.4439V50.6777L60.3789 51.3788ZM60.3789 37.4725V37.7062L61.6633 37.005V36.7713L60.3789 37.4725ZM60.3789 47.9899V47.7562L61.6633 47.055V47.2887L60.3789 47.9899ZM60.3789 40.8614V41.0951L61.6633 40.394V40.1603L60.3789 40.8614ZM60.3789 44.6009V44.3672L61.6633 43.6661V43.8998L60.3789 44.6009Z" fill="url(#paint85_linear)"/>
<path d="M59.3281 82.9315L57.6934 83.8663V25.9038L59.3281 24.8521V82.9315Z" fill="url(#paint86_linear)"/>
<path d="M59.3281 82.9315L58.6275 82.5809L57.6934 25.9038L59.3281 24.8521V82.9315Z" fill="url(#paint87_linear)"/>
<path d="M58.9778 82.6979V25.0859L57.6934 25.904V83.5159L58.9778 82.6979Z" fill="url(#paint88_linear)"/>
<path opacity="0.7" fill-rule="evenodd" clip-rule="evenodd" d="M57.6934 28.8252V29.0589L58.9778 28.3577V28.124L57.6934 28.8252ZM57.6934 59.5594V59.7931L58.9778 59.0919V58.8582L57.6934 59.5594ZM57.6934 63.182V62.9483L58.9778 62.2471V62.4809L57.6934 63.182ZM58.9778 65.8698V65.6361L57.6934 66.3372V66.571L58.9778 65.8698ZM57.6934 69.9599V69.7262L58.9778 69.025V69.2587L57.6934 69.9599ZM58.9778 79.5424L57.6934 80.2436V80.0099L58.9778 79.3087V79.5424ZM57.6934 56.1704V56.4041L58.9778 55.703V55.3524L57.6934 56.1704ZM57.6934 76.8546V76.6209L58.9778 75.9198V76.1535L57.6934 76.8546ZM57.6934 73.232V73.4657L58.9778 72.7645V72.5308L57.6934 73.232ZM57.6934 35.9536V35.7199L58.9778 35.0188V35.2525L57.6934 35.9536ZM57.6934 32.331V32.5647L58.9778 31.8635V31.6298L57.6934 32.331ZM57.6934 53.0152V52.7815L58.9778 52.0803V52.314L57.6934 53.0152ZM57.6934 39.1089V39.3426L58.9778 38.6414V38.4077L57.6934 39.1089ZM57.6934 49.5094V49.2757L58.9778 48.5745V48.8082L57.6934 49.5094ZM57.6934 42.4978V42.7315L58.9778 42.0304V41.7966L57.6934 42.4978ZM57.6934 46.1205V45.8867L58.9778 45.1856V45.4193L57.6934 46.1205Z" fill="url(#paint89_linear)"/>
<path d="M56.5253 84.5672L54.8906 85.5021V27.4227L56.5253 26.4878V84.5672Z" fill="url(#paint90_linear)"/>
<path d="M56.5253 84.5672L55.8247 84.0998L54.8906 27.4227L56.5253 26.4878V84.5672Z" fill="url(#paint91_linear)"/>
<path d="M56.175 84.3337V26.7217L54.8906 27.4228V85.0348L56.175 84.3337Z" fill="url(#paint92_linear)"/>
<path opacity="0.7" fill-rule="evenodd" clip-rule="evenodd" d="M54.8906 30.4609V30.6946L56.175 29.9935V29.7598L54.8906 30.4609ZM54.8906 61.1951V61.4288L56.175 60.7277V60.4939L54.8906 61.1951ZM54.8906 64.8178V64.584L56.175 63.8829V64.1166L54.8906 64.8178ZM56.175 67.5055V67.2718L54.8906 67.973V68.2067L56.175 67.5055ZM54.8906 71.5956V71.3619L56.175 70.6608V70.8945L54.8906 71.5956ZM56.175 81.1782L54.8906 81.8793V81.6456L56.175 80.9444V81.1782ZM54.8906 57.8062V58.0399L56.175 57.3387V57.105L54.8906 57.8062ZM54.8906 78.4904V78.2567L56.175 77.5555V77.7892L54.8906 78.4904ZM54.8906 74.7509V74.9846L56.175 74.2834V74.0497L54.8906 74.7509ZM54.8906 37.5894V37.3557L56.175 36.6545V36.8882L54.8906 37.5894ZM54.8906 33.8499V34.0836L56.175 33.3824V33.1487L54.8906 33.8499ZM54.8906 54.5341V54.3004L56.175 53.5992V53.8329L54.8906 54.5341ZM54.8906 40.7446V40.9783L56.175 40.2772V40.0434L54.8906 40.7446ZM54.8906 51.1451V50.9114L56.175 50.2103V50.444L54.8906 51.1451ZM54.8906 44.1335V44.3673L56.175 43.6661V43.4324L54.8906 44.1335ZM54.8906 47.7562V47.5225L56.175 46.8213V47.055L54.8906 47.7562Z" fill="url(#paint93_linear)"/>
<path d="M53.7236 86.0861L52.0889 87.1378V29.0584L53.7236 28.1235V86.0861Z" fill="url(#paint94_linear)"/>
<path d="M53.7236 86.0861L53.023 85.7355L52.0889 29.0584L53.7236 28.1235V86.0861Z" fill="url(#paint95_linear)"/>
<path d="M53.3733 85.9694V28.3574L52.0889 29.0586V86.6706L53.3733 85.9694Z" fill="url(#paint96_linear)"/>
<path opacity="0.7" fill-rule="evenodd" clip-rule="evenodd" d="M52.0889 32.0972V32.3309L53.3733 31.6297V31.396L52.0889 32.0972ZM52.0889 62.8313V63.0651L53.3733 62.3639V62.1302L52.0889 62.8313ZM52.0889 66.454V66.2203L53.3733 65.5191V65.7528L52.0889 66.454ZM53.3733 69.0249V68.7912L52.0889 69.4924V69.7261L53.3733 69.0249ZM52.0889 73.2319V72.9982L53.3733 72.297V72.5307L52.0889 73.2319ZM53.3733 82.8144L52.0889 83.5156V83.2818L53.3733 82.5807V82.8144ZM52.0889 59.3255V59.5593L53.3733 58.8581V58.6244L52.0889 59.3255ZM52.0889 80.0098V79.776L53.3733 79.0749V79.3086L52.0889 80.0098ZM52.0889 76.3871V76.6208L53.3733 75.9197V75.6859L52.0889 76.3871ZM52.0889 39.1088V38.875L53.3733 38.1739V38.4076L52.0889 39.1088ZM52.0889 35.4861V35.7198L53.3733 35.0187V34.7849L52.0889 35.4861ZM52.0889 56.1703V55.9366L53.3733 55.2354V55.4692L52.0889 56.1703ZM52.0889 42.3808V42.6146L53.3733 41.9134V41.6797L52.0889 42.3808ZM52.0889 52.7814V52.5477L53.3733 51.8465V52.0802L52.0889 52.7814ZM52.0889 45.7698V46.0035L53.3733 45.3023V45.0686L52.0889 45.7698ZM52.0889 49.3924V49.1587L53.3733 48.3407V48.6913L52.0889 49.3924Z" fill="url(#paint97_linear)"/>
<path d="M50.9208 87.7223L49.2861 88.6572V30.6946L50.9208 29.7598V87.7223Z" fill="url(#paint98_linear)"/>
<path d="M50.9208 87.7223L50.337 87.3717L49.2861 30.6946L50.9208 29.7598V87.7223Z" fill="url(#paint99_linear)"/>
<path d="M50.5705 87.4889V29.877L49.2861 30.695V88.3069L50.5705 87.4889Z" fill="url(#paint100_linear)"/>
<path opacity="0.7" fill-rule="evenodd" clip-rule="evenodd" d="M49.2861 33.7334V33.9671L50.5705 33.2659V33.0322L49.2861 33.7334ZM49.2861 64.3507V64.5844L50.5705 63.8833V63.6495L49.2861 64.3507ZM49.2861 67.9734V67.7396L50.5705 67.0385V67.2722L49.2861 67.9734ZM50.5705 70.6611V70.4274L49.2861 71.1286V71.3623L50.5705 70.6611ZM49.2861 74.8681V74.6344L50.5705 73.9332V74.1669L49.2861 74.8681ZM50.5705 84.4506L49.2861 85.1518V84.9181L50.5705 84.2169V84.4506ZM49.2861 60.9618V61.1955L50.5705 60.4943V60.2606L49.2861 60.9618ZM49.2861 81.646V81.4123L50.5705 80.7111V80.9448L49.2861 81.646ZM49.2861 78.0233V78.257L50.5705 77.5559V77.3222L49.2861 78.0233ZM49.2861 40.745V40.5113L50.5705 39.8101V40.0438L49.2861 40.745ZM49.2861 37.1223V37.356L50.5705 36.6549V36.4212L49.2861 37.1223ZM49.2861 57.8065V57.5728L50.5705 56.8717V57.1054L49.2861 57.8065ZM49.2861 43.9002V44.1339L50.5705 43.4328V43.199L49.2861 43.9002ZM49.2861 54.4176V54.1839L50.5705 53.4827V53.7164L49.2861 54.4176ZM49.2861 47.2891V47.5229L50.5705 46.8217V46.588L49.2861 47.2891ZM49.2861 51.0287V50.7949L50.5705 50.0938V50.3275L49.2861 51.0287Z" fill="url(#paint101_linear)"/>
<path d="M48.1186 89.3582L46.4839 90.2931V32.3305L48.1186 31.2788V89.3582Z" fill="url(#paint102_linear)"/>
<path d="M48.1186 89.3582L47.5348 89.0076L46.4839 32.3305L48.1186 31.2788V89.3582Z" fill="url(#paint103_linear)"/>
<path d="M47.7683 89.1247V31.5127L46.4839 32.3307V89.9427L47.7683 89.1247Z" fill="url(#paint104_linear)"/>
<path opacity="0.7" fill-rule="evenodd" clip-rule="evenodd" d="M46.4839 35.3691V35.6028L47.7683 34.9017V34.668L46.4839 35.3691ZM46.4839 65.9864V66.2202L47.7683 65.519V65.2853L46.4839 65.9864ZM46.4839 69.6091V69.3754L47.7683 68.6742V68.9079L46.4839 69.6091ZM47.7683 72.2969V72.0632L46.4839 72.7643V72.998L47.7683 72.2969ZM46.4839 76.5038V76.2701L47.7683 75.569V75.8027L46.4839 76.5038ZM47.7683 85.9695L46.4839 86.6707V86.4369L47.7683 85.7358V85.9695ZM46.4839 62.5975V62.8312L47.7683 62.1301V61.8963L46.4839 62.5975ZM46.4839 83.2817V83.048L47.7683 82.23V82.5806L46.4839 83.2817ZM46.4839 79.6591V79.8928L47.7683 79.1916V78.9579L46.4839 79.6591ZM46.4839 42.3807V42.147L47.7683 41.329V41.6796L46.4839 42.3807ZM46.4839 38.7581V38.9918L47.7683 38.2906V38.0569L46.4839 38.7581ZM46.4839 59.4423V59.2086L47.7683 58.5074V58.7411L46.4839 59.4423ZM46.4839 45.5359V45.7697L47.7683 45.0685V44.8348L46.4839 45.5359ZM46.4839 56.0533V55.8196L47.7683 55.1185V55.3522L46.4839 56.0533ZM46.4839 48.9249V49.1586L47.7683 48.4574V48.2237L46.4839 48.9249ZM46.4839 52.5475V52.3138L47.7683 51.6127V51.8464L46.4839 52.5475Z" fill="url(#paint105_linear)"/>
<path d="M29.2026 83.2819L30.8373 84.2168V26.2542L29.2026 25.3193V83.2819Z" fill="url(#paint106_linear)"/>
<path d="M29.2026 83.2819L29.9032 82.9313L30.8373 26.2542L29.2026 25.3193V83.2819Z" fill="url(#paint107_linear)"/>
<path d="M29.5532 83.048V25.436L30.8376 26.2541V83.866L29.5532 83.048Z" fill="url(#paint108_linear)"/>
<path opacity="0.7" fill-rule="evenodd" clip-rule="evenodd" d="M29.5532 28.4746V28.7083L30.8376 29.4095V29.1758L29.5532 28.4746ZM29.5532 59.2088V59.4425L30.8376 60.1437V59.9099L29.5532 59.2088ZM29.5532 62.8314V62.5977L30.8376 63.2989V63.5326L29.5532 62.8314ZM30.8376 66.9215V66.6878L29.5532 65.9867V66.2204L30.8376 66.9215ZM29.5532 69.6093V69.3756L30.8376 70.0768V70.3105L29.5532 69.6093ZM29.5532 79.6593L30.8376 80.3604V80.5942L29.5532 79.893V79.6593ZM29.5532 55.703V55.9367L30.8376 56.6379V56.521L29.5532 55.703ZM29.5532 76.3872V76.1535L30.8376 76.8546V77.0884L29.5532 76.3872ZM29.5532 72.7645V72.9983L30.8376 73.6994V73.4657L29.5532 72.7645ZM29.5532 35.4862V35.2525L30.8376 35.9536V36.1874L29.5532 35.4862ZM29.5532 31.8635V32.0973L30.8376 32.7984V32.5647L29.5532 31.8635ZM29.5532 52.5478V52.314L30.8376 53.0152V53.2489L29.5532 52.5478ZM29.5532 38.7583V38.992L30.8376 39.6932V39.4594L29.5532 38.7583ZM29.5532 49.1588V48.9251L30.8376 49.6263V49.86L29.5532 49.1588ZM29.5532 42.1472V42.3809L30.8376 43.0821V42.8484L29.5532 42.1472ZM29.5532 45.7699V45.5362L30.8376 46.2373V46.471L29.5532 45.7699Z" fill="url(#paint109_linear)"/>
<path d="M32.0049 84.9178L33.6396 85.8527V27.7733L32.0049 26.8384V84.9178Z" fill="url(#paint110_linear)"/>
<path d="M32.0049 84.9178L32.5887 84.4504L33.6396 27.7733L32.0049 26.8384V84.9178Z" fill="url(#paint111_linear)"/>
<path d="M32.3555 84.6842V27.0723L33.6399 27.7734V85.5023L32.3555 84.6842Z" fill="url(#paint112_linear)"/>
<path opacity="0.7" fill-rule="evenodd" clip-rule="evenodd" d="M32.3555 30.1104V30.3441L33.6399 31.0452V30.8115L32.3555 30.1104ZM32.3555 60.7277V60.9614L33.6399 61.6625V61.4288L32.3555 60.7277ZM32.3555 64.4672V64.2335L33.6399 64.9346V65.1684L32.3555 64.4672ZM33.6399 68.5573V68.3236L32.3555 67.6224V67.8561L33.6399 68.5573ZM32.3555 71.2451V71.0113L33.6399 71.7125V71.9462L32.3555 71.2451ZM32.3555 81.295L33.6399 81.9962V82.2299L32.3555 81.5287V81.295ZM32.3555 57.3387V57.5725L33.6399 58.2736V58.0399L32.3555 57.3387ZM32.3555 78.0229V77.7892L33.6399 78.4904V78.7241L32.3555 78.0229ZM32.3555 74.4003V74.634L33.6399 75.3352V75.2183L32.3555 74.4003ZM32.3555 37.122V36.8882L33.6399 37.5894V37.8231L32.3555 37.122ZM32.3555 33.4993V33.733L33.6399 34.4342V34.3173L32.3555 33.4993ZM32.3555 54.1835V53.9498L33.6399 54.651V54.8847L32.3555 54.1835ZM32.3555 40.2772V40.5109L33.6399 41.2121V40.9783L32.3555 40.2772ZM32.3555 50.7946V50.5609L33.6399 51.262V51.4957L32.3555 50.7946ZM32.3555 43.783V44.0167L33.6399 44.7179V44.4841L32.3555 43.783ZM32.3555 47.4056V47.1719L33.6399 47.8731V48.1068L32.3555 47.4056Z" fill="url(#paint113_linear)"/>
<path d="M34.8076 86.4372L36.4423 87.4889V29.4095L34.8076 28.4746V86.4372Z" fill="url(#paint114_linear)"/>
<path d="M34.8076 86.4372L35.3914 86.0866L36.4423 29.4095L34.8076 28.4746V86.4372Z" fill="url(#paint115_linear)"/>
<path d="M35.1577 86.3205V28.7085L36.4421 29.4097V87.0216L35.1577 86.3205Z" fill="url(#paint116_linear)"/>
<path opacity="0.7" fill-rule="evenodd" clip-rule="evenodd" d="M35.1577 31.7466V31.9803L36.4421 32.6815V32.4477L35.1577 31.7466ZM35.1577 62.3639V62.5976L36.4421 63.2988V63.0651L35.1577 62.3639ZM35.1577 65.9866V65.7528L36.4421 66.454V66.6877L35.1577 65.9866ZM36.4421 70.1935V69.9598L35.1577 69.2586V69.4924L36.4421 70.1935ZM35.1577 72.8813V72.6476L36.4421 73.3487V73.5825L35.1577 72.8813ZM35.1577 82.9313L36.4421 83.6324V83.8661L35.1577 83.165V82.9313ZM35.1577 58.975V59.2087L36.4421 60.0267V59.793L35.1577 58.975ZM35.1577 79.6592V79.4255L36.4421 80.1266V80.3603L35.1577 79.6592ZM35.1577 76.0365V76.2702L36.4421 76.9714V76.7377L35.1577 76.0365ZM35.1577 38.7582V38.5245L36.4421 39.2256V39.4593L35.1577 38.7582ZM35.1577 35.1355V35.3692L36.4421 36.0704V35.8367L35.1577 35.1355ZM35.1577 55.8197V55.586L36.4421 56.2872V56.5209L35.1577 55.8197ZM35.1577 41.9134V42.1471L36.4421 42.8483V42.6146L35.1577 41.9134ZM35.1577 52.4308V52.1971L36.4421 52.8982V53.132L35.1577 52.4308ZM35.1577 45.3023V45.5361L36.4421 46.2372V46.0035L35.1577 45.3023ZM35.1577 49.0419V48.8081L36.4421 49.5093V49.743L35.1577 49.0419Z" fill="url(#paint117_linear)"/>
<path d="M37.4927 88.0729L39.2441 89.0078V31.0452L37.4927 30.1104V88.0729Z" fill="url(#paint118_linear)"/>
<path d="M37.4927 88.0729L38.1933 87.7223L39.2441 31.0452L37.4927 30.1104V88.0729Z" fill="url(#paint119_linear)"/>
<path d="M37.8433 87.9562V30.3442L39.2444 31.0454V88.6574L37.8433 87.9562Z" fill="url(#paint120_linear)"/>
<path opacity="0.7" fill-rule="evenodd" clip-rule="evenodd" d="M37.8433 33.2656V33.4993L39.1277 34.2005V33.9668L37.8433 33.2656ZM37.8433 63.9998V64.2335L39.1277 64.9347V64.701L37.8433 63.9998ZM37.8433 67.6225V67.3887L39.1277 68.2068V68.3236L37.8433 67.6225ZM39.2444 71.8294V71.5957L37.96 70.8945V71.1283L39.2444 71.8294ZM37.8433 74.4003V74.1666L39.1277 74.8678V75.1015L37.8433 74.4003ZM37.96 84.4503L39.2444 85.1515V85.3852L37.96 84.684V84.4503ZM37.8433 60.6109V60.8446L39.1277 61.5457V61.312L37.8433 60.6109ZM37.8433 81.2951V81.0614L39.1277 81.7625V81.9962L37.8433 81.2951ZM37.8433 77.6724V77.9061L39.1277 78.6073V78.3736L37.8433 77.6724ZM37.8433 40.3941V40.1604L39.1277 40.8615V41.0952L37.8433 40.3941ZM37.8433 36.7714V37.0051L39.1277 37.7063V37.4726L37.8433 36.7714ZM37.8433 57.4556V57.2219L39.1277 57.9231V58.1568L37.8433 57.4556ZM37.8433 43.5493V43.783L39.1277 44.4842V44.2505L37.8433 43.5493ZM37.8433 53.9498V53.7161L39.1277 54.4173V54.651L37.8433 53.9498ZM37.8433 46.9382V47.172L39.1277 47.8731V47.6394L37.8433 46.9382ZM37.8433 50.5609V50.3272L39.1277 51.0283V51.2621L37.8433 50.5609Z" fill="url(#paint121_linear)"/>
<path d="M40.2954 89.7091L41.9301 90.644V32.6815L40.2954 31.7466V89.7091Z" fill="url(#paint122_linear)"/>
<path d="M40.2954 89.7091L40.996 89.3586L41.9301 32.6815L40.2954 31.7466V89.7091Z" fill="url(#paint123_linear)"/>
<path d="M40.646 89.4753V31.8633L41.9304 32.6813V90.2933L40.646 89.4753Z" fill="url(#paint124_linear)"/>
<path opacity="0.7" fill-rule="evenodd" clip-rule="evenodd" d="M40.646 34.9019V35.1356L41.9304 35.8367V35.603L40.646 34.9019ZM40.646 65.636V65.8698L41.9304 66.5709V66.3372L40.646 65.636ZM40.646 69.2587V69.025L41.9304 69.7261V69.9599L40.646 69.2587ZM41.9304 73.4657V73.2319L40.646 72.5308V72.7645L41.9304 73.4657ZM40.646 76.0366V75.8029L41.9304 76.504V76.7377L40.646 76.0366ZM40.646 86.0865L41.9304 86.7877V87.0214L40.646 86.3203V86.0865ZM40.646 62.2471V62.4808L41.9304 63.182V62.9483L40.646 62.2471ZM40.646 82.9313V82.6976L41.9304 83.3988V83.6325L40.646 82.9313ZM40.646 79.1918V79.4255L41.9304 80.1267V79.893L40.646 79.1918ZM40.646 42.0303V41.7966L41.9304 42.4978V42.7315L40.646 42.0303ZM40.646 38.2908V38.5245L41.9304 39.2257V38.992L40.646 38.2908ZM40.646 58.975V58.7413L41.9304 59.4425V59.6762L40.646 58.975ZM40.646 45.1855V45.4193L41.9304 46.1204V45.8867L40.646 45.1855ZM40.646 55.5861V55.3524L41.9304 56.0535V56.2872L40.646 55.5861ZM40.646 48.5745V48.8082L41.9304 49.5094V49.2756L40.646 48.5745ZM40.646 52.1971V51.9634L41.9304 52.6646V52.8983L40.646 52.1971Z" fill="url(#paint125_linear)"/>
<path opacity="0.3" fill-rule="evenodd" clip-rule="evenodd" d="M93.8907 89.2421L92.1392 90.2938V90.1302L93.4236 89.3589L93.8907 89.2421ZM92.0224 90.2003L92.1392 90.1302V84.9182L94.0074 83.8665V83.7496L92.1392 84.8014V82.2305L92.0224 82.3473V84.9182L89.8039 86.2037V83.6328L89.6871 83.7496V86.3206L87.4686 87.606V85.0351L87.3518 85.152V87.606L87.1183 87.7413V87.7229L85.1333 88.873V86.3206L85.0165 86.4374V88.9407L84.8998 89.0083V89.076L84.783 89.1437V89.1252L82.798 90.2754V87.7229L82.6812 87.8397V90.343L82.5645 90.4107V90.4783L82.331 90.6136V90.5275L80.4627 91.61V89.1252L80.346 89.2421V91.6777L80.1124 91.813V91.8314L78.1274 92.9816V90.5275L78.0107 90.6444V93.08L77.7771 93.2153V93.2338L75.7921 94.3839V91.9298L75.6754 92.0467V94.5008L73.4568 95.7862V93.3322L73.3401 93.449V95.8662L72.873 96.1368V96.1737L72.7562 96.2414V96.1368L71.1215 97.084V94.7345L71.0048 94.8513V97.1516L70.5377 97.4223V97.576L70.3042 97.7113V97.5391L68.7862 98.4187V96.1368L68.6695 96.2537V98.4863L68.0856 98.8246V99.046L67.8653 99.1737C67.8611 99.1013 67.8567 99.0241 67.8521 98.9414L66.4509 99.7533V97.5391L66.3342 97.656V99.821L65.6336 100.227V100.516L65.5168 100.584V100.344L64.1156 101.156V98.9414L63.9989 99.0583V101.223L63.2983 101.629V101.918L63.1815 101.986V101.746L61.7803 102.558V100.344L61.6636 100.461V102.626L60.963 103.032V103.335L59.9121 103.966V104.083L60.963 103.452V108.29V108.407L61.6636 107.964V108.29V108.407L59.9121 109.459V109.576L61.6636 108.524V113.666L61.7803 113.549V108.407L63.9989 107.122V112.263L64.1156 112.147V107.005L66.3342 105.719V110.861L66.4509 110.744V105.602L67.9689 104.434V109.576L68.0856 109.459V104.317L70.3042 103.032V108.173L70.4209 108.057V102.915L72.6395 101.629V106.771L72.7562 106.654V102.681L72.9898 102.549V102.564L73.9239 102.019L76.2592 100.694V104.668L76.3759 104.551V100.587L76.9598 100.246L79.8789 98.5909V102.564L79.9957 102.447V98.474L76.9598 100.246L76.3759 100.577V100.587L73.9239 102.019L72.9898 102.549V101.629C73.8071 101.162 78.828 98.2403 79.9957 97.5391V97.4223L82.2142 96.1368V101.162L82.331 101.045V96.0199L84.5495 94.7345V99.7595L84.6663 99.6426V94.6176L86.8848 93.3322V98.3571L87.0015 98.2403V93.2153L87.3518 93.0123V93.0984L89.2201 92.016V96.9548L89.3368 96.838V91.9483L89.5704 91.813V91.6777L89.8039 91.5424V91.6961L91.5554 90.6813V95.5525L91.6721 95.4356V90.6136L92.0224 90.4107V90.2003ZM91.6721 90.6136V90.4107L92.0224 90.2003V85.0351L89.8039 86.3206V91.5424L91.5554 90.5275V90.6813L91.6721 90.6136ZM89.5704 91.6777V86.4374L87.3518 87.7229V93.0123L89.2201 91.9298V92.016L89.3368 91.9483V91.813L89.5704 91.6777ZM61.6636 107.964L63.1815 107.005V101.986L61.7803 102.798V102.558L61.6636 102.626V102.915L60.963 103.335V103.452L61.6636 103.032V107.964ZM63.2983 101.918V106.888V107.005L65.5168 105.602V100.584L64.1156 101.396V101.156L63.9989 101.223V101.512L63.2983 101.918ZM65.6336 100.516L66.3342 100.11V99.821L66.4509 99.7533V99.9932L67.8653 99.1737C67.8864 99.5344 67.9032 99.775 67.9166 99.9665L67.9166 99.9669L67.9167 99.9672L67.9167 99.9673L67.9167 99.9675L67.9167 99.9677C67.9259 100.1 67.9335 100.209 67.9398 100.318C67.9689 100.824 67.9689 101.333 67.9689 104.2L65.6336 105.602V105.486V100.516ZM68.0856 99.046V104.083V104.2L70.3042 102.915V97.7113L68.7862 98.5909V98.4187L68.6695 98.4863V98.7077L68.0856 99.046ZM70.5377 97.576L71.0048 97.3054V97.1516L71.1215 97.084V97.1885L72.7562 96.2414V101.512L70.5377 102.798V97.576ZM72.873 96.1737L73.3401 95.9031V95.8662L75.0915 94.8513V100.227L72.873 101.512V96.1737ZM77.7771 93.2338L78.0107 93.0984V93.08L79.9957 91.9298V97.3054L77.7771 98.5909V93.2338ZM80.1124 91.8314V97.1885L82.331 95.9031V90.6136L80.4627 91.6961V91.61L80.346 91.6777V91.6961L80.1124 91.8314ZM82.5645 90.4783L82.6812 90.4107V90.343L82.798 90.2754V90.2938L84.783 89.1437V94.5008L82.5645 95.7862V90.4783ZM84.8998 89.076V94.3839L87.1183 93.0984V87.7413L85.1333 88.8915V88.873L85.0165 88.9407V89.0083L84.8998 89.076ZM77.5436 93.449L75.3251 94.7345V100.11L77.5436 98.8246V93.449Z" fill="url(#paint126_linear)"/>
<defs>
<linearGradient id="paint0_linear" x1="-7.5982" y1="33.5331" x2="43.4422" y2="46.0313" gradientUnits="userSpaceOnUse">
<stop stop-color="#F6F8FB"/>
<stop offset="1" stop-color="#99A7D8"/>
</linearGradient>
<linearGradient id="paint1_linear" x1="25.6376" y1="179.4" x2="62.6139" y2="168.579" gradientUnits="userSpaceOnUse">
<stop stop-color="#CE9F55"/>
<stop offset="1" stop-color="#DCBC81"/>
</linearGradient>
<linearGradient id="paint2_linear" x1="24.7727" y1="40.7241" x2="65.062" y2="40.7241" gradientUnits="userSpaceOnUse">
<stop stop-color="#CE9F55"/>
<stop offset="1" stop-color="#DCBC81"/>
</linearGradient>
<linearGradient id="paint3_linear" x1="38.1452" y1="-149.9" x2="-79.7872" y2="-150.126" gradientUnits="userSpaceOnUse">
<stop stop-color="#F6F8FB"/>
<stop offset="1" stop-color="#99A7D8"/>
</linearGradient>
<linearGradient id="paint4_linear" x1="15.8978" y1="36.8065" x2="35.1854" y2="39.6973" gradientUnits="userSpaceOnUse">
<stop stop-color="#F6F8FB"/>
<stop offset="1" stop-color="#99A7D8"/>
</linearGradient>
<linearGradient id="paint5_linear" x1="17.8786" y1="33.0256" x2="29.7902" y2="33.0256" gradientUnits="userSpaceOnUse">
<stop stop-color="#CE9F55"/>
<stop offset="1" stop-color="#DCBC81"/>
</linearGradient>
<linearGradient id="paint6_linear" x1="1.26006" y1="32.1088" x2="9.36957" y2="46.5104" gradientUnits="userSpaceOnUse">
<stop stop-color="#F6F8FB"/>
<stop offset="1" stop-color="#99A7D8"/>
</linearGradient>
<linearGradient id="paint7_linear" x1="24.8832" y1="38.2889" x2="27.2188" y2="38.2889" gradientUnits="userSpaceOnUse">
<stop stop-color="#CE9F55"/>
<stop offset="1" stop-color="#DCBC81"/>
</linearGradient>
<linearGradient id="paint8_linear" x1="10.4209" y1="35.5042" x2="25.2182" y2="37.9998" gradientUnits="userSpaceOnUse">
<stop stop-color="#F6F8FB"/>
<stop offset="1" stop-color="#99A7D8"/>
</linearGradient>
<linearGradient id="paint9_linear" x1="5.83449" y1="36.0231" x2="19.5702" y2="48.0925" gradientUnits="userSpaceOnUse">
<stop stop-color="#F6F8FB"/>
<stop offset="1" stop-color="#99A7D8"/>
</linearGradient>
<linearGradient id="paint10_linear" x1="-12.1247" y1="23.8563" x2="13.3792" y2="47.5819" gradientUnits="userSpaceOnUse">
<stop stop-color="#F6F8FB"/>
<stop offset="1" stop-color="#99A7D8"/>
</linearGradient>
<linearGradient id="paint11_linear" x1="3.38234" y1="26.1654" x2="16.1521" y2="38.3211" gradientUnits="userSpaceOnUse">
<stop stop-color="#F6F8FB"/>
<stop offset="1" stop-color="#99A7D8"/>
</linearGradient>
<linearGradient id="paint12_linear" x1="0.93019" y1="27.6091" x2="14.6659" y2="39.6784" gradientUnits="userSpaceOnUse">
<stop stop-color="#F6F8FB"/>
<stop offset="1" stop-color="#99A7D8"/>
</linearGradient>
<linearGradient id="paint13_linear" x1="-0.54957" y1="29.0114" x2="13.0897" y2="40.4513" gradientUnits="userSpaceOnUse">
<stop stop-color="#F6F8FB"/>
<stop offset="1" stop-color="#99A7D8"/>
</linearGradient>
<linearGradient id="paint14_linear" x1="29.6071" y1="-6.72118" x2="-6.37948" y2="28.1184" gradientUnits="userSpaceOnUse">
<stop stop-color="#72C9B2"/>
<stop offset="0.3434" stop-color="#61BCB1"/>
<stop offset="1" stop-color="#369DAD"/>
</linearGradient>
<linearGradient id="paint15_linear" x1="28.9684" y1="-7.42632" x2="-7.01822" y2="27.4134" gradientUnits="userSpaceOnUse">
<stop stop-color="#72C9B2"/>
<stop offset="0.3434" stop-color="#61BCB1"/>
<stop offset="1" stop-color="#369DAD"/>
</linearGradient>
<linearGradient id="paint16_linear" x1="28.3298" y1="-8.13117" x2="-7.65678" y2="26.7085" gradientUnits="userSpaceOnUse">
<stop stop-color="#72C9B2"/>
<stop offset="0.3434" stop-color="#61BCB1"/>
<stop offset="1" stop-color="#369DAD"/>
</linearGradient>
<linearGradient id="paint17_linear" x1="27.6925" y1="-8.83458" x2="-8.29334" y2="26.0043" gradientUnits="userSpaceOnUse">
<stop stop-color="#72C9B2"/>
<stop offset="0.3434" stop-color="#61BCB1"/>
<stop offset="1" stop-color="#369DAD"/>
</linearGradient>
<linearGradient id="paint18_linear" x1="27.0546" y1="-9.53981" x2="-8.932" y2="25.2999" gradientUnits="userSpaceOnUse">
<stop stop-color="#72C9B2"/>
<stop offset="0.3434" stop-color="#61BCB1"/>
<stop offset="1" stop-color="#369DAD"/>
</linearGradient>
<linearGradient id="paint19_linear" x1="27.2857" y1="-11.1901" x2="-10.1989" y2="21.5615" gradientUnits="userSpaceOnUse">
<stop stop-color="#72C9B2"/>
<stop offset="0.3434" stop-color="#61BCB1"/>
<stop offset="1" stop-color="#369DAD"/>
</linearGradient>
<linearGradient id="paint20_linear" x1="27.3349" y1="25.5511" x2="29.5537" y2="25.5511" gradientUnits="userSpaceOnUse">
<stop stop-color="#CE9F55"/>
<stop offset="1" stop-color="#DCBC81"/>
</linearGradient>
<linearGradient id="paint21_linear" x1="24.8827" y1="26.9534" x2="27.2183" y2="26.9534" gradientUnits="userSpaceOnUse">
<stop stop-color="#CE9F55"/>
<stop offset="1" stop-color="#DCBC81"/>
</linearGradient>
<linearGradient id="paint22_linear" x1="22.4306" y1="28.3558" x2="24.7662" y2="28.3558" gradientUnits="userSpaceOnUse">
<stop stop-color="#CE9F55"/>
<stop offset="1" stop-color="#DCBC81"/>
</linearGradient>
<linearGradient id="paint23_linear" x1="19.9789" y1="29.7581" x2="22.3145" y2="29.7581" gradientUnits="userSpaceOnUse">
<stop stop-color="#CE9F55"/>
<stop offset="1" stop-color="#DCBC81"/>
</linearGradient>
<linearGradient id="paint24_linear" x1="17.5268" y1="31.2772" x2="19.8624" y2="31.2772" gradientUnits="userSpaceOnUse">
<stop stop-color="#CE9F55"/>
<stop offset="1" stop-color="#DCBC81"/>
</linearGradient>
<linearGradient id="paint25_linear" x1="15.0746" y1="32.6795" x2="17.4102" y2="32.6795" gradientUnits="userSpaceOnUse">
<stop stop-color="#CE9F55"/>
<stop offset="1" stop-color="#DCBC81"/>
</linearGradient>
<linearGradient id="paint26_linear" x1="30.2466" y1="-6.01512" x2="-5.73999" y2="28.8244" gradientUnits="userSpaceOnUse">
<stop stop-color="#72C9B2"/>
<stop offset="0.3434" stop-color="#61BCB1"/>
<stop offset="1" stop-color="#369DAD"/>
</linearGradient>
<linearGradient id="paint27_linear" x1="-217.541" y1="19.9108" x2="-40.3443" y2="167.989" gradientUnits="userSpaceOnUse">
<stop stop-color="#F6F8FB"/>
<stop offset="1" stop-color="#99A7D8"/>
</linearGradient>
<linearGradient id="paint28_linear" x1="-3.00172" y1="30.4138" x2="10.6376" y2="41.8537" gradientUnits="userSpaceOnUse">
<stop stop-color="#F6F8FB"/>
<stop offset="1" stop-color="#99A7D8"/>
</linearGradient>
<linearGradient id="paint29_linear" x1="13.6323" y1="32.5751" x2="14.8721" y2="32.8041" gradientUnits="userSpaceOnUse">
<stop stop-color="#F6F8FB"/>
<stop offset="1" stop-color="#99A7D8"/>
</linearGradient>
<linearGradient id="paint30_linear" x1="17.9598" y1="36.0937" x2="18.9529" y2="36.1098" gradientUnits="userSpaceOnUse">
<stop stop-color="#F6F8FB"/>
<stop offset="1" stop-color="#99A7D8"/>
</linearGradient>
<linearGradient id="paint31_linear" x1="-1.40477" y1="33.2944" x2="11.365" y2="45.45" gradientUnits="userSpaceOnUse">
<stop stop-color="#F6F8FB"/>
<stop offset="1" stop-color="#99A7D8"/>
</linearGradient>
<linearGradient id="paint32_linear" x1="20.4115" y1="37.496" x2="21.4046" y2="37.5122" gradientUnits="userSpaceOnUse">
<stop stop-color="#F6F8FB"/>
<stop offset="1" stop-color="#99A7D8"/>
</linearGradient>
<linearGradient id="paint33_linear" x1="1.04689" y1="34.6967" x2="13.8167" y2="46.8523" gradientUnits="userSpaceOnUse">
<stop stop-color="#F6F8FB"/>
<stop offset="1" stop-color="#99A7D8"/>
</linearGradient>
<linearGradient id="paint34_linear" x1="22.8637" y1="38.9426" x2="23.8567" y2="38.9574" gradientUnits="userSpaceOnUse">
<stop stop-color="#F6F8FB"/>
<stop offset="1" stop-color="#99A7D8"/>
</linearGradient>
<linearGradient id="paint35_linear" x1="22.4311" y1="38.2889" x2="24.7667" y2="38.2889" gradientUnits="userSpaceOnUse">
<stop stop-color="#CE9F55"/>
<stop offset="1" stop-color="#DCBC81"/>
</linearGradient>
<linearGradient id="paint36_linear" x1="19.9789" y1="36.8865" x2="22.3145" y2="36.8865" gradientUnits="userSpaceOnUse">
<stop stop-color="#CE9F55"/>
<stop offset="1" stop-color="#DCBC81"/>
</linearGradient>
<linearGradient id="paint37_linear" x1="17.5268" y1="35.4842" x2="19.8624" y2="35.4842" gradientUnits="userSpaceOnUse">
<stop stop-color="#CE9F55"/>
<stop offset="1" stop-color="#DCBC81"/>
</linearGradient>
<linearGradient id="paint38_linear" x1="15.0746" y1="34.0818" x2="17.4102" y2="34.0818" gradientUnits="userSpaceOnUse">
<stop stop-color="#CE9F55"/>
<stop offset="1" stop-color="#DCBC81"/>
</linearGradient>
<linearGradient id="paint39_linear" x1="-56.8794" y1="33.8741" x2="3.92772" y2="78.0756" gradientUnits="userSpaceOnUse">
<stop stop-color="#F6F8FB"/>
<stop offset="1" stop-color="#99A7D8"/>
</linearGradient>
<linearGradient id="paint40_linear" x1="3.49904" y1="36.099" x2="16.2688" y2="48.2547" gradientUnits="userSpaceOnUse">
<stop stop-color="#F6F8FB"/>
<stop offset="1" stop-color="#99A7D8"/>
</linearGradient>
<linearGradient id="paint41_linear" x1="-38.0754" y1="224.395" x2="94.079" y2="225.065" gradientUnits="userSpaceOnUse">
<stop stop-color="#99A7D8"/>
<stop offset="1" stop-color="#F6F8FB"/>
</linearGradient>
<linearGradient id="paint42_linear" x1="27.6944" y1="32.0705" x2="80.7128" y2="32.0705" gradientUnits="userSpaceOnUse">
<stop stop-color="#CE9F55"/>
<stop offset="1" stop-color="#DCBC81"/>
</linearGradient>
<linearGradient id="paint43_linear" x1="80.5861" y1="87.946" x2="84.4979" y2="87.946" gradientUnits="userSpaceOnUse">
<stop stop-color="#2B6D78"/>
<stop offset="1" stop-color="#2E7A86"/>
</linearGradient>
<linearGradient id="paint44_linear" x1="72.9943" y1="74.3865" x2="47.9026" y2="116.394" gradientUnits="userSpaceOnUse">
<stop stop-color="#D3DAED"/>
<stop offset="1" stop-color="#99A7D8"/>
</linearGradient>
<linearGradient id="paint45_linear" x1="47.0136" y1="94.8939" x2="38.3428" y2="96.8831" gradientUnits="userSpaceOnUse">
<stop stop-color="#D3DAED"/>
<stop offset="1" stop-color="#99A7D8"/>
</linearGradient>
<linearGradient id="paint46_linear" x1="18.3" y1="279.183" x2="122.676" y2="278.291" gradientUnits="userSpaceOnUse">
<stop stop-color="#F6F8FB"/>
<stop offset="1" stop-color="#99A7D8"/>
</linearGradient>
<linearGradient id="paint47_linear" x1="25.2925" y1="117.91" x2="82.0932" y2="121.748" gradientUnits="userSpaceOnUse">
<stop stop-color="#D3DAED"/>
<stop offset="1" stop-color="#99A7D8"/>
</linearGradient>
<linearGradient id="paint48_linear" x1="59.2454" y1="112.369" x2="87.5282" y2="108.252" gradientUnits="userSpaceOnUse">
<stop stop-color="#CE9F55"/>
<stop offset="1" stop-color="#DCBC81"/>
</linearGradient>
<linearGradient id="paint49_linear" x1="69.0496" y1="131.714" x2="116.176" y2="102.827" gradientUnits="userSpaceOnUse">
<stop stop-color="#D3DAED"/>
<stop offset="1" stop-color="#99A7D8"/>
</linearGradient>
<linearGradient id="paint50_linear" x1="82.483" y1="79.1019" x2="56.0668" y2="123.475" gradientUnits="userSpaceOnUse">
<stop stop-color="#D3DAED"/>
<stop offset="1" stop-color="#99A7D8"/>
</linearGradient>
<linearGradient id="paint51_linear" x1="56.419" y1="99.507" x2="43.4736" y2="103.82" gradientUnits="userSpaceOnUse">
<stop stop-color="#D3DAED"/>
<stop offset="1" stop-color="#99A7D8"/>
</linearGradient>
<linearGradient id="paint52_linear" x1="81.3928" y1="28.5261" x2="-10.8909" y2="95.5538" gradientUnits="userSpaceOnUse">
<stop stop-color="#F6F8FB"/>
<stop offset="1" stop-color="#99A7D8"/>
</linearGradient>
<linearGradient id="paint53_linear" x1="81.0095" y1="47.3367" x2="22.0549" y2="118.569" gradientUnits="userSpaceOnUse">
<stop stop-color="#F6F8FB"/>
<stop offset="1" stop-color="#99A7D8"/>
</linearGradient>
<linearGradient id="paint54_linear" x1="58.0348" y1="74.1815" x2="53.6103" y2="74.3593" gradientUnits="userSpaceOnUse">
<stop stop-color="#F6F8FB"/>
<stop offset="1" stop-color="#99A7D8"/>
</linearGradient>
<linearGradient id="paint55_linear" x1="-11.237" y1="62.8532" x2="-11.237" y2="188.185" gradientUnits="userSpaceOnUse">
<stop stop-color="#D3DAED"/>
<stop offset="1" stop-color="#99A7D8"/>
</linearGradient>
<linearGradient id="paint56_linear" x1="23.7418" y1="23.9219" x2="80.0114" y2="23.9219" gradientUnits="userSpaceOnUse">
<stop stop-color="#CE9F55"/>
<stop offset="1" stop-color="#DCBC81"/>
</linearGradient>
<linearGradient id="paint57_linear" x1="62.6865" y1="11.8414" x2="80.0002" y2="11.8414" gradientUnits="userSpaceOnUse">
<stop stop-color="#CE9F55"/>
<stop offset="1" stop-color="#DCBC81"/>
</linearGradient>
<linearGradient id="paint58_linear" x1="77.1932" y1="72.5957" x2="78.8281" y2="72.5957" gradientUnits="userSpaceOnUse">
<stop stop-color="#CE9F55"/>
<stop offset="1" stop-color="#DCBC81"/>
</linearGradient>
<linearGradient id="paint59_linear" x1="77.1932" y1="71.5449" x2="78.8281" y2="71.5449" gradientUnits="userSpaceOnUse">
<stop stop-color="#CE9F55"/>
<stop offset="1" stop-color="#DCBC81"/>
</linearGradient>
<linearGradient id="paint60_linear" x1="75.5226" y1="9.40875" x2="75.5226" y2="81.903" gradientUnits="userSpaceOnUse">
<stop stop-color="#D3DAED"/>
<stop offset="1" stop-color="#99A7D8"/>
</linearGradient>
<linearGradient id="paint61_linear" x1="75.775" y1="98.6146" x2="78.4863" y2="98.6142" gradientUnits="userSpaceOnUse">
<stop stop-color="#CE9F55"/>
<stop offset="1" stop-color="#DCBC81"/>
</linearGradient>
<linearGradient id="paint62_linear" x1="74.3909" y1="74.1147" x2="76.0258" y2="74.1147" gradientUnits="userSpaceOnUse">
<stop stop-color="#CE9F55"/>
<stop offset="1" stop-color="#DCBC81"/>
</linearGradient>
<linearGradient id="paint63_linear" x1="74.3909" y1="73.1807" x2="76.0258" y2="73.1807" gradientUnits="userSpaceOnUse">
<stop stop-color="#CE9F55"/>
<stop offset="1" stop-color="#DCBC81"/>
</linearGradient>
<linearGradient id="paint64_linear" x1="72.7204" y1="10.9189" x2="72.7204" y2="83.5584" gradientUnits="userSpaceOnUse">
<stop stop-color="#D3DAED"/>
<stop offset="1" stop-color="#99A7D8"/>
</linearGradient>
<linearGradient id="paint65_linear" x1="72.9728" y1="100.251" x2="75.6841" y2="100.25" gradientUnits="userSpaceOnUse">
<stop stop-color="#CE9F55"/>
<stop offset="1" stop-color="#DCBC81"/>
</linearGradient>
<linearGradient id="paint66_linear" x1="71.5887" y1="75.751" x2="73.2236" y2="75.751" gradientUnits="userSpaceOnUse">
<stop stop-color="#CE9F55"/>
<stop offset="1" stop-color="#DCBC81"/>
</linearGradient>
<linearGradient id="paint67_linear" x1="71.5887" y1="74.8169" x2="73.2236" y2="74.8169" gradientUnits="userSpaceOnUse">
<stop stop-color="#CE9F55"/>
<stop offset="1" stop-color="#DCBC81"/>
</linearGradient>
<linearGradient id="paint68_linear" x1="69.9182" y1="12.5551" x2="69.9182" y2="85.1946" gradientUnits="userSpaceOnUse">
<stop stop-color="#D3DAED"/>
<stop offset="1" stop-color="#99A7D8"/>
</linearGradient>
<linearGradient id="paint69_linear" x1="70.1705" y1="101.704" x2="72.8818" y2="101.703" gradientUnits="userSpaceOnUse">
<stop stop-color="#CE9F55"/>
<stop offset="1" stop-color="#DCBC81"/>
</linearGradient>
<linearGradient id="paint70_linear" x1="68.7864" y1="77.3868" x2="70.4213" y2="77.3868" gradientUnits="userSpaceOnUse">
<stop stop-color="#CE9F55"/>
<stop offset="1" stop-color="#DCBC81"/>
</linearGradient>
<linearGradient id="paint71_linear" x1="68.7864" y1="76.4527" x2="70.4213" y2="76.4527" gradientUnits="userSpaceOnUse">
<stop stop-color="#CE9F55"/>
<stop offset="1" stop-color="#DCBC81"/>
</linearGradient>
<linearGradient id="paint72_linear" x1="67.1159" y1="14.1998" x2="67.1159" y2="86.694" gradientUnits="userSpaceOnUse">
<stop stop-color="#D3DAED"/>
<stop offset="1" stop-color="#99A7D8"/>
</linearGradient>
<linearGradient id="paint73_linear" x1="67.3683" y1="103.406" x2="70.0796" y2="103.406" gradientUnits="userSpaceOnUse">
<stop stop-color="#CE9F55"/>
<stop offset="1" stop-color="#DCBC81"/>
</linearGradient>
<linearGradient id="paint74_linear" x1="65.9837" y1="79.023" x2="67.6186" y2="79.023" gradientUnits="userSpaceOnUse">
<stop stop-color="#CE9F55"/>
<stop offset="1" stop-color="#DCBC81"/>
</linearGradient>
<linearGradient id="paint75_linear" x1="65.9837" y1="77.9722" x2="67.6186" y2="77.9722" gradientUnits="userSpaceOnUse">
<stop stop-color="#CE9F55"/>
<stop offset="1" stop-color="#DCBC81"/>
</linearGradient>
<linearGradient id="paint76_linear" x1="64.3132" y1="15.8355" x2="64.3132" y2="88.3298" gradientUnits="userSpaceOnUse">
<stop stop-color="#D3DAED"/>
<stop offset="1" stop-color="#99A7D8"/>
</linearGradient>
<linearGradient id="paint77_linear" x1="64.5655" y1="105.042" x2="67.2768" y2="105.041" gradientUnits="userSpaceOnUse">
<stop stop-color="#CE9F55"/>
<stop offset="1" stop-color="#DCBC81"/>
</linearGradient>
<linearGradient id="paint78_linear" x1="63.1815" y1="80.5425" x2="64.9332" y2="80.5425" gradientUnits="userSpaceOnUse">
<stop stop-color="#CE9F55"/>
<stop offset="1" stop-color="#DCBC81"/>
</linearGradient>
<linearGradient id="paint79_linear" x1="63.1815" y1="79.6084" x2="64.9332" y2="79.6084" gradientUnits="userSpaceOnUse">
<stop stop-color="#CE9F55"/>
<stop offset="1" stop-color="#DCBC81"/>
</linearGradient>
<linearGradient id="paint80_linear" x1="61.3591" y1="17.4717" x2="61.3591" y2="89.966" gradientUnits="userSpaceOnUse">
<stop stop-color="#D3DAED"/>
<stop offset="1" stop-color="#99A7D8"/>
</linearGradient>
<linearGradient id="paint81_linear" x1="61.6344" y1="106.678" x2="64.5922" y2="106.678" gradientUnits="userSpaceOnUse">
<stop stop-color="#CE9F55"/>
<stop offset="1" stop-color="#DCBC81"/>
</linearGradient>
<linearGradient id="paint82_linear" x1="60.3792" y1="82.1782" x2="62.1309" y2="82.1782" gradientUnits="userSpaceOnUse">
<stop stop-color="#CE9F55"/>
<stop offset="1" stop-color="#DCBC81"/>
</linearGradient>
<linearGradient id="paint83_linear" x1="60.3792" y1="81.2441" x2="62.1309" y2="81.2441" gradientUnits="userSpaceOnUse">
<stop stop-color="#CE9F55"/>
<stop offset="1" stop-color="#DCBC81"/>
</linearGradient>
<linearGradient id="paint84_linear" x1="58.5568" y1="18.9818" x2="58.5568" y2="91.6214" gradientUnits="userSpaceOnUse">
<stop stop-color="#D3DAED"/>
<stop offset="1" stop-color="#99A7D8"/>
</linearGradient>
<linearGradient id="paint85_linear" x1="58.8322" y1="108.131" x2="61.7899" y2="108.13" gradientUnits="userSpaceOnUse">
<stop stop-color="#CE9F55"/>
<stop offset="1" stop-color="#DCBC81"/>
</linearGradient>
<linearGradient id="paint86_linear" x1="57.6936" y1="83.8145" x2="59.3286" y2="83.8145" gradientUnits="userSpaceOnUse">
<stop stop-color="#CE9F55"/>
<stop offset="1" stop-color="#DCBC81"/>
</linearGradient>
<linearGradient id="paint87_linear" x1="57.6936" y1="82.8804" x2="59.3286" y2="82.8804" gradientUnits="userSpaceOnUse">
<stop stop-color="#CE9F55"/>
<stop offset="1" stop-color="#DCBC81"/>
</linearGradient>
<linearGradient id="paint88_linear" x1="56.0231" y1="20.6186" x2="56.0231" y2="93.2581" gradientUnits="userSpaceOnUse">
<stop stop-color="#D3DAED"/>
<stop offset="1" stop-color="#99A7D8"/>
</linearGradient>
<linearGradient id="paint89_linear" x1="56.2755" y1="109.833" x2="58.9868" y2="109.833" gradientUnits="userSpaceOnUse">
<stop stop-color="#CE9F55"/>
<stop offset="1" stop-color="#DCBC81"/>
</linearGradient>
<linearGradient id="paint90_linear" x1="54.8909" y1="85.4502" x2="56.5258" y2="85.4502" gradientUnits="userSpaceOnUse">
<stop stop-color="#CE9F55"/>
<stop offset="1" stop-color="#DCBC81"/>
</linearGradient>
<linearGradient id="paint91_linear" x1="54.8909" y1="84.5162" x2="56.5258" y2="84.5162" gradientUnits="userSpaceOnUse">
<stop stop-color="#CE9F55"/>
<stop offset="1" stop-color="#DCBC81"/>
</linearGradient>
<linearGradient id="paint92_linear" x1="53.2204" y1="22.2632" x2="53.2204" y2="94.7575" gradientUnits="userSpaceOnUse">
<stop stop-color="#D3DAED"/>
<stop offset="1" stop-color="#99A7D8"/>
</linearGradient>
<linearGradient id="paint93_linear" x1="53.4728" y1="111.469" x2="56.1841" y2="111.469" gradientUnits="userSpaceOnUse">
<stop stop-color="#CE9F55"/>
<stop offset="1" stop-color="#DCBC81"/>
</linearGradient>
<linearGradient id="paint94_linear" x1="52.0892" y1="87.086" x2="53.7241" y2="87.086" gradientUnits="userSpaceOnUse">
<stop stop-color="#CE9F55"/>
<stop offset="1" stop-color="#DCBC81"/>
</linearGradient>
<linearGradient id="paint95_linear" x1="52.0892" y1="86.0352" x2="53.7241" y2="86.0352" gradientUnits="userSpaceOnUse">
<stop stop-color="#CE9F55"/>
<stop offset="1" stop-color="#DCBC81"/>
</linearGradient>
<linearGradient id="paint96_linear" x1="50.4186" y1="23.899" x2="50.4186" y2="96.3932" gradientUnits="userSpaceOnUse">
<stop stop-color="#D3DAED"/>
<stop offset="1" stop-color="#99A7D8"/>
</linearGradient>
<linearGradient id="paint97_linear" x1="50.671" y1="113.105" x2="53.3823" y2="113.105" gradientUnits="userSpaceOnUse">
<stop stop-color="#CE9F55"/>
<stop offset="1" stop-color="#DCBC81"/>
</linearGradient>
<linearGradient id="paint98_linear" x1="49.2864" y1="88.6054" x2="50.9213" y2="88.6054" gradientUnits="userSpaceOnUse">
<stop stop-color="#CE9F55"/>
<stop offset="1" stop-color="#DCBC81"/>
</linearGradient>
<linearGradient id="paint99_linear" x1="49.2864" y1="87.6714" x2="50.9213" y2="87.6714" gradientUnits="userSpaceOnUse">
<stop stop-color="#CE9F55"/>
<stop offset="1" stop-color="#DCBC81"/>
</linearGradient>
<linearGradient id="paint100_linear" x1="47.6159" y1="25.4096" x2="47.6159" y2="98.0491" gradientUnits="userSpaceOnUse">
<stop stop-color="#D3DAED"/>
<stop offset="1" stop-color="#99A7D8"/>
</linearGradient>
<linearGradient id="paint101_linear" x1="47.8683" y1="114.742" x2="50.5796" y2="114.741" gradientUnits="userSpaceOnUse">
<stop stop-color="#CE9F55"/>
<stop offset="1" stop-color="#DCBC81"/>
</linearGradient>
<linearGradient id="paint102_linear" x1="46.4842" y1="90.2412" x2="48.1191" y2="90.2412" gradientUnits="userSpaceOnUse">
<stop stop-color="#CE9F55"/>
<stop offset="1" stop-color="#DCBC81"/>
</linearGradient>
<linearGradient id="paint103_linear" x1="46.4842" y1="89.3072" x2="48.1191" y2="89.3072" gradientUnits="userSpaceOnUse">
<stop stop-color="#CE9F55"/>
<stop offset="1" stop-color="#DCBC81"/>
</linearGradient>
<linearGradient id="paint104_linear" x1="44.8137" y1="27.0453" x2="44.8137" y2="99.6849" gradientUnits="userSpaceOnUse">
<stop stop-color="#D3DAED"/>
<stop offset="1" stop-color="#99A7D8"/>
</linearGradient>
<linearGradient id="paint105_linear" x1="45.066" y1="116.194" x2="47.7773" y2="116.194" gradientUnits="userSpaceOnUse">
<stop stop-color="#CE9F55"/>
<stop offset="1" stop-color="#DCBC81"/>
</linearGradient>
<linearGradient id="paint106_linear" x1="29.2029" y1="84.165" x2="30.8379" y2="84.165" gradientUnits="userSpaceOnUse">
<stop stop-color="#CE9F55"/>
<stop offset="1" stop-color="#DCBC81"/>
</linearGradient>
<linearGradient id="paint107_linear" x1="29.2029" y1="83.231" x2="30.8379" y2="83.231" gradientUnits="userSpaceOnUse">
<stop stop-color="#CE9F55"/>
<stop offset="1" stop-color="#DCBC81"/>
</linearGradient>
<linearGradient id="paint108_linear" x1="27.883" y1="20.9687" x2="27.883" y2="93.6082" gradientUnits="userSpaceOnUse">
<stop stop-color="#D3DAED"/>
<stop offset="1" stop-color="#99A7D8"/>
</linearGradient>
<linearGradient id="paint109_linear" x1="28.1354" y1="110.184" x2="30.8467" y2="110.184" gradientUnits="userSpaceOnUse">
<stop stop-color="#CE9F55"/>
<stop offset="1" stop-color="#DCBC81"/>
</linearGradient>
<linearGradient id="paint110_linear" x1="32.0052" y1="85.8008" x2="33.6401" y2="85.8008" gradientUnits="userSpaceOnUse">
<stop stop-color="#CE9F55"/>
<stop offset="1" stop-color="#DCBC81"/>
</linearGradient>
<linearGradient id="paint111_linear" x1="32.0052" y1="84.8668" x2="33.6401" y2="84.8668" gradientUnits="userSpaceOnUse">
<stop stop-color="#CE9F55"/>
<stop offset="1" stop-color="#DCBC81"/>
</linearGradient>
<linearGradient id="paint112_linear" x1="30.6852" y1="22.6049" x2="30.6852" y2="95.2444" gradientUnits="userSpaceOnUse">
<stop stop-color="#D3DAED"/>
<stop offset="1" stop-color="#99A7D8"/>
</linearGradient>
<linearGradient id="paint113_linear" x1="30.9376" y1="111.82" x2="33.6489" y2="111.819" gradientUnits="userSpaceOnUse">
<stop stop-color="#CE9F55"/>
<stop offset="1" stop-color="#DCBC81"/>
</linearGradient>
<linearGradient id="paint114_linear" x1="34.8079" y1="87.437" x2="36.4428" y2="87.437" gradientUnits="userSpaceOnUse">
<stop stop-color="#CE9F55"/>
<stop offset="1" stop-color="#DCBC81"/>
</linearGradient>
<linearGradient id="paint115_linear" x1="34.8079" y1="86.3862" x2="36.4428" y2="86.3862" gradientUnits="userSpaceOnUse">
<stop stop-color="#CE9F55"/>
<stop offset="1" stop-color="#DCBC81"/>
</linearGradient>
<linearGradient id="paint116_linear" x1="33.4875" y1="24.2501" x2="33.4875" y2="96.7443" gradientUnits="userSpaceOnUse">
<stop stop-color="#D3DAED"/>
<stop offset="1" stop-color="#99A7D8"/>
</linearGradient>
<linearGradient id="paint117_linear" x1="33.7399" y1="113.456" x2="36.4511" y2="113.455" gradientUnits="userSpaceOnUse">
<stop stop-color="#CE9F55"/>
<stop offset="1" stop-color="#DCBC81"/>
</linearGradient>
<linearGradient id="paint118_linear" x1="37.493" y1="88.956" x2="39.2447" y2="88.956" gradientUnits="userSpaceOnUse">
<stop stop-color="#CE9F55"/>
<stop offset="1" stop-color="#DCBC81"/>
</linearGradient>
<linearGradient id="paint119_linear" x1="37.493" y1="88.022" x2="39.2447" y2="88.022" gradientUnits="userSpaceOnUse">
<stop stop-color="#CE9F55"/>
<stop offset="1" stop-color="#DCBC81"/>
</linearGradient>
<linearGradient id="paint120_linear" x1="36.0212" y1="25.8858" x2="36.0212" y2="98.3801" gradientUnits="userSpaceOnUse">
<stop stop-color="#D3DAED"/>
<stop offset="1" stop-color="#99A7D8"/>
</linearGradient>
<linearGradient id="paint121_linear" x1="36.2965" y1="114.975" x2="39.2543" y2="114.974" gradientUnits="userSpaceOnUse">
<stop stop-color="#CE9F55"/>
<stop offset="1" stop-color="#DCBC81"/>
</linearGradient>
<linearGradient id="paint122_linear" x1="40.2957" y1="90.5923" x2="41.9306" y2="90.5923" gradientUnits="userSpaceOnUse">
<stop stop-color="#CE9F55"/>
<stop offset="1" stop-color="#DCBC81"/>
</linearGradient>
<linearGradient id="paint123_linear" x1="40.2957" y1="89.6582" x2="41.9306" y2="89.6582" gradientUnits="userSpaceOnUse">
<stop stop-color="#CE9F55"/>
<stop offset="1" stop-color="#DCBC81"/>
</linearGradient>
<linearGradient id="paint124_linear" x1="38.9758" y1="27.3959" x2="38.9758" y2="100.035" gradientUnits="userSpaceOnUse">
<stop stop-color="#D3DAED"/>
<stop offset="1" stop-color="#99A7D8"/>
</linearGradient>
<linearGradient id="paint125_linear" x1="39.2281" y1="116.611" x2="41.9394" y2="116.611" gradientUnits="userSpaceOnUse">
<stop stop-color="#CE9F55"/>
<stop offset="1" stop-color="#DCBC81"/>
</linearGradient>
<linearGradient id="paint126_linear" x1="59.9181" y1="113.638" x2="94.018" y2="113.638" gradientUnits="userSpaceOnUse">
<stop stop-color="#CE9F55"/>
<stop offset="1" stop-color="#DCBC81"/>
</linearGradient>
</defs>
</svg>
